G04 #@! TF.GenerationSoftware,KiCad,Pcbnew,5.1.7-a382d34a8~87~ubuntu18.04.1*
G04 #@! TF.CreationDate,2020-11-20T13:51:52+01:00*
G04 #@! TF.ProjectId,clumsyMIDI,636c756d-7379-44d4-9944-492e6b696361,rev?*
G04 #@! TF.SameCoordinates,Original*
G04 #@! TF.FileFunction,Legend,Top*
G04 #@! TF.FilePolarity,Positive*
%FSLAX46Y46*%
G04 Gerber Fmt 4.6, Leading zero omitted, Abs format (unit mm)*
G04 Created by KiCad (PCBNEW 5.1.7-a382d34a8~87~ubuntu18.04.1) date 2020-11-20 13:51:52*
%MOMM*%
%LPD*%
G01*
G04 APERTURE LIST*
%ADD10C,0.150000*%
%ADD11C,0.100000*%
%ADD12C,0.120000*%
G04 APERTURE END LIST*
D10*
X215882380Y-114372380D02*
X214882380Y-114372380D01*
X215596666Y-114039047D01*
X214882380Y-113705714D01*
X215882380Y-113705714D01*
X215882380Y-113229523D02*
X214882380Y-113229523D01*
X215882380Y-112753333D02*
X214882380Y-112753333D01*
X214882380Y-112515238D01*
X214930000Y-112372380D01*
X215025238Y-112277142D01*
X215120476Y-112229523D01*
X215310952Y-112181904D01*
X215453809Y-112181904D01*
X215644285Y-112229523D01*
X215739523Y-112277142D01*
X215834761Y-112372380D01*
X215882380Y-112515238D01*
X215882380Y-112753333D01*
X215882380Y-111753333D02*
X214882380Y-111753333D01*
X214882380Y-110324761D02*
X214882380Y-110134285D01*
X214930000Y-110039047D01*
X215025238Y-109943809D01*
X215215714Y-109896190D01*
X215549047Y-109896190D01*
X215739523Y-109943809D01*
X215834761Y-110039047D01*
X215882380Y-110134285D01*
X215882380Y-110324761D01*
X215834761Y-110420000D01*
X215739523Y-110515238D01*
X215549047Y-110562857D01*
X215215714Y-110562857D01*
X215025238Y-110515238D01*
X214930000Y-110420000D01*
X214882380Y-110324761D01*
X215215714Y-109039047D02*
X215882380Y-109039047D01*
X215215714Y-109467619D02*
X215739523Y-109467619D01*
X215834761Y-109420000D01*
X215882380Y-109324761D01*
X215882380Y-109181904D01*
X215834761Y-109086666D01*
X215787142Y-109039047D01*
X215215714Y-108705714D02*
X215215714Y-108324761D01*
X214882380Y-108562857D02*
X215739523Y-108562857D01*
X215834761Y-108515238D01*
X215882380Y-108420000D01*
X215882380Y-108324761D01*
X215712380Y-135280952D02*
X214712380Y-135280952D01*
X215426666Y-134947619D01*
X214712380Y-134614285D01*
X215712380Y-134614285D01*
X215712380Y-134138095D02*
X214712380Y-134138095D01*
X215712380Y-133661904D02*
X214712380Y-133661904D01*
X214712380Y-133423809D01*
X214760000Y-133280952D01*
X214855238Y-133185714D01*
X214950476Y-133138095D01*
X215140952Y-133090476D01*
X215283809Y-133090476D01*
X215474285Y-133138095D01*
X215569523Y-133185714D01*
X215664761Y-133280952D01*
X215712380Y-133423809D01*
X215712380Y-133661904D01*
X215712380Y-132661904D02*
X214712380Y-132661904D01*
X215712380Y-131423809D02*
X214712380Y-131423809D01*
X215045714Y-130947619D02*
X215712380Y-130947619D01*
X215140952Y-130947619D02*
X215093333Y-130900000D01*
X215045714Y-130804761D01*
X215045714Y-130661904D01*
X215093333Y-130566666D01*
X215188571Y-130519047D01*
X215712380Y-130519047D01*
X255800000Y-117000000D02*
G75*
G03*
X255800000Y-117000000I-1200000J0D01*
G01*
X255941641Y-117000000D02*
G75*
G03*
X255941641Y-117000000I-1341641J0D01*
G01*
X222950000Y-147600000D02*
G75*
G03*
X222950000Y-147600000I-1150000J0D01*
G01*
X223100000Y-147600000D02*
G75*
G03*
X223100000Y-147600000I-1300000J0D01*
G01*
X217111904Y-144878571D02*
X216311904Y-144878571D01*
X217111904Y-144421428D01*
X216311904Y-144421428D01*
X217035714Y-143583333D02*
X217073809Y-143621428D01*
X217111904Y-143735714D01*
X217111904Y-143811904D01*
X217073809Y-143926190D01*
X216997619Y-144002380D01*
X216921428Y-144040476D01*
X216769047Y-144078571D01*
X216654761Y-144078571D01*
X216502380Y-144040476D01*
X216426190Y-144002380D01*
X216350000Y-143926190D01*
X216311904Y-143811904D01*
X216311904Y-143735714D01*
X216350000Y-143621428D01*
X216388095Y-143583333D01*
X212111904Y-144878571D02*
X211311904Y-144878571D01*
X212111904Y-144421428D01*
X211311904Y-144421428D01*
X212035714Y-143583333D02*
X212073809Y-143621428D01*
X212111904Y-143735714D01*
X212111904Y-143811904D01*
X212073809Y-143926190D01*
X211997619Y-144002380D01*
X211921428Y-144040476D01*
X211769047Y-144078571D01*
X211654761Y-144078571D01*
X211502380Y-144040476D01*
X211426190Y-144002380D01*
X211350000Y-143926190D01*
X211311904Y-143811904D01*
X211311904Y-143735714D01*
X211350000Y-143621428D01*
X211388095Y-143583333D01*
X238632476Y-143086380D02*
X238632476Y-142086380D01*
X239061047Y-142181619D02*
X239108666Y-142134000D01*
X239203904Y-142086380D01*
X239442000Y-142086380D01*
X239537238Y-142134000D01*
X239584857Y-142181619D01*
X239632476Y-142276857D01*
X239632476Y-142372095D01*
X239584857Y-142514952D01*
X239013428Y-143086380D01*
X239632476Y-143086380D01*
X240013428Y-143038761D02*
X240156285Y-143086380D01*
X240394380Y-143086380D01*
X240489619Y-143038761D01*
X240537238Y-142991142D01*
X240584857Y-142895904D01*
X240584857Y-142800666D01*
X240537238Y-142705428D01*
X240489619Y-142657809D01*
X240394380Y-142610190D01*
X240203904Y-142562571D01*
X240108666Y-142514952D01*
X240061047Y-142467333D01*
X240013428Y-142372095D01*
X240013428Y-142276857D01*
X240061047Y-142181619D01*
X240108666Y-142134000D01*
X240203904Y-142086380D01*
X240442000Y-142086380D01*
X240584857Y-142134000D01*
X241775333Y-143086380D02*
X241775333Y-142086380D01*
X242013428Y-142086380D01*
X242156285Y-142134000D01*
X242251523Y-142229238D01*
X242299142Y-142324476D01*
X242346761Y-142514952D01*
X242346761Y-142657809D01*
X242299142Y-142848285D01*
X242251523Y-142943523D01*
X242156285Y-143038761D01*
X242013428Y-143086380D01*
X241775333Y-143086380D01*
X242727714Y-142800666D02*
X243203904Y-142800666D01*
X242632476Y-143086380D02*
X242965809Y-142086380D01*
X243299142Y-143086380D01*
X244203904Y-142991142D02*
X244156285Y-143038761D01*
X244013428Y-143086380D01*
X243918190Y-143086380D01*
X243775333Y-143038761D01*
X243680095Y-142943523D01*
X243632476Y-142848285D01*
X243584857Y-142657809D01*
X243584857Y-142514952D01*
X243632476Y-142324476D01*
X243680095Y-142229238D01*
X243775333Y-142134000D01*
X243918190Y-142086380D01*
X244013428Y-142086380D01*
X244156285Y-142134000D01*
X244203904Y-142181619D01*
X245727714Y-142562571D02*
X245870571Y-142610190D01*
X245918190Y-142657809D01*
X245965809Y-142753047D01*
X245965809Y-142895904D01*
X245918190Y-142991142D01*
X245870571Y-143038761D01*
X245775333Y-143086380D01*
X245394380Y-143086380D01*
X245394380Y-142086380D01*
X245727714Y-142086380D01*
X245822952Y-142134000D01*
X245870571Y-142181619D01*
X245918190Y-142276857D01*
X245918190Y-142372095D01*
X245870571Y-142467333D01*
X245822952Y-142514952D01*
X245727714Y-142562571D01*
X245394380Y-142562571D01*
X246537238Y-143086380D02*
X246442000Y-143038761D01*
X246394380Y-142991142D01*
X246346761Y-142895904D01*
X246346761Y-142610190D01*
X246394380Y-142514952D01*
X246442000Y-142467333D01*
X246537238Y-142419714D01*
X246680095Y-142419714D01*
X246775333Y-142467333D01*
X246822952Y-142514952D01*
X246870571Y-142610190D01*
X246870571Y-142895904D01*
X246822952Y-142991142D01*
X246775333Y-143038761D01*
X246680095Y-143086380D01*
X246537238Y-143086380D01*
X247727714Y-143086380D02*
X247727714Y-142562571D01*
X247680095Y-142467333D01*
X247584857Y-142419714D01*
X247394380Y-142419714D01*
X247299142Y-142467333D01*
X247727714Y-143038761D02*
X247632476Y-143086380D01*
X247394380Y-143086380D01*
X247299142Y-143038761D01*
X247251523Y-142943523D01*
X247251523Y-142848285D01*
X247299142Y-142753047D01*
X247394380Y-142705428D01*
X247632476Y-142705428D01*
X247727714Y-142657809D01*
X248203904Y-143086380D02*
X248203904Y-142419714D01*
X248203904Y-142610190D02*
X248251523Y-142514952D01*
X248299142Y-142467333D01*
X248394380Y-142419714D01*
X248489619Y-142419714D01*
X249251523Y-143086380D02*
X249251523Y-142086380D01*
X249251523Y-143038761D02*
X249156285Y-143086380D01*
X248965809Y-143086380D01*
X248870571Y-143038761D01*
X248822952Y-142991142D01*
X248775333Y-142895904D01*
X248775333Y-142610190D01*
X248822952Y-142514952D01*
X248870571Y-142467333D01*
X248965809Y-142419714D01*
X249156285Y-142419714D01*
X249251523Y-142467333D01*
X219502380Y-133347047D02*
X219502380Y-133918476D01*
X219502380Y-133632761D02*
X218502380Y-133632761D01*
X218645238Y-133728000D01*
X218740476Y-133823238D01*
X218788095Y-133918476D01*
X218502380Y-132728000D02*
X218502380Y-132632761D01*
X218550000Y-132537523D01*
X218597619Y-132489904D01*
X218692857Y-132442285D01*
X218883333Y-132394666D01*
X219121428Y-132394666D01*
X219311904Y-132442285D01*
X219407142Y-132489904D01*
X219454761Y-132537523D01*
X219502380Y-132632761D01*
X219502380Y-132728000D01*
X219454761Y-132823238D01*
X219407142Y-132870857D01*
X219311904Y-132918476D01*
X219121428Y-132966095D01*
X218883333Y-132966095D01*
X218692857Y-132918476D01*
X218597619Y-132870857D01*
X218550000Y-132823238D01*
X218502380Y-132728000D01*
X218502380Y-132108952D02*
X219502380Y-131775619D01*
X218502380Y-131442285D01*
X232274190Y-131275428D02*
X231512285Y-131275428D01*
X231702761Y-131465904D02*
X231512285Y-131275428D01*
X231702761Y-131084952D01*
X233274190Y-131656380D02*
X232702761Y-131656380D01*
X232988476Y-131656380D02*
X232988476Y-130656380D01*
X232893238Y-130799238D01*
X232798000Y-130894476D01*
X232702761Y-130942095D01*
X233702761Y-131656380D02*
X233702761Y-130656380D01*
X234274190Y-131656380D01*
X234274190Y-130656380D01*
X235178952Y-130989714D02*
X235178952Y-131656380D01*
X234940857Y-130608761D02*
X234702761Y-131323047D01*
X235321809Y-131323047D01*
X236226571Y-131656380D02*
X235655142Y-131656380D01*
X235940857Y-131656380D02*
X235940857Y-130656380D01*
X235845619Y-130799238D01*
X235750380Y-130894476D01*
X235655142Y-130942095D01*
X237083714Y-130989714D02*
X237083714Y-131656380D01*
X236845619Y-130608761D02*
X236607523Y-131323047D01*
X237226571Y-131323047D01*
X237750380Y-131084952D02*
X237655142Y-131037333D01*
X237607523Y-130989714D01*
X237559904Y-130894476D01*
X237559904Y-130846857D01*
X237607523Y-130751619D01*
X237655142Y-130704000D01*
X237750380Y-130656380D01*
X237940857Y-130656380D01*
X238036095Y-130704000D01*
X238083714Y-130751619D01*
X238131333Y-130846857D01*
X238131333Y-130894476D01*
X238083714Y-130989714D01*
X238036095Y-131037333D01*
X237940857Y-131084952D01*
X237750380Y-131084952D01*
X237655142Y-131132571D01*
X237607523Y-131180190D01*
X237559904Y-131275428D01*
X237559904Y-131465904D01*
X237607523Y-131561142D01*
X237655142Y-131608761D01*
X237750380Y-131656380D01*
X237940857Y-131656380D01*
X238036095Y-131608761D01*
X238083714Y-131561142D01*
X238131333Y-131465904D01*
X238131333Y-131275428D01*
X238083714Y-131180190D01*
X238036095Y-131132571D01*
X237940857Y-131084952D01*
D11*
X223655857Y-147186785D02*
X223655857Y-146436785D01*
X223905857Y-146972500D01*
X224155857Y-146436785D01*
X224155857Y-147186785D01*
X224513000Y-147186785D02*
X224513000Y-146436785D01*
X224870142Y-147186785D02*
X224870142Y-146436785D01*
X225048714Y-146436785D01*
X225155857Y-146472500D01*
X225227285Y-146543928D01*
X225263000Y-146615357D01*
X225298714Y-146758214D01*
X225298714Y-146865357D01*
X225263000Y-147008214D01*
X225227285Y-147079642D01*
X225155857Y-147151071D01*
X225048714Y-147186785D01*
X224870142Y-147186785D01*
X225620142Y-147186785D02*
X225620142Y-146436785D01*
X223513000Y-147661785D02*
X223941571Y-147661785D01*
X223727285Y-148411785D02*
X223727285Y-147661785D01*
X224191571Y-148411785D02*
X224191571Y-147661785D01*
X224513000Y-148411785D02*
X224513000Y-148018928D01*
X224477285Y-147947500D01*
X224405857Y-147911785D01*
X224298714Y-147911785D01*
X224227285Y-147947500D01*
X224191571Y-147983214D01*
X224870142Y-148411785D02*
X224870142Y-147911785D01*
X224870142Y-148054642D02*
X224905857Y-147983214D01*
X224941571Y-147947500D01*
X225013000Y-147911785D01*
X225084428Y-147911785D01*
X225655857Y-147911785D02*
X225655857Y-148411785D01*
X225334428Y-147911785D02*
X225334428Y-148304642D01*
X225370142Y-148376071D01*
X225441571Y-148411785D01*
X225548714Y-148411785D01*
X225620142Y-148376071D01*
X225655857Y-148340357D01*
X222022571Y-145271285D02*
X221665428Y-145271285D01*
X221629714Y-145628428D01*
X221665428Y-145592714D01*
X221736857Y-145557000D01*
X221915428Y-145557000D01*
X221986857Y-145592714D01*
X222022571Y-145628428D01*
X222058285Y-145699857D01*
X222058285Y-145878428D01*
X222022571Y-145949857D01*
X221986857Y-145985571D01*
X221915428Y-146021285D01*
X221736857Y-146021285D01*
X221665428Y-145985571D01*
X221629714Y-145949857D01*
X219446857Y-145521285D02*
X219446857Y-146021285D01*
X219268285Y-145235571D02*
X219089714Y-145771285D01*
X219554000Y-145771285D01*
X216514000Y-145271285D02*
X216978285Y-145271285D01*
X216728285Y-145557000D01*
X216835428Y-145557000D01*
X216906857Y-145592714D01*
X216942571Y-145628428D01*
X216978285Y-145699857D01*
X216978285Y-145878428D01*
X216942571Y-145949857D01*
X216906857Y-145985571D01*
X216835428Y-146021285D01*
X216621142Y-146021285D01*
X216549714Y-145985571D01*
X216514000Y-145949857D01*
X214009714Y-145342714D02*
X214045428Y-145307000D01*
X214116857Y-145271285D01*
X214295428Y-145271285D01*
X214366857Y-145307000D01*
X214402571Y-145342714D01*
X214438285Y-145414142D01*
X214438285Y-145485571D01*
X214402571Y-145592714D01*
X213974000Y-146021285D01*
X214438285Y-146021285D01*
X211898285Y-146021285D02*
X211469714Y-146021285D01*
X211684000Y-146021285D02*
X211684000Y-145271285D01*
X211612571Y-145378428D01*
X211541142Y-145449857D01*
X211469714Y-145485571D01*
X208376142Y-145154785D02*
X208376142Y-144404785D01*
X208554714Y-144404785D01*
X208661857Y-144440500D01*
X208733285Y-144511928D01*
X208769000Y-144583357D01*
X208804714Y-144726214D01*
X208804714Y-144833357D01*
X208769000Y-144976214D01*
X208733285Y-145047642D01*
X208661857Y-145119071D01*
X208554714Y-145154785D01*
X208376142Y-145154785D01*
X209126142Y-145154785D02*
X209126142Y-144404785D01*
X209483285Y-145154785D02*
X209483285Y-144404785D01*
X209911857Y-145154785D01*
X209911857Y-144404785D01*
X207769000Y-146379785D02*
X207769000Y-145629785D01*
X208054714Y-145629785D01*
X208126142Y-145665500D01*
X208161857Y-145701214D01*
X208197571Y-145772642D01*
X208197571Y-145879785D01*
X208161857Y-145951214D01*
X208126142Y-145986928D01*
X208054714Y-146022642D01*
X207769000Y-146022642D01*
X208519000Y-146379785D02*
X208519000Y-145879785D01*
X208519000Y-145629785D02*
X208483285Y-145665500D01*
X208519000Y-145701214D01*
X208554714Y-145665500D01*
X208519000Y-145629785D01*
X208519000Y-145701214D01*
X208876142Y-145879785D02*
X208876142Y-146379785D01*
X208876142Y-145951214D02*
X208911857Y-145915500D01*
X208983285Y-145879785D01*
X209090428Y-145879785D01*
X209161857Y-145915500D01*
X209197571Y-145986928D01*
X209197571Y-146379785D01*
X210090428Y-145879785D02*
X210626142Y-145879785D01*
X210304714Y-145558357D02*
X210090428Y-146522642D01*
X210554714Y-146201214D02*
X210019000Y-146201214D01*
X210340428Y-146522642D02*
X210554714Y-145558357D01*
D10*
X231297714Y-104430761D02*
X231440571Y-104478380D01*
X231678666Y-104478380D01*
X231773904Y-104430761D01*
X231821523Y-104383142D01*
X231869142Y-104287904D01*
X231869142Y-104192666D01*
X231821523Y-104097428D01*
X231773904Y-104049809D01*
X231678666Y-104002190D01*
X231488190Y-103954571D01*
X231392952Y-103906952D01*
X231345333Y-103859333D01*
X231297714Y-103764095D01*
X231297714Y-103668857D01*
X231345333Y-103573619D01*
X231392952Y-103526000D01*
X231488190Y-103478380D01*
X231726285Y-103478380D01*
X231869142Y-103526000D01*
X232297714Y-104478380D02*
X232297714Y-103478380D01*
X232535809Y-103478380D01*
X232678666Y-103526000D01*
X232773904Y-103621238D01*
X232821523Y-103716476D01*
X232869142Y-103906952D01*
X232869142Y-104049809D01*
X232821523Y-104240285D01*
X232773904Y-104335523D01*
X232678666Y-104430761D01*
X232535809Y-104478380D01*
X232297714Y-104478380D01*
X233250095Y-104192666D02*
X233726285Y-104192666D01*
X233154857Y-104478380D02*
X233488190Y-103478380D01*
X233821523Y-104478380D01*
X231321523Y-106970761D02*
X231464380Y-107018380D01*
X231702476Y-107018380D01*
X231797714Y-106970761D01*
X231845333Y-106923142D01*
X231892952Y-106827904D01*
X231892952Y-106732666D01*
X231845333Y-106637428D01*
X231797714Y-106589809D01*
X231702476Y-106542190D01*
X231512000Y-106494571D01*
X231416761Y-106446952D01*
X231369142Y-106399333D01*
X231321523Y-106304095D01*
X231321523Y-106208857D01*
X231369142Y-106113619D01*
X231416761Y-106066000D01*
X231512000Y-106018380D01*
X231750095Y-106018380D01*
X231892952Y-106066000D01*
X232892952Y-106923142D02*
X232845333Y-106970761D01*
X232702476Y-107018380D01*
X232607238Y-107018380D01*
X232464380Y-106970761D01*
X232369142Y-106875523D01*
X232321523Y-106780285D01*
X232273904Y-106589809D01*
X232273904Y-106446952D01*
X232321523Y-106256476D01*
X232369142Y-106161238D01*
X232464380Y-106066000D01*
X232607238Y-106018380D01*
X232702476Y-106018380D01*
X232845333Y-106066000D01*
X232892952Y-106113619D01*
X233797714Y-107018380D02*
X233321523Y-107018380D01*
X233321523Y-106018380D01*
X231827261Y-108558380D02*
X231351071Y-108558380D01*
X231303452Y-109034571D01*
X231351071Y-108986952D01*
X231446309Y-108939333D01*
X231684404Y-108939333D01*
X231779642Y-108986952D01*
X231827261Y-109034571D01*
X231874880Y-109129809D01*
X231874880Y-109367904D01*
X231827261Y-109463142D01*
X231779642Y-109510761D01*
X231684404Y-109558380D01*
X231446309Y-109558380D01*
X231351071Y-109510761D01*
X231303452Y-109463142D01*
X232160595Y-108558380D02*
X232493928Y-109558380D01*
X232827261Y-108558380D01*
X231750095Y-111146000D02*
X231654857Y-111098380D01*
X231512000Y-111098380D01*
X231369142Y-111146000D01*
X231273904Y-111241238D01*
X231226285Y-111336476D01*
X231178666Y-111526952D01*
X231178666Y-111669809D01*
X231226285Y-111860285D01*
X231273904Y-111955523D01*
X231369142Y-112050761D01*
X231512000Y-112098380D01*
X231607238Y-112098380D01*
X231750095Y-112050761D01*
X231797714Y-112003142D01*
X231797714Y-111669809D01*
X231607238Y-111669809D01*
X232226285Y-112098380D02*
X232226285Y-111098380D01*
X232797714Y-112098380D01*
X232797714Y-111098380D01*
X233273904Y-112098380D02*
X233273904Y-111098380D01*
X233512000Y-111098380D01*
X233654857Y-111146000D01*
X233750095Y-111241238D01*
X233797714Y-111336476D01*
X233845333Y-111526952D01*
X233845333Y-111669809D01*
X233797714Y-111860285D01*
X233750095Y-111955523D01*
X233654857Y-112050761D01*
X233512000Y-112098380D01*
X233273904Y-112098380D01*
X237744190Y-107986761D02*
X237887047Y-108034380D01*
X238125142Y-108034380D01*
X238220380Y-107986761D01*
X238267999Y-107939142D01*
X238315619Y-107843904D01*
X238315619Y-107748666D01*
X238267999Y-107653428D01*
X238220380Y-107605809D01*
X238125142Y-107558190D01*
X237934666Y-107510571D01*
X237839428Y-107462952D01*
X237791809Y-107415333D01*
X237744190Y-107320095D01*
X237744190Y-107224857D01*
X237791809Y-107129619D01*
X237839428Y-107082000D01*
X237934666Y-107034380D01*
X238172761Y-107034380D01*
X238315619Y-107082000D01*
X238696571Y-107986761D02*
X238839428Y-108034380D01*
X239077523Y-108034380D01*
X239172761Y-107986761D01*
X239220380Y-107939142D01*
X239267999Y-107843904D01*
X239267999Y-107748666D01*
X239220380Y-107653428D01*
X239172761Y-107605809D01*
X239077523Y-107558190D01*
X238887047Y-107510571D01*
X238791809Y-107462952D01*
X238744190Y-107415333D01*
X238696571Y-107320095D01*
X238696571Y-107224857D01*
X238744190Y-107129619D01*
X238791809Y-107082000D01*
X238887047Y-107034380D01*
X239125142Y-107034380D01*
X239267999Y-107082000D01*
X239696571Y-108034380D02*
X239696571Y-107034380D01*
X239934666Y-107034380D01*
X240077523Y-107082000D01*
X240172761Y-107177238D01*
X240220380Y-107272476D01*
X240267999Y-107462952D01*
X240267999Y-107605809D01*
X240220380Y-107796285D01*
X240172761Y-107891523D01*
X240077523Y-107986761D01*
X239934666Y-108034380D01*
X239696571Y-108034380D01*
X241220380Y-108034380D02*
X240648952Y-108034380D01*
X240934666Y-108034380D02*
X240934666Y-107034380D01*
X240839428Y-107177238D01*
X240744190Y-107272476D01*
X240648952Y-107320095D01*
X241553714Y-107034380D02*
X242172761Y-107034380D01*
X241839428Y-107415333D01*
X241982285Y-107415333D01*
X242077523Y-107462952D01*
X242125142Y-107510571D01*
X242172761Y-107605809D01*
X242172761Y-107843904D01*
X242125142Y-107939142D01*
X242077523Y-107986761D01*
X241982285Y-108034380D01*
X241696571Y-108034380D01*
X241601333Y-107986761D01*
X241553714Y-107939142D01*
X242791809Y-107034380D02*
X242887047Y-107034380D01*
X242982285Y-107082000D01*
X243029904Y-107129619D01*
X243077523Y-107224857D01*
X243125142Y-107415333D01*
X243125142Y-107653428D01*
X243077523Y-107843904D01*
X243029904Y-107939142D01*
X242982285Y-107986761D01*
X242887047Y-108034380D01*
X242791809Y-108034380D01*
X242696571Y-107986761D01*
X242648952Y-107939142D01*
X242601333Y-107843904D01*
X242553714Y-107653428D01*
X242553714Y-107415333D01*
X242601333Y-107224857D01*
X242648952Y-107129619D01*
X242696571Y-107082000D01*
X242791809Y-107034380D01*
X243982285Y-107034380D02*
X243791809Y-107034380D01*
X243696571Y-107082000D01*
X243648952Y-107129619D01*
X243553714Y-107272476D01*
X243506095Y-107462952D01*
X243506095Y-107843904D01*
X243553714Y-107939142D01*
X243601333Y-107986761D01*
X243696571Y-108034380D01*
X243887047Y-108034380D01*
X243982285Y-107986761D01*
X244029904Y-107939142D01*
X244077523Y-107843904D01*
X244077523Y-107605809D01*
X244029904Y-107510571D01*
X243982285Y-107462952D01*
X243887047Y-107415333D01*
X243696571Y-107415333D01*
X243601333Y-107462952D01*
X243553714Y-107510571D01*
X243506095Y-107605809D01*
X245458476Y-107034380D02*
X245553714Y-107034380D01*
X245648952Y-107082000D01*
X245696571Y-107129619D01*
X245744190Y-107224857D01*
X245791809Y-107415333D01*
X245791809Y-107653428D01*
X245744190Y-107843904D01*
X245696571Y-107939142D01*
X245648952Y-107986761D01*
X245553714Y-108034380D01*
X245458476Y-108034380D01*
X245363238Y-107986761D01*
X245315619Y-107939142D01*
X245267999Y-107843904D01*
X245220380Y-107653428D01*
X245220380Y-107415333D01*
X245267999Y-107224857D01*
X245315619Y-107129619D01*
X245363238Y-107082000D01*
X245458476Y-107034380D01*
X246220380Y-107939142D02*
X246267999Y-107986761D01*
X246220380Y-108034380D01*
X246172761Y-107986761D01*
X246220380Y-107939142D01*
X246220380Y-108034380D01*
X246744190Y-108034380D02*
X246934666Y-108034380D01*
X247029904Y-107986761D01*
X247077523Y-107939142D01*
X247172761Y-107796285D01*
X247220380Y-107605809D01*
X247220380Y-107224857D01*
X247172761Y-107129619D01*
X247125142Y-107082000D01*
X247029904Y-107034380D01*
X246839428Y-107034380D01*
X246744190Y-107082000D01*
X246696571Y-107129619D01*
X246648952Y-107224857D01*
X246648952Y-107462952D01*
X246696571Y-107558190D01*
X246744190Y-107605809D01*
X246839428Y-107653428D01*
X247029904Y-107653428D01*
X247125142Y-107605809D01*
X247172761Y-107558190D01*
X247220380Y-107462952D01*
X248172761Y-108034380D02*
X247601333Y-108034380D01*
X247887047Y-108034380D02*
X247887047Y-107034380D01*
X247791809Y-107177238D01*
X247696571Y-107272476D01*
X247601333Y-107320095D01*
X248553714Y-107034380D02*
X248553714Y-107224857D01*
X248934666Y-107034380D02*
X248934666Y-107224857D01*
X250315619Y-107034380D02*
X250506095Y-107034380D01*
X250601333Y-107082000D01*
X250696571Y-107177238D01*
X250744190Y-107367714D01*
X250744190Y-107701047D01*
X250696571Y-107891523D01*
X250601333Y-107986761D01*
X250506095Y-108034380D01*
X250315619Y-108034380D01*
X250220380Y-107986761D01*
X250125142Y-107891523D01*
X250077523Y-107701047D01*
X250077523Y-107367714D01*
X250125142Y-107177238D01*
X250220380Y-107082000D01*
X250315619Y-107034380D01*
X251648952Y-108034380D02*
X251172761Y-108034380D01*
X251172761Y-107034380D01*
X251982285Y-107510571D02*
X252315619Y-107510571D01*
X252458476Y-108034380D02*
X251982285Y-108034380D01*
X251982285Y-107034380D01*
X252458476Y-107034380D01*
X252887047Y-108034380D02*
X252887047Y-107034380D01*
X253125142Y-107034380D01*
X253267999Y-107082000D01*
X253363238Y-107177238D01*
X253410857Y-107272476D01*
X253458476Y-107462952D01*
X253458476Y-107605809D01*
X253410857Y-107796285D01*
X253363238Y-107891523D01*
X253267999Y-107986761D01*
X253125142Y-108034380D01*
X252887047Y-108034380D01*
X255172761Y-108034380D02*
X254601333Y-108034380D01*
X254887047Y-108034380D02*
X254887047Y-107034380D01*
X254791809Y-107177238D01*
X254696571Y-107272476D01*
X254601333Y-107320095D01*
X255553714Y-107129619D02*
X255601333Y-107082000D01*
X255696571Y-107034380D01*
X255934666Y-107034380D01*
X256029904Y-107082000D01*
X256077523Y-107129619D01*
X256125142Y-107224857D01*
X256125142Y-107320095D01*
X256077523Y-107462952D01*
X255506095Y-108034380D01*
X256125142Y-108034380D01*
X256696571Y-107462952D02*
X256601333Y-107415333D01*
X256553714Y-107367714D01*
X256506095Y-107272476D01*
X256506095Y-107224857D01*
X256553714Y-107129619D01*
X256601333Y-107082000D01*
X256696571Y-107034380D01*
X256887047Y-107034380D01*
X256982285Y-107082000D01*
X257029904Y-107129619D01*
X257077523Y-107224857D01*
X257077523Y-107272476D01*
X257029904Y-107367714D01*
X256982285Y-107415333D01*
X256887047Y-107462952D01*
X256696571Y-107462952D01*
X256601333Y-107510571D01*
X256553714Y-107558190D01*
X256506095Y-107653428D01*
X256506095Y-107843904D01*
X256553714Y-107939142D01*
X256601333Y-107986761D01*
X256696571Y-108034380D01*
X256887047Y-108034380D01*
X256982285Y-107986761D01*
X257029904Y-107939142D01*
X257077523Y-107843904D01*
X257077523Y-107653428D01*
X257029904Y-107558190D01*
X256982285Y-107510571D01*
X256887047Y-107462952D01*
X257410857Y-108034380D02*
X257934666Y-107367714D01*
X257410857Y-107367714D02*
X257934666Y-108034380D01*
X258220380Y-107034380D02*
X258839428Y-107034380D01*
X258506095Y-107415333D01*
X258648952Y-107415333D01*
X258744190Y-107462952D01*
X258791809Y-107510571D01*
X258839428Y-107605809D01*
X258839428Y-107843904D01*
X258791809Y-107939142D01*
X258744190Y-107986761D01*
X258648952Y-108034380D01*
X258363238Y-108034380D01*
X258267999Y-107986761D01*
X258220380Y-107939142D01*
X259220380Y-107129619D02*
X259267999Y-107082000D01*
X259363238Y-107034380D01*
X259601333Y-107034380D01*
X259696571Y-107082000D01*
X259744190Y-107129619D01*
X259791809Y-107224857D01*
X259791809Y-107320095D01*
X259744190Y-107462952D01*
X259172761Y-108034380D01*
X259791809Y-108034380D01*
D12*
X264034000Y-114059000D02*
X264034000Y-101359000D01*
X264034000Y-114059000D02*
X227966000Y-114059000D01*
X227966000Y-114059000D02*
X227966000Y-101359000D01*
X227966000Y-101359000D02*
X264034000Y-101359000D01*
X227888000Y-134364000D02*
G75*
G02*
X229388000Y-132864000I1500000J0D01*
G01*
X229388000Y-149864000D02*
G75*
G02*
X227888000Y-148364000I0J1500000D01*
G01*
X259488000Y-148364000D02*
G75*
G02*
X257988000Y-149864000I-1500000J0D01*
G01*
X257988000Y-132864000D02*
G75*
G02*
X259488000Y-134364000I0J-1500000D01*
G01*
X256588000Y-137364000D02*
X256588000Y-151364000D01*
X251888000Y-137364000D02*
X256588000Y-137364000D01*
X251888000Y-151364000D02*
X251888000Y-137364000D01*
X256588000Y-151364000D02*
X251888000Y-151364000D01*
X259488000Y-148364000D02*
X259488000Y-134364000D01*
X229388000Y-149864000D02*
X257988000Y-149864000D01*
X227888000Y-134364000D02*
X227888000Y-148364000D01*
X257988000Y-132864000D02*
X229388000Y-132864000D01*
X216090000Y-138790000D02*
X216090000Y-142750000D01*
X216090000Y-128810000D02*
X216090000Y-136680000D01*
X216090000Y-142750000D02*
X200160000Y-142750000D01*
X200160000Y-122750000D02*
X200160000Y-142750000D01*
X216090000Y-122750000D02*
X200160000Y-122750000D01*
X216090000Y-122750000D02*
X216090000Y-126710000D01*
X216090000Y-117298000D02*
X216090000Y-121258000D01*
X216090000Y-107318000D02*
X216090000Y-115188000D01*
X216090000Y-121258000D02*
X200160000Y-121258000D01*
X200160000Y-101258000D02*
X200160000Y-121258000D01*
X216090000Y-101258000D02*
X200160000Y-101258000D01*
X216090000Y-101258000D02*
X216090000Y-105218000D01*
X236295000Y-121330000D02*
X235965000Y-121330000D01*
X236295000Y-127870000D02*
X236295000Y-121330000D01*
X235965000Y-127870000D02*
X236295000Y-127870000D01*
X233555000Y-121330000D02*
X233885000Y-121330000D01*
X233555000Y-127870000D02*
X233555000Y-121330000D01*
X233885000Y-127870000D02*
X233555000Y-127870000D01*
X225368000Y-136562000D02*
X225368000Y-136892000D01*
X225368000Y-136892000D02*
X218828000Y-136892000D01*
X218828000Y-136892000D02*
X218828000Y-136562000D01*
X225368000Y-134482000D02*
X225368000Y-134152000D01*
X225368000Y-134152000D02*
X218828000Y-134152000D01*
X218828000Y-134152000D02*
X218828000Y-134482000D01*
X218188000Y-128251000D02*
X218518000Y-128251000D01*
X218188000Y-121711000D02*
X218188000Y-128251000D01*
X218518000Y-121711000D02*
X218188000Y-121711000D01*
X220928000Y-128251000D02*
X220598000Y-128251000D01*
X220928000Y-121711000D02*
X220928000Y-128251000D01*
X220598000Y-121711000D02*
X220928000Y-121711000D01*
X250260000Y-118350000D02*
X250260000Y-118020000D01*
X243720000Y-118350000D02*
X250260000Y-118350000D01*
X243720000Y-118020000D02*
X243720000Y-118350000D01*
X250260000Y-115610000D02*
X250260000Y-115940000D01*
X243720000Y-115610000D02*
X250260000Y-115610000D01*
X243720000Y-115940000D02*
X243720000Y-115610000D01*
X232290000Y-115610000D02*
X232290000Y-115940000D01*
X238830000Y-115610000D02*
X232290000Y-115610000D01*
X238830000Y-115940000D02*
X238830000Y-115610000D01*
X232290000Y-118350000D02*
X232290000Y-118020000D01*
X238830000Y-118350000D02*
X232290000Y-118350000D01*
X238830000Y-118020000D02*
X238830000Y-118350000D01*
X261690000Y-118350000D02*
X261690000Y-118020000D01*
X255150000Y-118350000D02*
X261690000Y-118350000D01*
X255150000Y-118020000D02*
X255150000Y-118350000D01*
X261690000Y-115610000D02*
X261690000Y-115940000D01*
X255150000Y-115610000D02*
X261690000Y-115610000D01*
X255150000Y-115940000D02*
X255150000Y-115610000D01*
X225820000Y-110280000D02*
X225820000Y-112520000D01*
X218580000Y-110280000D02*
X218580000Y-112520000D01*
X218580000Y-112520000D02*
X225820000Y-112520000D01*
X218580000Y-110280000D02*
X225820000Y-110280000D01*
X210354000Y-148917000D02*
X210354000Y-147587000D01*
X211684000Y-148917000D02*
X210354000Y-148917000D01*
X212954000Y-148917000D02*
X212954000Y-146257000D01*
X212954000Y-146257000D02*
X223174000Y-146257000D01*
X212954000Y-148917000D02*
X223174000Y-148917000D01*
X223174000Y-148917000D02*
X223174000Y-146257000D01*
X223054000Y-125600000D02*
X223054000Y-127250000D01*
X223054000Y-127250000D02*
X230794000Y-127250000D01*
X230794000Y-127250000D02*
X230794000Y-121950000D01*
X230794000Y-121950000D02*
X223054000Y-121950000D01*
X223054000Y-121950000D02*
X223054000Y-123600000D01*
X223054000Y-123600000D02*
G75*
G02*
X223054000Y-125600000I0J-1000000D01*
G01*
X256575000Y-123600000D02*
X256575000Y-121950000D01*
X256575000Y-121950000D02*
X238675000Y-121950000D01*
X238675000Y-121950000D02*
X238675000Y-127250000D01*
X238675000Y-127250000D02*
X256575000Y-127250000D01*
X256575000Y-127250000D02*
X256575000Y-125600000D01*
X256575000Y-125600000D02*
G75*
G02*
X256575000Y-123600000I0J1000000D01*
G01*
X224296000Y-130084000D02*
X224296000Y-132324000D01*
X224296000Y-132324000D02*
X228536000Y-132324000D01*
X228536000Y-132324000D02*
X228536000Y-130084000D01*
X228536000Y-130084000D02*
X224296000Y-130084000D01*
X223646000Y-131204000D02*
X224296000Y-131204000D01*
X229186000Y-131204000D02*
X228536000Y-131204000D01*
X225016000Y-130084000D02*
X225016000Y-132324000D01*
X225136000Y-130084000D02*
X225136000Y-132324000D01*
X224896000Y-130084000D02*
X224896000Y-132324000D01*
X260620000Y-120940000D02*
X260620000Y-128180000D01*
X258380000Y-120940000D02*
X258380000Y-128180000D01*
X260620000Y-120940000D02*
X258380000Y-120940000D01*
X260620000Y-128180000D02*
X258380000Y-128180000D01*
X218420000Y-144315241D02*
X219050000Y-144315241D01*
X218735000Y-144630241D02*
X218735000Y-144000241D01*
X220172000Y-137889000D02*
X220976000Y-137889000D01*
X219941000Y-137929000D02*
X221207000Y-137929000D01*
X219772000Y-137969000D02*
X221376000Y-137969000D01*
X219634000Y-138009000D02*
X221514000Y-138009000D01*
X219515000Y-138049000D02*
X221633000Y-138049000D01*
X219409000Y-138089000D02*
X221739000Y-138089000D01*
X219312000Y-138129000D02*
X221836000Y-138129000D01*
X219224000Y-138169000D02*
X221924000Y-138169000D01*
X219142000Y-138209000D02*
X222006000Y-138209000D01*
X219065000Y-138249000D02*
X222083000Y-138249000D01*
X218993000Y-138289000D02*
X222155000Y-138289000D01*
X218924000Y-138329000D02*
X222224000Y-138329000D01*
X218860000Y-138369000D02*
X222288000Y-138369000D01*
X218798000Y-138409000D02*
X222350000Y-138409000D01*
X218740000Y-138449000D02*
X222408000Y-138449000D01*
X218684000Y-138489000D02*
X222464000Y-138489000D01*
X218630000Y-138529000D02*
X222518000Y-138529000D01*
X218579000Y-138569000D02*
X222569000Y-138569000D01*
X218530000Y-138609000D02*
X222618000Y-138609000D01*
X218482000Y-138649000D02*
X222666000Y-138649000D01*
X218437000Y-138689000D02*
X222711000Y-138689000D01*
X218392000Y-138729000D02*
X222756000Y-138729000D01*
X218350000Y-138769000D02*
X222798000Y-138769000D01*
X218309000Y-138809000D02*
X222839000Y-138809000D01*
X221614000Y-138849000D02*
X222879000Y-138849000D01*
X218269000Y-138849000D02*
X219534000Y-138849000D01*
X221614000Y-138889000D02*
X222917000Y-138889000D01*
X218231000Y-138889000D02*
X219534000Y-138889000D01*
X221614000Y-138929000D02*
X222954000Y-138929000D01*
X218194000Y-138929000D02*
X219534000Y-138929000D01*
X221614000Y-138969000D02*
X222990000Y-138969000D01*
X218158000Y-138969000D02*
X219534000Y-138969000D01*
X221614000Y-139009000D02*
X223024000Y-139009000D01*
X218124000Y-139009000D02*
X219534000Y-139009000D01*
X221614000Y-139049000D02*
X223058000Y-139049000D01*
X218090000Y-139049000D02*
X219534000Y-139049000D01*
X221614000Y-139089000D02*
X223090000Y-139089000D01*
X218058000Y-139089000D02*
X219534000Y-139089000D01*
X221614000Y-139129000D02*
X223122000Y-139129000D01*
X218026000Y-139129000D02*
X219534000Y-139129000D01*
X221614000Y-139169000D02*
X223152000Y-139169000D01*
X217996000Y-139169000D02*
X219534000Y-139169000D01*
X221614000Y-139209000D02*
X223181000Y-139209000D01*
X217967000Y-139209000D02*
X219534000Y-139209000D01*
X221614000Y-139249000D02*
X223210000Y-139249000D01*
X217938000Y-139249000D02*
X219534000Y-139249000D01*
X221614000Y-139289000D02*
X223238000Y-139289000D01*
X217910000Y-139289000D02*
X219534000Y-139289000D01*
X221614000Y-139329000D02*
X223264000Y-139329000D01*
X217884000Y-139329000D02*
X219534000Y-139329000D01*
X221614000Y-139369000D02*
X223290000Y-139369000D01*
X217858000Y-139369000D02*
X219534000Y-139369000D01*
X221614000Y-139409000D02*
X223316000Y-139409000D01*
X217832000Y-139409000D02*
X219534000Y-139409000D01*
X221614000Y-139449000D02*
X223340000Y-139449000D01*
X217808000Y-139449000D02*
X219534000Y-139449000D01*
X221614000Y-139489000D02*
X223364000Y-139489000D01*
X217784000Y-139489000D02*
X219534000Y-139489000D01*
X221614000Y-139529000D02*
X223386000Y-139529000D01*
X217762000Y-139529000D02*
X219534000Y-139529000D01*
X221614000Y-139569000D02*
X223408000Y-139569000D01*
X217740000Y-139569000D02*
X219534000Y-139569000D01*
X221614000Y-139609000D02*
X223430000Y-139609000D01*
X217718000Y-139609000D02*
X219534000Y-139609000D01*
X221614000Y-139649000D02*
X223450000Y-139649000D01*
X217698000Y-139649000D02*
X219534000Y-139649000D01*
X221614000Y-139689000D02*
X223470000Y-139689000D01*
X217678000Y-139689000D02*
X219534000Y-139689000D01*
X221614000Y-139729000D02*
X223490000Y-139729000D01*
X217658000Y-139729000D02*
X219534000Y-139729000D01*
X221614000Y-139769000D02*
X223508000Y-139769000D01*
X217640000Y-139769000D02*
X219534000Y-139769000D01*
X221614000Y-139809000D02*
X223526000Y-139809000D01*
X217622000Y-139809000D02*
X219534000Y-139809000D01*
X221614000Y-139849000D02*
X223544000Y-139849000D01*
X217604000Y-139849000D02*
X219534000Y-139849000D01*
X221614000Y-139889000D02*
X223560000Y-139889000D01*
X217588000Y-139889000D02*
X219534000Y-139889000D01*
X221614000Y-139929000D02*
X223576000Y-139929000D01*
X217572000Y-139929000D02*
X219534000Y-139929000D01*
X221614000Y-139969000D02*
X223592000Y-139969000D01*
X217556000Y-139969000D02*
X219534000Y-139969000D01*
X221614000Y-140009000D02*
X223607000Y-140009000D01*
X217541000Y-140009000D02*
X219534000Y-140009000D01*
X221614000Y-140049000D02*
X223621000Y-140049000D01*
X217527000Y-140049000D02*
X219534000Y-140049000D01*
X221614000Y-140089000D02*
X223635000Y-140089000D01*
X217513000Y-140089000D02*
X219534000Y-140089000D01*
X221614000Y-140129000D02*
X223648000Y-140129000D01*
X217500000Y-140129000D02*
X219534000Y-140129000D01*
X221614000Y-140169000D02*
X223660000Y-140169000D01*
X217488000Y-140169000D02*
X219534000Y-140169000D01*
X221614000Y-140209000D02*
X223672000Y-140209000D01*
X217476000Y-140209000D02*
X219534000Y-140209000D01*
X221614000Y-140249000D02*
X223684000Y-140249000D01*
X217464000Y-140249000D02*
X219534000Y-140249000D01*
X221614000Y-140289000D02*
X223695000Y-140289000D01*
X217453000Y-140289000D02*
X219534000Y-140289000D01*
X221614000Y-140329000D02*
X223705000Y-140329000D01*
X217443000Y-140329000D02*
X219534000Y-140329000D01*
X221614000Y-140369000D02*
X223715000Y-140369000D01*
X217433000Y-140369000D02*
X219534000Y-140369000D01*
X221614000Y-140409000D02*
X223724000Y-140409000D01*
X217424000Y-140409000D02*
X219534000Y-140409000D01*
X221614000Y-140450000D02*
X223733000Y-140450000D01*
X217415000Y-140450000D02*
X219534000Y-140450000D01*
X221614000Y-140490000D02*
X223741000Y-140490000D01*
X217407000Y-140490000D02*
X219534000Y-140490000D01*
X221614000Y-140530000D02*
X223749000Y-140530000D01*
X217399000Y-140530000D02*
X219534000Y-140530000D01*
X221614000Y-140570000D02*
X223756000Y-140570000D01*
X217392000Y-140570000D02*
X219534000Y-140570000D01*
X221614000Y-140610000D02*
X223763000Y-140610000D01*
X217385000Y-140610000D02*
X219534000Y-140610000D01*
X221614000Y-140650000D02*
X223769000Y-140650000D01*
X217379000Y-140650000D02*
X219534000Y-140650000D01*
X221614000Y-140690000D02*
X223775000Y-140690000D01*
X217373000Y-140690000D02*
X219534000Y-140690000D01*
X221614000Y-140730000D02*
X223780000Y-140730000D01*
X217368000Y-140730000D02*
X219534000Y-140730000D01*
X221614000Y-140770000D02*
X223785000Y-140770000D01*
X217363000Y-140770000D02*
X219534000Y-140770000D01*
X221614000Y-140810000D02*
X223789000Y-140810000D01*
X217359000Y-140810000D02*
X219534000Y-140810000D01*
X221614000Y-140850000D02*
X223792000Y-140850000D01*
X217356000Y-140850000D02*
X219534000Y-140850000D01*
X221614000Y-140890000D02*
X223796000Y-140890000D01*
X217352000Y-140890000D02*
X219534000Y-140890000D01*
X217350000Y-140930000D02*
X223798000Y-140930000D01*
X217347000Y-140970000D02*
X223801000Y-140970000D01*
X217346000Y-141010000D02*
X223802000Y-141010000D01*
X217344000Y-141050000D02*
X223804000Y-141050000D01*
X217344000Y-141090000D02*
X223804000Y-141090000D01*
X217344000Y-141130000D02*
X223804000Y-141130000D01*
X223844000Y-141130000D02*
G75*
G03*
X223844000Y-141130000I-3270000J0D01*
G01*
X224788000Y-138038000D02*
X227028000Y-138038000D01*
X224788000Y-145278000D02*
X227028000Y-145278000D01*
X227028000Y-145278000D02*
X227028000Y-138038000D01*
X224788000Y-145278000D02*
X224788000Y-138038000D01*
X226520000Y-118481000D02*
X219280000Y-118481000D01*
X226520000Y-116241000D02*
X219280000Y-116241000D01*
X226520000Y-118481000D02*
X226520000Y-116241000D01*
X219280000Y-118481000D02*
X219280000Y-116241000D01*
X226120000Y-105324000D02*
G75*
G03*
X226120000Y-105324000I-4120000J0D01*
G01*
X217920000Y-105324000D02*
X226080000Y-105324000D01*
X217920000Y-105284000D02*
X226080000Y-105284000D01*
X217920000Y-105244000D02*
X226080000Y-105244000D01*
X217921000Y-105204000D02*
X226079000Y-105204000D01*
X217923000Y-105164000D02*
X226077000Y-105164000D01*
X217924000Y-105124000D02*
X226076000Y-105124000D01*
X217926000Y-105084000D02*
X226074000Y-105084000D01*
X217929000Y-105044000D02*
X226071000Y-105044000D01*
X217932000Y-105004000D02*
X226068000Y-105004000D01*
X217935000Y-104964000D02*
X226065000Y-104964000D01*
X217939000Y-104924000D02*
X226061000Y-104924000D01*
X217943000Y-104884000D02*
X226057000Y-104884000D01*
X217948000Y-104844000D02*
X226052000Y-104844000D01*
X217952000Y-104804000D02*
X226048000Y-104804000D01*
X217958000Y-104764000D02*
X226042000Y-104764000D01*
X217963000Y-104724000D02*
X226037000Y-104724000D01*
X217970000Y-104684000D02*
X226030000Y-104684000D01*
X217976000Y-104644000D02*
X226024000Y-104644000D01*
X217983000Y-104603000D02*
X220960000Y-104603000D01*
X223040000Y-104603000D02*
X226017000Y-104603000D01*
X217990000Y-104563000D02*
X220960000Y-104563000D01*
X223040000Y-104563000D02*
X226010000Y-104563000D01*
X217998000Y-104523000D02*
X220960000Y-104523000D01*
X223040000Y-104523000D02*
X226002000Y-104523000D01*
X218006000Y-104483000D02*
X220960000Y-104483000D01*
X223040000Y-104483000D02*
X225994000Y-104483000D01*
X218015000Y-104443000D02*
X220960000Y-104443000D01*
X223040000Y-104443000D02*
X225985000Y-104443000D01*
X218024000Y-104403000D02*
X220960000Y-104403000D01*
X223040000Y-104403000D02*
X225976000Y-104403000D01*
X218033000Y-104363000D02*
X220960000Y-104363000D01*
X223040000Y-104363000D02*
X225967000Y-104363000D01*
X218043000Y-104323000D02*
X220960000Y-104323000D01*
X223040000Y-104323000D02*
X225957000Y-104323000D01*
X218053000Y-104283000D02*
X220960000Y-104283000D01*
X223040000Y-104283000D02*
X225947000Y-104283000D01*
X218064000Y-104243000D02*
X220960000Y-104243000D01*
X223040000Y-104243000D02*
X225936000Y-104243000D01*
X218075000Y-104203000D02*
X220960000Y-104203000D01*
X223040000Y-104203000D02*
X225925000Y-104203000D01*
X218086000Y-104163000D02*
X220960000Y-104163000D01*
X223040000Y-104163000D02*
X225914000Y-104163000D01*
X218098000Y-104123000D02*
X220960000Y-104123000D01*
X223040000Y-104123000D02*
X225902000Y-104123000D01*
X218111000Y-104083000D02*
X220960000Y-104083000D01*
X223040000Y-104083000D02*
X225889000Y-104083000D01*
X218123000Y-104043000D02*
X220960000Y-104043000D01*
X223040000Y-104043000D02*
X225877000Y-104043000D01*
X218137000Y-104003000D02*
X220960000Y-104003000D01*
X223040000Y-104003000D02*
X225863000Y-104003000D01*
X218150000Y-103963000D02*
X220960000Y-103963000D01*
X223040000Y-103963000D02*
X225850000Y-103963000D01*
X218165000Y-103923000D02*
X220960000Y-103923000D01*
X223040000Y-103923000D02*
X225835000Y-103923000D01*
X218179000Y-103883000D02*
X220960000Y-103883000D01*
X223040000Y-103883000D02*
X225821000Y-103883000D01*
X218195000Y-103843000D02*
X220960000Y-103843000D01*
X223040000Y-103843000D02*
X225805000Y-103843000D01*
X218210000Y-103803000D02*
X220960000Y-103803000D01*
X223040000Y-103803000D02*
X225790000Y-103803000D01*
X218226000Y-103763000D02*
X220960000Y-103763000D01*
X223040000Y-103763000D02*
X225774000Y-103763000D01*
X218243000Y-103723000D02*
X220960000Y-103723000D01*
X223040000Y-103723000D02*
X225757000Y-103723000D01*
X218260000Y-103683000D02*
X220960000Y-103683000D01*
X223040000Y-103683000D02*
X225740000Y-103683000D01*
X218278000Y-103643000D02*
X220960000Y-103643000D01*
X223040000Y-103643000D02*
X225722000Y-103643000D01*
X218296000Y-103603000D02*
X220960000Y-103603000D01*
X223040000Y-103603000D02*
X225704000Y-103603000D01*
X218314000Y-103563000D02*
X220960000Y-103563000D01*
X223040000Y-103563000D02*
X225686000Y-103563000D01*
X218334000Y-103523000D02*
X220960000Y-103523000D01*
X223040000Y-103523000D02*
X225666000Y-103523000D01*
X218353000Y-103483000D02*
X220960000Y-103483000D01*
X223040000Y-103483000D02*
X225647000Y-103483000D01*
X218373000Y-103443000D02*
X220960000Y-103443000D01*
X223040000Y-103443000D02*
X225627000Y-103443000D01*
X218394000Y-103403000D02*
X220960000Y-103403000D01*
X223040000Y-103403000D02*
X225606000Y-103403000D01*
X218416000Y-103363000D02*
X220960000Y-103363000D01*
X223040000Y-103363000D02*
X225584000Y-103363000D01*
X218438000Y-103323000D02*
X220960000Y-103323000D01*
X223040000Y-103323000D02*
X225562000Y-103323000D01*
X218460000Y-103283000D02*
X220960000Y-103283000D01*
X223040000Y-103283000D02*
X225540000Y-103283000D01*
X218483000Y-103243000D02*
X220960000Y-103243000D01*
X223040000Y-103243000D02*
X225517000Y-103243000D01*
X218507000Y-103203000D02*
X220960000Y-103203000D01*
X223040000Y-103203000D02*
X225493000Y-103203000D01*
X218531000Y-103163000D02*
X220960000Y-103163000D01*
X223040000Y-103163000D02*
X225469000Y-103163000D01*
X218556000Y-103123000D02*
X220960000Y-103123000D01*
X223040000Y-103123000D02*
X225444000Y-103123000D01*
X218582000Y-103083000D02*
X220960000Y-103083000D01*
X223040000Y-103083000D02*
X225418000Y-103083000D01*
X218608000Y-103043000D02*
X220960000Y-103043000D01*
X223040000Y-103043000D02*
X225392000Y-103043000D01*
X218635000Y-103003000D02*
X220960000Y-103003000D01*
X223040000Y-103003000D02*
X225365000Y-103003000D01*
X218662000Y-102963000D02*
X220960000Y-102963000D01*
X223040000Y-102963000D02*
X225338000Y-102963000D01*
X218691000Y-102923000D02*
X220960000Y-102923000D01*
X223040000Y-102923000D02*
X225309000Y-102923000D01*
X218720000Y-102883000D02*
X220960000Y-102883000D01*
X223040000Y-102883000D02*
X225280000Y-102883000D01*
X218750000Y-102843000D02*
X220960000Y-102843000D01*
X223040000Y-102843000D02*
X225250000Y-102843000D01*
X218780000Y-102803000D02*
X220960000Y-102803000D01*
X223040000Y-102803000D02*
X225220000Y-102803000D01*
X218811000Y-102763000D02*
X220960000Y-102763000D01*
X223040000Y-102763000D02*
X225189000Y-102763000D01*
X218844000Y-102723000D02*
X220960000Y-102723000D01*
X223040000Y-102723000D02*
X225156000Y-102723000D01*
X218876000Y-102683000D02*
X220960000Y-102683000D01*
X223040000Y-102683000D02*
X225124000Y-102683000D01*
X218910000Y-102643000D02*
X220960000Y-102643000D01*
X223040000Y-102643000D02*
X225090000Y-102643000D01*
X218945000Y-102603000D02*
X220960000Y-102603000D01*
X223040000Y-102603000D02*
X225055000Y-102603000D01*
X218981000Y-102563000D02*
X220960000Y-102563000D01*
X223040000Y-102563000D02*
X225019000Y-102563000D01*
X219017000Y-102523000D02*
X224983000Y-102523000D01*
X219055000Y-102483000D02*
X224945000Y-102483000D01*
X219093000Y-102443000D02*
X224907000Y-102443000D01*
X219133000Y-102403000D02*
X224867000Y-102403000D01*
X219174000Y-102363000D02*
X224826000Y-102363000D01*
X219216000Y-102323000D02*
X224784000Y-102323000D01*
X219259000Y-102283000D02*
X224741000Y-102283000D01*
X219303000Y-102243000D02*
X224697000Y-102243000D01*
X219349000Y-102203000D02*
X224651000Y-102203000D01*
X219396000Y-102163000D02*
X224604000Y-102163000D01*
X219444000Y-102123000D02*
X224556000Y-102123000D01*
X219495000Y-102083000D02*
X224505000Y-102083000D01*
X219546000Y-102043000D02*
X224454000Y-102043000D01*
X219600000Y-102003000D02*
X224400000Y-102003000D01*
X219655000Y-101963000D02*
X224345000Y-101963000D01*
X219713000Y-101923000D02*
X224287000Y-101923000D01*
X219772000Y-101883000D02*
X224228000Y-101883000D01*
X219834000Y-101843000D02*
X224166000Y-101843000D01*
X219898000Y-101803000D02*
X224102000Y-101803000D01*
X219966000Y-101763000D02*
X224034000Y-101763000D01*
X220036000Y-101723000D02*
X223964000Y-101723000D01*
X220110000Y-101683000D02*
X223890000Y-101683000D01*
X220187000Y-101643000D02*
X223813000Y-101643000D01*
X220269000Y-101603000D02*
X223731000Y-101603000D01*
X220355000Y-101563000D02*
X223645000Y-101563000D01*
X220448000Y-101523000D02*
X223552000Y-101523000D01*
X220547000Y-101483000D02*
X223453000Y-101483000D01*
X220654000Y-101443000D02*
X223346000Y-101443000D01*
X220771000Y-101403000D02*
X223229000Y-101403000D01*
X220902000Y-101363000D02*
X223098000Y-101363000D01*
X221052000Y-101323000D02*
X222948000Y-101323000D01*
X221232000Y-101283000D02*
X222768000Y-101283000D01*
X221467000Y-101243000D02*
X222533000Y-101243000D01*
X219685000Y-109733698D02*
X219685000Y-108933698D01*
X219285000Y-109333698D02*
X220085000Y-109333698D01*
D10*
X238545714Y-103556666D02*
X239021904Y-103556666D01*
X238450476Y-103842380D02*
X238783809Y-102842380D01*
X239117142Y-103842380D01*
X239402857Y-102937619D02*
X239450476Y-102890000D01*
X239545714Y-102842380D01*
X239783809Y-102842380D01*
X239879047Y-102890000D01*
X239926666Y-102937619D01*
X239974285Y-103032857D01*
X239974285Y-103128095D01*
X239926666Y-103270952D01*
X239355238Y-103842380D01*
X239974285Y-103842380D01*
X234973714Y-138530666D02*
X235449904Y-138530666D01*
X234878476Y-138816380D02*
X235211809Y-137816380D01*
X235545142Y-138816380D01*
X236402285Y-138816380D02*
X235830857Y-138816380D01*
X236116571Y-138816380D02*
X236116571Y-137816380D01*
X236021333Y-137959238D01*
X235926095Y-138054476D01*
X235830857Y-138102095D01*
X214652380Y-141733333D02*
X215366666Y-141733333D01*
X215509523Y-141780952D01*
X215604761Y-141876190D01*
X215652380Y-142019047D01*
X215652380Y-142114285D01*
X214652380Y-141352380D02*
X214652380Y-140733333D01*
X215033333Y-141066666D01*
X215033333Y-140923809D01*
X215080952Y-140828571D01*
X215128571Y-140780952D01*
X215223809Y-140733333D01*
X215461904Y-140733333D01*
X215557142Y-140780952D01*
X215604761Y-140828571D01*
X215652380Y-140923809D01*
X215652380Y-141209523D01*
X215604761Y-141304761D01*
X215557142Y-141352380D01*
X214552380Y-120433333D02*
X215266666Y-120433333D01*
X215409523Y-120480952D01*
X215504761Y-120576190D01*
X215552380Y-120719047D01*
X215552380Y-120814285D01*
X214647619Y-120004761D02*
X214600000Y-119957142D01*
X214552380Y-119861904D01*
X214552380Y-119623809D01*
X214600000Y-119528571D01*
X214647619Y-119480952D01*
X214742857Y-119433333D01*
X214838095Y-119433333D01*
X214980952Y-119480952D01*
X215552380Y-120052380D01*
X215552380Y-119433333D01*
X233007380Y-124766666D02*
X232531190Y-125100000D01*
X233007380Y-125338095D02*
X232007380Y-125338095D01*
X232007380Y-124957142D01*
X232055000Y-124861904D01*
X232102619Y-124814285D01*
X232197857Y-124766666D01*
X232340714Y-124766666D01*
X232435952Y-124814285D01*
X232483571Y-124861904D01*
X232531190Y-124957142D01*
X232531190Y-125338095D01*
X232007380Y-123909523D02*
X232007380Y-124100000D01*
X232055000Y-124195238D01*
X232102619Y-124242857D01*
X232245476Y-124338095D01*
X232435952Y-124385714D01*
X232816904Y-124385714D01*
X232912142Y-124338095D01*
X232959761Y-124290476D01*
X233007380Y-124195238D01*
X233007380Y-124004761D01*
X232959761Y-123909523D01*
X232912142Y-123861904D01*
X232816904Y-123814285D01*
X232578809Y-123814285D01*
X232483571Y-123861904D01*
X232435952Y-123909523D01*
X232388333Y-124004761D01*
X232388333Y-124195238D01*
X232435952Y-124290476D01*
X232483571Y-124338095D01*
X232578809Y-124385714D01*
X234599619Y-126338095D02*
X234552000Y-126290476D01*
X234504380Y-126195238D01*
X234504380Y-125957142D01*
X234552000Y-125861904D01*
X234599619Y-125814285D01*
X234694857Y-125766666D01*
X234790095Y-125766666D01*
X234932952Y-125814285D01*
X235504380Y-126385714D01*
X235504380Y-125766666D01*
X234599619Y-125385714D02*
X234552000Y-125338095D01*
X234504380Y-125242857D01*
X234504380Y-125004761D01*
X234552000Y-124909523D01*
X234599619Y-124861904D01*
X234694857Y-124814285D01*
X234790095Y-124814285D01*
X234932952Y-124861904D01*
X235504380Y-125433333D01*
X235504380Y-124814285D01*
X234504380Y-124195238D02*
X234504380Y-124100000D01*
X234552000Y-124004761D01*
X234599619Y-123957142D01*
X234694857Y-123909523D01*
X234885333Y-123861904D01*
X235123428Y-123861904D01*
X235313904Y-123909523D01*
X235409142Y-123957142D01*
X235456761Y-124004761D01*
X235504380Y-124100000D01*
X235504380Y-124195238D01*
X235456761Y-124290476D01*
X235409142Y-124338095D01*
X235313904Y-124385714D01*
X235123428Y-124433333D01*
X234885333Y-124433333D01*
X234694857Y-124385714D01*
X234599619Y-124338095D01*
X234552000Y-124290476D01*
X234504380Y-124195238D01*
X235504380Y-122861904D02*
X235028190Y-123195238D01*
X235504380Y-123433333D02*
X234504380Y-123433333D01*
X234504380Y-123052380D01*
X234552000Y-122957142D01*
X234599619Y-122909523D01*
X234694857Y-122861904D01*
X234837714Y-122861904D01*
X234932952Y-122909523D01*
X234980571Y-122957142D01*
X235028190Y-123052380D01*
X235028190Y-123433333D01*
X223201333Y-138133380D02*
X222868000Y-137657190D01*
X222629904Y-138133380D02*
X222629904Y-137133380D01*
X223010857Y-137133380D01*
X223106095Y-137181000D01*
X223153714Y-137228619D01*
X223201333Y-137323857D01*
X223201333Y-137466714D01*
X223153714Y-137561952D01*
X223106095Y-137609571D01*
X223010857Y-137657190D01*
X222629904Y-137657190D01*
X224106095Y-137133380D02*
X223629904Y-137133380D01*
X223582285Y-137609571D01*
X223629904Y-137561952D01*
X223725142Y-137514333D01*
X223963238Y-137514333D01*
X224058476Y-137561952D01*
X224106095Y-137609571D01*
X224153714Y-137704809D01*
X224153714Y-137942904D01*
X224106095Y-138038142D01*
X224058476Y-138085761D01*
X223963238Y-138133380D01*
X223725142Y-138133380D01*
X223629904Y-138085761D01*
X223582285Y-138038142D01*
X220359904Y-134942619D02*
X220407523Y-134895000D01*
X220502761Y-134847380D01*
X220740857Y-134847380D01*
X220836095Y-134895000D01*
X220883714Y-134942619D01*
X220931333Y-135037857D01*
X220931333Y-135133095D01*
X220883714Y-135275952D01*
X220312285Y-135847380D01*
X220931333Y-135847380D01*
X221312285Y-134942619D02*
X221359904Y-134895000D01*
X221455142Y-134847380D01*
X221693238Y-134847380D01*
X221788476Y-134895000D01*
X221836095Y-134942619D01*
X221883714Y-135037857D01*
X221883714Y-135133095D01*
X221836095Y-135275952D01*
X221264666Y-135847380D01*
X221883714Y-135847380D01*
X222502761Y-134847380D02*
X222598000Y-134847380D01*
X222693238Y-134895000D01*
X222740857Y-134942619D01*
X222788476Y-135037857D01*
X222836095Y-135228333D01*
X222836095Y-135466428D01*
X222788476Y-135656904D01*
X222740857Y-135752142D01*
X222693238Y-135799761D01*
X222598000Y-135847380D01*
X222502761Y-135847380D01*
X222407523Y-135799761D01*
X222359904Y-135752142D01*
X222312285Y-135656904D01*
X222264666Y-135466428D01*
X222264666Y-135228333D01*
X222312285Y-135037857D01*
X222359904Y-134942619D01*
X222407523Y-134895000D01*
X222502761Y-134847380D01*
X223836095Y-135847380D02*
X223502761Y-135371190D01*
X223264666Y-135847380D02*
X223264666Y-134847380D01*
X223645619Y-134847380D01*
X223740857Y-134895000D01*
X223788476Y-134942619D01*
X223836095Y-135037857D01*
X223836095Y-135180714D01*
X223788476Y-135275952D01*
X223740857Y-135323571D01*
X223645619Y-135371190D01*
X223264666Y-135371190D01*
X222132380Y-126256666D02*
X221656190Y-126590000D01*
X222132380Y-126828095D02*
X221132380Y-126828095D01*
X221132380Y-126447142D01*
X221180000Y-126351904D01*
X221227619Y-126304285D01*
X221322857Y-126256666D01*
X221465714Y-126256666D01*
X221560952Y-126304285D01*
X221608571Y-126351904D01*
X221656190Y-126447142D01*
X221656190Y-126828095D01*
X221465714Y-125399523D02*
X222132380Y-125399523D01*
X221084761Y-125637619D02*
X221799047Y-125875714D01*
X221799047Y-125256666D01*
X219105619Y-126719095D02*
X219058000Y-126671476D01*
X219010380Y-126576238D01*
X219010380Y-126338142D01*
X219058000Y-126242904D01*
X219105619Y-126195285D01*
X219200857Y-126147666D01*
X219296095Y-126147666D01*
X219438952Y-126195285D01*
X220010380Y-126766714D01*
X220010380Y-126147666D01*
X219105619Y-125766714D02*
X219058000Y-125719095D01*
X219010380Y-125623857D01*
X219010380Y-125385761D01*
X219058000Y-125290523D01*
X219105619Y-125242904D01*
X219200857Y-125195285D01*
X219296095Y-125195285D01*
X219438952Y-125242904D01*
X220010380Y-125814333D01*
X220010380Y-125195285D01*
X219010380Y-124576238D02*
X219010380Y-124481000D01*
X219058000Y-124385761D01*
X219105619Y-124338142D01*
X219200857Y-124290523D01*
X219391333Y-124242904D01*
X219629428Y-124242904D01*
X219819904Y-124290523D01*
X219915142Y-124338142D01*
X219962761Y-124385761D01*
X220010380Y-124481000D01*
X220010380Y-124576238D01*
X219962761Y-124671476D01*
X219915142Y-124719095D01*
X219819904Y-124766714D01*
X219629428Y-124814333D01*
X219391333Y-124814333D01*
X219200857Y-124766714D01*
X219105619Y-124719095D01*
X219058000Y-124671476D01*
X219010380Y-124576238D01*
X220010380Y-123242904D02*
X219534190Y-123576238D01*
X220010380Y-123814333D02*
X219010380Y-123814333D01*
X219010380Y-123433380D01*
X219058000Y-123338142D01*
X219105619Y-123290523D01*
X219200857Y-123242904D01*
X219343714Y-123242904D01*
X219438952Y-123290523D01*
X219486571Y-123338142D01*
X219534190Y-123433380D01*
X219534190Y-123814333D01*
X246823333Y-115400380D02*
X246490000Y-114924190D01*
X246251904Y-115400380D02*
X246251904Y-114400380D01*
X246632857Y-114400380D01*
X246728095Y-114448000D01*
X246775714Y-114495619D01*
X246823333Y-114590857D01*
X246823333Y-114733714D01*
X246775714Y-114828952D01*
X246728095Y-114876571D01*
X246632857Y-114924190D01*
X246251904Y-114924190D01*
X247156666Y-114400380D02*
X247775714Y-114400380D01*
X247442380Y-114781333D01*
X247585238Y-114781333D01*
X247680476Y-114828952D01*
X247728095Y-114876571D01*
X247775714Y-114971809D01*
X247775714Y-115209904D01*
X247728095Y-115305142D01*
X247680476Y-115352761D01*
X247585238Y-115400380D01*
X247299523Y-115400380D01*
X247204285Y-115352761D01*
X247156666Y-115305142D01*
X246870952Y-117432380D02*
X246299523Y-117432380D01*
X246585238Y-117432380D02*
X246585238Y-116432380D01*
X246490000Y-116575238D01*
X246394761Y-116670476D01*
X246299523Y-116718095D01*
X247299523Y-117432380D02*
X247299523Y-116432380D01*
X247394761Y-117051428D02*
X247680476Y-117432380D01*
X247680476Y-116765714D02*
X247299523Y-117146666D01*
X235139333Y-115400380D02*
X234806000Y-114924190D01*
X234567904Y-115400380D02*
X234567904Y-114400380D01*
X234948857Y-114400380D01*
X235044095Y-114448000D01*
X235091714Y-114495619D01*
X235139333Y-114590857D01*
X235139333Y-114733714D01*
X235091714Y-114828952D01*
X235044095Y-114876571D01*
X234948857Y-114924190D01*
X234567904Y-114924190D01*
X235520285Y-114495619D02*
X235567904Y-114448000D01*
X235663142Y-114400380D01*
X235901238Y-114400380D01*
X235996476Y-114448000D01*
X236044095Y-114495619D01*
X236091714Y-114590857D01*
X236091714Y-114686095D01*
X236044095Y-114828952D01*
X235472666Y-115400380D01*
X236091714Y-115400380D01*
X233821904Y-116527619D02*
X233869523Y-116480000D01*
X233964761Y-116432380D01*
X234202857Y-116432380D01*
X234298095Y-116480000D01*
X234345714Y-116527619D01*
X234393333Y-116622857D01*
X234393333Y-116718095D01*
X234345714Y-116860952D01*
X233774285Y-117432380D01*
X234393333Y-117432380D01*
X234774285Y-116527619D02*
X234821904Y-116480000D01*
X234917142Y-116432380D01*
X235155238Y-116432380D01*
X235250476Y-116480000D01*
X235298095Y-116527619D01*
X235345714Y-116622857D01*
X235345714Y-116718095D01*
X235298095Y-116860952D01*
X234726666Y-117432380D01*
X235345714Y-117432380D01*
X235964761Y-116432380D02*
X236060000Y-116432380D01*
X236155238Y-116480000D01*
X236202857Y-116527619D01*
X236250476Y-116622857D01*
X236298095Y-116813333D01*
X236298095Y-117051428D01*
X236250476Y-117241904D01*
X236202857Y-117337142D01*
X236155238Y-117384761D01*
X236060000Y-117432380D01*
X235964761Y-117432380D01*
X235869523Y-117384761D01*
X235821904Y-117337142D01*
X235774285Y-117241904D01*
X235726666Y-117051428D01*
X235726666Y-116813333D01*
X235774285Y-116622857D01*
X235821904Y-116527619D01*
X235869523Y-116480000D01*
X235964761Y-116432380D01*
X237298095Y-117432380D02*
X236964761Y-116956190D01*
X236726666Y-117432380D02*
X236726666Y-116432380D01*
X237107619Y-116432380D01*
X237202857Y-116480000D01*
X237250476Y-116527619D01*
X237298095Y-116622857D01*
X237298095Y-116765714D01*
X237250476Y-116860952D01*
X237202857Y-116908571D01*
X237107619Y-116956190D01*
X236726666Y-116956190D01*
X258253333Y-115400380D02*
X257920000Y-114924190D01*
X257681904Y-115400380D02*
X257681904Y-114400380D01*
X258062857Y-114400380D01*
X258158095Y-114448000D01*
X258205714Y-114495619D01*
X258253333Y-114590857D01*
X258253333Y-114733714D01*
X258205714Y-114828952D01*
X258158095Y-114876571D01*
X258062857Y-114924190D01*
X257681904Y-114924190D01*
X259205714Y-115400380D02*
X258634285Y-115400380D01*
X258920000Y-115400380D02*
X258920000Y-114400380D01*
X258824761Y-114543238D01*
X258729523Y-114638476D01*
X258634285Y-114686095D01*
X256681904Y-116527619D02*
X256729523Y-116480000D01*
X256824761Y-116432380D01*
X257062857Y-116432380D01*
X257158095Y-116480000D01*
X257205714Y-116527619D01*
X257253333Y-116622857D01*
X257253333Y-116718095D01*
X257205714Y-116860952D01*
X256634285Y-117432380D01*
X257253333Y-117432380D01*
X257634285Y-116527619D02*
X257681904Y-116480000D01*
X257777142Y-116432380D01*
X258015238Y-116432380D01*
X258110476Y-116480000D01*
X258158095Y-116527619D01*
X258205714Y-116622857D01*
X258205714Y-116718095D01*
X258158095Y-116860952D01*
X257586666Y-117432380D01*
X258205714Y-117432380D01*
X258824761Y-116432380D02*
X258920000Y-116432380D01*
X259015238Y-116480000D01*
X259062857Y-116527619D01*
X259110476Y-116622857D01*
X259158095Y-116813333D01*
X259158095Y-117051428D01*
X259110476Y-117241904D01*
X259062857Y-117337142D01*
X259015238Y-117384761D01*
X258920000Y-117432380D01*
X258824761Y-117432380D01*
X258729523Y-117384761D01*
X258681904Y-117337142D01*
X258634285Y-117241904D01*
X258586666Y-117051428D01*
X258586666Y-116813333D01*
X258634285Y-116622857D01*
X258681904Y-116527619D01*
X258729523Y-116480000D01*
X258824761Y-116432380D01*
X260158095Y-117432380D02*
X259824761Y-116956190D01*
X259586666Y-117432380D02*
X259586666Y-116432380D01*
X259967619Y-116432380D01*
X260062857Y-116480000D01*
X260110476Y-116527619D01*
X260158095Y-116622857D01*
X260158095Y-116765714D01*
X260110476Y-116860952D01*
X260062857Y-116908571D01*
X259967619Y-116956190D01*
X259586666Y-116956190D01*
X221819333Y-113789142D02*
X221771714Y-113836761D01*
X221628857Y-113884380D01*
X221533619Y-113884380D01*
X221390761Y-113836761D01*
X221295523Y-113741523D01*
X221247904Y-113646285D01*
X221200285Y-113455809D01*
X221200285Y-113312952D01*
X221247904Y-113122476D01*
X221295523Y-113027238D01*
X221390761Y-112932000D01*
X221533619Y-112884380D01*
X221628857Y-112884380D01*
X221771714Y-112932000D01*
X221819333Y-112979619D01*
X222200285Y-112979619D02*
X222247904Y-112932000D01*
X222343142Y-112884380D01*
X222581238Y-112884380D01*
X222676476Y-112932000D01*
X222724095Y-112979619D01*
X222771714Y-113074857D01*
X222771714Y-113170095D01*
X222724095Y-113312952D01*
X222152666Y-113884380D01*
X222771714Y-113884380D01*
X221304761Y-111761904D02*
X220847619Y-111761904D01*
X221076190Y-111761904D02*
X221076190Y-110961904D01*
X221000000Y-111076190D01*
X220923809Y-111152380D01*
X220847619Y-111190476D01*
X221800000Y-110961904D02*
X221876190Y-110961904D01*
X221952380Y-111000000D01*
X221990476Y-111038095D01*
X222028571Y-111114285D01*
X222066666Y-111266666D01*
X222066666Y-111457142D01*
X222028571Y-111609523D01*
X221990476Y-111685714D01*
X221952380Y-111723809D01*
X221876190Y-111761904D01*
X221800000Y-111761904D01*
X221723809Y-111723809D01*
X221685714Y-111685714D01*
X221647619Y-111609523D01*
X221609523Y-111457142D01*
X221609523Y-111266666D01*
X221647619Y-111114285D01*
X221685714Y-111038095D01*
X221723809Y-111000000D01*
X221800000Y-110961904D01*
X222561904Y-110961904D02*
X222638095Y-110961904D01*
X222714285Y-111000000D01*
X222752380Y-111038095D01*
X222790476Y-111114285D01*
X222828571Y-111266666D01*
X222828571Y-111457142D01*
X222790476Y-111609523D01*
X222752380Y-111685714D01*
X222714285Y-111723809D01*
X222638095Y-111761904D01*
X222561904Y-111761904D01*
X222485714Y-111723809D01*
X222447619Y-111685714D01*
X222409523Y-111609523D01*
X222371428Y-111457142D01*
X222371428Y-111266666D01*
X222409523Y-111114285D01*
X222447619Y-111038095D01*
X222485714Y-111000000D01*
X222561904Y-110961904D01*
X223171428Y-111228571D02*
X223171428Y-111761904D01*
X223171428Y-111304761D02*
X223209523Y-111266666D01*
X223285714Y-111228571D01*
X223400000Y-111228571D01*
X223476190Y-111266666D01*
X223514285Y-111342857D01*
X223514285Y-111761904D01*
X208850380Y-148809333D02*
X209564666Y-148809333D01*
X209707523Y-148856952D01*
X209802761Y-148952190D01*
X209850380Y-149095047D01*
X209850380Y-149190285D01*
X209183714Y-147904571D02*
X209850380Y-147904571D01*
X208802761Y-148142666D02*
X209517047Y-148380761D01*
X209517047Y-147761714D01*
X224638095Y-122528380D02*
X224638095Y-123337904D01*
X224685714Y-123433142D01*
X224733333Y-123480761D01*
X224828571Y-123528380D01*
X225019047Y-123528380D01*
X225114285Y-123480761D01*
X225161904Y-123433142D01*
X225209523Y-123337904D01*
X225209523Y-122528380D01*
X225638095Y-122623619D02*
X225685714Y-122576000D01*
X225780952Y-122528380D01*
X226019047Y-122528380D01*
X226114285Y-122576000D01*
X226161904Y-122623619D01*
X226209523Y-122718857D01*
X226209523Y-122814095D01*
X226161904Y-122956952D01*
X225590476Y-123528380D01*
X226209523Y-123528380D01*
X224487523Y-126576380D02*
X224487523Y-125576380D01*
X224487523Y-126052571D02*
X225058952Y-126052571D01*
X225058952Y-126576380D02*
X225058952Y-125576380D01*
X226058952Y-126576380D02*
X225487523Y-126576380D01*
X225773238Y-126576380D02*
X225773238Y-125576380D01*
X225678000Y-125719238D01*
X225582761Y-125814476D01*
X225487523Y-125862095D01*
X227011333Y-126576380D02*
X226439904Y-126576380D01*
X226725619Y-126576380D02*
X226725619Y-125576380D01*
X226630380Y-125719238D01*
X226535142Y-125814476D01*
X226439904Y-125862095D01*
X227916095Y-126576380D02*
X227439904Y-126576380D01*
X227439904Y-125576380D01*
X228773238Y-126576380D02*
X228201809Y-126576380D01*
X228487523Y-126576380D02*
X228487523Y-125576380D01*
X228392285Y-125719238D01*
X228297047Y-125814476D01*
X228201809Y-125862095D01*
X229201809Y-126576380D02*
X229201809Y-125576380D01*
X229535142Y-126290666D01*
X229868476Y-125576380D01*
X229868476Y-126576380D01*
X239878095Y-124052380D02*
X239878095Y-124861904D01*
X239925714Y-124957142D01*
X239973333Y-125004761D01*
X240068571Y-125052380D01*
X240259047Y-125052380D01*
X240354285Y-125004761D01*
X240401904Y-124957142D01*
X240449523Y-124861904D01*
X240449523Y-124052380D01*
X241449523Y-125052380D02*
X240878095Y-125052380D01*
X241163809Y-125052380D02*
X241163809Y-124052380D01*
X241068571Y-124195238D01*
X240973333Y-124290476D01*
X240878095Y-124338095D01*
X244585333Y-124052380D02*
X245252000Y-124052380D01*
X244823428Y-125052380D01*
X246061523Y-124385714D02*
X246061523Y-125052380D01*
X245823428Y-124004761D02*
X245585333Y-124719047D01*
X246204380Y-124719047D01*
X246585333Y-125052380D02*
X246585333Y-124052380D01*
X246585333Y-124528571D02*
X247156761Y-124528571D01*
X247156761Y-125052380D02*
X247156761Y-124052380D01*
X248204380Y-124957142D02*
X248156761Y-125004761D01*
X248013904Y-125052380D01*
X247918666Y-125052380D01*
X247775809Y-125004761D01*
X247680571Y-124909523D01*
X247632952Y-124814285D01*
X247585333Y-124623809D01*
X247585333Y-124480952D01*
X247632952Y-124290476D01*
X247680571Y-124195238D01*
X247775809Y-124100000D01*
X247918666Y-124052380D01*
X248013904Y-124052380D01*
X248156761Y-124100000D01*
X248204380Y-124147619D01*
X248490095Y-124052380D02*
X249061523Y-124052380D01*
X248775809Y-125052380D02*
X248775809Y-124052380D01*
X249918666Y-125052380D02*
X249347238Y-125052380D01*
X249632952Y-125052380D02*
X249632952Y-124052380D01*
X249537714Y-124195238D01*
X249442476Y-124290476D01*
X249347238Y-124338095D01*
X250775809Y-124385714D02*
X250775809Y-125052380D01*
X250537714Y-124004761D02*
X250299619Y-124719047D01*
X250918666Y-124719047D01*
X225931904Y-131656380D02*
X225931904Y-130656380D01*
X226170000Y-130656380D01*
X226312857Y-130704000D01*
X226408095Y-130799238D01*
X226455714Y-130894476D01*
X226503333Y-131084952D01*
X226503333Y-131227809D01*
X226455714Y-131418285D01*
X226408095Y-131513523D01*
X226312857Y-131608761D01*
X226170000Y-131656380D01*
X225931904Y-131656380D01*
X227455714Y-131656380D02*
X226884285Y-131656380D01*
X227170000Y-131656380D02*
X227170000Y-130656380D01*
X227074761Y-130799238D01*
X226979523Y-130894476D01*
X226884285Y-130942095D01*
X220820095Y-132164380D02*
X220820095Y-131164380D01*
X221391523Y-132164380D02*
X220962952Y-131592952D01*
X221391523Y-131164380D02*
X220820095Y-131735809D01*
X262107142Y-124726666D02*
X262154761Y-124774285D01*
X262202380Y-124917142D01*
X262202380Y-125012380D01*
X262154761Y-125155238D01*
X262059523Y-125250476D01*
X261964285Y-125298095D01*
X261773809Y-125345714D01*
X261630952Y-125345714D01*
X261440476Y-125298095D01*
X261345238Y-125250476D01*
X261250000Y-125155238D01*
X261202380Y-125012380D01*
X261202380Y-124917142D01*
X261250000Y-124774285D01*
X261297619Y-124726666D01*
X261202380Y-123869523D02*
X261202380Y-124060000D01*
X261250000Y-124155238D01*
X261297619Y-124202857D01*
X261440476Y-124298095D01*
X261630952Y-124345714D01*
X262011904Y-124345714D01*
X262107142Y-124298095D01*
X262154761Y-124250476D01*
X262202380Y-124155238D01*
X262202380Y-123964761D01*
X262154761Y-123869523D01*
X262107142Y-123821904D01*
X262011904Y-123774285D01*
X261773809Y-123774285D01*
X261678571Y-123821904D01*
X261630952Y-123869523D01*
X261583333Y-123964761D01*
X261583333Y-124155238D01*
X261630952Y-124250476D01*
X261678571Y-124298095D01*
X261773809Y-124345714D01*
X259734904Y-125495238D02*
X259734904Y-125952380D01*
X259734904Y-125723809D02*
X258934904Y-125723809D01*
X259049190Y-125800000D01*
X259125380Y-125876190D01*
X259163476Y-125952380D01*
X258934904Y-125000000D02*
X258934904Y-124923809D01*
X258973000Y-124847619D01*
X259011095Y-124809523D01*
X259087285Y-124771428D01*
X259239666Y-124733333D01*
X259430142Y-124733333D01*
X259582523Y-124771428D01*
X259658714Y-124809523D01*
X259696809Y-124847619D01*
X259734904Y-124923809D01*
X259734904Y-125000000D01*
X259696809Y-125076190D01*
X259658714Y-125114285D01*
X259582523Y-125152380D01*
X259430142Y-125190476D01*
X259239666Y-125190476D01*
X259087285Y-125152380D01*
X259011095Y-125114285D01*
X258973000Y-125076190D01*
X258934904Y-125000000D01*
X258934904Y-124238095D02*
X258934904Y-124161904D01*
X258973000Y-124085714D01*
X259011095Y-124047619D01*
X259087285Y-124009523D01*
X259239666Y-123971428D01*
X259430142Y-123971428D01*
X259582523Y-124009523D01*
X259658714Y-124047619D01*
X259696809Y-124085714D01*
X259734904Y-124161904D01*
X259734904Y-124238095D01*
X259696809Y-124314285D01*
X259658714Y-124352380D01*
X259582523Y-124390476D01*
X259430142Y-124428571D01*
X259239666Y-124428571D01*
X259087285Y-124390476D01*
X259011095Y-124352380D01*
X258973000Y-124314285D01*
X258934904Y-124238095D01*
X259201571Y-123628571D02*
X259734904Y-123628571D01*
X259277761Y-123628571D02*
X259239666Y-123590476D01*
X259201571Y-123514285D01*
X259201571Y-123400000D01*
X259239666Y-123323809D01*
X259315857Y-123285714D01*
X259734904Y-123285714D01*
X217613333Y-138419142D02*
X217565714Y-138466761D01*
X217422857Y-138514380D01*
X217327619Y-138514380D01*
X217184761Y-138466761D01*
X217089523Y-138371523D01*
X217041904Y-138276285D01*
X216994285Y-138085809D01*
X216994285Y-137942952D01*
X217041904Y-137752476D01*
X217089523Y-137657238D01*
X217184761Y-137562000D01*
X217327619Y-137514380D01*
X217422857Y-137514380D01*
X217565714Y-137562000D01*
X217613333Y-137609619D01*
X218518095Y-137514380D02*
X218041904Y-137514380D01*
X217994285Y-137990571D01*
X218041904Y-137942952D01*
X218137142Y-137895333D01*
X218375238Y-137895333D01*
X218470476Y-137942952D01*
X218518095Y-137990571D01*
X218565714Y-138085809D01*
X218565714Y-138323904D01*
X218518095Y-138419142D01*
X218470476Y-138466761D01*
X218375238Y-138514380D01*
X218137142Y-138514380D01*
X218041904Y-138466761D01*
X217994285Y-138419142D01*
X224328380Y-145277047D02*
X224328380Y-145848476D01*
X224328380Y-145562761D02*
X223328380Y-145562761D01*
X223471238Y-145658000D01*
X223566476Y-145753238D01*
X223614095Y-145848476D01*
X223328380Y-144658000D02*
X223328380Y-144562761D01*
X223376000Y-144467523D01*
X223423619Y-144419904D01*
X223518857Y-144372285D01*
X223709333Y-144324666D01*
X223947428Y-144324666D01*
X224137904Y-144372285D01*
X224233142Y-144419904D01*
X224280761Y-144467523D01*
X224328380Y-144562761D01*
X224328380Y-144658000D01*
X224280761Y-144753238D01*
X224233142Y-144800857D01*
X224137904Y-144848476D01*
X223947428Y-144896095D01*
X223709333Y-144896095D01*
X223518857Y-144848476D01*
X223423619Y-144800857D01*
X223376000Y-144753238D01*
X223328380Y-144658000D01*
X223328380Y-143705619D02*
X223328380Y-143610380D01*
X223376000Y-143515142D01*
X223423619Y-143467523D01*
X223518857Y-143419904D01*
X223709333Y-143372285D01*
X223947428Y-143372285D01*
X224137904Y-143419904D01*
X224233142Y-143467523D01*
X224280761Y-143515142D01*
X224328380Y-143610380D01*
X224328380Y-143705619D01*
X224280761Y-143800857D01*
X224233142Y-143848476D01*
X224137904Y-143896095D01*
X223947428Y-143943714D01*
X223709333Y-143943714D01*
X223518857Y-143896095D01*
X223423619Y-143848476D01*
X223376000Y-143800857D01*
X223328380Y-143705619D01*
X223661714Y-142515142D02*
X224328380Y-142515142D01*
X223661714Y-142943714D02*
X224185523Y-142943714D01*
X224280761Y-142896095D01*
X224328380Y-142800857D01*
X224328380Y-142658000D01*
X224280761Y-142562761D01*
X224233142Y-142515142D01*
X227027142Y-146610666D02*
X227074761Y-146658285D01*
X227122380Y-146801142D01*
X227122380Y-146896380D01*
X227074761Y-147039238D01*
X226979523Y-147134476D01*
X226884285Y-147182095D01*
X226693809Y-147229714D01*
X226550952Y-147229714D01*
X226360476Y-147182095D01*
X226265238Y-147134476D01*
X226170000Y-147039238D01*
X226122380Y-146896380D01*
X226122380Y-146801142D01*
X226170000Y-146658285D01*
X226217619Y-146610666D01*
X226455714Y-145753523D02*
X227122380Y-145753523D01*
X226074761Y-145991619D02*
X226789047Y-146229714D01*
X226789047Y-145610666D01*
X226269904Y-142513238D02*
X226269904Y-142970380D01*
X226269904Y-142741809D02*
X225469904Y-142741809D01*
X225584190Y-142818000D01*
X225660380Y-142894190D01*
X225698476Y-142970380D01*
X225469904Y-142018000D02*
X225469904Y-141941809D01*
X225508000Y-141865619D01*
X225546095Y-141827523D01*
X225622285Y-141789428D01*
X225774666Y-141751333D01*
X225965142Y-141751333D01*
X226117523Y-141789428D01*
X226193714Y-141827523D01*
X226231809Y-141865619D01*
X226269904Y-141941809D01*
X226269904Y-142018000D01*
X226231809Y-142094190D01*
X226193714Y-142132285D01*
X226117523Y-142170380D01*
X225965142Y-142208476D01*
X225774666Y-142208476D01*
X225622285Y-142170380D01*
X225546095Y-142132285D01*
X225508000Y-142094190D01*
X225469904Y-142018000D01*
X225469904Y-141256095D02*
X225469904Y-141179904D01*
X225508000Y-141103714D01*
X225546095Y-141065619D01*
X225622285Y-141027523D01*
X225774666Y-140989428D01*
X225965142Y-140989428D01*
X226117523Y-141027523D01*
X226193714Y-141065619D01*
X226231809Y-141103714D01*
X226269904Y-141179904D01*
X226269904Y-141256095D01*
X226231809Y-141332285D01*
X226193714Y-141370380D01*
X226117523Y-141408476D01*
X225965142Y-141446571D01*
X225774666Y-141446571D01*
X225622285Y-141408476D01*
X225546095Y-141370380D01*
X225508000Y-141332285D01*
X225469904Y-141256095D01*
X225736571Y-140646571D02*
X226269904Y-140646571D01*
X225812761Y-140646571D02*
X225774666Y-140608476D01*
X225736571Y-140532285D01*
X225736571Y-140418000D01*
X225774666Y-140341809D01*
X225850857Y-140303714D01*
X226269904Y-140303714D01*
X222439333Y-119877142D02*
X222391714Y-119924761D01*
X222248857Y-119972380D01*
X222153619Y-119972380D01*
X222010761Y-119924761D01*
X221915523Y-119829523D01*
X221867904Y-119734285D01*
X221820285Y-119543809D01*
X221820285Y-119400952D01*
X221867904Y-119210476D01*
X221915523Y-119115238D01*
X222010761Y-119020000D01*
X222153619Y-118972380D01*
X222248857Y-118972380D01*
X222391714Y-119020000D01*
X222439333Y-119067619D01*
X222772666Y-118972380D02*
X223391714Y-118972380D01*
X223058380Y-119353333D01*
X223201238Y-119353333D01*
X223296476Y-119400952D01*
X223344095Y-119448571D01*
X223391714Y-119543809D01*
X223391714Y-119781904D01*
X223344095Y-119877142D01*
X223296476Y-119924761D01*
X223201238Y-119972380D01*
X222915523Y-119972380D01*
X222820285Y-119924761D01*
X222772666Y-119877142D01*
X221964761Y-117849904D02*
X221507619Y-117849904D01*
X221736190Y-117849904D02*
X221736190Y-117049904D01*
X221660000Y-117164190D01*
X221583809Y-117240380D01*
X221507619Y-117278476D01*
X222460000Y-117049904D02*
X222536190Y-117049904D01*
X222612380Y-117088000D01*
X222650476Y-117126095D01*
X222688571Y-117202285D01*
X222726666Y-117354666D01*
X222726666Y-117545142D01*
X222688571Y-117697523D01*
X222650476Y-117773714D01*
X222612380Y-117811809D01*
X222536190Y-117849904D01*
X222460000Y-117849904D01*
X222383809Y-117811809D01*
X222345714Y-117773714D01*
X222307619Y-117697523D01*
X222269523Y-117545142D01*
X222269523Y-117354666D01*
X222307619Y-117202285D01*
X222345714Y-117126095D01*
X222383809Y-117088000D01*
X222460000Y-117049904D01*
X223221904Y-117049904D02*
X223298095Y-117049904D01*
X223374285Y-117088000D01*
X223412380Y-117126095D01*
X223450476Y-117202285D01*
X223488571Y-117354666D01*
X223488571Y-117545142D01*
X223450476Y-117697523D01*
X223412380Y-117773714D01*
X223374285Y-117811809D01*
X223298095Y-117849904D01*
X223221904Y-117849904D01*
X223145714Y-117811809D01*
X223107619Y-117773714D01*
X223069523Y-117697523D01*
X223031428Y-117545142D01*
X223031428Y-117354666D01*
X223069523Y-117202285D01*
X223107619Y-117126095D01*
X223145714Y-117088000D01*
X223221904Y-117049904D01*
X223831428Y-117316571D02*
X223831428Y-117849904D01*
X223831428Y-117392761D02*
X223869523Y-117354666D01*
X223945714Y-117316571D01*
X224060000Y-117316571D01*
X224136190Y-117354666D01*
X224174285Y-117430857D01*
X224174285Y-117849904D01*
X218137142Y-102668666D02*
X218184761Y-102716285D01*
X218232380Y-102859142D01*
X218232380Y-102954380D01*
X218184761Y-103097238D01*
X218089523Y-103192476D01*
X217994285Y-103240095D01*
X217803809Y-103287714D01*
X217660952Y-103287714D01*
X217470476Y-103240095D01*
X217375238Y-103192476D01*
X217280000Y-103097238D01*
X217232380Y-102954380D01*
X217232380Y-102859142D01*
X217280000Y-102716285D01*
X217327619Y-102668666D01*
X218232380Y-101716285D02*
X218232380Y-102287714D01*
X218232380Y-102002000D02*
X217232380Y-102002000D01*
X217375238Y-102097238D01*
X217470476Y-102192476D01*
X217518095Y-102287714D01*
X226611714Y-108272190D02*
X227278380Y-108272190D01*
X226230761Y-108510285D02*
X226945047Y-108748380D01*
X226945047Y-108129333D01*
X226278380Y-107843619D02*
X226278380Y-107176952D01*
X227278380Y-107605523D01*
X226278380Y-106605523D02*
X226278380Y-106510285D01*
X226326000Y-106415047D01*
X226373619Y-106367428D01*
X226468857Y-106319809D01*
X226659333Y-106272190D01*
X226897428Y-106272190D01*
X227087904Y-106319809D01*
X227183142Y-106367428D01*
X227230761Y-106415047D01*
X227278380Y-106510285D01*
X227278380Y-106605523D01*
X227230761Y-106700761D01*
X227183142Y-106748380D01*
X227087904Y-106796000D01*
X226897428Y-106843619D01*
X226659333Y-106843619D01*
X226468857Y-106796000D01*
X226373619Y-106748380D01*
X226326000Y-106700761D01*
X226278380Y-106605523D01*
X226611714Y-105415047D02*
X227278380Y-105415047D01*
X226611714Y-105843619D02*
X227135523Y-105843619D01*
X227230761Y-105796000D01*
X227278380Y-105700761D01*
X227278380Y-105557904D01*
X227230761Y-105462666D01*
X227183142Y-105415047D01*
X227278380Y-103653142D02*
X227278380Y-104224571D01*
X227278380Y-103938857D02*
X226278380Y-103938857D01*
X226421238Y-104034095D01*
X226516476Y-104129333D01*
X226564095Y-104224571D01*
X226278380Y-103034095D02*
X226278380Y-102938857D01*
X226326000Y-102843619D01*
X226373619Y-102796000D01*
X226468857Y-102748380D01*
X226659333Y-102700761D01*
X226897428Y-102700761D01*
X227087904Y-102748380D01*
X227183142Y-102796000D01*
X227230761Y-102843619D01*
X227278380Y-102938857D01*
X227278380Y-103034095D01*
X227230761Y-103129333D01*
X227183142Y-103176952D01*
X227087904Y-103224571D01*
X226897428Y-103272190D01*
X226659333Y-103272190D01*
X226468857Y-103224571D01*
X226373619Y-103176952D01*
X226326000Y-103129333D01*
X226278380Y-103034095D01*
X226278380Y-102415047D02*
X227278380Y-102081714D01*
X226278380Y-101748380D01*
M02*
