M48
INCH,TZ
T1C0.0236
T2C0.0315
T3C0.0394
T4C0.0512
%
G90
G05
T1
X81240Y-42055
X81240Y-43055
X81240Y-44055
X81240Y-45055
X81240Y-51055
X81240Y-52055
X81240Y-53055
X81240Y-54055
X85992Y-39846
X88240Y-42155
X89240Y-41455
X89265Y-44255
X91340Y-56055
X92240Y-41555
X92690Y-42855
X93740Y-41555
X93740Y-55055
X93740Y-57555
X94740Y-55055
X94740Y-57555
X95640Y-44055
X95740Y-55055
X95740Y-57555
X96740Y-44055
X96740Y-55055
X96740Y-57555
X97740Y-55055
X97740Y-57555
X102240Y-40655
X102240Y-42755
X103140Y-40655
X103140Y-42755
T2
X88340Y-47555
X88340Y-50555
X89340Y-47555
X89340Y-50555
X90340Y-47555
X90340Y-50555
X94490Y-47555
X94490Y-50555
X95490Y-47555
X95490Y-50555
X96490Y-47555
X96490Y-50555
X97490Y-47555
X97490Y-50555
X98490Y-47555
X98490Y-50555
X99490Y-47555
X99490Y-50555
X100490Y-47555
X100490Y-50555
X86772Y-46205
X88740Y-46205
X86496Y-43858
X88465Y-43858
X87402Y-40777
X87402Y-42155
X102165Y-48055
X102165Y-50024
X85940Y-53355
X88940Y-53355
X95740Y-46055
X98740Y-46055
X100240Y-46055
X103240Y-46055
X86440Y-47705
X86440Y-50705
X88940Y-54787
X88940Y-56755
X92490Y-47555
X92490Y-50555
X87640Y-51655
X90640Y-51655
X91240Y-46055
X94240Y-46055
X86840Y-55071
X86840Y-56055
T3
X90250Y-40905
X90250Y-41905
X90250Y-42905
X90250Y-43905
X83340Y-58105
X84340Y-58105
X85340Y-58105
X86340Y-58105
X87340Y-58105
X90308Y-53155
X90308Y-54155
X90308Y-55155
X90308Y-56155
X90308Y-57155
X90308Y-58155
X92808Y-52905
X93808Y-52905
X94808Y-52905
X95808Y-52905
X96808Y-52905
X97808Y-52905
X98808Y-52905
X99808Y-52905
X100808Y-52905
X82035Y-37886
X82035Y-38886
X83035Y-37886
X83035Y-38886
X84035Y-37886
X84035Y-38886
X85035Y-37886
X85035Y-38886
X86035Y-37886
X86035Y-38886
X87035Y-37886
X87035Y-38886
X88035Y-37886
X88035Y-38886
X89035Y-37886
X89035Y-38886
X90035Y-37886
X90035Y-38886
X91035Y-37886
X91035Y-38886
X92035Y-37886
X92035Y-38886
X93035Y-37886
X93035Y-38886
X94035Y-37886
X94035Y-38886
X95035Y-37886
X95035Y-38886
X96035Y-37886
X96035Y-38886
X97035Y-37886
X97035Y-38886
X98035Y-37886
X98035Y-38886
X99035Y-37886
X99035Y-38886
X100035Y-37886
X100035Y-38886
X101035Y-37886
X101035Y-38886
T4
X79803Y-41834
X79803Y-42818
X79803Y-44787
X79803Y-45771
X83740Y-40850
X83740Y-43802
X83740Y-46755
X84724Y-41834
X84724Y-45771
X79803Y-50295
X79803Y-51280
X79803Y-53248
X79803Y-54232
X83740Y-49311
X83740Y-52264
X83740Y-55217
X84724Y-50295
X84724Y-54232
T0
M30
