G04 #@! TF.GenerationSoftware,KiCad,Pcbnew,5.1.7-a382d34a8~87~ubuntu18.04.1*
G04 #@! TF.CreationDate,2020-11-20T13:51:52+01:00*
G04 #@! TF.ProjectId,clumsyMIDI,636c756d-7379-44d4-9944-492e6b696361,rev?*
G04 #@! TF.SameCoordinates,Original*
G04 #@! TF.FileFunction,Legend,Bot*
G04 #@! TF.FilePolarity,Positive*
%FSLAX46Y46*%
G04 Gerber Fmt 4.6, Leading zero omitted, Abs format (unit mm)*
G04 Created by KiCad (PCBNEW 5.1.7-a382d34a8~87~ubuntu18.04.1) date 2020-11-20 13:51:52*
%MOMM*%
%LPD*%
G01*
G04 APERTURE LIST*
%ADD10C,0.150000*%
%ADD11C,0.010000*%
%ADD12C,0.120000*%
G04 APERTURE END LIST*
D10*
X223100000Y-147600000D02*
G75*
G03*
X223100000Y-147600000I-1300000J0D01*
G01*
X222950000Y-147600000D02*
G75*
G03*
X222950000Y-147600000I-1150000J0D01*
G01*
X255800000Y-117000000D02*
G75*
G03*
X255800000Y-117000000I-1200000J0D01*
G01*
X255941641Y-117000000D02*
G75*
G03*
X255941641Y-117000000I-1341641J0D01*
G01*
X262989833Y-110337761D02*
X263085071Y-110385380D01*
X263275547Y-110385380D01*
X263370785Y-110337761D01*
X263418404Y-110290142D01*
X263466023Y-110194904D01*
X263466023Y-109909190D01*
X263418404Y-109813952D01*
X263370785Y-109766333D01*
X263275547Y-109718714D01*
X263085071Y-109718714D01*
X262989833Y-109766333D01*
X262418404Y-110385380D02*
X262513642Y-110337761D01*
X262561261Y-110242523D01*
X262561261Y-109385380D01*
X261608880Y-109718714D02*
X261608880Y-110385380D01*
X262037452Y-109718714D02*
X262037452Y-110242523D01*
X261989833Y-110337761D01*
X261894595Y-110385380D01*
X261751738Y-110385380D01*
X261656500Y-110337761D01*
X261608880Y-110290142D01*
X261132690Y-110385380D02*
X261132690Y-109718714D01*
X261132690Y-109813952D02*
X261085071Y-109766333D01*
X260989833Y-109718714D01*
X260846976Y-109718714D01*
X260751738Y-109766333D01*
X260704119Y-109861571D01*
X260704119Y-110385380D01*
X260704119Y-109861571D02*
X260656500Y-109766333D01*
X260561261Y-109718714D01*
X260418404Y-109718714D01*
X260323166Y-109766333D01*
X260275547Y-109861571D01*
X260275547Y-110385380D01*
X259846976Y-110337761D02*
X259751738Y-110385380D01*
X259561261Y-110385380D01*
X259466023Y-110337761D01*
X259418404Y-110242523D01*
X259418404Y-110194904D01*
X259466023Y-110099666D01*
X259561261Y-110052047D01*
X259704119Y-110052047D01*
X259799357Y-110004428D01*
X259846976Y-109909190D01*
X259846976Y-109861571D01*
X259799357Y-109766333D01*
X259704119Y-109718714D01*
X259561261Y-109718714D01*
X259466023Y-109766333D01*
X259085071Y-109718714D02*
X258846976Y-110385380D01*
X258608880Y-109718714D02*
X258846976Y-110385380D01*
X258942214Y-110623476D01*
X258989833Y-110671095D01*
X259085071Y-110718714D01*
X258227928Y-110385380D02*
X258227928Y-109385380D01*
X257894595Y-110099666D01*
X257561261Y-109385380D01*
X257561261Y-110385380D01*
X257085071Y-110385380D02*
X257085071Y-109385380D01*
X256608880Y-110385380D02*
X256608880Y-109385380D01*
X256370785Y-109385380D01*
X256227928Y-109433000D01*
X256132690Y-109528238D01*
X256085071Y-109623476D01*
X256037452Y-109813952D01*
X256037452Y-109956809D01*
X256085071Y-110147285D01*
X256132690Y-110242523D01*
X256227928Y-110337761D01*
X256370785Y-110385380D01*
X256608880Y-110385380D01*
X255608880Y-110385380D02*
X255608880Y-109385380D01*
X253799357Y-110385380D02*
X254132690Y-109909190D01*
X254370785Y-110385380D02*
X254370785Y-109385380D01*
X253989833Y-109385380D01*
X253894595Y-109433000D01*
X253846976Y-109480619D01*
X253799357Y-109575857D01*
X253799357Y-109718714D01*
X253846976Y-109813952D01*
X253894595Y-109861571D01*
X253989833Y-109909190D01*
X254370785Y-109909190D01*
X252942214Y-110385380D02*
X252942214Y-109861571D01*
X252989833Y-109766333D01*
X253085071Y-109718714D01*
X253275547Y-109718714D01*
X253370785Y-109766333D01*
X252942214Y-110337761D02*
X253037452Y-110385380D01*
X253275547Y-110385380D01*
X253370785Y-110337761D01*
X253418404Y-110242523D01*
X253418404Y-110147285D01*
X253370785Y-110052047D01*
X253275547Y-110004428D01*
X253037452Y-110004428D01*
X252942214Y-109956809D01*
X252513642Y-110337761D02*
X252418404Y-110385380D01*
X252227928Y-110385380D01*
X252132690Y-110337761D01*
X252085071Y-110242523D01*
X252085071Y-110194904D01*
X252132690Y-110099666D01*
X252227928Y-110052047D01*
X252370785Y-110052047D01*
X252466023Y-110004428D01*
X252513642Y-109909190D01*
X252513642Y-109861571D01*
X252466023Y-109766333D01*
X252370785Y-109718714D01*
X252227928Y-109718714D01*
X252132690Y-109766333D01*
X251656500Y-109718714D02*
X251656500Y-110718714D01*
X251656500Y-109766333D02*
X251561261Y-109718714D01*
X251370785Y-109718714D01*
X251275547Y-109766333D01*
X251227928Y-109813952D01*
X251180309Y-109909190D01*
X251180309Y-110194904D01*
X251227928Y-110290142D01*
X251275547Y-110337761D01*
X251370785Y-110385380D01*
X251561261Y-110385380D01*
X251656500Y-110337761D01*
X250751738Y-110385380D02*
X250751738Y-109385380D01*
X250751738Y-109766333D02*
X250656500Y-109718714D01*
X250466023Y-109718714D01*
X250370785Y-109766333D01*
X250323166Y-109813952D01*
X250275547Y-109909190D01*
X250275547Y-110194904D01*
X250323166Y-110290142D01*
X250370785Y-110337761D01*
X250466023Y-110385380D01*
X250656500Y-110385380D01*
X250751738Y-110337761D01*
X249466023Y-110337761D02*
X249561261Y-110385380D01*
X249751738Y-110385380D01*
X249846976Y-110337761D01*
X249894595Y-110242523D01*
X249894595Y-109861571D01*
X249846976Y-109766333D01*
X249751738Y-109718714D01*
X249561261Y-109718714D01*
X249466023Y-109766333D01*
X249418404Y-109861571D01*
X249418404Y-109956809D01*
X249894595Y-110052047D01*
X248989833Y-110385380D02*
X248989833Y-109718714D01*
X248989833Y-109909190D02*
X248942214Y-109813952D01*
X248894595Y-109766333D01*
X248799357Y-109718714D01*
X248704119Y-109718714D01*
X248370785Y-110385380D02*
X248370785Y-109718714D01*
X248370785Y-109909190D02*
X248323166Y-109813952D01*
X248275547Y-109766333D01*
X248180309Y-109718714D01*
X248085071Y-109718714D01*
X247846976Y-109718714D02*
X247608880Y-110385380D01*
X247370785Y-109718714D02*
X247608880Y-110385380D01*
X247704119Y-110623476D01*
X247751738Y-110671095D01*
X247846976Y-110718714D01*
X246227928Y-110385380D02*
X246227928Y-109385380D01*
X245846976Y-109385380D01*
X245751738Y-109433000D01*
X245704119Y-109480619D01*
X245656500Y-109575857D01*
X245656500Y-109718714D01*
X245704119Y-109813952D01*
X245751738Y-109861571D01*
X245846976Y-109909190D01*
X246227928Y-109909190D01*
X245227928Y-110385380D02*
X245227928Y-109718714D01*
X245227928Y-109385380D02*
X245275547Y-109433000D01*
X245227928Y-109480619D01*
X245180309Y-109433000D01*
X245227928Y-109385380D01*
X245227928Y-109480619D01*
X243608880Y-110337761D02*
X243704119Y-110385380D01*
X243894595Y-110385380D01*
X243989833Y-110337761D01*
X244037452Y-110242523D01*
X244037452Y-109861571D01*
X243989833Y-109766333D01*
X243894595Y-109718714D01*
X243704119Y-109718714D01*
X243608880Y-109766333D01*
X243561261Y-109861571D01*
X243561261Y-109956809D01*
X244037452Y-110052047D01*
X243227928Y-110385380D02*
X242704119Y-109718714D01*
X243227928Y-109718714D02*
X242704119Y-110385380D01*
X242323166Y-109718714D02*
X242323166Y-110718714D01*
X242323166Y-109766333D02*
X242227928Y-109718714D01*
X242037452Y-109718714D01*
X241942214Y-109766333D01*
X241894595Y-109813952D01*
X241846976Y-109909190D01*
X241846976Y-110194904D01*
X241894595Y-110290142D01*
X241942214Y-110337761D01*
X242037452Y-110385380D01*
X242227928Y-110385380D01*
X242323166Y-110337761D01*
X240989833Y-110385380D02*
X240989833Y-109861571D01*
X241037452Y-109766333D01*
X241132690Y-109718714D01*
X241323166Y-109718714D01*
X241418404Y-109766333D01*
X240989833Y-110337761D02*
X241085071Y-110385380D01*
X241323166Y-110385380D01*
X241418404Y-110337761D01*
X241466023Y-110242523D01*
X241466023Y-110147285D01*
X241418404Y-110052047D01*
X241323166Y-110004428D01*
X241085071Y-110004428D01*
X240989833Y-109956809D01*
X240513642Y-109718714D02*
X240513642Y-110385380D01*
X240513642Y-109813952D02*
X240466023Y-109766333D01*
X240370785Y-109718714D01*
X240227928Y-109718714D01*
X240132690Y-109766333D01*
X240085071Y-109861571D01*
X240085071Y-110385380D01*
X239656500Y-110337761D02*
X239561261Y-110385380D01*
X239370785Y-110385380D01*
X239275547Y-110337761D01*
X239227928Y-110242523D01*
X239227928Y-110194904D01*
X239275547Y-110099666D01*
X239370785Y-110052047D01*
X239513642Y-110052047D01*
X239608880Y-110004428D01*
X239656500Y-109909190D01*
X239656500Y-109861571D01*
X239608880Y-109766333D01*
X239513642Y-109718714D01*
X239370785Y-109718714D01*
X239275547Y-109766333D01*
X238799357Y-110385380D02*
X238799357Y-109718714D01*
X238799357Y-109385380D02*
X238846976Y-109433000D01*
X238799357Y-109480619D01*
X238751738Y-109433000D01*
X238799357Y-109385380D01*
X238799357Y-109480619D01*
X238180309Y-110385380D02*
X238275547Y-110337761D01*
X238323166Y-110290142D01*
X238370785Y-110194904D01*
X238370785Y-109909190D01*
X238323166Y-109813952D01*
X238275547Y-109766333D01*
X238180309Y-109718714D01*
X238037452Y-109718714D01*
X237942214Y-109766333D01*
X237894595Y-109813952D01*
X237846976Y-109909190D01*
X237846976Y-110194904D01*
X237894595Y-110290142D01*
X237942214Y-110337761D01*
X238037452Y-110385380D01*
X238180309Y-110385380D01*
X237418404Y-109718714D02*
X237418404Y-110385380D01*
X237418404Y-109813952D02*
X237370785Y-109766333D01*
X237275547Y-109718714D01*
X237132690Y-109718714D01*
X237037452Y-109766333D01*
X236989833Y-109861571D01*
X236989833Y-110385380D01*
X235751738Y-110385380D02*
X235751738Y-109385380D01*
X235751738Y-109766333D02*
X235656500Y-109718714D01*
X235466023Y-109718714D01*
X235370785Y-109766333D01*
X235323166Y-109813952D01*
X235275547Y-109909190D01*
X235275547Y-110194904D01*
X235323166Y-110290142D01*
X235370785Y-110337761D01*
X235466023Y-110385380D01*
X235656500Y-110385380D01*
X235751738Y-110337761D01*
X234704119Y-110385380D02*
X234799357Y-110337761D01*
X234846976Y-110290142D01*
X234894595Y-110194904D01*
X234894595Y-109909190D01*
X234846976Y-109813952D01*
X234799357Y-109766333D01*
X234704119Y-109718714D01*
X234561261Y-109718714D01*
X234466023Y-109766333D01*
X234418404Y-109813952D01*
X234370785Y-109909190D01*
X234370785Y-110194904D01*
X234418404Y-110290142D01*
X234466023Y-110337761D01*
X234561261Y-110385380D01*
X234704119Y-110385380D01*
X233513642Y-110385380D02*
X233513642Y-109861571D01*
X233561261Y-109766333D01*
X233656500Y-109718714D01*
X233846976Y-109718714D01*
X233942214Y-109766333D01*
X233513642Y-110337761D02*
X233608880Y-110385380D01*
X233846976Y-110385380D01*
X233942214Y-110337761D01*
X233989833Y-110242523D01*
X233989833Y-110147285D01*
X233942214Y-110052047D01*
X233846976Y-110004428D01*
X233608880Y-110004428D01*
X233513642Y-109956809D01*
X233037452Y-110385380D02*
X233037452Y-109718714D01*
X233037452Y-109909190D02*
X232989833Y-109813952D01*
X232942214Y-109766333D01*
X232846976Y-109718714D01*
X232751738Y-109718714D01*
X231989833Y-110385380D02*
X231989833Y-109385380D01*
X231989833Y-110337761D02*
X232085071Y-110385380D01*
X232275547Y-110385380D01*
X232370785Y-110337761D01*
X232418404Y-110290142D01*
X232466023Y-110194904D01*
X232466023Y-109909190D01*
X232418404Y-109813952D01*
X232370785Y-109766333D01*
X232275547Y-109718714D01*
X232085071Y-109718714D01*
X231989833Y-109766333D01*
X231466023Y-110337761D02*
X231466023Y-110385380D01*
X231513642Y-110480619D01*
X231561261Y-110528238D01*
X262846976Y-112035380D02*
X263180309Y-111559190D01*
X263418404Y-112035380D02*
X263418404Y-111035380D01*
X263037452Y-111035380D01*
X262942214Y-111083000D01*
X262894595Y-111130619D01*
X262846976Y-111225857D01*
X262846976Y-111368714D01*
X262894595Y-111463952D01*
X262942214Y-111511571D01*
X263037452Y-111559190D01*
X263418404Y-111559190D01*
X262037452Y-111987761D02*
X262132690Y-112035380D01*
X262323166Y-112035380D01*
X262418404Y-111987761D01*
X262466023Y-111892523D01*
X262466023Y-111511571D01*
X262418404Y-111416333D01*
X262323166Y-111368714D01*
X262132690Y-111368714D01*
X262037452Y-111416333D01*
X261989833Y-111511571D01*
X261989833Y-111606809D01*
X262466023Y-111702047D01*
X261656500Y-111368714D02*
X261418404Y-112035380D01*
X261180309Y-111368714D01*
X260799357Y-111940142D02*
X260751738Y-111987761D01*
X260799357Y-112035380D01*
X260846976Y-111987761D01*
X260799357Y-111940142D01*
X260799357Y-112035380D01*
X259037452Y-112035380D02*
X259608880Y-112035380D01*
X259323166Y-112035380D02*
X259323166Y-111035380D01*
X259418404Y-111178238D01*
X259513642Y-111273476D01*
X259608880Y-111321095D01*
X258608880Y-111940142D02*
X258561261Y-111987761D01*
X258608880Y-112035380D01*
X258656500Y-111987761D01*
X258608880Y-111940142D01*
X258608880Y-112035380D01*
X257608880Y-112035380D02*
X258180309Y-112035380D01*
X257894595Y-112035380D02*
X257894595Y-111035380D01*
X257989833Y-111178238D01*
X258085071Y-111273476D01*
X258180309Y-111321095D01*
X263418404Y-113685380D02*
X263418404Y-112685380D01*
X263037452Y-112685380D01*
X262942214Y-112733000D01*
X262894595Y-112780619D01*
X262846976Y-112875857D01*
X262846976Y-113018714D01*
X262894595Y-113113952D01*
X262942214Y-113161571D01*
X263037452Y-113209190D01*
X263418404Y-113209190D01*
X261846976Y-113590142D02*
X261894595Y-113637761D01*
X262037452Y-113685380D01*
X262132690Y-113685380D01*
X262275547Y-113637761D01*
X262370785Y-113542523D01*
X262418404Y-113447285D01*
X262466023Y-113256809D01*
X262466023Y-113113952D01*
X262418404Y-112923476D01*
X262370785Y-112828238D01*
X262275547Y-112733000D01*
X262132690Y-112685380D01*
X262037452Y-112685380D01*
X261894595Y-112733000D01*
X261846976Y-112780619D01*
X261085071Y-113161571D02*
X260942214Y-113209190D01*
X260894595Y-113256809D01*
X260846976Y-113352047D01*
X260846976Y-113494904D01*
X260894595Y-113590142D01*
X260942214Y-113637761D01*
X261037452Y-113685380D01*
X261418404Y-113685380D01*
X261418404Y-112685380D01*
X261085071Y-112685380D01*
X260989833Y-112733000D01*
X260942214Y-112780619D01*
X260894595Y-112875857D01*
X260894595Y-112971095D01*
X260942214Y-113066333D01*
X260989833Y-113113952D01*
X261085071Y-113161571D01*
X261418404Y-113161571D01*
X258846976Y-112923476D02*
X258942214Y-112875857D01*
X259132690Y-112875857D01*
X259227928Y-112923476D01*
X259323166Y-113018714D01*
X259370785Y-113113952D01*
X259370785Y-113304428D01*
X259323166Y-113399666D01*
X259227928Y-113494904D01*
X259132690Y-113542523D01*
X258942214Y-113542523D01*
X258846976Y-113494904D01*
X259037452Y-112542523D02*
X259275547Y-112590142D01*
X259513642Y-112733000D01*
X259656500Y-112971095D01*
X259704119Y-113209190D01*
X259656500Y-113447285D01*
X259513642Y-113685380D01*
X259275547Y-113828238D01*
X259037452Y-113875857D01*
X258799357Y-113828238D01*
X258561261Y-113685380D01*
X258418404Y-113447285D01*
X258370785Y-113209190D01*
X258418404Y-112971095D01*
X258561261Y-112733000D01*
X258799357Y-112590142D01*
X259037452Y-112542523D01*
X257227928Y-112780619D02*
X257180309Y-112733000D01*
X257085071Y-112685380D01*
X256846976Y-112685380D01*
X256751738Y-112733000D01*
X256704119Y-112780619D01*
X256656500Y-112875857D01*
X256656500Y-112971095D01*
X256704119Y-113113952D01*
X257275547Y-113685380D01*
X256656500Y-113685380D01*
X256037452Y-112685380D02*
X255942214Y-112685380D01*
X255846976Y-112733000D01*
X255799357Y-112780619D01*
X255751738Y-112875857D01*
X255704119Y-113066333D01*
X255704119Y-113304428D01*
X255751738Y-113494904D01*
X255799357Y-113590142D01*
X255846976Y-113637761D01*
X255942214Y-113685380D01*
X256037452Y-113685380D01*
X256132690Y-113637761D01*
X256180309Y-113590142D01*
X256227928Y-113494904D01*
X256275547Y-113304428D01*
X256275547Y-113066333D01*
X256227928Y-112875857D01*
X256180309Y-112780619D01*
X256132690Y-112733000D01*
X256037452Y-112685380D01*
X255323166Y-112780619D02*
X255275547Y-112733000D01*
X255180309Y-112685380D01*
X254942214Y-112685380D01*
X254846976Y-112733000D01*
X254799357Y-112780619D01*
X254751738Y-112875857D01*
X254751738Y-112971095D01*
X254799357Y-113113952D01*
X255370785Y-113685380D01*
X254751738Y-113685380D01*
X254132690Y-112685380D02*
X254037452Y-112685380D01*
X253942214Y-112733000D01*
X253894595Y-112780619D01*
X253846976Y-112875857D01*
X253799357Y-113066333D01*
X253799357Y-113304428D01*
X253846976Y-113494904D01*
X253894595Y-113590142D01*
X253942214Y-113637761D01*
X254037452Y-113685380D01*
X254132690Y-113685380D01*
X254227928Y-113637761D01*
X254275547Y-113590142D01*
X254323166Y-113494904D01*
X254370785Y-113304428D01*
X254370785Y-113066333D01*
X254323166Y-112875857D01*
X254275547Y-112780619D01*
X254227928Y-112733000D01*
X254132690Y-112685380D01*
X252608880Y-113685380D02*
X252608880Y-112685380D01*
X252608880Y-113066333D02*
X252513642Y-113018714D01*
X252323166Y-113018714D01*
X252227928Y-113066333D01*
X252180309Y-113113952D01*
X252132690Y-113209190D01*
X252132690Y-113494904D01*
X252180309Y-113590142D01*
X252227928Y-113637761D01*
X252323166Y-113685380D01*
X252513642Y-113685380D01*
X252608880Y-113637761D01*
X251799357Y-113018714D02*
X251561261Y-113685380D01*
X251323166Y-113018714D02*
X251561261Y-113685380D01*
X251656500Y-113923476D01*
X251704119Y-113971095D01*
X251799357Y-114018714D01*
X250227928Y-113399666D02*
X249751738Y-113399666D01*
X250323166Y-113685380D02*
X249989833Y-112685380D01*
X249656500Y-113685380D01*
X249323166Y-113018714D02*
X249323166Y-113685380D01*
X249323166Y-113113952D02*
X249275547Y-113066333D01*
X249180309Y-113018714D01*
X249037452Y-113018714D01*
X248942214Y-113066333D01*
X248894595Y-113161571D01*
X248894595Y-113685380D01*
X247989833Y-113685380D02*
X247989833Y-112685380D01*
X247989833Y-113637761D02*
X248085071Y-113685380D01*
X248275547Y-113685380D01*
X248370785Y-113637761D01*
X248418404Y-113590142D01*
X248466023Y-113494904D01*
X248466023Y-113209190D01*
X248418404Y-113113952D01*
X248370785Y-113066333D01*
X248275547Y-113018714D01*
X248085071Y-113018714D01*
X247989833Y-113066333D01*
X247513642Y-113685380D02*
X247513642Y-113018714D01*
X247513642Y-113209190D02*
X247466023Y-113113952D01*
X247418404Y-113066333D01*
X247323166Y-113018714D01*
X247227928Y-113018714D01*
X246513642Y-113637761D02*
X246608880Y-113685380D01*
X246799357Y-113685380D01*
X246894595Y-113637761D01*
X246942214Y-113542523D01*
X246942214Y-113161571D01*
X246894595Y-113066333D01*
X246799357Y-113018714D01*
X246608880Y-113018714D01*
X246513642Y-113066333D01*
X246466023Y-113161571D01*
X246466023Y-113256809D01*
X246942214Y-113352047D01*
X245608880Y-113685380D02*
X245608880Y-113161571D01*
X245656500Y-113066333D01*
X245751738Y-113018714D01*
X245942214Y-113018714D01*
X246037452Y-113066333D01*
X245608880Y-113637761D02*
X245704119Y-113685380D01*
X245942214Y-113685380D01*
X246037452Y-113637761D01*
X246085071Y-113542523D01*
X246085071Y-113447285D01*
X246037452Y-113352047D01*
X245942214Y-113304428D01*
X245704119Y-113304428D01*
X245608880Y-113256809D01*
X245180309Y-113637761D02*
X245085071Y-113685380D01*
X244894595Y-113685380D01*
X244799357Y-113637761D01*
X244751738Y-113542523D01*
X244751738Y-113494904D01*
X244799357Y-113399666D01*
X244894595Y-113352047D01*
X245037452Y-113352047D01*
X245132690Y-113304428D01*
X245180309Y-113209190D01*
X245180309Y-113161571D01*
X245132690Y-113066333D01*
X245037452Y-113018714D01*
X244894595Y-113018714D01*
X244799357Y-113066333D01*
X243656500Y-112685380D02*
X242989833Y-112685380D01*
X243656500Y-113685380D01*
X242989833Y-113685380D01*
X242180309Y-113685380D02*
X242180309Y-112685380D01*
X242180309Y-113637761D02*
X242275547Y-113685380D01*
X242466023Y-113685380D01*
X242561261Y-113637761D01*
X242608880Y-113590142D01*
X242656500Y-113494904D01*
X242656500Y-113209190D01*
X242608880Y-113113952D01*
X242561261Y-113066333D01*
X242466023Y-113018714D01*
X242275547Y-113018714D01*
X242180309Y-113066333D01*
X241799357Y-113018714D02*
X241275547Y-113018714D01*
X241799357Y-113685380D01*
X241275547Y-113685380D01*
X240894595Y-113685380D02*
X240894595Y-113018714D01*
X240894595Y-112685380D02*
X240942214Y-112733000D01*
X240894595Y-112780619D01*
X240846976Y-112733000D01*
X240894595Y-112685380D01*
X240894595Y-112780619D01*
X239989833Y-113685380D02*
X239989833Y-113161571D01*
X240037452Y-113066333D01*
X240132690Y-113018714D01*
X240323166Y-113018714D01*
X240418404Y-113066333D01*
X239989833Y-113637761D02*
X240085071Y-113685380D01*
X240323166Y-113685380D01*
X240418404Y-113637761D01*
X240466023Y-113542523D01*
X240466023Y-113447285D01*
X240418404Y-113352047D01*
X240323166Y-113304428D01*
X240085071Y-113304428D01*
X239989833Y-113256809D01*
X239513642Y-113685380D02*
X239513642Y-113018714D01*
X239513642Y-113209190D02*
X239466023Y-113113952D01*
X239418404Y-113066333D01*
X239323166Y-113018714D01*
X239227928Y-113018714D01*
X238942214Y-113637761D02*
X238846976Y-113685380D01*
X238656500Y-113685380D01*
X238561261Y-113637761D01*
X238513642Y-113542523D01*
X238513642Y-113494904D01*
X238561261Y-113399666D01*
X238656500Y-113352047D01*
X238799357Y-113352047D01*
X238894595Y-113304428D01*
X238942214Y-113209190D01*
X238942214Y-113161571D01*
X238894595Y-113066333D01*
X238799357Y-113018714D01*
X238656500Y-113018714D01*
X238561261Y-113066333D01*
X238227928Y-113018714D02*
X237846976Y-113018714D01*
X238085071Y-112685380D02*
X238085071Y-113542523D01*
X238037452Y-113637761D01*
X237942214Y-113685380D01*
X237846976Y-113685380D01*
X237132690Y-113637761D02*
X237227928Y-113685380D01*
X237418404Y-113685380D01*
X237513642Y-113637761D01*
X237561261Y-113542523D01*
X237561261Y-113161571D01*
X237513642Y-113066333D01*
X237418404Y-113018714D01*
X237227928Y-113018714D01*
X237132690Y-113066333D01*
X237085071Y-113161571D01*
X237085071Y-113256809D01*
X237561261Y-113352047D01*
X236656500Y-113685380D02*
X236656500Y-112685380D01*
X236561261Y-113304428D02*
X236275547Y-113685380D01*
X236275547Y-113018714D02*
X236656500Y-113399666D01*
X235799357Y-113637761D02*
X235799357Y-113685380D01*
X235846976Y-113780619D01*
X235894595Y-113828238D01*
X234608880Y-113685380D02*
X234608880Y-113018714D01*
X234608880Y-113209190D02*
X234561261Y-113113952D01*
X234513642Y-113066333D01*
X234418404Y-113018714D01*
X234323166Y-113018714D01*
X233608880Y-113637761D02*
X233704119Y-113685380D01*
X233894595Y-113685380D01*
X233989833Y-113637761D01*
X234037452Y-113542523D01*
X234037452Y-113161571D01*
X233989833Y-113066333D01*
X233894595Y-113018714D01*
X233704119Y-113018714D01*
X233608880Y-113066333D01*
X233561261Y-113161571D01*
X233561261Y-113256809D01*
X234037452Y-113352047D01*
X232989833Y-113685380D02*
X233085071Y-113637761D01*
X233132690Y-113542523D01*
X233132690Y-112685380D01*
X232227928Y-113637761D02*
X232323166Y-113685380D01*
X232513642Y-113685380D01*
X232608880Y-113637761D01*
X232656500Y-113542523D01*
X232656500Y-113161571D01*
X232608880Y-113066333D01*
X232513642Y-113018714D01*
X232323166Y-113018714D01*
X232227928Y-113066333D01*
X232180309Y-113161571D01*
X232180309Y-113256809D01*
X232656500Y-113352047D01*
X231323166Y-113685380D02*
X231323166Y-113161571D01*
X231370785Y-113066333D01*
X231466023Y-113018714D01*
X231656500Y-113018714D01*
X231751738Y-113066333D01*
X231323166Y-113637761D02*
X231418404Y-113685380D01*
X231656500Y-113685380D01*
X231751738Y-113637761D01*
X231799357Y-113542523D01*
X231799357Y-113447285D01*
X231751738Y-113352047D01*
X231656500Y-113304428D01*
X231418404Y-113304428D01*
X231323166Y-113256809D01*
X230894595Y-113637761D02*
X230799357Y-113685380D01*
X230608880Y-113685380D01*
X230513642Y-113637761D01*
X230466023Y-113542523D01*
X230466023Y-113494904D01*
X230513642Y-113399666D01*
X230608880Y-113352047D01*
X230751738Y-113352047D01*
X230846976Y-113304428D01*
X230894595Y-113209190D01*
X230894595Y-113161571D01*
X230846976Y-113066333D01*
X230751738Y-113018714D01*
X230608880Y-113018714D01*
X230513642Y-113066333D01*
X229656500Y-113637761D02*
X229751738Y-113685380D01*
X229942214Y-113685380D01*
X230037452Y-113637761D01*
X230085071Y-113542523D01*
X230085071Y-113161571D01*
X230037452Y-113066333D01*
X229942214Y-113018714D01*
X229751738Y-113018714D01*
X229656500Y-113066333D01*
X229608880Y-113161571D01*
X229608880Y-113256809D01*
X230085071Y-113352047D01*
X228751738Y-113685380D02*
X228751738Y-112685380D01*
X228751738Y-113637761D02*
X228846976Y-113685380D01*
X229037452Y-113685380D01*
X229132690Y-113637761D01*
X229180309Y-113590142D01*
X229227928Y-113494904D01*
X229227928Y-113209190D01*
X229180309Y-113113952D01*
X229132690Y-113066333D01*
X229037452Y-113018714D01*
X228846976Y-113018714D01*
X228751738Y-113066333D01*
X227085071Y-113018714D02*
X227085071Y-113685380D01*
X227513642Y-113018714D02*
X227513642Y-113542523D01*
X227466023Y-113637761D01*
X227370785Y-113685380D01*
X227227928Y-113685380D01*
X227132690Y-113637761D01*
X227085071Y-113590142D01*
X226608880Y-113018714D02*
X226608880Y-113685380D01*
X226608880Y-113113952D02*
X226561261Y-113066333D01*
X226466023Y-113018714D01*
X226323166Y-113018714D01*
X226227928Y-113066333D01*
X226180309Y-113161571D01*
X226180309Y-113685380D01*
X225275547Y-113685380D02*
X225275547Y-112685380D01*
X225275547Y-113637761D02*
X225370785Y-113685380D01*
X225561261Y-113685380D01*
X225656500Y-113637761D01*
X225704119Y-113590142D01*
X225751738Y-113494904D01*
X225751738Y-113209190D01*
X225704119Y-113113952D01*
X225656500Y-113066333D01*
X225561261Y-113018714D01*
X225370785Y-113018714D01*
X225275547Y-113066333D01*
X224418404Y-113637761D02*
X224513642Y-113685380D01*
X224704119Y-113685380D01*
X224799357Y-113637761D01*
X224846976Y-113542523D01*
X224846976Y-113161571D01*
X224799357Y-113066333D01*
X224704119Y-113018714D01*
X224513642Y-113018714D01*
X224418404Y-113066333D01*
X224370785Y-113161571D01*
X224370785Y-113256809D01*
X224846976Y-113352047D01*
X223942214Y-113685380D02*
X223942214Y-113018714D01*
X223942214Y-113209190D02*
X223894595Y-113113952D01*
X223846976Y-113066333D01*
X223751738Y-113018714D01*
X223656500Y-113018714D01*
X221989833Y-113590142D02*
X222037452Y-113637761D01*
X222180309Y-113685380D01*
X222275547Y-113685380D01*
X222418404Y-113637761D01*
X222513642Y-113542523D01*
X222561261Y-113447285D01*
X222608880Y-113256809D01*
X222608880Y-113113952D01*
X222561261Y-112923476D01*
X222513642Y-112828238D01*
X222418404Y-112733000D01*
X222275547Y-112685380D01*
X222180309Y-112685380D01*
X222037452Y-112733000D01*
X221989833Y-112780619D01*
X220989833Y-113590142D02*
X221037452Y-113637761D01*
X221180309Y-113685380D01*
X221275547Y-113685380D01*
X221418404Y-113637761D01*
X221513642Y-113542523D01*
X221561261Y-113447285D01*
X221608880Y-113256809D01*
X221608880Y-113113952D01*
X221561261Y-112923476D01*
X221513642Y-112828238D01*
X221418404Y-112733000D01*
X221275547Y-112685380D01*
X221180309Y-112685380D01*
X221037452Y-112733000D01*
X220989833Y-112780619D01*
X219466023Y-113161571D02*
X219323166Y-113209190D01*
X219275547Y-113256809D01*
X219227928Y-113352047D01*
X219227928Y-113494904D01*
X219275547Y-113590142D01*
X219323166Y-113637761D01*
X219418404Y-113685380D01*
X219799357Y-113685380D01*
X219799357Y-112685380D01*
X219466023Y-112685380D01*
X219370785Y-112733000D01*
X219323166Y-112780619D01*
X219275547Y-112875857D01*
X219275547Y-112971095D01*
X219323166Y-113066333D01*
X219370785Y-113113952D01*
X219466023Y-113161571D01*
X219799357Y-113161571D01*
X218608880Y-113209190D02*
X218608880Y-113685380D01*
X218942214Y-112685380D02*
X218608880Y-113209190D01*
X218275547Y-112685380D01*
X217942214Y-113304428D02*
X217180309Y-113304428D01*
X216751738Y-113637761D02*
X216608880Y-113685380D01*
X216370785Y-113685380D01*
X216275547Y-113637761D01*
X216227928Y-113590142D01*
X216180309Y-113494904D01*
X216180309Y-113399666D01*
X216227928Y-113304428D01*
X216275547Y-113256809D01*
X216370785Y-113209190D01*
X216561261Y-113161571D01*
X216656500Y-113113952D01*
X216704119Y-113066333D01*
X216751738Y-112971095D01*
X216751738Y-112875857D01*
X216704119Y-112780619D01*
X216656500Y-112733000D01*
X216561261Y-112685380D01*
X216323166Y-112685380D01*
X216180309Y-112733000D01*
X215799357Y-113399666D02*
X215323166Y-113399666D01*
X215894595Y-113685380D02*
X215561261Y-112685380D01*
X215227928Y-113685380D01*
X213704119Y-113018714D02*
X213704119Y-113685380D01*
X213942214Y-112637761D02*
X214180309Y-113352047D01*
X213561261Y-113352047D01*
X213180309Y-113590142D02*
X213132690Y-113637761D01*
X213180309Y-113685380D01*
X213227928Y-113637761D01*
X213180309Y-113590142D01*
X213180309Y-113685380D01*
X212513642Y-112685380D02*
X212418404Y-112685380D01*
X212323166Y-112733000D01*
X212275547Y-112780619D01*
X212227928Y-112875857D01*
X212180309Y-113066333D01*
X212180309Y-113304428D01*
X212227928Y-113494904D01*
X212275547Y-113590142D01*
X212323166Y-113637761D01*
X212418404Y-113685380D01*
X212513642Y-113685380D01*
X212608880Y-113637761D01*
X212656500Y-113590142D01*
X212704119Y-113494904D01*
X212751738Y-113304428D01*
X212751738Y-113066333D01*
X212704119Y-112875857D01*
X212656500Y-112780619D01*
X212608880Y-112733000D01*
X212513642Y-112685380D01*
X210846976Y-113685380D02*
X210942214Y-113637761D01*
X210989833Y-113542523D01*
X210989833Y-112685380D01*
X210466023Y-113685380D02*
X210466023Y-113018714D01*
X210466023Y-112685380D02*
X210513642Y-112733000D01*
X210466023Y-112780619D01*
X210418404Y-112733000D01*
X210466023Y-112685380D01*
X210466023Y-112780619D01*
X209561261Y-113637761D02*
X209656500Y-113685380D01*
X209846976Y-113685380D01*
X209942214Y-113637761D01*
X209989833Y-113590142D01*
X210037452Y-113494904D01*
X210037452Y-113209190D01*
X209989833Y-113113952D01*
X209942214Y-113066333D01*
X209846976Y-113018714D01*
X209656500Y-113018714D01*
X209561261Y-113066333D01*
X208751738Y-113637761D02*
X208846976Y-113685380D01*
X209037452Y-113685380D01*
X209132690Y-113637761D01*
X209180309Y-113542523D01*
X209180309Y-113161571D01*
X209132690Y-113066333D01*
X209037452Y-113018714D01*
X208846976Y-113018714D01*
X208751738Y-113066333D01*
X208704119Y-113161571D01*
X208704119Y-113256809D01*
X209180309Y-113352047D01*
X208275547Y-113018714D02*
X208275547Y-113685380D01*
X208275547Y-113113952D02*
X208227928Y-113066333D01*
X208132690Y-113018714D01*
X207989833Y-113018714D01*
X207894595Y-113066333D01*
X207846976Y-113161571D01*
X207846976Y-113685380D01*
X207418404Y-113637761D02*
X207323166Y-113685380D01*
X207132690Y-113685380D01*
X207037452Y-113637761D01*
X206989833Y-113542523D01*
X206989833Y-113494904D01*
X207037452Y-113399666D01*
X207132690Y-113352047D01*
X207275547Y-113352047D01*
X207370785Y-113304428D01*
X207418404Y-113209190D01*
X207418404Y-113161571D01*
X207370785Y-113066333D01*
X207275547Y-113018714D01*
X207132690Y-113018714D01*
X207037452Y-113066333D01*
X206180309Y-113637761D02*
X206275547Y-113685380D01*
X206466023Y-113685380D01*
X206561261Y-113637761D01*
X206608880Y-113542523D01*
X206608880Y-113161571D01*
X206561261Y-113066333D01*
X206466023Y-113018714D01*
X206275547Y-113018714D01*
X206180309Y-113066333D01*
X206132690Y-113161571D01*
X206132690Y-113256809D01*
X206608880Y-113352047D01*
X263466023Y-115287761D02*
X263370785Y-115335380D01*
X263180309Y-115335380D01*
X263085071Y-115287761D01*
X263037452Y-115192523D01*
X263037452Y-115144904D01*
X263085071Y-115049666D01*
X263180309Y-115002047D01*
X263323166Y-115002047D01*
X263418404Y-114954428D01*
X263466023Y-114859190D01*
X263466023Y-114811571D01*
X263418404Y-114716333D01*
X263323166Y-114668714D01*
X263180309Y-114668714D01*
X263085071Y-114716333D01*
X262227928Y-115287761D02*
X262323166Y-115335380D01*
X262513642Y-115335380D01*
X262608880Y-115287761D01*
X262656500Y-115192523D01*
X262656500Y-114811571D01*
X262608880Y-114716333D01*
X262513642Y-114668714D01*
X262323166Y-114668714D01*
X262227928Y-114716333D01*
X262180309Y-114811571D01*
X262180309Y-114906809D01*
X262656500Y-115002047D01*
X261370785Y-115287761D02*
X261466023Y-115335380D01*
X261656500Y-115335380D01*
X261751738Y-115287761D01*
X261799357Y-115192523D01*
X261799357Y-114811571D01*
X261751738Y-114716333D01*
X261656500Y-114668714D01*
X261466023Y-114668714D01*
X261370785Y-114716333D01*
X261323166Y-114811571D01*
X261323166Y-114906809D01*
X261799357Y-115002047D01*
X260132690Y-115335380D02*
X260132690Y-114335380D01*
X259704119Y-115335380D02*
X259704119Y-114811571D01*
X259751738Y-114716333D01*
X259846976Y-114668714D01*
X259989833Y-114668714D01*
X260085071Y-114716333D01*
X260132690Y-114763952D01*
X259370785Y-114668714D02*
X258989833Y-114668714D01*
X259227928Y-114335380D02*
X259227928Y-115192523D01*
X259180309Y-115287761D01*
X259085071Y-115335380D01*
X258989833Y-115335380D01*
X258799357Y-114668714D02*
X258418404Y-114668714D01*
X258656500Y-114335380D02*
X258656500Y-115192523D01*
X258608880Y-115287761D01*
X258513642Y-115335380D01*
X258418404Y-115335380D01*
X258085071Y-114668714D02*
X258085071Y-115668714D01*
X258085071Y-114716333D02*
X257989833Y-114668714D01*
X257799357Y-114668714D01*
X257704119Y-114716333D01*
X257656500Y-114763952D01*
X257608880Y-114859190D01*
X257608880Y-115144904D01*
X257656500Y-115240142D01*
X257704119Y-115287761D01*
X257799357Y-115335380D01*
X257989833Y-115335380D01*
X258085071Y-115287761D01*
X257227928Y-115287761D02*
X257132690Y-115335380D01*
X256942214Y-115335380D01*
X256846976Y-115287761D01*
X256799357Y-115192523D01*
X256799357Y-115144904D01*
X256846976Y-115049666D01*
X256942214Y-115002047D01*
X257085071Y-115002047D01*
X257180309Y-114954428D01*
X257227928Y-114859190D01*
X257227928Y-114811571D01*
X257180309Y-114716333D01*
X257085071Y-114668714D01*
X256942214Y-114668714D01*
X256846976Y-114716333D01*
X256370785Y-115240142D02*
X256323166Y-115287761D01*
X256370785Y-115335380D01*
X256418404Y-115287761D01*
X256370785Y-115240142D01*
X256370785Y-115335380D01*
X256370785Y-114716333D02*
X256323166Y-114763952D01*
X256370785Y-114811571D01*
X256418404Y-114763952D01*
X256370785Y-114716333D01*
X256370785Y-114811571D01*
X255180309Y-114287761D02*
X256037452Y-115573476D01*
X254132690Y-114287761D02*
X254989833Y-115573476D01*
X253370785Y-115287761D02*
X253466023Y-115335380D01*
X253656500Y-115335380D01*
X253751738Y-115287761D01*
X253799357Y-115240142D01*
X253846976Y-115144904D01*
X253846976Y-114859190D01*
X253799357Y-114763952D01*
X253751738Y-114716333D01*
X253656500Y-114668714D01*
X253466023Y-114668714D01*
X253370785Y-114716333D01*
X252942214Y-115335380D02*
X252942214Y-114668714D01*
X252942214Y-114859190D02*
X252894595Y-114763952D01*
X252846976Y-114716333D01*
X252751738Y-114668714D01*
X252656500Y-114668714D01*
X251942214Y-115287761D02*
X252037452Y-115335380D01*
X252227928Y-115335380D01*
X252323166Y-115287761D01*
X252370785Y-115192523D01*
X252370785Y-114811571D01*
X252323166Y-114716333D01*
X252227928Y-114668714D01*
X252037452Y-114668714D01*
X251942214Y-114716333D01*
X251894595Y-114811571D01*
X251894595Y-114906809D01*
X252370785Y-115002047D01*
X251037452Y-115335380D02*
X251037452Y-114811571D01*
X251085071Y-114716333D01*
X251180309Y-114668714D01*
X251370785Y-114668714D01*
X251466023Y-114716333D01*
X251037452Y-115287761D02*
X251132690Y-115335380D01*
X251370785Y-115335380D01*
X251466023Y-115287761D01*
X251513642Y-115192523D01*
X251513642Y-115097285D01*
X251466023Y-115002047D01*
X251370785Y-114954428D01*
X251132690Y-114954428D01*
X251037452Y-114906809D01*
X250704119Y-114668714D02*
X250323166Y-114668714D01*
X250561261Y-114335380D02*
X250561261Y-115192523D01*
X250513642Y-115287761D01*
X250418404Y-115335380D01*
X250323166Y-115335380D01*
X249989833Y-115335380D02*
X249989833Y-114668714D01*
X249989833Y-114335380D02*
X250037452Y-114383000D01*
X249989833Y-114430619D01*
X249942214Y-114383000D01*
X249989833Y-114335380D01*
X249989833Y-114430619D01*
X249608880Y-114668714D02*
X249370785Y-115335380D01*
X249132690Y-114668714D01*
X248370785Y-115287761D02*
X248466023Y-115335380D01*
X248656500Y-115335380D01*
X248751738Y-115287761D01*
X248799357Y-115192523D01*
X248799357Y-114811571D01*
X248751738Y-114716333D01*
X248656500Y-114668714D01*
X248466023Y-114668714D01*
X248370785Y-114716333D01*
X248323166Y-114811571D01*
X248323166Y-114906809D01*
X248799357Y-115002047D01*
X247466023Y-115287761D02*
X247561261Y-115335380D01*
X247751738Y-115335380D01*
X247846976Y-115287761D01*
X247894595Y-115240142D01*
X247942214Y-115144904D01*
X247942214Y-114859190D01*
X247894595Y-114763952D01*
X247846976Y-114716333D01*
X247751738Y-114668714D01*
X247561261Y-114668714D01*
X247466023Y-114716333D01*
X246894595Y-115335380D02*
X246989833Y-115287761D01*
X247037452Y-115240142D01*
X247085071Y-115144904D01*
X247085071Y-114859190D01*
X247037452Y-114763952D01*
X246989833Y-114716333D01*
X246894595Y-114668714D01*
X246751738Y-114668714D01*
X246656500Y-114716333D01*
X246608880Y-114763952D01*
X246561261Y-114859190D01*
X246561261Y-115144904D01*
X246608880Y-115240142D01*
X246656500Y-115287761D01*
X246751738Y-115335380D01*
X246894595Y-115335380D01*
X246132690Y-115335380D02*
X246132690Y-114668714D01*
X246132690Y-114763952D02*
X246085071Y-114716333D01*
X245989833Y-114668714D01*
X245846976Y-114668714D01*
X245751738Y-114716333D01*
X245704119Y-114811571D01*
X245704119Y-115335380D01*
X245704119Y-114811571D02*
X245656500Y-114716333D01*
X245561261Y-114668714D01*
X245418404Y-114668714D01*
X245323166Y-114716333D01*
X245275547Y-114811571D01*
X245275547Y-115335380D01*
X244799357Y-115335380D02*
X244799357Y-114668714D01*
X244799357Y-114763952D02*
X244751738Y-114716333D01*
X244656500Y-114668714D01*
X244513642Y-114668714D01*
X244418404Y-114716333D01*
X244370785Y-114811571D01*
X244370785Y-115335380D01*
X244370785Y-114811571D02*
X244323166Y-114716333D01*
X244227928Y-114668714D01*
X244085071Y-114668714D01*
X243989833Y-114716333D01*
X243942214Y-114811571D01*
X243942214Y-115335380D01*
X243323166Y-115335380D02*
X243418404Y-115287761D01*
X243466023Y-115240142D01*
X243513642Y-115144904D01*
X243513642Y-114859190D01*
X243466023Y-114763952D01*
X243418404Y-114716333D01*
X243323166Y-114668714D01*
X243180309Y-114668714D01*
X243085071Y-114716333D01*
X243037452Y-114763952D01*
X242989833Y-114859190D01*
X242989833Y-115144904D01*
X243037452Y-115240142D01*
X243085071Y-115287761D01*
X243180309Y-115335380D01*
X243323166Y-115335380D01*
X242561261Y-114668714D02*
X242561261Y-115335380D01*
X242561261Y-114763952D02*
X242513642Y-114716333D01*
X242418404Y-114668714D01*
X242275547Y-114668714D01*
X242180309Y-114716333D01*
X242132690Y-114811571D01*
X242132690Y-115335380D01*
X241704119Y-115287761D02*
X241608880Y-115335380D01*
X241418404Y-115335380D01*
X241323166Y-115287761D01*
X241275547Y-115192523D01*
X241275547Y-115144904D01*
X241323166Y-115049666D01*
X241418404Y-115002047D01*
X241561261Y-115002047D01*
X241656500Y-114954428D01*
X241704119Y-114859190D01*
X241704119Y-114811571D01*
X241656500Y-114716333D01*
X241561261Y-114668714D01*
X241418404Y-114668714D01*
X241323166Y-114716333D01*
X240846976Y-115240142D02*
X240799357Y-115287761D01*
X240846976Y-115335380D01*
X240894595Y-115287761D01*
X240846976Y-115240142D01*
X240846976Y-115335380D01*
X240227928Y-115335380D02*
X240323166Y-115287761D01*
X240370785Y-115240142D01*
X240418404Y-115144904D01*
X240418404Y-114859190D01*
X240370785Y-114763952D01*
X240323166Y-114716333D01*
X240227928Y-114668714D01*
X240085071Y-114668714D01*
X239989833Y-114716333D01*
X239942214Y-114763952D01*
X239894595Y-114859190D01*
X239894595Y-115144904D01*
X239942214Y-115240142D01*
X239989833Y-115287761D01*
X240085071Y-115335380D01*
X240227928Y-115335380D01*
X239466023Y-115335380D02*
X239466023Y-114668714D01*
X239466023Y-114859190D02*
X239418404Y-114763952D01*
X239370785Y-114716333D01*
X239275547Y-114668714D01*
X239180309Y-114668714D01*
X238418404Y-114668714D02*
X238418404Y-115478238D01*
X238466023Y-115573476D01*
X238513642Y-115621095D01*
X238608880Y-115668714D01*
X238751738Y-115668714D01*
X238846976Y-115621095D01*
X238418404Y-115287761D02*
X238513642Y-115335380D01*
X238704119Y-115335380D01*
X238799357Y-115287761D01*
X238846976Y-115240142D01*
X238894595Y-115144904D01*
X238894595Y-114859190D01*
X238846976Y-114763952D01*
X238799357Y-114716333D01*
X238704119Y-114668714D01*
X238513642Y-114668714D01*
X238418404Y-114716333D01*
X237227928Y-114287761D02*
X238085071Y-115573476D01*
X236751738Y-115335380D02*
X236846976Y-115287761D01*
X236894595Y-115192523D01*
X236894595Y-114335380D01*
X236370785Y-115335380D02*
X236370785Y-114668714D01*
X236370785Y-114335380D02*
X236418404Y-114383000D01*
X236370785Y-114430619D01*
X236323166Y-114383000D01*
X236370785Y-114335380D01*
X236370785Y-114430619D01*
X235466023Y-115287761D02*
X235561261Y-115335380D01*
X235751738Y-115335380D01*
X235846976Y-115287761D01*
X235894595Y-115240142D01*
X235942214Y-115144904D01*
X235942214Y-114859190D01*
X235894595Y-114763952D01*
X235846976Y-114716333D01*
X235751738Y-114668714D01*
X235561261Y-114668714D01*
X235466023Y-114716333D01*
X234656500Y-115287761D02*
X234751738Y-115335380D01*
X234942214Y-115335380D01*
X235037452Y-115287761D01*
X235085071Y-115192523D01*
X235085071Y-114811571D01*
X235037452Y-114716333D01*
X234942214Y-114668714D01*
X234751738Y-114668714D01*
X234656500Y-114716333D01*
X234608880Y-114811571D01*
X234608880Y-114906809D01*
X235085071Y-115002047D01*
X234180309Y-114668714D02*
X234180309Y-115335380D01*
X234180309Y-114763952D02*
X234132690Y-114716333D01*
X234037452Y-114668714D01*
X233894595Y-114668714D01*
X233799357Y-114716333D01*
X233751738Y-114811571D01*
X233751738Y-115335380D01*
X233323166Y-115287761D02*
X233227928Y-115335380D01*
X233037452Y-115335380D01*
X232942214Y-115287761D01*
X232894595Y-115192523D01*
X232894595Y-115144904D01*
X232942214Y-115049666D01*
X233037452Y-115002047D01*
X233180309Y-115002047D01*
X233275547Y-114954428D01*
X233323166Y-114859190D01*
X233323166Y-114811571D01*
X233275547Y-114716333D01*
X233180309Y-114668714D01*
X233037452Y-114668714D01*
X232942214Y-114716333D01*
X232085071Y-115287761D02*
X232180309Y-115335380D01*
X232370785Y-115335380D01*
X232466023Y-115287761D01*
X232513642Y-115192523D01*
X232513642Y-114811571D01*
X232466023Y-114716333D01*
X232370785Y-114668714D01*
X232180309Y-114668714D01*
X232085071Y-114716333D01*
X232037452Y-114811571D01*
X232037452Y-114906809D01*
X232513642Y-115002047D01*
X231656500Y-115287761D02*
X231561261Y-115335380D01*
X231370785Y-115335380D01*
X231275547Y-115287761D01*
X231227928Y-115192523D01*
X231227928Y-115144904D01*
X231275547Y-115049666D01*
X231370785Y-115002047D01*
X231513642Y-115002047D01*
X231608880Y-114954428D01*
X231656500Y-114859190D01*
X231656500Y-114811571D01*
X231608880Y-114716333D01*
X231513642Y-114668714D01*
X231370785Y-114668714D01*
X231275547Y-114716333D01*
X230085071Y-114287761D02*
X230942214Y-115573476D01*
X229751738Y-115335380D02*
X229751738Y-114335380D01*
X229751738Y-114716333D02*
X229656500Y-114668714D01*
X229466023Y-114668714D01*
X229370785Y-114716333D01*
X229323166Y-114763952D01*
X229275547Y-114859190D01*
X229275547Y-115144904D01*
X229323166Y-115240142D01*
X229370785Y-115287761D01*
X229466023Y-115335380D01*
X229656500Y-115335380D01*
X229751738Y-115287761D01*
X228942214Y-114668714D02*
X228704119Y-115335380D01*
X228466023Y-114668714D02*
X228704119Y-115335380D01*
X228799357Y-115573476D01*
X228846976Y-115621095D01*
X228942214Y-115668714D01*
X228085071Y-114954428D02*
X227323166Y-114954428D01*
X226894595Y-115287761D02*
X226799357Y-115335380D01*
X226608880Y-115335380D01*
X226513642Y-115287761D01*
X226466023Y-115192523D01*
X226466023Y-115144904D01*
X226513642Y-115049666D01*
X226608880Y-115002047D01*
X226751738Y-115002047D01*
X226846976Y-114954428D01*
X226894595Y-114859190D01*
X226894595Y-114811571D01*
X226846976Y-114716333D01*
X226751738Y-114668714D01*
X226608880Y-114668714D01*
X226513642Y-114716333D01*
X225608880Y-115335380D02*
X225608880Y-114811571D01*
X225656500Y-114716333D01*
X225751738Y-114668714D01*
X225942214Y-114668714D01*
X226037452Y-114716333D01*
X225608880Y-115287761D02*
X225704119Y-115335380D01*
X225942214Y-115335380D01*
X226037452Y-115287761D01*
X226085071Y-115192523D01*
X226085071Y-115097285D01*
X226037452Y-115002047D01*
X225942214Y-114954428D01*
X225704119Y-114954428D01*
X225608880Y-114906809D01*
X224418404Y-114287761D02*
X225275547Y-115573476D01*
X223656500Y-114668714D02*
X223656500Y-115335380D01*
X223894595Y-114287761D02*
X224132690Y-115002047D01*
X223513642Y-115002047D01*
X223132690Y-115240142D02*
X223085071Y-115287761D01*
X223132690Y-115335380D01*
X223180309Y-115287761D01*
X223132690Y-115240142D01*
X223132690Y-115335380D01*
X222466023Y-114335380D02*
X222370785Y-114335380D01*
X222275547Y-114383000D01*
X222227928Y-114430619D01*
X222180309Y-114525857D01*
X222132690Y-114716333D01*
X222132690Y-114954428D01*
X222180309Y-115144904D01*
X222227928Y-115240142D01*
X222275547Y-115287761D01*
X222370785Y-115335380D01*
X222466023Y-115335380D01*
X222561261Y-115287761D01*
X222608880Y-115240142D01*
X222656500Y-115144904D01*
X222704119Y-114954428D01*
X222704119Y-114716333D01*
X222656500Y-114525857D01*
X222608880Y-114430619D01*
X222561261Y-114383000D01*
X222466023Y-114335380D01*
X220989833Y-114287761D02*
X221846976Y-115573476D01*
D11*
G36*
X254539526Y-104619196D02*
G01*
X254226259Y-104620806D01*
X253966294Y-104623530D01*
X253758066Y-104627400D01*
X253600007Y-104632449D01*
X253490553Y-104638711D01*
X253428136Y-104646217D01*
X253414985Y-104650007D01*
X253337415Y-104713815D01*
X253288042Y-104811517D01*
X253271218Y-104925845D01*
X253291298Y-105039531D01*
X253307669Y-105075642D01*
X253335527Y-105107030D01*
X253401567Y-105171603D01*
X253501463Y-105265408D01*
X253630890Y-105384493D01*
X253785522Y-105524907D01*
X253961034Y-105682696D01*
X254153100Y-105853910D01*
X254351928Y-106029778D01*
X255360785Y-106918778D01*
X253198889Y-106933552D01*
X253198889Y-107469112D01*
X254701723Y-107468695D01*
X255052587Y-107468285D01*
X255350718Y-107467208D01*
X255599825Y-107465379D01*
X255803617Y-107462713D01*
X255965802Y-107459126D01*
X256090089Y-107454532D01*
X256180186Y-107448847D01*
X256239803Y-107441987D01*
X256272647Y-107433865D01*
X256275112Y-107432729D01*
X256336072Y-107376917D01*
X256384104Y-107286593D01*
X256385513Y-107282618D01*
X256400308Y-107235521D01*
X256407950Y-107191562D01*
X256405319Y-107147249D01*
X256389291Y-107099091D01*
X256356746Y-107043599D01*
X256304562Y-106977279D01*
X256229617Y-106896643D01*
X256128790Y-106798199D01*
X255998959Y-106678455D01*
X255837003Y-106533922D01*
X255639801Y-106361108D01*
X255404230Y-106156522D01*
X255290462Y-106058000D01*
X254263479Y-105169000D01*
X255297518Y-105161597D01*
X256331556Y-105154194D01*
X256331556Y-104618667D01*
X254907662Y-104618667D01*
X254539526Y-104619196D01*
G37*
X254539526Y-104619196D02*
X254226259Y-104620806D01*
X253966294Y-104623530D01*
X253758066Y-104627400D01*
X253600007Y-104632449D01*
X253490553Y-104638711D01*
X253428136Y-104646217D01*
X253414985Y-104650007D01*
X253337415Y-104713815D01*
X253288042Y-104811517D01*
X253271218Y-104925845D01*
X253291298Y-105039531D01*
X253307669Y-105075642D01*
X253335527Y-105107030D01*
X253401567Y-105171603D01*
X253501463Y-105265408D01*
X253630890Y-105384493D01*
X253785522Y-105524907D01*
X253961034Y-105682696D01*
X254153100Y-105853910D01*
X254351928Y-106029778D01*
X255360785Y-106918778D01*
X253198889Y-106933552D01*
X253198889Y-107469112D01*
X254701723Y-107468695D01*
X255052587Y-107468285D01*
X255350718Y-107467208D01*
X255599825Y-107465379D01*
X255803617Y-107462713D01*
X255965802Y-107459126D01*
X256090089Y-107454532D01*
X256180186Y-107448847D01*
X256239803Y-107441987D01*
X256272647Y-107433865D01*
X256275112Y-107432729D01*
X256336072Y-107376917D01*
X256384104Y-107286593D01*
X256385513Y-107282618D01*
X256400308Y-107235521D01*
X256407950Y-107191562D01*
X256405319Y-107147249D01*
X256389291Y-107099091D01*
X256356746Y-107043599D01*
X256304562Y-106977279D01*
X256229617Y-106896643D01*
X256128790Y-106798199D01*
X255998959Y-106678455D01*
X255837003Y-106533922D01*
X255639801Y-106361108D01*
X255404230Y-106156522D01*
X255290462Y-106058000D01*
X254263479Y-105169000D01*
X255297518Y-105161597D01*
X256331556Y-105154194D01*
X256331556Y-104618667D01*
X254907662Y-104618667D01*
X254539526Y-104619196D01*
G36*
X258709278Y-104624436D02*
G01*
X258398569Y-104626619D01*
X258139008Y-104628708D01*
X257925299Y-104630965D01*
X257752146Y-104633651D01*
X257614254Y-104637027D01*
X257506327Y-104641354D01*
X257423070Y-104646893D01*
X257359186Y-104653906D01*
X257309381Y-104662653D01*
X257268359Y-104673396D01*
X257230824Y-104686396D01*
X257198949Y-104698917D01*
X257039412Y-104776060D01*
X256922717Y-104866505D01*
X256835290Y-104981896D01*
X256806477Y-105035603D01*
X256787055Y-105077190D01*
X256771779Y-105118722D01*
X256760054Y-105167497D01*
X256751284Y-105230812D01*
X256744875Y-105315967D01*
X256740232Y-105430258D01*
X256736758Y-105580983D01*
X256733860Y-105775441D01*
X256731731Y-105952212D01*
X256729874Y-106236311D01*
X256731328Y-106474930D01*
X256736024Y-106665326D01*
X256743897Y-106804755D01*
X256754470Y-106888537D01*
X256818437Y-107070886D01*
X256927108Y-107219170D01*
X257079674Y-107332705D01*
X257275323Y-107410808D01*
X257407898Y-107439551D01*
X257478052Y-107446243D01*
X257598678Y-107452306D01*
X257763809Y-107457616D01*
X257967476Y-107462048D01*
X258203708Y-107465479D01*
X258466537Y-107467786D01*
X258749995Y-107468844D01*
X258822167Y-107468898D01*
X260056889Y-107469112D01*
X260056889Y-106932889D01*
X259436000Y-106932889D01*
X258522952Y-106932889D01*
X258271927Y-106932802D01*
X258071006Y-106932272D01*
X257913850Y-106930891D01*
X257794118Y-106928256D01*
X257705472Y-106923960D01*
X257641570Y-106917599D01*
X257596074Y-106908766D01*
X257562643Y-106897055D01*
X257534937Y-106882063D01*
X257514007Y-106868358D01*
X257462237Y-106828333D01*
X257422138Y-106781581D01*
X257392406Y-106720907D01*
X257371732Y-106639118D01*
X257358810Y-106529018D01*
X257352333Y-106383416D01*
X257350995Y-106195115D01*
X257353111Y-105982627D01*
X257356317Y-105782589D01*
X257359979Y-105630918D01*
X257364905Y-105519538D01*
X257371901Y-105440370D01*
X257381775Y-105385340D01*
X257395335Y-105346369D01*
X257413387Y-105315383D01*
X257420832Y-105305041D01*
X257451568Y-105265537D01*
X257483019Y-105233695D01*
X257521304Y-105208686D01*
X257572540Y-105189682D01*
X257642846Y-105175853D01*
X257738341Y-105166370D01*
X257865141Y-105160405D01*
X258029365Y-105157127D01*
X258237131Y-105155709D01*
X258494558Y-105155321D01*
X258525834Y-105155305D01*
X259436000Y-105154889D01*
X259436000Y-106932889D01*
X260056889Y-106932889D01*
X260056889Y-104615201D01*
X258709278Y-104624436D01*
G37*
X258709278Y-104624436D02*
X258398569Y-104626619D01*
X258139008Y-104628708D01*
X257925299Y-104630965D01*
X257752146Y-104633651D01*
X257614254Y-104637027D01*
X257506327Y-104641354D01*
X257423070Y-104646893D01*
X257359186Y-104653906D01*
X257309381Y-104662653D01*
X257268359Y-104673396D01*
X257230824Y-104686396D01*
X257198949Y-104698917D01*
X257039412Y-104776060D01*
X256922717Y-104866505D01*
X256835290Y-104981896D01*
X256806477Y-105035603D01*
X256787055Y-105077190D01*
X256771779Y-105118722D01*
X256760054Y-105167497D01*
X256751284Y-105230812D01*
X256744875Y-105315967D01*
X256740232Y-105430258D01*
X256736758Y-105580983D01*
X256733860Y-105775441D01*
X256731731Y-105952212D01*
X256729874Y-106236311D01*
X256731328Y-106474930D01*
X256736024Y-106665326D01*
X256743897Y-106804755D01*
X256754470Y-106888537D01*
X256818437Y-107070886D01*
X256927108Y-107219170D01*
X257079674Y-107332705D01*
X257275323Y-107410808D01*
X257407898Y-107439551D01*
X257478052Y-107446243D01*
X257598678Y-107452306D01*
X257763809Y-107457616D01*
X257967476Y-107462048D01*
X258203708Y-107465479D01*
X258466537Y-107467786D01*
X258749995Y-107468844D01*
X258822167Y-107468898D01*
X260056889Y-107469112D01*
X260056889Y-106932889D01*
X259436000Y-106932889D01*
X258522952Y-106932889D01*
X258271927Y-106932802D01*
X258071006Y-106932272D01*
X257913850Y-106930891D01*
X257794118Y-106928256D01*
X257705472Y-106923960D01*
X257641570Y-106917599D01*
X257596074Y-106908766D01*
X257562643Y-106897055D01*
X257534937Y-106882063D01*
X257514007Y-106868358D01*
X257462237Y-106828333D01*
X257422138Y-106781581D01*
X257392406Y-106720907D01*
X257371732Y-106639118D01*
X257358810Y-106529018D01*
X257352333Y-106383416D01*
X257350995Y-106195115D01*
X257353111Y-105982627D01*
X257356317Y-105782589D01*
X257359979Y-105630918D01*
X257364905Y-105519538D01*
X257371901Y-105440370D01*
X257381775Y-105385340D01*
X257395335Y-105346369D01*
X257413387Y-105315383D01*
X257420832Y-105305041D01*
X257451568Y-105265537D01*
X257483019Y-105233695D01*
X257521304Y-105208686D01*
X257572540Y-105189682D01*
X257642846Y-105175853D01*
X257738341Y-105166370D01*
X257865141Y-105160405D01*
X258029365Y-105157127D01*
X258237131Y-105155709D01*
X258494558Y-105155321D01*
X258525834Y-105155305D01*
X259436000Y-105154889D01*
X259436000Y-106932889D01*
X260056889Y-106932889D01*
X260056889Y-104615201D01*
X258709278Y-104624436D01*
G36*
X261820859Y-104619196D02*
G01*
X261507592Y-104620806D01*
X261247628Y-104623530D01*
X261039399Y-104627400D01*
X260881341Y-104632449D01*
X260771886Y-104638711D01*
X260709469Y-104646217D01*
X260696318Y-104650007D01*
X260618749Y-104713815D01*
X260569375Y-104811517D01*
X260552551Y-104925845D01*
X260572631Y-105039531D01*
X260589003Y-105075642D01*
X260616861Y-105107030D01*
X260682901Y-105171603D01*
X260782796Y-105265408D01*
X260912223Y-105384493D01*
X261066855Y-105524907D01*
X261242367Y-105682696D01*
X261434433Y-105853910D01*
X261633261Y-106029778D01*
X262642118Y-106918778D01*
X261561170Y-106926165D01*
X260480223Y-106933552D01*
X260480223Y-107469112D01*
X261983056Y-107468695D01*
X262333920Y-107468285D01*
X262632051Y-107467208D01*
X262881159Y-107465379D01*
X263084950Y-107462713D01*
X263247135Y-107459126D01*
X263371422Y-107454532D01*
X263461519Y-107448847D01*
X263521136Y-107441987D01*
X263553980Y-107433865D01*
X263556445Y-107432729D01*
X263617405Y-107376917D01*
X263665437Y-107286593D01*
X263666846Y-107282618D01*
X263681641Y-107235521D01*
X263689284Y-107191562D01*
X263686652Y-107147249D01*
X263670624Y-107099091D01*
X263638079Y-107043599D01*
X263585895Y-106977279D01*
X263510950Y-106896643D01*
X263410123Y-106798199D01*
X263280293Y-106678455D01*
X263118337Y-106533922D01*
X262921134Y-106361108D01*
X262685563Y-106156522D01*
X262571795Y-106058000D01*
X261544812Y-105169000D01*
X262578851Y-105161597D01*
X263612889Y-105154194D01*
X263612889Y-104618667D01*
X262188995Y-104618667D01*
X261820859Y-104619196D01*
G37*
X261820859Y-104619196D02*
X261507592Y-104620806D01*
X261247628Y-104623530D01*
X261039399Y-104627400D01*
X260881341Y-104632449D01*
X260771886Y-104638711D01*
X260709469Y-104646217D01*
X260696318Y-104650007D01*
X260618749Y-104713815D01*
X260569375Y-104811517D01*
X260552551Y-104925845D01*
X260572631Y-105039531D01*
X260589003Y-105075642D01*
X260616861Y-105107030D01*
X260682901Y-105171603D01*
X260782796Y-105265408D01*
X260912223Y-105384493D01*
X261066855Y-105524907D01*
X261242367Y-105682696D01*
X261434433Y-105853910D01*
X261633261Y-106029778D01*
X262642118Y-106918778D01*
X261561170Y-106926165D01*
X260480223Y-106933552D01*
X260480223Y-107469112D01*
X261983056Y-107468695D01*
X262333920Y-107468285D01*
X262632051Y-107467208D01*
X262881159Y-107465379D01*
X263084950Y-107462713D01*
X263247135Y-107459126D01*
X263371422Y-107454532D01*
X263461519Y-107448847D01*
X263521136Y-107441987D01*
X263553980Y-107433865D01*
X263556445Y-107432729D01*
X263617405Y-107376917D01*
X263665437Y-107286593D01*
X263666846Y-107282618D01*
X263681641Y-107235521D01*
X263689284Y-107191562D01*
X263686652Y-107147249D01*
X263670624Y-107099091D01*
X263638079Y-107043599D01*
X263585895Y-106977279D01*
X263510950Y-106896643D01*
X263410123Y-106798199D01*
X263280293Y-106678455D01*
X263118337Y-106533922D01*
X262921134Y-106361108D01*
X262685563Y-106156522D01*
X262571795Y-106058000D01*
X261544812Y-105169000D01*
X262578851Y-105161597D01*
X263612889Y-105154194D01*
X263612889Y-104618667D01*
X262188995Y-104618667D01*
X261820859Y-104619196D01*
D12*
X207040000Y-98770000D02*
X207040000Y-100100000D01*
X207040000Y-100100000D02*
X208370000Y-100100000D01*
X207040000Y-97500000D02*
X209640000Y-97500000D01*
X209640000Y-97500000D02*
X209640000Y-100100000D01*
X209640000Y-100100000D02*
X257960000Y-100100000D01*
X257960000Y-94900000D02*
X257960000Y-100100000D01*
X207040000Y-94900000D02*
X257960000Y-94900000D01*
X207040000Y-94900000D02*
X207040000Y-97500000D01*
D10*
X207596095Y-101430380D02*
X207596095Y-100430380D01*
X207215142Y-100430380D01*
X207119904Y-100478000D01*
X207072285Y-100525619D01*
X207024666Y-100620857D01*
X207024666Y-100763714D01*
X207072285Y-100858952D01*
X207119904Y-100906571D01*
X207215142Y-100954190D01*
X207596095Y-100954190D01*
X206072285Y-101430380D02*
X206643714Y-101430380D01*
X206358000Y-101430380D02*
X206358000Y-100430380D01*
X206453238Y-100573238D01*
X206548476Y-100668476D01*
X206643714Y-100716095D01*
M02*
