G04 #@! TF.GenerationSoftware,KiCad,Pcbnew,5.1.7-a382d34a8~87~ubuntu18.04.1*
G04 #@! TF.CreationDate,2020-11-20T13:51:52+01:00*
G04 #@! TF.ProjectId,clumsyMIDI,636c756d-7379-44d4-9944-492e6b696361,rev?*
G04 #@! TF.SameCoordinates,Original*
G04 #@! TF.FileFunction,Copper,L2,Bot*
G04 #@! TF.FilePolarity,Positive*
%FSLAX46Y46*%
G04 Gerber Fmt 4.6, Leading zero omitted, Abs format (unit mm)*
G04 Created by KiCad (PCBNEW 5.1.7-a382d34a8~87~ubuntu18.04.1) date 2020-11-20 13:51:52*
%MOMM*%
%LPD*%
G01*
G04 APERTURE LIST*
G04 #@! TA.AperFunction,ComponentPad*
%ADD10O,1.700000X1.700000*%
G04 #@! TD*
G04 #@! TA.AperFunction,ComponentPad*
%ADD11R,1.700000X1.700000*%
G04 #@! TD*
G04 #@! TA.AperFunction,ComponentPad*
%ADD12C,1.700000*%
G04 #@! TD*
G04 #@! TA.AperFunction,ComponentPad*
%ADD13C,2.000000*%
G04 #@! TD*
G04 #@! TA.AperFunction,ComponentPad*
%ADD14C,2.300000*%
G04 #@! TD*
G04 #@! TA.AperFunction,ComponentPad*
%ADD15O,1.600000X1.600000*%
G04 #@! TD*
G04 #@! TA.AperFunction,ComponentPad*
%ADD16C,1.600000*%
G04 #@! TD*
G04 #@! TA.AperFunction,ComponentPad*
%ADD17R,1.600000X1.600000*%
G04 #@! TD*
G04 #@! TA.AperFunction,ViaPad*
%ADD18C,0.900000*%
G04 #@! TD*
G04 #@! TA.AperFunction,Conductor*
%ADD19C,0.500000*%
G04 #@! TD*
G04 #@! TA.AperFunction,Conductor*
%ADD20C,0.250000*%
G04 #@! TD*
G04 #@! TA.AperFunction,Conductor*
%ADD21C,0.254000*%
G04 #@! TD*
G04 #@! TA.AperFunction,Conductor*
%ADD22C,0.100000*%
G04 #@! TD*
G04 APERTURE END LIST*
D10*
X229236000Y-103899000D03*
X229236000Y-106439000D03*
X229236000Y-108979000D03*
D11*
X229236000Y-111519000D03*
D12*
X229383000Y-147714000D03*
X229383000Y-145174000D03*
X229383000Y-142634000D03*
X229383000Y-140094000D03*
X229383000Y-137554000D03*
X229383000Y-135014000D03*
X256053000Y-134379000D03*
X253513000Y-134379000D03*
X250973000Y-134379000D03*
X248433000Y-134379000D03*
X245893000Y-134379000D03*
X243353000Y-134379000D03*
X240813000Y-134379000D03*
X238273000Y-134379000D03*
X235733000Y-134379000D03*
D13*
X202700000Y-127750000D03*
X202700000Y-137750000D03*
X202700000Y-130250000D03*
D14*
X215200000Y-137750000D03*
X212700000Y-140250000D03*
X212700000Y-132750000D03*
X212700000Y-125250000D03*
D13*
X202700000Y-135250000D03*
D14*
X215200000Y-127750000D03*
D13*
X202700000Y-106258000D03*
X202700000Y-116258000D03*
X202700000Y-108758000D03*
D14*
X215200000Y-116258000D03*
X212700000Y-118758000D03*
X212700000Y-111258000D03*
X212700000Y-103758000D03*
D13*
X202700000Y-113758000D03*
D14*
X215200000Y-106258000D03*
D15*
X234925000Y-120790000D03*
D16*
X234925000Y-128410000D03*
X225908000Y-135522000D03*
D15*
X218288000Y-135522000D03*
X219558000Y-128791000D03*
D16*
X219558000Y-121171000D03*
D15*
X250800000Y-116980000D03*
D16*
X243180000Y-116980000D03*
D15*
X231750000Y-116980000D03*
D16*
X239370000Y-116980000D03*
D15*
X262230000Y-116980000D03*
D16*
X254610000Y-116980000D03*
X224700000Y-111400000D03*
X219700000Y-111400000D03*
D10*
X221844000Y-147587000D03*
X219304000Y-147587000D03*
X216764000Y-147587000D03*
X214224000Y-147587000D03*
D11*
X211684000Y-147587000D03*
D15*
X224384000Y-120790000D03*
X229464000Y-128410000D03*
X226924000Y-120790000D03*
X226924000Y-128410000D03*
X229464000Y-120790000D03*
D17*
X224384000Y-128410000D03*
D15*
X255245000Y-128410000D03*
X240005000Y-120790000D03*
X252705000Y-128410000D03*
X242545000Y-120790000D03*
X250165000Y-128410000D03*
X245085000Y-120790000D03*
X247625000Y-128410000D03*
X247625000Y-120790000D03*
X245085000Y-128410000D03*
X250165000Y-120790000D03*
X242545000Y-128410000D03*
X252705000Y-120790000D03*
X240005000Y-128410000D03*
D17*
X255245000Y-120790000D03*
D15*
X230226000Y-131204000D03*
D17*
X222606000Y-131204000D03*
D16*
X259500000Y-127060000D03*
X259500000Y-122060000D03*
D17*
X220574000Y-142380000D03*
D16*
X220574000Y-139880000D03*
X225908000Y-144158000D03*
X225908000Y-139158000D03*
X220400000Y-117361000D03*
X225400000Y-117361000D03*
X222000000Y-103574000D03*
D17*
X222000000Y-107074000D03*
D11*
X208370000Y-98770000D03*
D10*
X208370000Y-96230000D03*
X210910000Y-98770000D03*
X210910000Y-96230000D03*
X213450000Y-98770000D03*
X213450000Y-96230000D03*
X215990000Y-98770000D03*
X215990000Y-96230000D03*
X218530000Y-98770000D03*
X218530000Y-96230000D03*
X221070000Y-98770000D03*
X221070000Y-96230000D03*
X223610000Y-98770000D03*
X223610000Y-96230000D03*
X226150000Y-98770000D03*
X226150000Y-96230000D03*
X228690000Y-98770000D03*
X228690000Y-96230000D03*
X231230000Y-98770000D03*
X231230000Y-96230000D03*
X233770000Y-98770000D03*
X233770000Y-96230000D03*
X236310000Y-98770000D03*
X236310000Y-96230000D03*
X238850000Y-98770000D03*
X238850000Y-96230000D03*
X241390000Y-98770000D03*
X241390000Y-96230000D03*
X243930000Y-98770000D03*
X243930000Y-96230000D03*
X246470000Y-98770000D03*
X246470000Y-96230000D03*
X249010000Y-98770000D03*
X249010000Y-96230000D03*
X251550000Y-98770000D03*
X251550000Y-96230000D03*
X254090000Y-98770000D03*
X254090000Y-96230000D03*
X256630000Y-98770000D03*
X256630000Y-96230000D03*
D18*
X218420000Y-101210000D03*
X206350000Y-106820000D03*
X206350000Y-109360000D03*
X206350000Y-111900000D03*
X206350000Y-114440000D03*
X206350000Y-129680000D03*
X206350000Y-132220000D03*
X206350000Y-134760000D03*
X206350000Y-137300000D03*
X238100000Y-139840000D03*
X240640000Y-139840000D03*
X243180000Y-139840000D03*
X245720000Y-139840000D03*
X248260000Y-139840000D03*
X238100000Y-146190000D03*
X240640000Y-146190000D03*
X243180000Y-146190000D03*
X245720000Y-146190000D03*
X248260000Y-146190000D03*
X242926000Y-111900000D03*
X245720000Y-111900000D03*
X235433000Y-108852000D03*
X234290000Y-105550000D03*
X238100000Y-105550000D03*
X259690000Y-103264000D03*
X261976000Y-103264000D03*
X261976000Y-108598000D03*
X259690000Y-108598000D03*
X232004000Y-142380000D03*
X226670000Y-105296000D03*
X226733500Y-112408000D03*
X224130000Y-107074000D03*
D19*
X228690000Y-98770000D02*
X228690000Y-100120300D01*
X228690000Y-100120300D02*
X227735200Y-101075100D01*
X227735200Y-101075100D02*
X227735200Y-115025800D01*
X227735200Y-115025800D02*
X225400000Y-117361000D01*
X208370000Y-98770000D02*
X208370000Y-100120300D01*
X224384000Y-120790000D02*
X224384000Y-119489700D01*
X224384000Y-119489700D02*
X209559600Y-104665300D01*
X209559600Y-104665300D02*
X209559600Y-101309900D01*
X209559600Y-101309900D02*
X208370000Y-100120300D01*
X210910000Y-96230000D02*
X208370000Y-96230000D01*
X238692300Y-127097500D02*
X234375300Y-131414500D01*
X234375300Y-131414500D02*
X234375300Y-142721700D01*
X234375300Y-142721700D02*
X229383000Y-147714000D01*
X239370000Y-116980000D02*
X238692300Y-117657700D01*
X238692300Y-117657700D02*
X238692300Y-127097500D01*
X238692300Y-127097500D02*
X253932500Y-127097500D01*
X253932500Y-127097500D02*
X255245000Y-128410000D01*
X222000000Y-107074000D02*
X222000000Y-108374300D01*
X222000000Y-108374300D02*
X224700000Y-111074300D01*
X224700000Y-111074300D02*
X224700000Y-111400000D01*
X225908000Y-144239000D02*
X229383000Y-147714000D01*
X225908000Y-144158000D02*
X225908000Y-144239000D01*
D20*
X229464000Y-120790000D02*
X229464000Y-119614700D01*
X218530000Y-96230000D02*
X219755300Y-96230000D01*
X219755300Y-96230000D02*
X219755300Y-95770500D01*
X219755300Y-95770500D02*
X220541900Y-94983900D01*
X220541900Y-94983900D02*
X224177800Y-94983900D01*
X224177800Y-94983900D02*
X224924600Y-95730700D01*
X224924600Y-95730700D02*
X224924600Y-96836600D01*
X224924600Y-96836600D02*
X225632600Y-97544600D01*
X225632600Y-97544600D02*
X229200200Y-97544600D01*
X229200200Y-97544600D02*
X229960000Y-98304400D01*
X229960000Y-98304400D02*
X229960000Y-99494000D01*
X229960000Y-99494000D02*
X230461300Y-99995300D01*
X230461300Y-99995300D02*
X230461300Y-118617400D01*
X230461300Y-118617400D02*
X229464000Y-119614700D01*
X250800000Y-116980000D02*
X249624700Y-116980000D01*
X245085000Y-120790000D02*
X246260300Y-120790000D01*
X246260300Y-120790000D02*
X246260300Y-120344400D01*
X246260300Y-120344400D02*
X249624700Y-116980000D01*
X228157500Y-125716900D02*
X228157500Y-136328500D01*
X225654000Y-123213400D02*
X228157500Y-125716900D01*
X225654000Y-119351300D02*
X225654000Y-123213400D01*
X224217000Y-115785600D02*
X224217000Y-117914300D01*
X221070000Y-96230000D02*
X221070000Y-97455300D01*
X221070000Y-97455300D02*
X221529600Y-97455300D01*
X221529600Y-97455300D02*
X222295300Y-98221000D01*
X224217000Y-117914300D02*
X225654000Y-119351300D01*
X222295300Y-98221000D02*
X222295300Y-102142302D01*
X222295300Y-102142302D02*
X225875400Y-105722402D01*
X228157500Y-136328500D02*
X229383000Y-137554000D01*
X225875400Y-114127200D02*
X224217000Y-115785600D01*
X225875400Y-105722402D02*
X225875400Y-114127200D01*
X256630000Y-96230000D02*
X255404700Y-96230000D01*
X255404700Y-96230000D02*
X255404700Y-96689600D01*
X255404700Y-96689600D02*
X254639000Y-97455300D01*
X254639000Y-97455300D02*
X251049800Y-97455300D01*
X251049800Y-97455300D02*
X250280000Y-98225100D01*
X250280000Y-98225100D02*
X250280000Y-99319300D01*
X250280000Y-99319300D02*
X233006500Y-116592800D01*
X233006500Y-116592800D02*
X233006500Y-136470500D01*
X233006500Y-136470500D02*
X229383000Y-140094000D01*
X251550000Y-98770000D02*
X251550000Y-99995300D01*
X251550000Y-99995300D02*
X233506900Y-118038400D01*
X233506900Y-118038400D02*
X233506900Y-138510100D01*
X233506900Y-138510100D02*
X229383000Y-142634000D01*
X226924000Y-128410000D02*
X225748700Y-128410000D01*
X225748700Y-128410000D02*
X225748700Y-127602000D01*
X225748700Y-127602000D02*
X225367300Y-127220600D01*
X225367300Y-127220600D02*
X215729400Y-127220600D01*
X215729400Y-127220600D02*
X215200000Y-127750000D01*
X213450000Y-98770000D02*
X214675300Y-98770000D01*
X214675300Y-98770000D02*
X214675300Y-99229500D01*
X214675300Y-99229500D02*
X221295000Y-105849200D01*
X224130000Y-106928998D02*
X224130000Y-107074000D01*
X223050202Y-105849200D02*
X224130000Y-106928998D01*
X221295000Y-105849200D02*
X223050202Y-105849200D01*
X218288000Y-146571000D02*
X219304000Y-147587000D01*
X218288000Y-135522000D02*
X218288000Y-146571000D01*
X262230000Y-116980000D02*
X261054700Y-116980000D01*
X247625000Y-120790000D02*
X248800300Y-120790000D01*
X248800300Y-120790000D02*
X248800300Y-120422600D01*
X248800300Y-120422600D02*
X249608200Y-119614700D01*
X249608200Y-119614700D02*
X258420000Y-119614700D01*
X258420000Y-119614700D02*
X261054700Y-116980000D01*
D21*
X219415392Y-95035606D02*
X219233411Y-94914010D01*
X218963158Y-94802068D01*
X218676260Y-94745000D01*
X218383740Y-94745000D01*
X218096842Y-94802068D01*
X217826589Y-94914010D01*
X217583368Y-95076525D01*
X217376525Y-95283368D01*
X217260000Y-95457760D01*
X217143475Y-95283368D01*
X216936632Y-95076525D01*
X216693411Y-94914010D01*
X216423158Y-94802068D01*
X216136260Y-94745000D01*
X215843740Y-94745000D01*
X215556842Y-94802068D01*
X215286589Y-94914010D01*
X215043368Y-95076525D01*
X214836525Y-95283368D01*
X214714805Y-95465534D01*
X214645178Y-95348645D01*
X214450269Y-95132412D01*
X214216920Y-94958359D01*
X213954099Y-94833175D01*
X213806890Y-94788524D01*
X213577000Y-94909845D01*
X213577000Y-96103000D01*
X213597000Y-96103000D01*
X213597000Y-96357000D01*
X213577000Y-96357000D01*
X213577000Y-96377000D01*
X213323000Y-96377000D01*
X213323000Y-96357000D01*
X213303000Y-96357000D01*
X213303000Y-96103000D01*
X213323000Y-96103000D01*
X213323000Y-94909845D01*
X213093110Y-94788524D01*
X212945901Y-94833175D01*
X212683080Y-94958359D01*
X212449731Y-95132412D01*
X212254822Y-95348645D01*
X212185195Y-95465534D01*
X212063475Y-95283368D01*
X211856632Y-95076525D01*
X211613411Y-94914010D01*
X211343158Y-94802068D01*
X211056260Y-94745000D01*
X210763740Y-94745000D01*
X210476842Y-94802068D01*
X210206589Y-94914010D01*
X209963368Y-95076525D01*
X209756525Y-95283368D01*
X209715344Y-95345000D01*
X209564656Y-95345000D01*
X209523475Y-95283368D01*
X209316632Y-95076525D01*
X209073411Y-94914010D01*
X208803158Y-94802068D01*
X208516260Y-94745000D01*
X208223740Y-94745000D01*
X207936842Y-94802068D01*
X207666589Y-94914010D01*
X207423368Y-95076525D01*
X207216525Y-95283368D01*
X207054010Y-95526589D01*
X206942068Y-95796842D01*
X206885000Y-96083740D01*
X206885000Y-96376260D01*
X206942068Y-96663158D01*
X207054010Y-96933411D01*
X207216525Y-97176632D01*
X207348380Y-97308487D01*
X207275820Y-97330498D01*
X207165506Y-97389463D01*
X207068815Y-97468815D01*
X206989463Y-97565506D01*
X206930498Y-97675820D01*
X206894188Y-97795518D01*
X206881928Y-97920000D01*
X206881928Y-99620000D01*
X206894188Y-99744482D01*
X206930498Y-99864180D01*
X206989463Y-99974494D01*
X207068815Y-100071185D01*
X207165506Y-100150537D01*
X207275820Y-100209502D01*
X207395518Y-100245812D01*
X207494036Y-100255515D01*
X207497805Y-100293790D01*
X207548412Y-100460613D01*
X207630590Y-100614359D01*
X207713468Y-100715346D01*
X207713469Y-100715347D01*
X207741184Y-100749117D01*
X207774951Y-100776829D01*
X208674601Y-101676480D01*
X208674601Y-102255726D01*
X208489199Y-102131844D01*
X208155250Y-101993518D01*
X207800732Y-101923000D01*
X207439268Y-101923000D01*
X207084750Y-101993518D01*
X206750801Y-102131844D01*
X206450256Y-102332662D01*
X206194662Y-102588256D01*
X205993844Y-102888801D01*
X205855518Y-103222750D01*
X205785000Y-103577268D01*
X205785000Y-103938732D01*
X205855518Y-104293250D01*
X205993844Y-104627199D01*
X206194662Y-104927744D01*
X206450256Y-105183338D01*
X206750801Y-105384156D01*
X207084750Y-105522482D01*
X207439268Y-105593000D01*
X207800732Y-105593000D01*
X208155250Y-105522482D01*
X208489199Y-105384156D01*
X208789744Y-105183338D01*
X208817937Y-105155145D01*
X208820189Y-105159358D01*
X208930783Y-105294117D01*
X208964556Y-105321834D01*
X213181902Y-109539180D01*
X212994174Y-109488651D01*
X212643339Y-109465259D01*
X212294681Y-109510760D01*
X211961600Y-109623406D01*
X211751118Y-109735910D01*
X211637256Y-110015651D01*
X212700000Y-111078395D01*
X212714143Y-111064253D01*
X212893748Y-111243858D01*
X212879605Y-111258000D01*
X213942349Y-112320744D01*
X214222090Y-112206882D01*
X214377961Y-111891704D01*
X214469349Y-111552174D01*
X214492741Y-111201339D01*
X214447240Y-110852681D01*
X214422628Y-110779906D01*
X219729235Y-116086513D01*
X219658486Y-116124329D01*
X219586903Y-116368298D01*
X220400000Y-117181395D01*
X220414143Y-117167253D01*
X220593748Y-117346858D01*
X220579605Y-117361000D01*
X221392702Y-118174097D01*
X221636671Y-118102514D01*
X221671541Y-118028820D01*
X223393663Y-119750941D01*
X223269363Y-119875241D01*
X223112320Y-120110273D01*
X223004147Y-120371426D01*
X222949000Y-120648665D01*
X222949000Y-120931335D01*
X223004147Y-121208574D01*
X223112320Y-121469727D01*
X223269363Y-121704759D01*
X223469241Y-121904637D01*
X223704273Y-122061680D01*
X223965426Y-122169853D01*
X224242665Y-122225000D01*
X224525335Y-122225000D01*
X224802574Y-122169853D01*
X224894001Y-122131983D01*
X224894001Y-123176068D01*
X224890324Y-123213400D01*
X224904998Y-123362385D01*
X224948454Y-123505646D01*
X225019026Y-123637676D01*
X225090201Y-123724402D01*
X225114000Y-123753401D01*
X225142998Y-123777199D01*
X227397500Y-126031702D01*
X227397500Y-127052898D01*
X227342574Y-127030147D01*
X227065335Y-126975000D01*
X226782665Y-126975000D01*
X226505426Y-127030147D01*
X226324175Y-127105224D01*
X226288701Y-127061999D01*
X226259697Y-127038196D01*
X225931104Y-126709603D01*
X225907301Y-126680599D01*
X225791576Y-126585626D01*
X225659547Y-126515054D01*
X225516286Y-126471597D01*
X225404633Y-126460600D01*
X225404622Y-126460600D01*
X225367300Y-126456924D01*
X225329978Y-126460600D01*
X216434971Y-126460600D01*
X216337871Y-126363500D01*
X216045515Y-126168153D01*
X215720665Y-126033596D01*
X215375807Y-125965000D01*
X215024193Y-125965000D01*
X214679335Y-126033596D01*
X214354485Y-126168153D01*
X214135576Y-126314424D01*
X214281847Y-126095515D01*
X214416404Y-125770665D01*
X214485000Y-125425807D01*
X214485000Y-125074193D01*
X214416404Y-124729335D01*
X214281847Y-124404485D01*
X214086500Y-124112129D01*
X213837871Y-123863500D01*
X213545515Y-123668153D01*
X213220665Y-123533596D01*
X212875807Y-123465000D01*
X212524193Y-123465000D01*
X212179335Y-123533596D01*
X211854485Y-123668153D01*
X211562129Y-123863500D01*
X211313500Y-124112129D01*
X211118153Y-124404485D01*
X210983596Y-124729335D01*
X210915000Y-125074193D01*
X210915000Y-125425807D01*
X210983596Y-125770665D01*
X211118153Y-126095515D01*
X211313500Y-126387871D01*
X211562129Y-126636500D01*
X211854485Y-126831847D01*
X212179335Y-126966404D01*
X212524193Y-127035000D01*
X212875807Y-127035000D01*
X213220665Y-126966404D01*
X213545515Y-126831847D01*
X213764424Y-126685576D01*
X213618153Y-126904485D01*
X213483596Y-127229335D01*
X213415000Y-127574193D01*
X213415000Y-127925807D01*
X213483596Y-128270665D01*
X213618153Y-128595515D01*
X213813500Y-128887871D01*
X214062129Y-129136500D01*
X214354485Y-129331847D01*
X214679335Y-129466404D01*
X215024193Y-129535000D01*
X215375807Y-129535000D01*
X215720665Y-129466404D01*
X216045515Y-129331847D01*
X216337871Y-129136500D01*
X216586500Y-128887871D01*
X216781847Y-128595515D01*
X216916404Y-128270665D01*
X216974101Y-127980600D01*
X218373633Y-127980600D01*
X218286320Y-128111273D01*
X218178147Y-128372426D01*
X218123000Y-128649665D01*
X218123000Y-128932335D01*
X218178147Y-129209574D01*
X218286320Y-129470727D01*
X218443363Y-129705759D01*
X218643241Y-129905637D01*
X218878273Y-130062680D01*
X219139426Y-130170853D01*
X219416665Y-130226000D01*
X219699335Y-130226000D01*
X219976574Y-130170853D01*
X220237727Y-130062680D01*
X220472759Y-129905637D01*
X220672637Y-129705759D01*
X220829680Y-129470727D01*
X220937853Y-129209574D01*
X220993000Y-128932335D01*
X220993000Y-128649665D01*
X220937853Y-128372426D01*
X220829680Y-128111273D01*
X220742367Y-127980600D01*
X222945928Y-127980600D01*
X222945928Y-129210000D01*
X222958188Y-129334482D01*
X222994498Y-129454180D01*
X223053463Y-129564494D01*
X223132815Y-129661185D01*
X223229506Y-129740537D01*
X223277008Y-129765928D01*
X221806000Y-129765928D01*
X221681518Y-129778188D01*
X221561820Y-129814498D01*
X221451506Y-129873463D01*
X221354815Y-129952815D01*
X221275463Y-130049506D01*
X221216498Y-130159820D01*
X221180188Y-130279518D01*
X221167928Y-130404000D01*
X221167928Y-132004000D01*
X221180188Y-132128482D01*
X221216498Y-132248180D01*
X221275463Y-132358494D01*
X221354815Y-132455185D01*
X221451506Y-132534537D01*
X221561820Y-132593502D01*
X221681518Y-132629812D01*
X221806000Y-132642072D01*
X223406000Y-132642072D01*
X223530482Y-132629812D01*
X223650180Y-132593502D01*
X223760494Y-132534537D01*
X223857185Y-132455185D01*
X223936537Y-132358494D01*
X223995502Y-132248180D01*
X224031812Y-132128482D01*
X224044072Y-132004000D01*
X224044072Y-130404000D01*
X224031812Y-130279518D01*
X223995502Y-130159820D01*
X223936537Y-130049506D01*
X223857185Y-129952815D01*
X223760494Y-129873463D01*
X223712992Y-129848072D01*
X225184000Y-129848072D01*
X225308482Y-129835812D01*
X225428180Y-129799502D01*
X225538494Y-129740537D01*
X225635185Y-129661185D01*
X225714537Y-129564494D01*
X225773502Y-129454180D01*
X225809812Y-129334482D01*
X225810643Y-129326039D01*
X226009241Y-129524637D01*
X226244273Y-129681680D01*
X226505426Y-129789853D01*
X226782665Y-129845000D01*
X227065335Y-129845000D01*
X227342574Y-129789853D01*
X227397500Y-129767102D01*
X227397501Y-136291168D01*
X227393824Y-136328500D01*
X227408498Y-136477485D01*
X227451954Y-136620746D01*
X227522526Y-136752776D01*
X227593701Y-136839502D01*
X227617500Y-136868501D01*
X227646498Y-136892299D01*
X227941791Y-137187592D01*
X227898000Y-137407740D01*
X227898000Y-137700260D01*
X227955068Y-137987158D01*
X228067010Y-138257411D01*
X228229525Y-138500632D01*
X228436368Y-138707475D01*
X228610760Y-138824000D01*
X228436368Y-138940525D01*
X228229525Y-139147368D01*
X228067010Y-139390589D01*
X227955068Y-139660842D01*
X227898000Y-139947740D01*
X227898000Y-140240260D01*
X227955068Y-140527158D01*
X228067010Y-140797411D01*
X228229525Y-141040632D01*
X228436368Y-141247475D01*
X228610760Y-141364000D01*
X228436368Y-141480525D01*
X228229525Y-141687368D01*
X228067010Y-141930589D01*
X227955068Y-142200842D01*
X227898000Y-142487740D01*
X227898000Y-142780260D01*
X227955068Y-143067158D01*
X228067010Y-143337411D01*
X228229525Y-143580632D01*
X228436368Y-143787475D01*
X228609729Y-143903311D01*
X228534208Y-144145603D01*
X229383000Y-144994395D01*
X230231792Y-144145603D01*
X230156271Y-143903311D01*
X230329632Y-143787475D01*
X230536475Y-143580632D01*
X230698990Y-143337411D01*
X230810932Y-143067158D01*
X230868000Y-142780260D01*
X230868000Y-142487740D01*
X230824209Y-142267592D01*
X233490301Y-139601501D01*
X233490301Y-142355120D01*
X230856672Y-144988750D01*
X230831599Y-144815981D01*
X230733919Y-144540253D01*
X230660472Y-144402843D01*
X230411397Y-144325208D01*
X229562605Y-145174000D01*
X229576748Y-145188143D01*
X229397143Y-145367748D01*
X229383000Y-145353605D01*
X229368858Y-145367748D01*
X229189253Y-145188143D01*
X229203395Y-145174000D01*
X228354603Y-144325208D01*
X228105528Y-144402843D01*
X227979629Y-144666883D01*
X227907661Y-144950411D01*
X227905839Y-144985261D01*
X227322578Y-144402000D01*
X227343000Y-144299335D01*
X227343000Y-144016665D01*
X227287853Y-143739426D01*
X227179680Y-143478273D01*
X227022637Y-143243241D01*
X226822759Y-143043363D01*
X226587727Y-142886320D01*
X226326574Y-142778147D01*
X226049335Y-142723000D01*
X225766665Y-142723000D01*
X225489426Y-142778147D01*
X225228273Y-142886320D01*
X224993241Y-143043363D01*
X224793363Y-143243241D01*
X224636320Y-143478273D01*
X224528147Y-143739426D01*
X224473000Y-144016665D01*
X224473000Y-144299335D01*
X224528147Y-144576574D01*
X224636320Y-144837727D01*
X224793363Y-145072759D01*
X224993241Y-145272637D01*
X225228273Y-145429680D01*
X225489426Y-145537853D01*
X225766665Y-145593000D01*
X226010422Y-145593000D01*
X227912461Y-147495040D01*
X227898000Y-147567740D01*
X227898000Y-147860260D01*
X227955068Y-148147158D01*
X228067010Y-148417411D01*
X228229525Y-148660632D01*
X228436368Y-148867475D01*
X228679589Y-149029990D01*
X228949842Y-149141932D01*
X229236740Y-149199000D01*
X229529260Y-149199000D01*
X229816158Y-149141932D01*
X230086411Y-149029990D01*
X230329632Y-148867475D01*
X230536475Y-148660632D01*
X230698990Y-148417411D01*
X230810932Y-148147158D01*
X230868000Y-147860260D01*
X230868000Y-147567740D01*
X230853539Y-147495039D01*
X232044083Y-146304495D01*
X259515000Y-146304495D01*
X259515000Y-146695505D01*
X259591282Y-147079003D01*
X259740915Y-147440250D01*
X259958149Y-147765364D01*
X260234636Y-148041851D01*
X260559750Y-148259085D01*
X260920997Y-148408718D01*
X261304495Y-148485000D01*
X261695505Y-148485000D01*
X262079003Y-148408718D01*
X262440250Y-148259085D01*
X262765364Y-148041851D01*
X263041851Y-147765364D01*
X263259085Y-147440250D01*
X263408718Y-147079003D01*
X263485000Y-146695505D01*
X263485000Y-146304495D01*
X263408718Y-145920997D01*
X263259085Y-145559750D01*
X263041851Y-145234636D01*
X262765364Y-144958149D01*
X262440250Y-144740915D01*
X262079003Y-144591282D01*
X261695505Y-144515000D01*
X261304495Y-144515000D01*
X260920997Y-144591282D01*
X260559750Y-144740915D01*
X260234636Y-144958149D01*
X259958149Y-145234636D01*
X259740915Y-145559750D01*
X259591282Y-145920997D01*
X259515000Y-146304495D01*
X232044083Y-146304495D01*
X234970349Y-143378230D01*
X235004117Y-143350517D01*
X235041898Y-143304482D01*
X235114710Y-143215760D01*
X235114711Y-143215759D01*
X235196889Y-143062013D01*
X235247495Y-142895190D01*
X235260300Y-142765177D01*
X235260300Y-142765167D01*
X235264581Y-142721701D01*
X235260300Y-142678235D01*
X235260300Y-135790553D01*
X235299842Y-135806932D01*
X235586740Y-135864000D01*
X235879260Y-135864000D01*
X236166158Y-135806932D01*
X236436411Y-135694990D01*
X236679632Y-135532475D01*
X236886475Y-135325632D01*
X237003000Y-135151240D01*
X237119525Y-135325632D01*
X237326368Y-135532475D01*
X237569589Y-135694990D01*
X237839842Y-135806932D01*
X238126740Y-135864000D01*
X238419260Y-135864000D01*
X238706158Y-135806932D01*
X238976411Y-135694990D01*
X239219632Y-135532475D01*
X239426475Y-135325632D01*
X239543000Y-135151240D01*
X239659525Y-135325632D01*
X239866368Y-135532475D01*
X240109589Y-135694990D01*
X240379842Y-135806932D01*
X240666740Y-135864000D01*
X240959260Y-135864000D01*
X241246158Y-135806932D01*
X241516411Y-135694990D01*
X241759632Y-135532475D01*
X241966475Y-135325632D01*
X242083000Y-135151240D01*
X242199525Y-135325632D01*
X242406368Y-135532475D01*
X242649589Y-135694990D01*
X242919842Y-135806932D01*
X243206740Y-135864000D01*
X243499260Y-135864000D01*
X243786158Y-135806932D01*
X244056411Y-135694990D01*
X244299632Y-135532475D01*
X244506475Y-135325632D01*
X244623000Y-135151240D01*
X244739525Y-135325632D01*
X244946368Y-135532475D01*
X245189589Y-135694990D01*
X245459842Y-135806932D01*
X245746740Y-135864000D01*
X246039260Y-135864000D01*
X246326158Y-135806932D01*
X246596411Y-135694990D01*
X246839632Y-135532475D01*
X247046475Y-135325632D01*
X247163000Y-135151240D01*
X247279525Y-135325632D01*
X247486368Y-135532475D01*
X247729589Y-135694990D01*
X247999842Y-135806932D01*
X248286740Y-135864000D01*
X248579260Y-135864000D01*
X248866158Y-135806932D01*
X249136411Y-135694990D01*
X249379632Y-135532475D01*
X249586475Y-135325632D01*
X249703000Y-135151240D01*
X249819525Y-135325632D01*
X250026368Y-135532475D01*
X250269589Y-135694990D01*
X250539842Y-135806932D01*
X250826740Y-135864000D01*
X251119260Y-135864000D01*
X251406158Y-135806932D01*
X251676411Y-135694990D01*
X251919632Y-135532475D01*
X252126475Y-135325632D01*
X252243000Y-135151240D01*
X252359525Y-135325632D01*
X252566368Y-135532475D01*
X252809589Y-135694990D01*
X253079842Y-135806932D01*
X253366740Y-135864000D01*
X253659260Y-135864000D01*
X253946158Y-135806932D01*
X254216411Y-135694990D01*
X254459632Y-135532475D01*
X254666475Y-135325632D01*
X254783000Y-135151240D01*
X254899525Y-135325632D01*
X255106368Y-135532475D01*
X255349589Y-135694990D01*
X255619842Y-135806932D01*
X255906740Y-135864000D01*
X256199260Y-135864000D01*
X256486158Y-135806932D01*
X256756411Y-135694990D01*
X256999632Y-135532475D01*
X257206475Y-135325632D01*
X257368990Y-135082411D01*
X257480932Y-134812158D01*
X257538000Y-134525260D01*
X257538000Y-134232740D01*
X257480932Y-133945842D01*
X257368990Y-133675589D01*
X257206475Y-133432368D01*
X256999632Y-133225525D01*
X256756411Y-133063010D01*
X256486158Y-132951068D01*
X256199260Y-132894000D01*
X255906740Y-132894000D01*
X255619842Y-132951068D01*
X255349589Y-133063010D01*
X255106368Y-133225525D01*
X254899525Y-133432368D01*
X254783000Y-133606760D01*
X254666475Y-133432368D01*
X254459632Y-133225525D01*
X254216411Y-133063010D01*
X253946158Y-132951068D01*
X253659260Y-132894000D01*
X253366740Y-132894000D01*
X253079842Y-132951068D01*
X252809589Y-133063010D01*
X252566368Y-133225525D01*
X252359525Y-133432368D01*
X252243000Y-133606760D01*
X252126475Y-133432368D01*
X251919632Y-133225525D01*
X251676411Y-133063010D01*
X251406158Y-132951068D01*
X251119260Y-132894000D01*
X250826740Y-132894000D01*
X250539842Y-132951068D01*
X250269589Y-133063010D01*
X250026368Y-133225525D01*
X249819525Y-133432368D01*
X249703000Y-133606760D01*
X249586475Y-133432368D01*
X249379632Y-133225525D01*
X249136411Y-133063010D01*
X248866158Y-132951068D01*
X248579260Y-132894000D01*
X248286740Y-132894000D01*
X247999842Y-132951068D01*
X247729589Y-133063010D01*
X247486368Y-133225525D01*
X247279525Y-133432368D01*
X247163000Y-133606760D01*
X247046475Y-133432368D01*
X246839632Y-133225525D01*
X246596411Y-133063010D01*
X246326158Y-132951068D01*
X246039260Y-132894000D01*
X245746740Y-132894000D01*
X245459842Y-132951068D01*
X245189589Y-133063010D01*
X244946368Y-133225525D01*
X244739525Y-133432368D01*
X244623000Y-133606760D01*
X244506475Y-133432368D01*
X244299632Y-133225525D01*
X244056411Y-133063010D01*
X243786158Y-132951068D01*
X243499260Y-132894000D01*
X243206740Y-132894000D01*
X242919842Y-132951068D01*
X242649589Y-133063010D01*
X242406368Y-133225525D01*
X242199525Y-133432368D01*
X242083000Y-133606760D01*
X241966475Y-133432368D01*
X241759632Y-133225525D01*
X241516411Y-133063010D01*
X241246158Y-132951068D01*
X240959260Y-132894000D01*
X240666740Y-132894000D01*
X240379842Y-132951068D01*
X240109589Y-133063010D01*
X239866368Y-133225525D01*
X239659525Y-133432368D01*
X239543000Y-133606760D01*
X239426475Y-133432368D01*
X239219632Y-133225525D01*
X238976411Y-133063010D01*
X238706158Y-132951068D01*
X238419260Y-132894000D01*
X238126740Y-132894000D01*
X237839842Y-132951068D01*
X237569589Y-133063010D01*
X237326368Y-133225525D01*
X237119525Y-133432368D01*
X237003000Y-133606760D01*
X236886475Y-133432368D01*
X236679632Y-133225525D01*
X236436411Y-133063010D01*
X236166158Y-132951068D01*
X235879260Y-132894000D01*
X235586740Y-132894000D01*
X235299842Y-132951068D01*
X235260300Y-132967447D01*
X235260300Y-131781078D01*
X238570000Y-128471379D01*
X238570000Y-128551335D01*
X238625147Y-128828574D01*
X238733320Y-129089727D01*
X238890363Y-129324759D01*
X239090241Y-129524637D01*
X239325273Y-129681680D01*
X239586426Y-129789853D01*
X239863665Y-129845000D01*
X240146335Y-129845000D01*
X240423574Y-129789853D01*
X240684727Y-129681680D01*
X240919759Y-129524637D01*
X241119637Y-129324759D01*
X241275000Y-129092241D01*
X241430363Y-129324759D01*
X241630241Y-129524637D01*
X241865273Y-129681680D01*
X242126426Y-129789853D01*
X242403665Y-129845000D01*
X242686335Y-129845000D01*
X242963574Y-129789853D01*
X243224727Y-129681680D01*
X243459759Y-129524637D01*
X243659637Y-129324759D01*
X243815000Y-129092241D01*
X243970363Y-129324759D01*
X244170241Y-129524637D01*
X244405273Y-129681680D01*
X244666426Y-129789853D01*
X244943665Y-129845000D01*
X245226335Y-129845000D01*
X245503574Y-129789853D01*
X245764727Y-129681680D01*
X245999759Y-129524637D01*
X246199637Y-129324759D01*
X246356680Y-129089727D01*
X246361067Y-129079135D01*
X246472615Y-129265131D01*
X246661586Y-129473519D01*
X246887580Y-129641037D01*
X247141913Y-129761246D01*
X247275961Y-129801904D01*
X247498000Y-129679915D01*
X247498000Y-128537000D01*
X247478000Y-128537000D01*
X247478000Y-128283000D01*
X247498000Y-128283000D01*
X247498000Y-128263000D01*
X247752000Y-128263000D01*
X247752000Y-128283000D01*
X247772000Y-128283000D01*
X247772000Y-128537000D01*
X247752000Y-128537000D01*
X247752000Y-129679915D01*
X247974039Y-129801904D01*
X248108087Y-129761246D01*
X248362420Y-129641037D01*
X248588414Y-129473519D01*
X248777385Y-129265131D01*
X248888933Y-129079135D01*
X248893320Y-129089727D01*
X249050363Y-129324759D01*
X249250241Y-129524637D01*
X249485273Y-129681680D01*
X249746426Y-129789853D01*
X250023665Y-129845000D01*
X250306335Y-129845000D01*
X250583574Y-129789853D01*
X250844727Y-129681680D01*
X251079759Y-129524637D01*
X251279637Y-129324759D01*
X251436680Y-129089727D01*
X251441067Y-129079135D01*
X251552615Y-129265131D01*
X251741586Y-129473519D01*
X251967580Y-129641037D01*
X252221913Y-129761246D01*
X252355961Y-129801904D01*
X252578000Y-129679915D01*
X252578000Y-128537000D01*
X252558000Y-128537000D01*
X252558000Y-128283000D01*
X252578000Y-128283000D01*
X252578000Y-128263000D01*
X252832000Y-128263000D01*
X252832000Y-128283000D01*
X252852000Y-128283000D01*
X252852000Y-128537000D01*
X252832000Y-128537000D01*
X252832000Y-129679915D01*
X253054039Y-129801904D01*
X253188087Y-129761246D01*
X253442420Y-129641037D01*
X253668414Y-129473519D01*
X253857385Y-129265131D01*
X253968933Y-129079135D01*
X253973320Y-129089727D01*
X254130363Y-129324759D01*
X254330241Y-129524637D01*
X254565273Y-129681680D01*
X254826426Y-129789853D01*
X255103665Y-129845000D01*
X255386335Y-129845000D01*
X255663574Y-129789853D01*
X255924727Y-129681680D01*
X256159759Y-129524637D01*
X256359637Y-129324759D01*
X256516680Y-129089727D01*
X256624853Y-128828574D01*
X256680000Y-128551335D01*
X256680000Y-128268665D01*
X256624853Y-127991426D01*
X256516680Y-127730273D01*
X256359637Y-127495241D01*
X256159759Y-127295363D01*
X255924727Y-127138320D01*
X255663574Y-127030147D01*
X255386335Y-126975000D01*
X255103665Y-126975000D01*
X255068561Y-126981983D01*
X255005243Y-126918665D01*
X258065000Y-126918665D01*
X258065000Y-127201335D01*
X258120147Y-127478574D01*
X258228320Y-127739727D01*
X258385363Y-127974759D01*
X258585241Y-128174637D01*
X258820273Y-128331680D01*
X259081426Y-128439853D01*
X259358665Y-128495000D01*
X259641335Y-128495000D01*
X259918574Y-128439853D01*
X260179727Y-128331680D01*
X260414759Y-128174637D01*
X260614637Y-127974759D01*
X260771680Y-127739727D01*
X260879853Y-127478574D01*
X260935000Y-127201335D01*
X260935000Y-126918665D01*
X260879853Y-126641426D01*
X260771680Y-126380273D01*
X260614637Y-126145241D01*
X260414759Y-125945363D01*
X260179727Y-125788320D01*
X259918574Y-125680147D01*
X259641335Y-125625000D01*
X259358665Y-125625000D01*
X259081426Y-125680147D01*
X258820273Y-125788320D01*
X258585241Y-125945363D01*
X258385363Y-126145241D01*
X258228320Y-126380273D01*
X258120147Y-126641426D01*
X258065000Y-126918665D01*
X255005243Y-126918665D01*
X254589034Y-126502456D01*
X254561317Y-126468683D01*
X254426559Y-126358089D01*
X254272813Y-126275911D01*
X254105990Y-126225305D01*
X253975977Y-126212500D01*
X253975969Y-126212500D01*
X253932500Y-126208219D01*
X253889031Y-126212500D01*
X239577300Y-126212500D01*
X239577300Y-123052702D01*
X258686903Y-123052702D01*
X258758486Y-123296671D01*
X259013996Y-123417571D01*
X259288184Y-123486300D01*
X259570512Y-123500217D01*
X259850130Y-123458787D01*
X260116292Y-123363603D01*
X260241514Y-123296671D01*
X260313097Y-123052702D01*
X259500000Y-122239605D01*
X258686903Y-123052702D01*
X239577300Y-123052702D01*
X239577300Y-122158045D01*
X239655961Y-122181904D01*
X239878000Y-122059915D01*
X239878000Y-120917000D01*
X239858000Y-120917000D01*
X239858000Y-120663000D01*
X239878000Y-120663000D01*
X239878000Y-119520085D01*
X240132000Y-119520085D01*
X240132000Y-120663000D01*
X240152000Y-120663000D01*
X240152000Y-120917000D01*
X240132000Y-120917000D01*
X240132000Y-122059915D01*
X240354039Y-122181904D01*
X240488087Y-122141246D01*
X240742420Y-122021037D01*
X240968414Y-121853519D01*
X241157385Y-121645131D01*
X241268933Y-121459135D01*
X241273320Y-121469727D01*
X241430363Y-121704759D01*
X241630241Y-121904637D01*
X241865273Y-122061680D01*
X242126426Y-122169853D01*
X242403665Y-122225000D01*
X242686335Y-122225000D01*
X242963574Y-122169853D01*
X243224727Y-122061680D01*
X243459759Y-121904637D01*
X243659637Y-121704759D01*
X243815000Y-121472241D01*
X243970363Y-121704759D01*
X244170241Y-121904637D01*
X244405273Y-122061680D01*
X244666426Y-122169853D01*
X244943665Y-122225000D01*
X245226335Y-122225000D01*
X245503574Y-122169853D01*
X245764727Y-122061680D01*
X245999759Y-121904637D01*
X246199637Y-121704759D01*
X246303425Y-121549430D01*
X246400206Y-121539897D01*
X246510363Y-121704759D01*
X246710241Y-121904637D01*
X246945273Y-122061680D01*
X247206426Y-122169853D01*
X247483665Y-122225000D01*
X247766335Y-122225000D01*
X248043574Y-122169853D01*
X248304727Y-122061680D01*
X248539759Y-121904637D01*
X248739637Y-121704759D01*
X248843425Y-121549430D01*
X248940206Y-121539897D01*
X249050363Y-121704759D01*
X249250241Y-121904637D01*
X249485273Y-122061680D01*
X249746426Y-122169853D01*
X250023665Y-122225000D01*
X250306335Y-122225000D01*
X250583574Y-122169853D01*
X250844727Y-122061680D01*
X251079759Y-121904637D01*
X251279637Y-121704759D01*
X251435000Y-121472241D01*
X251590363Y-121704759D01*
X251790241Y-121904637D01*
X252025273Y-122061680D01*
X252286426Y-122169853D01*
X252563665Y-122225000D01*
X252846335Y-122225000D01*
X253123574Y-122169853D01*
X253384727Y-122061680D01*
X253619759Y-121904637D01*
X253818357Y-121706039D01*
X253819188Y-121714482D01*
X253855498Y-121834180D01*
X253914463Y-121944494D01*
X253993815Y-122041185D01*
X254090506Y-122120537D01*
X254200820Y-122179502D01*
X254320518Y-122215812D01*
X254445000Y-122228072D01*
X256045000Y-122228072D01*
X256169482Y-122215812D01*
X256289180Y-122179502D01*
X256380832Y-122130512D01*
X258059783Y-122130512D01*
X258101213Y-122410130D01*
X258196397Y-122676292D01*
X258263329Y-122801514D01*
X258507298Y-122873097D01*
X259320395Y-122060000D01*
X259679605Y-122060000D01*
X260492702Y-122873097D01*
X260736671Y-122801514D01*
X260857571Y-122546004D01*
X260926300Y-122271816D01*
X260940217Y-121989488D01*
X260898787Y-121709870D01*
X260803603Y-121443708D01*
X260736671Y-121318486D01*
X260492702Y-121246903D01*
X259679605Y-122060000D01*
X259320395Y-122060000D01*
X258507298Y-121246903D01*
X258263329Y-121318486D01*
X258142429Y-121573996D01*
X258073700Y-121848184D01*
X258059783Y-122130512D01*
X256380832Y-122130512D01*
X256399494Y-122120537D01*
X256496185Y-122041185D01*
X256575537Y-121944494D01*
X256634502Y-121834180D01*
X256670812Y-121714482D01*
X256683072Y-121590000D01*
X256683072Y-121067298D01*
X258686903Y-121067298D01*
X259500000Y-121880395D01*
X260313097Y-121067298D01*
X260241514Y-120823329D01*
X259986004Y-120702429D01*
X259711816Y-120633700D01*
X259429488Y-120619783D01*
X259149870Y-120661213D01*
X258883708Y-120756397D01*
X258758486Y-120823329D01*
X258686903Y-121067298D01*
X256683072Y-121067298D01*
X256683072Y-120374700D01*
X258382678Y-120374700D01*
X258420000Y-120378376D01*
X258457322Y-120374700D01*
X258457333Y-120374700D01*
X258568986Y-120363703D01*
X258712247Y-120320246D01*
X258844276Y-120249674D01*
X258960001Y-120154701D01*
X258983804Y-120125697D01*
X261165053Y-117944449D01*
X261315241Y-118094637D01*
X261550273Y-118251680D01*
X261811426Y-118359853D01*
X262088665Y-118415000D01*
X262371335Y-118415000D01*
X262648574Y-118359853D01*
X262909727Y-118251680D01*
X263144759Y-118094637D01*
X263344637Y-117894759D01*
X263501680Y-117659727D01*
X263609853Y-117398574D01*
X263665000Y-117121335D01*
X263665000Y-116838665D01*
X263609853Y-116561426D01*
X263501680Y-116300273D01*
X263344637Y-116065241D01*
X263144759Y-115865363D01*
X262909727Y-115708320D01*
X262648574Y-115600147D01*
X262371335Y-115545000D01*
X262088665Y-115545000D01*
X261811426Y-115600147D01*
X261550273Y-115708320D01*
X261315241Y-115865363D01*
X261115363Y-116065241D01*
X261011575Y-116220570D01*
X260905714Y-116230997D01*
X260762453Y-116274454D01*
X260630424Y-116345026D01*
X260622922Y-116351183D01*
X260543696Y-116416201D01*
X260543692Y-116416205D01*
X260514699Y-116439999D01*
X260490905Y-116468992D01*
X258105199Y-118854700D01*
X249645522Y-118854700D01*
X249608199Y-118851024D01*
X249570876Y-118854700D01*
X249570867Y-118854700D01*
X249459214Y-118865697D01*
X249315953Y-118909154D01*
X249183923Y-118979726D01*
X249108438Y-119041676D01*
X249068199Y-119074699D01*
X249044401Y-119103698D01*
X248499581Y-119648517D01*
X248304727Y-119518320D01*
X248203225Y-119476277D01*
X249735053Y-117944449D01*
X249885241Y-118094637D01*
X250120273Y-118251680D01*
X250381426Y-118359853D01*
X250658665Y-118415000D01*
X250941335Y-118415000D01*
X251218574Y-118359853D01*
X251479727Y-118251680D01*
X251714759Y-118094637D01*
X251914637Y-117894759D01*
X252071680Y-117659727D01*
X252179853Y-117398574D01*
X252235000Y-117121335D01*
X252235000Y-116838665D01*
X253175000Y-116838665D01*
X253175000Y-117121335D01*
X253230147Y-117398574D01*
X253338320Y-117659727D01*
X253495363Y-117894759D01*
X253695241Y-118094637D01*
X253930273Y-118251680D01*
X254191426Y-118359853D01*
X254468665Y-118415000D01*
X254751335Y-118415000D01*
X255028574Y-118359853D01*
X255289727Y-118251680D01*
X255524759Y-118094637D01*
X255724637Y-117894759D01*
X255881680Y-117659727D01*
X255989853Y-117398574D01*
X256045000Y-117121335D01*
X256045000Y-116838665D01*
X255989853Y-116561426D01*
X255881680Y-116300273D01*
X255724637Y-116065241D01*
X255524759Y-115865363D01*
X255289727Y-115708320D01*
X255028574Y-115600147D01*
X254751335Y-115545000D01*
X254468665Y-115545000D01*
X254191426Y-115600147D01*
X253930273Y-115708320D01*
X253695241Y-115865363D01*
X253495363Y-116065241D01*
X253338320Y-116300273D01*
X253230147Y-116561426D01*
X253175000Y-116838665D01*
X252235000Y-116838665D01*
X252179853Y-116561426D01*
X252071680Y-116300273D01*
X251914637Y-116065241D01*
X251714759Y-115865363D01*
X251479727Y-115708320D01*
X251218574Y-115600147D01*
X250941335Y-115545000D01*
X250658665Y-115545000D01*
X250381426Y-115600147D01*
X250120273Y-115708320D01*
X249885241Y-115865363D01*
X249685363Y-116065241D01*
X249581575Y-116220570D01*
X249475714Y-116230997D01*
X249332453Y-116274454D01*
X249200423Y-116345026D01*
X249116783Y-116413668D01*
X249084699Y-116439999D01*
X249060901Y-116468997D01*
X245912704Y-119617195D01*
X245764727Y-119518320D01*
X245503574Y-119410147D01*
X245226335Y-119355000D01*
X244943665Y-119355000D01*
X244666426Y-119410147D01*
X244405273Y-119518320D01*
X244170241Y-119675363D01*
X243970363Y-119875241D01*
X243815000Y-120107759D01*
X243659637Y-119875241D01*
X243459759Y-119675363D01*
X243224727Y-119518320D01*
X242963574Y-119410147D01*
X242686335Y-119355000D01*
X242403665Y-119355000D01*
X242126426Y-119410147D01*
X241865273Y-119518320D01*
X241630241Y-119675363D01*
X241430363Y-119875241D01*
X241273320Y-120110273D01*
X241268933Y-120120865D01*
X241157385Y-119934869D01*
X240968414Y-119726481D01*
X240742420Y-119558963D01*
X240488087Y-119438754D01*
X240354039Y-119398096D01*
X240132000Y-119520085D01*
X239878000Y-119520085D01*
X239655961Y-119398096D01*
X239577300Y-119421955D01*
X239577300Y-118401879D01*
X239788574Y-118359853D01*
X240049727Y-118251680D01*
X240284759Y-118094637D01*
X240484637Y-117894759D01*
X240641680Y-117659727D01*
X240749853Y-117398574D01*
X240805000Y-117121335D01*
X240805000Y-116838665D01*
X241745000Y-116838665D01*
X241745000Y-117121335D01*
X241800147Y-117398574D01*
X241908320Y-117659727D01*
X242065363Y-117894759D01*
X242265241Y-118094637D01*
X242500273Y-118251680D01*
X242761426Y-118359853D01*
X243038665Y-118415000D01*
X243321335Y-118415000D01*
X243598574Y-118359853D01*
X243859727Y-118251680D01*
X244094759Y-118094637D01*
X244294637Y-117894759D01*
X244451680Y-117659727D01*
X244559853Y-117398574D01*
X244615000Y-117121335D01*
X244615000Y-116838665D01*
X244559853Y-116561426D01*
X244451680Y-116300273D01*
X244294637Y-116065241D01*
X244094759Y-115865363D01*
X243859727Y-115708320D01*
X243598574Y-115600147D01*
X243321335Y-115545000D01*
X243038665Y-115545000D01*
X242761426Y-115600147D01*
X242500273Y-115708320D01*
X242265241Y-115865363D01*
X242065363Y-116065241D01*
X241908320Y-116300273D01*
X241800147Y-116561426D01*
X241745000Y-116838665D01*
X240805000Y-116838665D01*
X240749853Y-116561426D01*
X240641680Y-116300273D01*
X240484637Y-116065241D01*
X240284759Y-115865363D01*
X240049727Y-115708320D01*
X239788574Y-115600147D01*
X239511335Y-115545000D01*
X239228665Y-115545000D01*
X238951426Y-115600147D01*
X238690273Y-115708320D01*
X238455241Y-115865363D01*
X238255363Y-116065241D01*
X238098320Y-116300273D01*
X237990147Y-116561426D01*
X237935000Y-116838665D01*
X237935000Y-117121335D01*
X237945985Y-117176559D01*
X237870711Y-117317388D01*
X237844353Y-117404277D01*
X237823185Y-117474059D01*
X237820105Y-117484211D01*
X237807300Y-117614224D01*
X237807300Y-117614231D01*
X237803019Y-117657700D01*
X237807300Y-117701169D01*
X237807301Y-126730920D01*
X236344994Y-128193227D01*
X236304853Y-127991426D01*
X236196680Y-127730273D01*
X236039637Y-127495241D01*
X235839759Y-127295363D01*
X235604727Y-127138320D01*
X235343574Y-127030147D01*
X235066335Y-126975000D01*
X234783665Y-126975000D01*
X234506426Y-127030147D01*
X234266900Y-127129362D01*
X234266900Y-122070638D01*
X234506426Y-122169853D01*
X234783665Y-122225000D01*
X235066335Y-122225000D01*
X235343574Y-122169853D01*
X235604727Y-122061680D01*
X235839759Y-121904637D01*
X236039637Y-121704759D01*
X236196680Y-121469727D01*
X236304853Y-121208574D01*
X236360000Y-120931335D01*
X236360000Y-120648665D01*
X236304853Y-120371426D01*
X236196680Y-120110273D01*
X236039637Y-119875241D01*
X235839759Y-119675363D01*
X235604727Y-119518320D01*
X235343574Y-119410147D01*
X235066335Y-119355000D01*
X234783665Y-119355000D01*
X234506426Y-119410147D01*
X234266900Y-119509362D01*
X234266900Y-118353201D01*
X252061003Y-100559099D01*
X252090001Y-100535301D01*
X252184974Y-100419576D01*
X252255546Y-100287547D01*
X252299003Y-100144286D01*
X252308361Y-100049274D01*
X252496632Y-99923475D01*
X252703475Y-99716632D01*
X252820000Y-99542240D01*
X252936525Y-99716632D01*
X253143368Y-99923475D01*
X253386589Y-100085990D01*
X253656842Y-100197932D01*
X253943740Y-100255000D01*
X254236260Y-100255000D01*
X254523158Y-100197932D01*
X254793411Y-100085990D01*
X255036632Y-99923475D01*
X255243475Y-99716632D01*
X255365195Y-99534466D01*
X255434822Y-99651355D01*
X255629731Y-99867588D01*
X255863080Y-100041641D01*
X256125901Y-100166825D01*
X256273110Y-100211476D01*
X256503000Y-100090155D01*
X256503000Y-98897000D01*
X256757000Y-98897000D01*
X256757000Y-100090155D01*
X256986890Y-100211476D01*
X257134099Y-100166825D01*
X257396920Y-100041641D01*
X257630269Y-99867588D01*
X257825178Y-99651355D01*
X257974157Y-99401252D01*
X258071481Y-99126891D01*
X257950814Y-98897000D01*
X256757000Y-98897000D01*
X256503000Y-98897000D01*
X256483000Y-98897000D01*
X256483000Y-98643000D01*
X256503000Y-98643000D01*
X256503000Y-98623000D01*
X256757000Y-98623000D01*
X256757000Y-98643000D01*
X257950814Y-98643000D01*
X258071481Y-98413109D01*
X257974157Y-98138748D01*
X257825178Y-97888645D01*
X257630269Y-97672412D01*
X257400594Y-97501100D01*
X257576632Y-97383475D01*
X257655612Y-97304495D01*
X259515000Y-97304495D01*
X259515000Y-97695505D01*
X259591282Y-98079003D01*
X259740915Y-98440250D01*
X259958149Y-98765364D01*
X260234636Y-99041851D01*
X260559750Y-99259085D01*
X260920997Y-99408718D01*
X261304495Y-99485000D01*
X261695505Y-99485000D01*
X262079003Y-99408718D01*
X262440250Y-99259085D01*
X262765364Y-99041851D01*
X263041851Y-98765364D01*
X263259085Y-98440250D01*
X263408718Y-98079003D01*
X263485000Y-97695505D01*
X263485000Y-97304495D01*
X263408718Y-96920997D01*
X263259085Y-96559750D01*
X263041851Y-96234636D01*
X262765364Y-95958149D01*
X262440250Y-95740915D01*
X262079003Y-95591282D01*
X261695505Y-95515000D01*
X261304495Y-95515000D01*
X260920997Y-95591282D01*
X260559750Y-95740915D01*
X260234636Y-95958149D01*
X259958149Y-96234636D01*
X259740915Y-96559750D01*
X259591282Y-96920997D01*
X259515000Y-97304495D01*
X257655612Y-97304495D01*
X257783475Y-97176632D01*
X257945990Y-96933411D01*
X258057932Y-96663158D01*
X258115000Y-96376260D01*
X258115000Y-96083740D01*
X258057932Y-95796842D01*
X257945990Y-95526589D01*
X257783475Y-95283368D01*
X257576632Y-95076525D01*
X257333411Y-94914010D01*
X257063158Y-94802068D01*
X256776260Y-94745000D01*
X256483740Y-94745000D01*
X256196842Y-94802068D01*
X255926589Y-94914010D01*
X255683368Y-95076525D01*
X255476525Y-95283368D01*
X255360000Y-95457760D01*
X255243475Y-95283368D01*
X255036632Y-95076525D01*
X254793411Y-94914010D01*
X254523158Y-94802068D01*
X254236260Y-94745000D01*
X253943740Y-94745000D01*
X253656842Y-94802068D01*
X253386589Y-94914010D01*
X253143368Y-95076525D01*
X252936525Y-95283368D01*
X252820000Y-95457760D01*
X252703475Y-95283368D01*
X252496632Y-95076525D01*
X252253411Y-94914010D01*
X251983158Y-94802068D01*
X251696260Y-94745000D01*
X251403740Y-94745000D01*
X251116842Y-94802068D01*
X250846589Y-94914010D01*
X250603368Y-95076525D01*
X250396525Y-95283368D01*
X250274805Y-95465534D01*
X250205178Y-95348645D01*
X250010269Y-95132412D01*
X249776920Y-94958359D01*
X249514099Y-94833175D01*
X249366890Y-94788524D01*
X249137000Y-94909845D01*
X249137000Y-96103000D01*
X249157000Y-96103000D01*
X249157000Y-96357000D01*
X249137000Y-96357000D01*
X249137000Y-96377000D01*
X248883000Y-96377000D01*
X248883000Y-96357000D01*
X248863000Y-96357000D01*
X248863000Y-96103000D01*
X248883000Y-96103000D01*
X248883000Y-94909845D01*
X248653110Y-94788524D01*
X248505901Y-94833175D01*
X248243080Y-94958359D01*
X248009731Y-95132412D01*
X247814822Y-95348645D01*
X247745195Y-95465534D01*
X247623475Y-95283368D01*
X247416632Y-95076525D01*
X247173411Y-94914010D01*
X246903158Y-94802068D01*
X246616260Y-94745000D01*
X246323740Y-94745000D01*
X246036842Y-94802068D01*
X245766589Y-94914010D01*
X245523368Y-95076525D01*
X245316525Y-95283368D01*
X245194805Y-95465534D01*
X245125178Y-95348645D01*
X244930269Y-95132412D01*
X244696920Y-94958359D01*
X244434099Y-94833175D01*
X244286890Y-94788524D01*
X244057000Y-94909845D01*
X244057000Y-96103000D01*
X244077000Y-96103000D01*
X244077000Y-96357000D01*
X244057000Y-96357000D01*
X244057000Y-96377000D01*
X243803000Y-96377000D01*
X243803000Y-96357000D01*
X243783000Y-96357000D01*
X243783000Y-96103000D01*
X243803000Y-96103000D01*
X243803000Y-94909845D01*
X243573110Y-94788524D01*
X243425901Y-94833175D01*
X243163080Y-94958359D01*
X242929731Y-95132412D01*
X242734822Y-95348645D01*
X242665195Y-95465534D01*
X242543475Y-95283368D01*
X242336632Y-95076525D01*
X242093411Y-94914010D01*
X241823158Y-94802068D01*
X241536260Y-94745000D01*
X241243740Y-94745000D01*
X240956842Y-94802068D01*
X240686589Y-94914010D01*
X240443368Y-95076525D01*
X240236525Y-95283368D01*
X240120000Y-95457760D01*
X240003475Y-95283368D01*
X239796632Y-95076525D01*
X239553411Y-94914010D01*
X239283158Y-94802068D01*
X238996260Y-94745000D01*
X238703740Y-94745000D01*
X238416842Y-94802068D01*
X238146589Y-94914010D01*
X237903368Y-95076525D01*
X237696525Y-95283368D01*
X237580000Y-95457760D01*
X237463475Y-95283368D01*
X237256632Y-95076525D01*
X237013411Y-94914010D01*
X236743158Y-94802068D01*
X236456260Y-94745000D01*
X236163740Y-94745000D01*
X235876842Y-94802068D01*
X235606589Y-94914010D01*
X235363368Y-95076525D01*
X235156525Y-95283368D01*
X235040000Y-95457760D01*
X234923475Y-95283368D01*
X234716632Y-95076525D01*
X234473411Y-94914010D01*
X234203158Y-94802068D01*
X233916260Y-94745000D01*
X233623740Y-94745000D01*
X233336842Y-94802068D01*
X233066589Y-94914010D01*
X232823368Y-95076525D01*
X232616525Y-95283368D01*
X232494805Y-95465534D01*
X232425178Y-95348645D01*
X232230269Y-95132412D01*
X231996920Y-94958359D01*
X231734099Y-94833175D01*
X231586890Y-94788524D01*
X231357000Y-94909845D01*
X231357000Y-96103000D01*
X231377000Y-96103000D01*
X231377000Y-96357000D01*
X231357000Y-96357000D01*
X231357000Y-96377000D01*
X231103000Y-96377000D01*
X231103000Y-96357000D01*
X231083000Y-96357000D01*
X231083000Y-96103000D01*
X231103000Y-96103000D01*
X231103000Y-94909845D01*
X230873110Y-94788524D01*
X230725901Y-94833175D01*
X230463080Y-94958359D01*
X230229731Y-95132412D01*
X230034822Y-95348645D01*
X229965195Y-95465534D01*
X229843475Y-95283368D01*
X229636632Y-95076525D01*
X229393411Y-94914010D01*
X229123158Y-94802068D01*
X228836260Y-94745000D01*
X228543740Y-94745000D01*
X228256842Y-94802068D01*
X227986589Y-94914010D01*
X227743368Y-95076525D01*
X227536525Y-95283368D01*
X227420000Y-95457760D01*
X227303475Y-95283368D01*
X227096632Y-95076525D01*
X226853411Y-94914010D01*
X226583158Y-94802068D01*
X226296260Y-94745000D01*
X226003740Y-94745000D01*
X225716842Y-94802068D01*
X225446589Y-94914010D01*
X225288406Y-95019704D01*
X224953701Y-94685000D01*
X261966495Y-94685000D01*
X262449016Y-94732312D01*
X262880930Y-94862714D01*
X263279285Y-95074524D01*
X263628914Y-95359675D01*
X263916497Y-95707303D01*
X264131086Y-96104177D01*
X264264498Y-96535161D01*
X264315001Y-97015663D01*
X264315000Y-146966495D01*
X264267688Y-147449016D01*
X264137287Y-147880927D01*
X263925480Y-148279280D01*
X263640325Y-148628914D01*
X263292697Y-148916497D01*
X262895825Y-149131085D01*
X262464834Y-149264500D01*
X261984346Y-149315000D01*
X203033504Y-149315000D01*
X202550984Y-149267688D01*
X202119073Y-149137287D01*
X201720720Y-148925480D01*
X201371086Y-148640325D01*
X201083503Y-148292697D01*
X200868915Y-147895825D01*
X200735500Y-147464834D01*
X200685000Y-146984346D01*
X200685000Y-146304495D01*
X201515000Y-146304495D01*
X201515000Y-146695505D01*
X201591282Y-147079003D01*
X201740915Y-147440250D01*
X201958149Y-147765364D01*
X202234636Y-148041851D01*
X202559750Y-148259085D01*
X202920997Y-148408718D01*
X203304495Y-148485000D01*
X203695505Y-148485000D01*
X204079003Y-148408718D01*
X204440250Y-148259085D01*
X204765364Y-148041851D01*
X205041851Y-147765364D01*
X205259085Y-147440250D01*
X205408718Y-147079003D01*
X205476746Y-146737000D01*
X210195928Y-146737000D01*
X210195928Y-148437000D01*
X210208188Y-148561482D01*
X210244498Y-148681180D01*
X210303463Y-148791494D01*
X210382815Y-148888185D01*
X210479506Y-148967537D01*
X210589820Y-149026502D01*
X210709518Y-149062812D01*
X210834000Y-149075072D01*
X212534000Y-149075072D01*
X212658482Y-149062812D01*
X212778180Y-149026502D01*
X212888494Y-148967537D01*
X212985185Y-148888185D01*
X213064537Y-148791494D01*
X213123502Y-148681180D01*
X213147966Y-148600534D01*
X213223731Y-148684588D01*
X213457080Y-148858641D01*
X213719901Y-148983825D01*
X213867110Y-149028476D01*
X214097000Y-148907155D01*
X214097000Y-147714000D01*
X214077000Y-147714000D01*
X214077000Y-147460000D01*
X214097000Y-147460000D01*
X214097000Y-146266845D01*
X214351000Y-146266845D01*
X214351000Y-147460000D01*
X214371000Y-147460000D01*
X214371000Y-147714000D01*
X214351000Y-147714000D01*
X214351000Y-148907155D01*
X214580890Y-149028476D01*
X214728099Y-148983825D01*
X214990920Y-148858641D01*
X215224269Y-148684588D01*
X215419178Y-148468355D01*
X215488805Y-148351466D01*
X215610525Y-148533632D01*
X215817368Y-148740475D01*
X216060589Y-148902990D01*
X216330842Y-149014932D01*
X216617740Y-149072000D01*
X216910260Y-149072000D01*
X217197158Y-149014932D01*
X217467411Y-148902990D01*
X217710632Y-148740475D01*
X217917475Y-148533632D01*
X218034000Y-148359240D01*
X218150525Y-148533632D01*
X218357368Y-148740475D01*
X218600589Y-148902990D01*
X218870842Y-149014932D01*
X219157740Y-149072000D01*
X219450260Y-149072000D01*
X219737158Y-149014932D01*
X220007411Y-148902990D01*
X220250632Y-148740475D01*
X220457475Y-148533632D01*
X220574000Y-148359240D01*
X220690525Y-148533632D01*
X220897368Y-148740475D01*
X221140589Y-148902990D01*
X221410842Y-149014932D01*
X221697740Y-149072000D01*
X221990260Y-149072000D01*
X222277158Y-149014932D01*
X222547411Y-148902990D01*
X222790632Y-148740475D01*
X222997475Y-148533632D01*
X223159990Y-148290411D01*
X223271932Y-148020158D01*
X223329000Y-147733260D01*
X223329000Y-147440740D01*
X223271932Y-147153842D01*
X223159990Y-146883589D01*
X222997475Y-146640368D01*
X222790632Y-146433525D01*
X222547411Y-146271010D01*
X222277158Y-146159068D01*
X221990260Y-146102000D01*
X221697740Y-146102000D01*
X221410842Y-146159068D01*
X221140589Y-146271010D01*
X220897368Y-146433525D01*
X220690525Y-146640368D01*
X220574000Y-146814760D01*
X220457475Y-146640368D01*
X220250632Y-146433525D01*
X220007411Y-146271010D01*
X219737158Y-146159068D01*
X219450260Y-146102000D01*
X219157740Y-146102000D01*
X219048000Y-146123829D01*
X219048000Y-141580000D01*
X219135928Y-141580000D01*
X219135928Y-143180000D01*
X219148188Y-143304482D01*
X219184498Y-143424180D01*
X219243463Y-143534494D01*
X219322815Y-143631185D01*
X219419506Y-143710537D01*
X219529820Y-143769502D01*
X219649518Y-143805812D01*
X219774000Y-143818072D01*
X221374000Y-143818072D01*
X221498482Y-143805812D01*
X221618180Y-143769502D01*
X221728494Y-143710537D01*
X221825185Y-143631185D01*
X221904537Y-143534494D01*
X221963502Y-143424180D01*
X221999812Y-143304482D01*
X222012072Y-143180000D01*
X222012072Y-141580000D01*
X221999812Y-141455518D01*
X221963502Y-141335820D01*
X221904537Y-141225506D01*
X221825185Y-141128815D01*
X221728494Y-141049463D01*
X221618180Y-140990498D01*
X221498482Y-140954188D01*
X221374000Y-140941928D01*
X221366785Y-140941928D01*
X221387097Y-140872702D01*
X220574000Y-140059605D01*
X219760903Y-140872702D01*
X219781215Y-140941928D01*
X219774000Y-140941928D01*
X219649518Y-140954188D01*
X219529820Y-140990498D01*
X219419506Y-141049463D01*
X219322815Y-141128815D01*
X219243463Y-141225506D01*
X219184498Y-141335820D01*
X219148188Y-141455518D01*
X219135928Y-141580000D01*
X219048000Y-141580000D01*
X219048000Y-139950512D01*
X219133783Y-139950512D01*
X219175213Y-140230130D01*
X219270397Y-140496292D01*
X219337329Y-140621514D01*
X219581298Y-140693097D01*
X220394395Y-139880000D01*
X220753605Y-139880000D01*
X221566702Y-140693097D01*
X221810671Y-140621514D01*
X221931571Y-140366004D01*
X221985539Y-140150702D01*
X225094903Y-140150702D01*
X225166486Y-140394671D01*
X225421996Y-140515571D01*
X225696184Y-140584300D01*
X225978512Y-140598217D01*
X226258130Y-140556787D01*
X226524292Y-140461603D01*
X226649514Y-140394671D01*
X226721097Y-140150702D01*
X225908000Y-139337605D01*
X225094903Y-140150702D01*
X221985539Y-140150702D01*
X222000300Y-140091816D01*
X222014217Y-139809488D01*
X221972787Y-139529870D01*
X221877603Y-139263708D01*
X221858791Y-139228512D01*
X224467783Y-139228512D01*
X224509213Y-139508130D01*
X224604397Y-139774292D01*
X224671329Y-139899514D01*
X224915298Y-139971097D01*
X225728395Y-139158000D01*
X226087605Y-139158000D01*
X226900702Y-139971097D01*
X227144671Y-139899514D01*
X227265571Y-139644004D01*
X227334300Y-139369816D01*
X227348217Y-139087488D01*
X227306787Y-138807870D01*
X227211603Y-138541708D01*
X227144671Y-138416486D01*
X226900702Y-138344903D01*
X226087605Y-139158000D01*
X225728395Y-139158000D01*
X224915298Y-138344903D01*
X224671329Y-138416486D01*
X224550429Y-138671996D01*
X224481700Y-138946184D01*
X224467783Y-139228512D01*
X221858791Y-139228512D01*
X221810671Y-139138486D01*
X221566702Y-139066903D01*
X220753605Y-139880000D01*
X220394395Y-139880000D01*
X219581298Y-139066903D01*
X219337329Y-139138486D01*
X219216429Y-139393996D01*
X219147700Y-139668184D01*
X219133783Y-139950512D01*
X219048000Y-139950512D01*
X219048000Y-138887298D01*
X219760903Y-138887298D01*
X220574000Y-139700395D01*
X221387097Y-138887298D01*
X221315514Y-138643329D01*
X221060004Y-138522429D01*
X220785816Y-138453700D01*
X220503488Y-138439783D01*
X220223870Y-138481213D01*
X219957708Y-138576397D01*
X219832486Y-138643329D01*
X219760903Y-138887298D01*
X219048000Y-138887298D01*
X219048000Y-138165298D01*
X225094903Y-138165298D01*
X225908000Y-138978395D01*
X226721097Y-138165298D01*
X226649514Y-137921329D01*
X226394004Y-137800429D01*
X226119816Y-137731700D01*
X225837488Y-137717783D01*
X225557870Y-137759213D01*
X225291708Y-137854397D01*
X225166486Y-137921329D01*
X225094903Y-138165298D01*
X219048000Y-138165298D01*
X219048000Y-136740043D01*
X219202759Y-136636637D01*
X219402637Y-136436759D01*
X219559680Y-136201727D01*
X219667853Y-135940574D01*
X219723000Y-135663335D01*
X219723000Y-135380665D01*
X224473000Y-135380665D01*
X224473000Y-135663335D01*
X224528147Y-135940574D01*
X224636320Y-136201727D01*
X224793363Y-136436759D01*
X224993241Y-136636637D01*
X225228273Y-136793680D01*
X225489426Y-136901853D01*
X225766665Y-136957000D01*
X226049335Y-136957000D01*
X226326574Y-136901853D01*
X226587727Y-136793680D01*
X226822759Y-136636637D01*
X227022637Y-136436759D01*
X227179680Y-136201727D01*
X227287853Y-135940574D01*
X227343000Y-135663335D01*
X227343000Y-135380665D01*
X227287853Y-135103426D01*
X227179680Y-134842273D01*
X227022637Y-134607241D01*
X226822759Y-134407363D01*
X226587727Y-134250320D01*
X226326574Y-134142147D01*
X226049335Y-134087000D01*
X225766665Y-134087000D01*
X225489426Y-134142147D01*
X225228273Y-134250320D01*
X224993241Y-134407363D01*
X224793363Y-134607241D01*
X224636320Y-134842273D01*
X224528147Y-135103426D01*
X224473000Y-135380665D01*
X219723000Y-135380665D01*
X219667853Y-135103426D01*
X219559680Y-134842273D01*
X219402637Y-134607241D01*
X219202759Y-134407363D01*
X218967727Y-134250320D01*
X218706574Y-134142147D01*
X218429335Y-134087000D01*
X218146665Y-134087000D01*
X217869426Y-134142147D01*
X217608273Y-134250320D01*
X217373241Y-134407363D01*
X217173363Y-134607241D01*
X217016320Y-134842273D01*
X216908147Y-135103426D01*
X216853000Y-135380665D01*
X216853000Y-135663335D01*
X216908147Y-135940574D01*
X217016320Y-136201727D01*
X217173363Y-136436759D01*
X217373241Y-136636637D01*
X217528000Y-136740043D01*
X217528001Y-146311495D01*
X217467411Y-146271010D01*
X217197158Y-146159068D01*
X216910260Y-146102000D01*
X216617740Y-146102000D01*
X216330842Y-146159068D01*
X216060589Y-146271010D01*
X215817368Y-146433525D01*
X215610525Y-146640368D01*
X215488805Y-146822534D01*
X215419178Y-146705645D01*
X215224269Y-146489412D01*
X214990920Y-146315359D01*
X214728099Y-146190175D01*
X214580890Y-146145524D01*
X214351000Y-146266845D01*
X214097000Y-146266845D01*
X213867110Y-146145524D01*
X213719901Y-146190175D01*
X213457080Y-146315359D01*
X213223731Y-146489412D01*
X213147966Y-146573466D01*
X213123502Y-146492820D01*
X213064537Y-146382506D01*
X212985185Y-146285815D01*
X212888494Y-146206463D01*
X212778180Y-146147498D01*
X212658482Y-146111188D01*
X212534000Y-146098928D01*
X210834000Y-146098928D01*
X210709518Y-146111188D01*
X210589820Y-146147498D01*
X210479506Y-146206463D01*
X210382815Y-146285815D01*
X210303463Y-146382506D01*
X210244498Y-146492820D01*
X210208188Y-146612518D01*
X210195928Y-146737000D01*
X205476746Y-146737000D01*
X205485000Y-146695505D01*
X205485000Y-146304495D01*
X205408718Y-145920997D01*
X205259085Y-145559750D01*
X205041851Y-145234636D01*
X204765364Y-144958149D01*
X204440250Y-144740915D01*
X204079003Y-144591282D01*
X203695505Y-144515000D01*
X203304495Y-144515000D01*
X202920997Y-144591282D01*
X202559750Y-144740915D01*
X202234636Y-144958149D01*
X201958149Y-145234636D01*
X201740915Y-145559750D01*
X201591282Y-145920997D01*
X201515000Y-146304495D01*
X200685000Y-146304495D01*
X200685000Y-140069268D01*
X205865000Y-140069268D01*
X205865000Y-140430732D01*
X205935518Y-140785250D01*
X206073844Y-141119199D01*
X206274662Y-141419744D01*
X206530256Y-141675338D01*
X206830801Y-141876156D01*
X207164750Y-142014482D01*
X207519268Y-142085000D01*
X207880732Y-142085000D01*
X208235250Y-142014482D01*
X208569199Y-141876156D01*
X208869744Y-141675338D01*
X209125338Y-141419744D01*
X209326156Y-141119199D01*
X209464482Y-140785250D01*
X209535000Y-140430732D01*
X209535000Y-140074193D01*
X210915000Y-140074193D01*
X210915000Y-140425807D01*
X210983596Y-140770665D01*
X211118153Y-141095515D01*
X211313500Y-141387871D01*
X211562129Y-141636500D01*
X211854485Y-141831847D01*
X212179335Y-141966404D01*
X212524193Y-142035000D01*
X212875807Y-142035000D01*
X213220665Y-141966404D01*
X213545515Y-141831847D01*
X213837871Y-141636500D01*
X214086500Y-141387871D01*
X214281847Y-141095515D01*
X214416404Y-140770665D01*
X214485000Y-140425807D01*
X214485000Y-140074193D01*
X214416404Y-139729335D01*
X214281847Y-139404485D01*
X214135576Y-139185576D01*
X214354485Y-139331847D01*
X214679335Y-139466404D01*
X215024193Y-139535000D01*
X215375807Y-139535000D01*
X215720665Y-139466404D01*
X216045515Y-139331847D01*
X216337871Y-139136500D01*
X216586500Y-138887871D01*
X216781847Y-138595515D01*
X216916404Y-138270665D01*
X216985000Y-137925807D01*
X216985000Y-137574193D01*
X216916404Y-137229335D01*
X216781847Y-136904485D01*
X216586500Y-136612129D01*
X216337871Y-136363500D01*
X216045515Y-136168153D01*
X215720665Y-136033596D01*
X215375807Y-135965000D01*
X215024193Y-135965000D01*
X214679335Y-136033596D01*
X214354485Y-136168153D01*
X214062129Y-136363500D01*
X213813500Y-136612129D01*
X213618153Y-136904485D01*
X213483596Y-137229335D01*
X213415000Y-137574193D01*
X213415000Y-137925807D01*
X213483596Y-138270665D01*
X213618153Y-138595515D01*
X213764424Y-138814424D01*
X213545515Y-138668153D01*
X213220665Y-138533596D01*
X212875807Y-138465000D01*
X212524193Y-138465000D01*
X212179335Y-138533596D01*
X211854485Y-138668153D01*
X211562129Y-138863500D01*
X211313500Y-139112129D01*
X211118153Y-139404485D01*
X210983596Y-139729335D01*
X210915000Y-140074193D01*
X209535000Y-140074193D01*
X209535000Y-140069268D01*
X209464482Y-139714750D01*
X209326156Y-139380801D01*
X209125338Y-139080256D01*
X208869744Y-138824662D01*
X208569199Y-138623844D01*
X208235250Y-138485518D01*
X207880732Y-138415000D01*
X207519268Y-138415000D01*
X207164750Y-138485518D01*
X206830801Y-138623844D01*
X206530256Y-138824662D01*
X206274662Y-139080256D01*
X206073844Y-139380801D01*
X205935518Y-139714750D01*
X205865000Y-140069268D01*
X200685000Y-140069268D01*
X200685000Y-135088967D01*
X201065000Y-135088967D01*
X201065000Y-135411033D01*
X201127832Y-135726912D01*
X201251082Y-136024463D01*
X201430013Y-136292252D01*
X201637761Y-136500000D01*
X201430013Y-136707748D01*
X201251082Y-136975537D01*
X201127832Y-137273088D01*
X201065000Y-137588967D01*
X201065000Y-137911033D01*
X201127832Y-138226912D01*
X201251082Y-138524463D01*
X201430013Y-138792252D01*
X201657748Y-139019987D01*
X201925537Y-139198918D01*
X202223088Y-139322168D01*
X202538967Y-139385000D01*
X202861033Y-139385000D01*
X203176912Y-139322168D01*
X203474463Y-139198918D01*
X203742252Y-139019987D01*
X203969987Y-138792252D01*
X204148918Y-138524463D01*
X204272168Y-138226912D01*
X204335000Y-137911033D01*
X204335000Y-137588967D01*
X204272168Y-137273088D01*
X204148918Y-136975537D01*
X203969987Y-136707748D01*
X203762239Y-136500000D01*
X203969987Y-136292252D01*
X204148918Y-136024463D01*
X204272168Y-135726912D01*
X204335000Y-135411033D01*
X204335000Y-135088967D01*
X204272168Y-134773088D01*
X204148918Y-134475537D01*
X203969987Y-134207748D01*
X203742252Y-133980013D01*
X203474463Y-133801082D01*
X203176912Y-133677832D01*
X202861033Y-133615000D01*
X202538967Y-133615000D01*
X202223088Y-133677832D01*
X201925537Y-133801082D01*
X201657748Y-133980013D01*
X201430013Y-134207748D01*
X201251082Y-134475537D01*
X201127832Y-134773088D01*
X201065000Y-135088967D01*
X200685000Y-135088967D01*
X200685000Y-132574193D01*
X210915000Y-132574193D01*
X210915000Y-132925807D01*
X210983596Y-133270665D01*
X211118153Y-133595515D01*
X211313500Y-133887871D01*
X211562129Y-134136500D01*
X211854485Y-134331847D01*
X212179335Y-134466404D01*
X212524193Y-134535000D01*
X212875807Y-134535000D01*
X213220665Y-134466404D01*
X213545515Y-134331847D01*
X213837871Y-134136500D01*
X214086500Y-133887871D01*
X214281847Y-133595515D01*
X214416404Y-133270665D01*
X214485000Y-132925807D01*
X214485000Y-132574193D01*
X214416404Y-132229335D01*
X214281847Y-131904485D01*
X214086500Y-131612129D01*
X213837871Y-131363500D01*
X213545515Y-131168153D01*
X213220665Y-131033596D01*
X212875807Y-130965000D01*
X212524193Y-130965000D01*
X212179335Y-131033596D01*
X211854485Y-131168153D01*
X211562129Y-131363500D01*
X211313500Y-131612129D01*
X211118153Y-131904485D01*
X210983596Y-132229335D01*
X210915000Y-132574193D01*
X200685000Y-132574193D01*
X200685000Y-127588967D01*
X201065000Y-127588967D01*
X201065000Y-127911033D01*
X201127832Y-128226912D01*
X201251082Y-128524463D01*
X201430013Y-128792252D01*
X201637761Y-129000000D01*
X201430013Y-129207748D01*
X201251082Y-129475537D01*
X201127832Y-129773088D01*
X201065000Y-130088967D01*
X201065000Y-130411033D01*
X201127832Y-130726912D01*
X201251082Y-131024463D01*
X201430013Y-131292252D01*
X201657748Y-131519987D01*
X201925537Y-131698918D01*
X202223088Y-131822168D01*
X202538967Y-131885000D01*
X202861033Y-131885000D01*
X203176912Y-131822168D01*
X203474463Y-131698918D01*
X203742252Y-131519987D01*
X203969987Y-131292252D01*
X204148918Y-131024463D01*
X204272168Y-130726912D01*
X204335000Y-130411033D01*
X204335000Y-130088967D01*
X204272168Y-129773088D01*
X204148918Y-129475537D01*
X203969987Y-129207748D01*
X203762239Y-129000000D01*
X203969987Y-128792252D01*
X204148918Y-128524463D01*
X204272168Y-128226912D01*
X204335000Y-127911033D01*
X204335000Y-127588967D01*
X204272168Y-127273088D01*
X204148918Y-126975537D01*
X203969987Y-126707748D01*
X203742252Y-126480013D01*
X203474463Y-126301082D01*
X203176912Y-126177832D01*
X202861033Y-126115000D01*
X202538967Y-126115000D01*
X202223088Y-126177832D01*
X201925537Y-126301082D01*
X201657748Y-126480013D01*
X201430013Y-126707748D01*
X201251082Y-126975537D01*
X201127832Y-127273088D01*
X201065000Y-127588967D01*
X200685000Y-127588967D01*
X200685000Y-125069268D01*
X205785000Y-125069268D01*
X205785000Y-125430732D01*
X205855518Y-125785250D01*
X205993844Y-126119199D01*
X206194662Y-126419744D01*
X206450256Y-126675338D01*
X206750801Y-126876156D01*
X207084750Y-127014482D01*
X207439268Y-127085000D01*
X207800732Y-127085000D01*
X208155250Y-127014482D01*
X208489199Y-126876156D01*
X208789744Y-126675338D01*
X209045338Y-126419744D01*
X209246156Y-126119199D01*
X209384482Y-125785250D01*
X209455000Y-125430732D01*
X209455000Y-125069268D01*
X209384482Y-124714750D01*
X209246156Y-124380801D01*
X209045338Y-124080256D01*
X208789744Y-123824662D01*
X208489199Y-123623844D01*
X208155250Y-123485518D01*
X207800732Y-123415000D01*
X207439268Y-123415000D01*
X207084750Y-123485518D01*
X206750801Y-123623844D01*
X206450256Y-123824662D01*
X206194662Y-124080256D01*
X205993844Y-124380801D01*
X205855518Y-124714750D01*
X205785000Y-125069268D01*
X200685000Y-125069268D01*
X200685000Y-121029665D01*
X218123000Y-121029665D01*
X218123000Y-121312335D01*
X218178147Y-121589574D01*
X218286320Y-121850727D01*
X218443363Y-122085759D01*
X218643241Y-122285637D01*
X218878273Y-122442680D01*
X219139426Y-122550853D01*
X219416665Y-122606000D01*
X219699335Y-122606000D01*
X219976574Y-122550853D01*
X220237727Y-122442680D01*
X220472759Y-122285637D01*
X220672637Y-122085759D01*
X220829680Y-121850727D01*
X220937853Y-121589574D01*
X220993000Y-121312335D01*
X220993000Y-121029665D01*
X220937853Y-120752426D01*
X220829680Y-120491273D01*
X220672637Y-120256241D01*
X220472759Y-120056363D01*
X220237727Y-119899320D01*
X219976574Y-119791147D01*
X219699335Y-119736000D01*
X219416665Y-119736000D01*
X219139426Y-119791147D01*
X218878273Y-119899320D01*
X218643241Y-120056363D01*
X218443363Y-120256241D01*
X218286320Y-120491273D01*
X218178147Y-120752426D01*
X218123000Y-121029665D01*
X200685000Y-121029665D01*
X200685000Y-118577268D01*
X205865000Y-118577268D01*
X205865000Y-118938732D01*
X205935518Y-119293250D01*
X206073844Y-119627199D01*
X206274662Y-119927744D01*
X206530256Y-120183338D01*
X206830801Y-120384156D01*
X207164750Y-120522482D01*
X207519268Y-120593000D01*
X207880732Y-120593000D01*
X208235250Y-120522482D01*
X208569199Y-120384156D01*
X208869744Y-120183338D01*
X209125338Y-119927744D01*
X209326156Y-119627199D01*
X209464482Y-119293250D01*
X209535000Y-118938732D01*
X209535000Y-118582193D01*
X210915000Y-118582193D01*
X210915000Y-118933807D01*
X210983596Y-119278665D01*
X211118153Y-119603515D01*
X211313500Y-119895871D01*
X211562129Y-120144500D01*
X211854485Y-120339847D01*
X212179335Y-120474404D01*
X212524193Y-120543000D01*
X212875807Y-120543000D01*
X213220665Y-120474404D01*
X213545515Y-120339847D01*
X213837871Y-120144500D01*
X214086500Y-119895871D01*
X214281847Y-119603515D01*
X214416404Y-119278665D01*
X214485000Y-118933807D01*
X214485000Y-118582193D01*
X214439551Y-118353702D01*
X219586903Y-118353702D01*
X219658486Y-118597671D01*
X219913996Y-118718571D01*
X220188184Y-118787300D01*
X220470512Y-118801217D01*
X220750130Y-118759787D01*
X221016292Y-118664603D01*
X221141514Y-118597671D01*
X221213097Y-118353702D01*
X220400000Y-117540605D01*
X219586903Y-118353702D01*
X214439551Y-118353702D01*
X214416404Y-118237335D01*
X214281847Y-117912485D01*
X214135576Y-117693576D01*
X214354485Y-117839847D01*
X214679335Y-117974404D01*
X215024193Y-118043000D01*
X215375807Y-118043000D01*
X215720665Y-117974404D01*
X216045515Y-117839847D01*
X216337871Y-117644500D01*
X216550859Y-117431512D01*
X218959783Y-117431512D01*
X219001213Y-117711130D01*
X219096397Y-117977292D01*
X219163329Y-118102514D01*
X219407298Y-118174097D01*
X220220395Y-117361000D01*
X219407298Y-116547903D01*
X219163329Y-116619486D01*
X219042429Y-116874996D01*
X218973700Y-117149184D01*
X218959783Y-117431512D01*
X216550859Y-117431512D01*
X216586500Y-117395871D01*
X216781847Y-117103515D01*
X216916404Y-116778665D01*
X216985000Y-116433807D01*
X216985000Y-116082193D01*
X216916404Y-115737335D01*
X216781847Y-115412485D01*
X216586500Y-115120129D01*
X216337871Y-114871500D01*
X216045515Y-114676153D01*
X215720665Y-114541596D01*
X215375807Y-114473000D01*
X215024193Y-114473000D01*
X214679335Y-114541596D01*
X214354485Y-114676153D01*
X214062129Y-114871500D01*
X213813500Y-115120129D01*
X213618153Y-115412485D01*
X213483596Y-115737335D01*
X213415000Y-116082193D01*
X213415000Y-116433807D01*
X213483596Y-116778665D01*
X213618153Y-117103515D01*
X213764424Y-117322424D01*
X213545515Y-117176153D01*
X213220665Y-117041596D01*
X212875807Y-116973000D01*
X212524193Y-116973000D01*
X212179335Y-117041596D01*
X211854485Y-117176153D01*
X211562129Y-117371500D01*
X211313500Y-117620129D01*
X211118153Y-117912485D01*
X210983596Y-118237335D01*
X210915000Y-118582193D01*
X209535000Y-118582193D01*
X209535000Y-118577268D01*
X209464482Y-118222750D01*
X209326156Y-117888801D01*
X209125338Y-117588256D01*
X208869744Y-117332662D01*
X208569199Y-117131844D01*
X208235250Y-116993518D01*
X207880732Y-116923000D01*
X207519268Y-116923000D01*
X207164750Y-116993518D01*
X206830801Y-117131844D01*
X206530256Y-117332662D01*
X206274662Y-117588256D01*
X206073844Y-117888801D01*
X205935518Y-118222750D01*
X205865000Y-118577268D01*
X200685000Y-118577268D01*
X200685000Y-113596967D01*
X201065000Y-113596967D01*
X201065000Y-113919033D01*
X201127832Y-114234912D01*
X201251082Y-114532463D01*
X201430013Y-114800252D01*
X201637761Y-115008000D01*
X201430013Y-115215748D01*
X201251082Y-115483537D01*
X201127832Y-115781088D01*
X201065000Y-116096967D01*
X201065000Y-116419033D01*
X201127832Y-116734912D01*
X201251082Y-117032463D01*
X201430013Y-117300252D01*
X201657748Y-117527987D01*
X201925537Y-117706918D01*
X202223088Y-117830168D01*
X202538967Y-117893000D01*
X202861033Y-117893000D01*
X203176912Y-117830168D01*
X203474463Y-117706918D01*
X203742252Y-117527987D01*
X203969987Y-117300252D01*
X204148918Y-117032463D01*
X204272168Y-116734912D01*
X204335000Y-116419033D01*
X204335000Y-116096967D01*
X204272168Y-115781088D01*
X204148918Y-115483537D01*
X203969987Y-115215748D01*
X203762239Y-115008000D01*
X203969987Y-114800252D01*
X204148918Y-114532463D01*
X204272168Y-114234912D01*
X204335000Y-113919033D01*
X204335000Y-113596967D01*
X204272168Y-113281088D01*
X204148918Y-112983537D01*
X203969987Y-112715748D01*
X203754588Y-112500349D01*
X211637256Y-112500349D01*
X211751118Y-112780090D01*
X212066296Y-112935961D01*
X212405826Y-113027349D01*
X212756661Y-113050741D01*
X213105319Y-113005240D01*
X213438400Y-112892594D01*
X213648882Y-112780090D01*
X213762744Y-112500349D01*
X212700000Y-111437605D01*
X211637256Y-112500349D01*
X203754588Y-112500349D01*
X203742252Y-112488013D01*
X203474463Y-112309082D01*
X203176912Y-112185832D01*
X202861033Y-112123000D01*
X202538967Y-112123000D01*
X202223088Y-112185832D01*
X201925537Y-112309082D01*
X201657748Y-112488013D01*
X201430013Y-112715748D01*
X201251082Y-112983537D01*
X201127832Y-113281088D01*
X201065000Y-113596967D01*
X200685000Y-113596967D01*
X200685000Y-111314661D01*
X210907259Y-111314661D01*
X210952760Y-111663319D01*
X211065406Y-111996400D01*
X211177910Y-112206882D01*
X211457651Y-112320744D01*
X212520395Y-111258000D01*
X211457651Y-110195256D01*
X211177910Y-110309118D01*
X211022039Y-110624296D01*
X210930651Y-110963826D01*
X210907259Y-111314661D01*
X200685000Y-111314661D01*
X200685000Y-106096967D01*
X201065000Y-106096967D01*
X201065000Y-106419033D01*
X201127832Y-106734912D01*
X201251082Y-107032463D01*
X201430013Y-107300252D01*
X201637761Y-107508000D01*
X201430013Y-107715748D01*
X201251082Y-107983537D01*
X201127832Y-108281088D01*
X201065000Y-108596967D01*
X201065000Y-108919033D01*
X201127832Y-109234912D01*
X201251082Y-109532463D01*
X201430013Y-109800252D01*
X201657748Y-110027987D01*
X201925537Y-110206918D01*
X202223088Y-110330168D01*
X202538967Y-110393000D01*
X202861033Y-110393000D01*
X203176912Y-110330168D01*
X203474463Y-110206918D01*
X203742252Y-110027987D01*
X203969987Y-109800252D01*
X204148918Y-109532463D01*
X204272168Y-109234912D01*
X204335000Y-108919033D01*
X204335000Y-108596967D01*
X204272168Y-108281088D01*
X204148918Y-107983537D01*
X203969987Y-107715748D01*
X203762239Y-107508000D01*
X203969987Y-107300252D01*
X204148918Y-107032463D01*
X204272168Y-106734912D01*
X204335000Y-106419033D01*
X204335000Y-106096967D01*
X204272168Y-105781088D01*
X204148918Y-105483537D01*
X203969987Y-105215748D01*
X203742252Y-104988013D01*
X203474463Y-104809082D01*
X203176912Y-104685832D01*
X202861033Y-104623000D01*
X202538967Y-104623000D01*
X202223088Y-104685832D01*
X201925537Y-104809082D01*
X201657748Y-104988013D01*
X201430013Y-105215748D01*
X201251082Y-105483537D01*
X201127832Y-105781088D01*
X201065000Y-106096967D01*
X200685000Y-106096967D01*
X200685000Y-97304495D01*
X201515000Y-97304495D01*
X201515000Y-97695505D01*
X201591282Y-98079003D01*
X201740915Y-98440250D01*
X201958149Y-98765364D01*
X202234636Y-99041851D01*
X202559750Y-99259085D01*
X202920997Y-99408718D01*
X203304495Y-99485000D01*
X203695505Y-99485000D01*
X204079003Y-99408718D01*
X204440250Y-99259085D01*
X204765364Y-99041851D01*
X205041851Y-98765364D01*
X205259085Y-98440250D01*
X205408718Y-98079003D01*
X205485000Y-97695505D01*
X205485000Y-97304495D01*
X205408718Y-96920997D01*
X205259085Y-96559750D01*
X205041851Y-96234636D01*
X204765364Y-95958149D01*
X204440250Y-95740915D01*
X204079003Y-95591282D01*
X203695505Y-95515000D01*
X203304495Y-95515000D01*
X202920997Y-95591282D01*
X202559750Y-95740915D01*
X202234636Y-95958149D01*
X201958149Y-96234636D01*
X201740915Y-96559750D01*
X201591282Y-96920997D01*
X201515000Y-97304495D01*
X200685000Y-97304495D01*
X200685000Y-97033505D01*
X200732312Y-96550984D01*
X200862714Y-96119070D01*
X201074524Y-95720715D01*
X201359675Y-95371086D01*
X201707303Y-95083503D01*
X202104177Y-94868914D01*
X202535161Y-94735502D01*
X203015654Y-94685000D01*
X219765998Y-94685000D01*
X219415392Y-95035606D01*
G04 #@! TA.AperFunction,Conductor*
D22*
G36*
X219415392Y-95035606D02*
G01*
X219233411Y-94914010D01*
X218963158Y-94802068D01*
X218676260Y-94745000D01*
X218383740Y-94745000D01*
X218096842Y-94802068D01*
X217826589Y-94914010D01*
X217583368Y-95076525D01*
X217376525Y-95283368D01*
X217260000Y-95457760D01*
X217143475Y-95283368D01*
X216936632Y-95076525D01*
X216693411Y-94914010D01*
X216423158Y-94802068D01*
X216136260Y-94745000D01*
X215843740Y-94745000D01*
X215556842Y-94802068D01*
X215286589Y-94914010D01*
X215043368Y-95076525D01*
X214836525Y-95283368D01*
X214714805Y-95465534D01*
X214645178Y-95348645D01*
X214450269Y-95132412D01*
X214216920Y-94958359D01*
X213954099Y-94833175D01*
X213806890Y-94788524D01*
X213577000Y-94909845D01*
X213577000Y-96103000D01*
X213597000Y-96103000D01*
X213597000Y-96357000D01*
X213577000Y-96357000D01*
X213577000Y-96377000D01*
X213323000Y-96377000D01*
X213323000Y-96357000D01*
X213303000Y-96357000D01*
X213303000Y-96103000D01*
X213323000Y-96103000D01*
X213323000Y-94909845D01*
X213093110Y-94788524D01*
X212945901Y-94833175D01*
X212683080Y-94958359D01*
X212449731Y-95132412D01*
X212254822Y-95348645D01*
X212185195Y-95465534D01*
X212063475Y-95283368D01*
X211856632Y-95076525D01*
X211613411Y-94914010D01*
X211343158Y-94802068D01*
X211056260Y-94745000D01*
X210763740Y-94745000D01*
X210476842Y-94802068D01*
X210206589Y-94914010D01*
X209963368Y-95076525D01*
X209756525Y-95283368D01*
X209715344Y-95345000D01*
X209564656Y-95345000D01*
X209523475Y-95283368D01*
X209316632Y-95076525D01*
X209073411Y-94914010D01*
X208803158Y-94802068D01*
X208516260Y-94745000D01*
X208223740Y-94745000D01*
X207936842Y-94802068D01*
X207666589Y-94914010D01*
X207423368Y-95076525D01*
X207216525Y-95283368D01*
X207054010Y-95526589D01*
X206942068Y-95796842D01*
X206885000Y-96083740D01*
X206885000Y-96376260D01*
X206942068Y-96663158D01*
X207054010Y-96933411D01*
X207216525Y-97176632D01*
X207348380Y-97308487D01*
X207275820Y-97330498D01*
X207165506Y-97389463D01*
X207068815Y-97468815D01*
X206989463Y-97565506D01*
X206930498Y-97675820D01*
X206894188Y-97795518D01*
X206881928Y-97920000D01*
X206881928Y-99620000D01*
X206894188Y-99744482D01*
X206930498Y-99864180D01*
X206989463Y-99974494D01*
X207068815Y-100071185D01*
X207165506Y-100150537D01*
X207275820Y-100209502D01*
X207395518Y-100245812D01*
X207494036Y-100255515D01*
X207497805Y-100293790D01*
X207548412Y-100460613D01*
X207630590Y-100614359D01*
X207713468Y-100715346D01*
X207713469Y-100715347D01*
X207741184Y-100749117D01*
X207774951Y-100776829D01*
X208674601Y-101676480D01*
X208674601Y-102255726D01*
X208489199Y-102131844D01*
X208155250Y-101993518D01*
X207800732Y-101923000D01*
X207439268Y-101923000D01*
X207084750Y-101993518D01*
X206750801Y-102131844D01*
X206450256Y-102332662D01*
X206194662Y-102588256D01*
X205993844Y-102888801D01*
X205855518Y-103222750D01*
X205785000Y-103577268D01*
X205785000Y-103938732D01*
X205855518Y-104293250D01*
X205993844Y-104627199D01*
X206194662Y-104927744D01*
X206450256Y-105183338D01*
X206750801Y-105384156D01*
X207084750Y-105522482D01*
X207439268Y-105593000D01*
X207800732Y-105593000D01*
X208155250Y-105522482D01*
X208489199Y-105384156D01*
X208789744Y-105183338D01*
X208817937Y-105155145D01*
X208820189Y-105159358D01*
X208930783Y-105294117D01*
X208964556Y-105321834D01*
X213181902Y-109539180D01*
X212994174Y-109488651D01*
X212643339Y-109465259D01*
X212294681Y-109510760D01*
X211961600Y-109623406D01*
X211751118Y-109735910D01*
X211637256Y-110015651D01*
X212700000Y-111078395D01*
X212714143Y-111064253D01*
X212893748Y-111243858D01*
X212879605Y-111258000D01*
X213942349Y-112320744D01*
X214222090Y-112206882D01*
X214377961Y-111891704D01*
X214469349Y-111552174D01*
X214492741Y-111201339D01*
X214447240Y-110852681D01*
X214422628Y-110779906D01*
X219729235Y-116086513D01*
X219658486Y-116124329D01*
X219586903Y-116368298D01*
X220400000Y-117181395D01*
X220414143Y-117167253D01*
X220593748Y-117346858D01*
X220579605Y-117361000D01*
X221392702Y-118174097D01*
X221636671Y-118102514D01*
X221671541Y-118028820D01*
X223393663Y-119750941D01*
X223269363Y-119875241D01*
X223112320Y-120110273D01*
X223004147Y-120371426D01*
X222949000Y-120648665D01*
X222949000Y-120931335D01*
X223004147Y-121208574D01*
X223112320Y-121469727D01*
X223269363Y-121704759D01*
X223469241Y-121904637D01*
X223704273Y-122061680D01*
X223965426Y-122169853D01*
X224242665Y-122225000D01*
X224525335Y-122225000D01*
X224802574Y-122169853D01*
X224894001Y-122131983D01*
X224894001Y-123176068D01*
X224890324Y-123213400D01*
X224904998Y-123362385D01*
X224948454Y-123505646D01*
X225019026Y-123637676D01*
X225090201Y-123724402D01*
X225114000Y-123753401D01*
X225142998Y-123777199D01*
X227397500Y-126031702D01*
X227397500Y-127052898D01*
X227342574Y-127030147D01*
X227065335Y-126975000D01*
X226782665Y-126975000D01*
X226505426Y-127030147D01*
X226324175Y-127105224D01*
X226288701Y-127061999D01*
X226259697Y-127038196D01*
X225931104Y-126709603D01*
X225907301Y-126680599D01*
X225791576Y-126585626D01*
X225659547Y-126515054D01*
X225516286Y-126471597D01*
X225404633Y-126460600D01*
X225404622Y-126460600D01*
X225367300Y-126456924D01*
X225329978Y-126460600D01*
X216434971Y-126460600D01*
X216337871Y-126363500D01*
X216045515Y-126168153D01*
X215720665Y-126033596D01*
X215375807Y-125965000D01*
X215024193Y-125965000D01*
X214679335Y-126033596D01*
X214354485Y-126168153D01*
X214135576Y-126314424D01*
X214281847Y-126095515D01*
X214416404Y-125770665D01*
X214485000Y-125425807D01*
X214485000Y-125074193D01*
X214416404Y-124729335D01*
X214281847Y-124404485D01*
X214086500Y-124112129D01*
X213837871Y-123863500D01*
X213545515Y-123668153D01*
X213220665Y-123533596D01*
X212875807Y-123465000D01*
X212524193Y-123465000D01*
X212179335Y-123533596D01*
X211854485Y-123668153D01*
X211562129Y-123863500D01*
X211313500Y-124112129D01*
X211118153Y-124404485D01*
X210983596Y-124729335D01*
X210915000Y-125074193D01*
X210915000Y-125425807D01*
X210983596Y-125770665D01*
X211118153Y-126095515D01*
X211313500Y-126387871D01*
X211562129Y-126636500D01*
X211854485Y-126831847D01*
X212179335Y-126966404D01*
X212524193Y-127035000D01*
X212875807Y-127035000D01*
X213220665Y-126966404D01*
X213545515Y-126831847D01*
X213764424Y-126685576D01*
X213618153Y-126904485D01*
X213483596Y-127229335D01*
X213415000Y-127574193D01*
X213415000Y-127925807D01*
X213483596Y-128270665D01*
X213618153Y-128595515D01*
X213813500Y-128887871D01*
X214062129Y-129136500D01*
X214354485Y-129331847D01*
X214679335Y-129466404D01*
X215024193Y-129535000D01*
X215375807Y-129535000D01*
X215720665Y-129466404D01*
X216045515Y-129331847D01*
X216337871Y-129136500D01*
X216586500Y-128887871D01*
X216781847Y-128595515D01*
X216916404Y-128270665D01*
X216974101Y-127980600D01*
X218373633Y-127980600D01*
X218286320Y-128111273D01*
X218178147Y-128372426D01*
X218123000Y-128649665D01*
X218123000Y-128932335D01*
X218178147Y-129209574D01*
X218286320Y-129470727D01*
X218443363Y-129705759D01*
X218643241Y-129905637D01*
X218878273Y-130062680D01*
X219139426Y-130170853D01*
X219416665Y-130226000D01*
X219699335Y-130226000D01*
X219976574Y-130170853D01*
X220237727Y-130062680D01*
X220472759Y-129905637D01*
X220672637Y-129705759D01*
X220829680Y-129470727D01*
X220937853Y-129209574D01*
X220993000Y-128932335D01*
X220993000Y-128649665D01*
X220937853Y-128372426D01*
X220829680Y-128111273D01*
X220742367Y-127980600D01*
X222945928Y-127980600D01*
X222945928Y-129210000D01*
X222958188Y-129334482D01*
X222994498Y-129454180D01*
X223053463Y-129564494D01*
X223132815Y-129661185D01*
X223229506Y-129740537D01*
X223277008Y-129765928D01*
X221806000Y-129765928D01*
X221681518Y-129778188D01*
X221561820Y-129814498D01*
X221451506Y-129873463D01*
X221354815Y-129952815D01*
X221275463Y-130049506D01*
X221216498Y-130159820D01*
X221180188Y-130279518D01*
X221167928Y-130404000D01*
X221167928Y-132004000D01*
X221180188Y-132128482D01*
X221216498Y-132248180D01*
X221275463Y-132358494D01*
X221354815Y-132455185D01*
X221451506Y-132534537D01*
X221561820Y-132593502D01*
X221681518Y-132629812D01*
X221806000Y-132642072D01*
X223406000Y-132642072D01*
X223530482Y-132629812D01*
X223650180Y-132593502D01*
X223760494Y-132534537D01*
X223857185Y-132455185D01*
X223936537Y-132358494D01*
X223995502Y-132248180D01*
X224031812Y-132128482D01*
X224044072Y-132004000D01*
X224044072Y-130404000D01*
X224031812Y-130279518D01*
X223995502Y-130159820D01*
X223936537Y-130049506D01*
X223857185Y-129952815D01*
X223760494Y-129873463D01*
X223712992Y-129848072D01*
X225184000Y-129848072D01*
X225308482Y-129835812D01*
X225428180Y-129799502D01*
X225538494Y-129740537D01*
X225635185Y-129661185D01*
X225714537Y-129564494D01*
X225773502Y-129454180D01*
X225809812Y-129334482D01*
X225810643Y-129326039D01*
X226009241Y-129524637D01*
X226244273Y-129681680D01*
X226505426Y-129789853D01*
X226782665Y-129845000D01*
X227065335Y-129845000D01*
X227342574Y-129789853D01*
X227397500Y-129767102D01*
X227397501Y-136291168D01*
X227393824Y-136328500D01*
X227408498Y-136477485D01*
X227451954Y-136620746D01*
X227522526Y-136752776D01*
X227593701Y-136839502D01*
X227617500Y-136868501D01*
X227646498Y-136892299D01*
X227941791Y-137187592D01*
X227898000Y-137407740D01*
X227898000Y-137700260D01*
X227955068Y-137987158D01*
X228067010Y-138257411D01*
X228229525Y-138500632D01*
X228436368Y-138707475D01*
X228610760Y-138824000D01*
X228436368Y-138940525D01*
X228229525Y-139147368D01*
X228067010Y-139390589D01*
X227955068Y-139660842D01*
X227898000Y-139947740D01*
X227898000Y-140240260D01*
X227955068Y-140527158D01*
X228067010Y-140797411D01*
X228229525Y-141040632D01*
X228436368Y-141247475D01*
X228610760Y-141364000D01*
X228436368Y-141480525D01*
X228229525Y-141687368D01*
X228067010Y-141930589D01*
X227955068Y-142200842D01*
X227898000Y-142487740D01*
X227898000Y-142780260D01*
X227955068Y-143067158D01*
X228067010Y-143337411D01*
X228229525Y-143580632D01*
X228436368Y-143787475D01*
X228609729Y-143903311D01*
X228534208Y-144145603D01*
X229383000Y-144994395D01*
X230231792Y-144145603D01*
X230156271Y-143903311D01*
X230329632Y-143787475D01*
X230536475Y-143580632D01*
X230698990Y-143337411D01*
X230810932Y-143067158D01*
X230868000Y-142780260D01*
X230868000Y-142487740D01*
X230824209Y-142267592D01*
X233490301Y-139601501D01*
X233490301Y-142355120D01*
X230856672Y-144988750D01*
X230831599Y-144815981D01*
X230733919Y-144540253D01*
X230660472Y-144402843D01*
X230411397Y-144325208D01*
X229562605Y-145174000D01*
X229576748Y-145188143D01*
X229397143Y-145367748D01*
X229383000Y-145353605D01*
X229368858Y-145367748D01*
X229189253Y-145188143D01*
X229203395Y-145174000D01*
X228354603Y-144325208D01*
X228105528Y-144402843D01*
X227979629Y-144666883D01*
X227907661Y-144950411D01*
X227905839Y-144985261D01*
X227322578Y-144402000D01*
X227343000Y-144299335D01*
X227343000Y-144016665D01*
X227287853Y-143739426D01*
X227179680Y-143478273D01*
X227022637Y-143243241D01*
X226822759Y-143043363D01*
X226587727Y-142886320D01*
X226326574Y-142778147D01*
X226049335Y-142723000D01*
X225766665Y-142723000D01*
X225489426Y-142778147D01*
X225228273Y-142886320D01*
X224993241Y-143043363D01*
X224793363Y-143243241D01*
X224636320Y-143478273D01*
X224528147Y-143739426D01*
X224473000Y-144016665D01*
X224473000Y-144299335D01*
X224528147Y-144576574D01*
X224636320Y-144837727D01*
X224793363Y-145072759D01*
X224993241Y-145272637D01*
X225228273Y-145429680D01*
X225489426Y-145537853D01*
X225766665Y-145593000D01*
X226010422Y-145593000D01*
X227912461Y-147495040D01*
X227898000Y-147567740D01*
X227898000Y-147860260D01*
X227955068Y-148147158D01*
X228067010Y-148417411D01*
X228229525Y-148660632D01*
X228436368Y-148867475D01*
X228679589Y-149029990D01*
X228949842Y-149141932D01*
X229236740Y-149199000D01*
X229529260Y-149199000D01*
X229816158Y-149141932D01*
X230086411Y-149029990D01*
X230329632Y-148867475D01*
X230536475Y-148660632D01*
X230698990Y-148417411D01*
X230810932Y-148147158D01*
X230868000Y-147860260D01*
X230868000Y-147567740D01*
X230853539Y-147495039D01*
X232044083Y-146304495D01*
X259515000Y-146304495D01*
X259515000Y-146695505D01*
X259591282Y-147079003D01*
X259740915Y-147440250D01*
X259958149Y-147765364D01*
X260234636Y-148041851D01*
X260559750Y-148259085D01*
X260920997Y-148408718D01*
X261304495Y-148485000D01*
X261695505Y-148485000D01*
X262079003Y-148408718D01*
X262440250Y-148259085D01*
X262765364Y-148041851D01*
X263041851Y-147765364D01*
X263259085Y-147440250D01*
X263408718Y-147079003D01*
X263485000Y-146695505D01*
X263485000Y-146304495D01*
X263408718Y-145920997D01*
X263259085Y-145559750D01*
X263041851Y-145234636D01*
X262765364Y-144958149D01*
X262440250Y-144740915D01*
X262079003Y-144591282D01*
X261695505Y-144515000D01*
X261304495Y-144515000D01*
X260920997Y-144591282D01*
X260559750Y-144740915D01*
X260234636Y-144958149D01*
X259958149Y-145234636D01*
X259740915Y-145559750D01*
X259591282Y-145920997D01*
X259515000Y-146304495D01*
X232044083Y-146304495D01*
X234970349Y-143378230D01*
X235004117Y-143350517D01*
X235041898Y-143304482D01*
X235114710Y-143215760D01*
X235114711Y-143215759D01*
X235196889Y-143062013D01*
X235247495Y-142895190D01*
X235260300Y-142765177D01*
X235260300Y-142765167D01*
X235264581Y-142721701D01*
X235260300Y-142678235D01*
X235260300Y-135790553D01*
X235299842Y-135806932D01*
X235586740Y-135864000D01*
X235879260Y-135864000D01*
X236166158Y-135806932D01*
X236436411Y-135694990D01*
X236679632Y-135532475D01*
X236886475Y-135325632D01*
X237003000Y-135151240D01*
X237119525Y-135325632D01*
X237326368Y-135532475D01*
X237569589Y-135694990D01*
X237839842Y-135806932D01*
X238126740Y-135864000D01*
X238419260Y-135864000D01*
X238706158Y-135806932D01*
X238976411Y-135694990D01*
X239219632Y-135532475D01*
X239426475Y-135325632D01*
X239543000Y-135151240D01*
X239659525Y-135325632D01*
X239866368Y-135532475D01*
X240109589Y-135694990D01*
X240379842Y-135806932D01*
X240666740Y-135864000D01*
X240959260Y-135864000D01*
X241246158Y-135806932D01*
X241516411Y-135694990D01*
X241759632Y-135532475D01*
X241966475Y-135325632D01*
X242083000Y-135151240D01*
X242199525Y-135325632D01*
X242406368Y-135532475D01*
X242649589Y-135694990D01*
X242919842Y-135806932D01*
X243206740Y-135864000D01*
X243499260Y-135864000D01*
X243786158Y-135806932D01*
X244056411Y-135694990D01*
X244299632Y-135532475D01*
X244506475Y-135325632D01*
X244623000Y-135151240D01*
X244739525Y-135325632D01*
X244946368Y-135532475D01*
X245189589Y-135694990D01*
X245459842Y-135806932D01*
X245746740Y-135864000D01*
X246039260Y-135864000D01*
X246326158Y-135806932D01*
X246596411Y-135694990D01*
X246839632Y-135532475D01*
X247046475Y-135325632D01*
X247163000Y-135151240D01*
X247279525Y-135325632D01*
X247486368Y-135532475D01*
X247729589Y-135694990D01*
X247999842Y-135806932D01*
X248286740Y-135864000D01*
X248579260Y-135864000D01*
X248866158Y-135806932D01*
X249136411Y-135694990D01*
X249379632Y-135532475D01*
X249586475Y-135325632D01*
X249703000Y-135151240D01*
X249819525Y-135325632D01*
X250026368Y-135532475D01*
X250269589Y-135694990D01*
X250539842Y-135806932D01*
X250826740Y-135864000D01*
X251119260Y-135864000D01*
X251406158Y-135806932D01*
X251676411Y-135694990D01*
X251919632Y-135532475D01*
X252126475Y-135325632D01*
X252243000Y-135151240D01*
X252359525Y-135325632D01*
X252566368Y-135532475D01*
X252809589Y-135694990D01*
X253079842Y-135806932D01*
X253366740Y-135864000D01*
X253659260Y-135864000D01*
X253946158Y-135806932D01*
X254216411Y-135694990D01*
X254459632Y-135532475D01*
X254666475Y-135325632D01*
X254783000Y-135151240D01*
X254899525Y-135325632D01*
X255106368Y-135532475D01*
X255349589Y-135694990D01*
X255619842Y-135806932D01*
X255906740Y-135864000D01*
X256199260Y-135864000D01*
X256486158Y-135806932D01*
X256756411Y-135694990D01*
X256999632Y-135532475D01*
X257206475Y-135325632D01*
X257368990Y-135082411D01*
X257480932Y-134812158D01*
X257538000Y-134525260D01*
X257538000Y-134232740D01*
X257480932Y-133945842D01*
X257368990Y-133675589D01*
X257206475Y-133432368D01*
X256999632Y-133225525D01*
X256756411Y-133063010D01*
X256486158Y-132951068D01*
X256199260Y-132894000D01*
X255906740Y-132894000D01*
X255619842Y-132951068D01*
X255349589Y-133063010D01*
X255106368Y-133225525D01*
X254899525Y-133432368D01*
X254783000Y-133606760D01*
X254666475Y-133432368D01*
X254459632Y-133225525D01*
X254216411Y-133063010D01*
X253946158Y-132951068D01*
X253659260Y-132894000D01*
X253366740Y-132894000D01*
X253079842Y-132951068D01*
X252809589Y-133063010D01*
X252566368Y-133225525D01*
X252359525Y-133432368D01*
X252243000Y-133606760D01*
X252126475Y-133432368D01*
X251919632Y-133225525D01*
X251676411Y-133063010D01*
X251406158Y-132951068D01*
X251119260Y-132894000D01*
X250826740Y-132894000D01*
X250539842Y-132951068D01*
X250269589Y-133063010D01*
X250026368Y-133225525D01*
X249819525Y-133432368D01*
X249703000Y-133606760D01*
X249586475Y-133432368D01*
X249379632Y-133225525D01*
X249136411Y-133063010D01*
X248866158Y-132951068D01*
X248579260Y-132894000D01*
X248286740Y-132894000D01*
X247999842Y-132951068D01*
X247729589Y-133063010D01*
X247486368Y-133225525D01*
X247279525Y-133432368D01*
X247163000Y-133606760D01*
X247046475Y-133432368D01*
X246839632Y-133225525D01*
X246596411Y-133063010D01*
X246326158Y-132951068D01*
X246039260Y-132894000D01*
X245746740Y-132894000D01*
X245459842Y-132951068D01*
X245189589Y-133063010D01*
X244946368Y-133225525D01*
X244739525Y-133432368D01*
X244623000Y-133606760D01*
X244506475Y-133432368D01*
X244299632Y-133225525D01*
X244056411Y-133063010D01*
X243786158Y-132951068D01*
X243499260Y-132894000D01*
X243206740Y-132894000D01*
X242919842Y-132951068D01*
X242649589Y-133063010D01*
X242406368Y-133225525D01*
X242199525Y-133432368D01*
X242083000Y-133606760D01*
X241966475Y-133432368D01*
X241759632Y-133225525D01*
X241516411Y-133063010D01*
X241246158Y-132951068D01*
X240959260Y-132894000D01*
X240666740Y-132894000D01*
X240379842Y-132951068D01*
X240109589Y-133063010D01*
X239866368Y-133225525D01*
X239659525Y-133432368D01*
X239543000Y-133606760D01*
X239426475Y-133432368D01*
X239219632Y-133225525D01*
X238976411Y-133063010D01*
X238706158Y-132951068D01*
X238419260Y-132894000D01*
X238126740Y-132894000D01*
X237839842Y-132951068D01*
X237569589Y-133063010D01*
X237326368Y-133225525D01*
X237119525Y-133432368D01*
X237003000Y-133606760D01*
X236886475Y-133432368D01*
X236679632Y-133225525D01*
X236436411Y-133063010D01*
X236166158Y-132951068D01*
X235879260Y-132894000D01*
X235586740Y-132894000D01*
X235299842Y-132951068D01*
X235260300Y-132967447D01*
X235260300Y-131781078D01*
X238570000Y-128471379D01*
X238570000Y-128551335D01*
X238625147Y-128828574D01*
X238733320Y-129089727D01*
X238890363Y-129324759D01*
X239090241Y-129524637D01*
X239325273Y-129681680D01*
X239586426Y-129789853D01*
X239863665Y-129845000D01*
X240146335Y-129845000D01*
X240423574Y-129789853D01*
X240684727Y-129681680D01*
X240919759Y-129524637D01*
X241119637Y-129324759D01*
X241275000Y-129092241D01*
X241430363Y-129324759D01*
X241630241Y-129524637D01*
X241865273Y-129681680D01*
X242126426Y-129789853D01*
X242403665Y-129845000D01*
X242686335Y-129845000D01*
X242963574Y-129789853D01*
X243224727Y-129681680D01*
X243459759Y-129524637D01*
X243659637Y-129324759D01*
X243815000Y-129092241D01*
X243970363Y-129324759D01*
X244170241Y-129524637D01*
X244405273Y-129681680D01*
X244666426Y-129789853D01*
X244943665Y-129845000D01*
X245226335Y-129845000D01*
X245503574Y-129789853D01*
X245764727Y-129681680D01*
X245999759Y-129524637D01*
X246199637Y-129324759D01*
X246356680Y-129089727D01*
X246361067Y-129079135D01*
X246472615Y-129265131D01*
X246661586Y-129473519D01*
X246887580Y-129641037D01*
X247141913Y-129761246D01*
X247275961Y-129801904D01*
X247498000Y-129679915D01*
X247498000Y-128537000D01*
X247478000Y-128537000D01*
X247478000Y-128283000D01*
X247498000Y-128283000D01*
X247498000Y-128263000D01*
X247752000Y-128263000D01*
X247752000Y-128283000D01*
X247772000Y-128283000D01*
X247772000Y-128537000D01*
X247752000Y-128537000D01*
X247752000Y-129679915D01*
X247974039Y-129801904D01*
X248108087Y-129761246D01*
X248362420Y-129641037D01*
X248588414Y-129473519D01*
X248777385Y-129265131D01*
X248888933Y-129079135D01*
X248893320Y-129089727D01*
X249050363Y-129324759D01*
X249250241Y-129524637D01*
X249485273Y-129681680D01*
X249746426Y-129789853D01*
X250023665Y-129845000D01*
X250306335Y-129845000D01*
X250583574Y-129789853D01*
X250844727Y-129681680D01*
X251079759Y-129524637D01*
X251279637Y-129324759D01*
X251436680Y-129089727D01*
X251441067Y-129079135D01*
X251552615Y-129265131D01*
X251741586Y-129473519D01*
X251967580Y-129641037D01*
X252221913Y-129761246D01*
X252355961Y-129801904D01*
X252578000Y-129679915D01*
X252578000Y-128537000D01*
X252558000Y-128537000D01*
X252558000Y-128283000D01*
X252578000Y-128283000D01*
X252578000Y-128263000D01*
X252832000Y-128263000D01*
X252832000Y-128283000D01*
X252852000Y-128283000D01*
X252852000Y-128537000D01*
X252832000Y-128537000D01*
X252832000Y-129679915D01*
X253054039Y-129801904D01*
X253188087Y-129761246D01*
X253442420Y-129641037D01*
X253668414Y-129473519D01*
X253857385Y-129265131D01*
X253968933Y-129079135D01*
X253973320Y-129089727D01*
X254130363Y-129324759D01*
X254330241Y-129524637D01*
X254565273Y-129681680D01*
X254826426Y-129789853D01*
X255103665Y-129845000D01*
X255386335Y-129845000D01*
X255663574Y-129789853D01*
X255924727Y-129681680D01*
X256159759Y-129524637D01*
X256359637Y-129324759D01*
X256516680Y-129089727D01*
X256624853Y-128828574D01*
X256680000Y-128551335D01*
X256680000Y-128268665D01*
X256624853Y-127991426D01*
X256516680Y-127730273D01*
X256359637Y-127495241D01*
X256159759Y-127295363D01*
X255924727Y-127138320D01*
X255663574Y-127030147D01*
X255386335Y-126975000D01*
X255103665Y-126975000D01*
X255068561Y-126981983D01*
X255005243Y-126918665D01*
X258065000Y-126918665D01*
X258065000Y-127201335D01*
X258120147Y-127478574D01*
X258228320Y-127739727D01*
X258385363Y-127974759D01*
X258585241Y-128174637D01*
X258820273Y-128331680D01*
X259081426Y-128439853D01*
X259358665Y-128495000D01*
X259641335Y-128495000D01*
X259918574Y-128439853D01*
X260179727Y-128331680D01*
X260414759Y-128174637D01*
X260614637Y-127974759D01*
X260771680Y-127739727D01*
X260879853Y-127478574D01*
X260935000Y-127201335D01*
X260935000Y-126918665D01*
X260879853Y-126641426D01*
X260771680Y-126380273D01*
X260614637Y-126145241D01*
X260414759Y-125945363D01*
X260179727Y-125788320D01*
X259918574Y-125680147D01*
X259641335Y-125625000D01*
X259358665Y-125625000D01*
X259081426Y-125680147D01*
X258820273Y-125788320D01*
X258585241Y-125945363D01*
X258385363Y-126145241D01*
X258228320Y-126380273D01*
X258120147Y-126641426D01*
X258065000Y-126918665D01*
X255005243Y-126918665D01*
X254589034Y-126502456D01*
X254561317Y-126468683D01*
X254426559Y-126358089D01*
X254272813Y-126275911D01*
X254105990Y-126225305D01*
X253975977Y-126212500D01*
X253975969Y-126212500D01*
X253932500Y-126208219D01*
X253889031Y-126212500D01*
X239577300Y-126212500D01*
X239577300Y-123052702D01*
X258686903Y-123052702D01*
X258758486Y-123296671D01*
X259013996Y-123417571D01*
X259288184Y-123486300D01*
X259570512Y-123500217D01*
X259850130Y-123458787D01*
X260116292Y-123363603D01*
X260241514Y-123296671D01*
X260313097Y-123052702D01*
X259500000Y-122239605D01*
X258686903Y-123052702D01*
X239577300Y-123052702D01*
X239577300Y-122158045D01*
X239655961Y-122181904D01*
X239878000Y-122059915D01*
X239878000Y-120917000D01*
X239858000Y-120917000D01*
X239858000Y-120663000D01*
X239878000Y-120663000D01*
X239878000Y-119520085D01*
X240132000Y-119520085D01*
X240132000Y-120663000D01*
X240152000Y-120663000D01*
X240152000Y-120917000D01*
X240132000Y-120917000D01*
X240132000Y-122059915D01*
X240354039Y-122181904D01*
X240488087Y-122141246D01*
X240742420Y-122021037D01*
X240968414Y-121853519D01*
X241157385Y-121645131D01*
X241268933Y-121459135D01*
X241273320Y-121469727D01*
X241430363Y-121704759D01*
X241630241Y-121904637D01*
X241865273Y-122061680D01*
X242126426Y-122169853D01*
X242403665Y-122225000D01*
X242686335Y-122225000D01*
X242963574Y-122169853D01*
X243224727Y-122061680D01*
X243459759Y-121904637D01*
X243659637Y-121704759D01*
X243815000Y-121472241D01*
X243970363Y-121704759D01*
X244170241Y-121904637D01*
X244405273Y-122061680D01*
X244666426Y-122169853D01*
X244943665Y-122225000D01*
X245226335Y-122225000D01*
X245503574Y-122169853D01*
X245764727Y-122061680D01*
X245999759Y-121904637D01*
X246199637Y-121704759D01*
X246303425Y-121549430D01*
X246400206Y-121539897D01*
X246510363Y-121704759D01*
X246710241Y-121904637D01*
X246945273Y-122061680D01*
X247206426Y-122169853D01*
X247483665Y-122225000D01*
X247766335Y-122225000D01*
X248043574Y-122169853D01*
X248304727Y-122061680D01*
X248539759Y-121904637D01*
X248739637Y-121704759D01*
X248843425Y-121549430D01*
X248940206Y-121539897D01*
X249050363Y-121704759D01*
X249250241Y-121904637D01*
X249485273Y-122061680D01*
X249746426Y-122169853D01*
X250023665Y-122225000D01*
X250306335Y-122225000D01*
X250583574Y-122169853D01*
X250844727Y-122061680D01*
X251079759Y-121904637D01*
X251279637Y-121704759D01*
X251435000Y-121472241D01*
X251590363Y-121704759D01*
X251790241Y-121904637D01*
X252025273Y-122061680D01*
X252286426Y-122169853D01*
X252563665Y-122225000D01*
X252846335Y-122225000D01*
X253123574Y-122169853D01*
X253384727Y-122061680D01*
X253619759Y-121904637D01*
X253818357Y-121706039D01*
X253819188Y-121714482D01*
X253855498Y-121834180D01*
X253914463Y-121944494D01*
X253993815Y-122041185D01*
X254090506Y-122120537D01*
X254200820Y-122179502D01*
X254320518Y-122215812D01*
X254445000Y-122228072D01*
X256045000Y-122228072D01*
X256169482Y-122215812D01*
X256289180Y-122179502D01*
X256380832Y-122130512D01*
X258059783Y-122130512D01*
X258101213Y-122410130D01*
X258196397Y-122676292D01*
X258263329Y-122801514D01*
X258507298Y-122873097D01*
X259320395Y-122060000D01*
X259679605Y-122060000D01*
X260492702Y-122873097D01*
X260736671Y-122801514D01*
X260857571Y-122546004D01*
X260926300Y-122271816D01*
X260940217Y-121989488D01*
X260898787Y-121709870D01*
X260803603Y-121443708D01*
X260736671Y-121318486D01*
X260492702Y-121246903D01*
X259679605Y-122060000D01*
X259320395Y-122060000D01*
X258507298Y-121246903D01*
X258263329Y-121318486D01*
X258142429Y-121573996D01*
X258073700Y-121848184D01*
X258059783Y-122130512D01*
X256380832Y-122130512D01*
X256399494Y-122120537D01*
X256496185Y-122041185D01*
X256575537Y-121944494D01*
X256634502Y-121834180D01*
X256670812Y-121714482D01*
X256683072Y-121590000D01*
X256683072Y-121067298D01*
X258686903Y-121067298D01*
X259500000Y-121880395D01*
X260313097Y-121067298D01*
X260241514Y-120823329D01*
X259986004Y-120702429D01*
X259711816Y-120633700D01*
X259429488Y-120619783D01*
X259149870Y-120661213D01*
X258883708Y-120756397D01*
X258758486Y-120823329D01*
X258686903Y-121067298D01*
X256683072Y-121067298D01*
X256683072Y-120374700D01*
X258382678Y-120374700D01*
X258420000Y-120378376D01*
X258457322Y-120374700D01*
X258457333Y-120374700D01*
X258568986Y-120363703D01*
X258712247Y-120320246D01*
X258844276Y-120249674D01*
X258960001Y-120154701D01*
X258983804Y-120125697D01*
X261165053Y-117944449D01*
X261315241Y-118094637D01*
X261550273Y-118251680D01*
X261811426Y-118359853D01*
X262088665Y-118415000D01*
X262371335Y-118415000D01*
X262648574Y-118359853D01*
X262909727Y-118251680D01*
X263144759Y-118094637D01*
X263344637Y-117894759D01*
X263501680Y-117659727D01*
X263609853Y-117398574D01*
X263665000Y-117121335D01*
X263665000Y-116838665D01*
X263609853Y-116561426D01*
X263501680Y-116300273D01*
X263344637Y-116065241D01*
X263144759Y-115865363D01*
X262909727Y-115708320D01*
X262648574Y-115600147D01*
X262371335Y-115545000D01*
X262088665Y-115545000D01*
X261811426Y-115600147D01*
X261550273Y-115708320D01*
X261315241Y-115865363D01*
X261115363Y-116065241D01*
X261011575Y-116220570D01*
X260905714Y-116230997D01*
X260762453Y-116274454D01*
X260630424Y-116345026D01*
X260622922Y-116351183D01*
X260543696Y-116416201D01*
X260543692Y-116416205D01*
X260514699Y-116439999D01*
X260490905Y-116468992D01*
X258105199Y-118854700D01*
X249645522Y-118854700D01*
X249608199Y-118851024D01*
X249570876Y-118854700D01*
X249570867Y-118854700D01*
X249459214Y-118865697D01*
X249315953Y-118909154D01*
X249183923Y-118979726D01*
X249108438Y-119041676D01*
X249068199Y-119074699D01*
X249044401Y-119103698D01*
X248499581Y-119648517D01*
X248304727Y-119518320D01*
X248203225Y-119476277D01*
X249735053Y-117944449D01*
X249885241Y-118094637D01*
X250120273Y-118251680D01*
X250381426Y-118359853D01*
X250658665Y-118415000D01*
X250941335Y-118415000D01*
X251218574Y-118359853D01*
X251479727Y-118251680D01*
X251714759Y-118094637D01*
X251914637Y-117894759D01*
X252071680Y-117659727D01*
X252179853Y-117398574D01*
X252235000Y-117121335D01*
X252235000Y-116838665D01*
X253175000Y-116838665D01*
X253175000Y-117121335D01*
X253230147Y-117398574D01*
X253338320Y-117659727D01*
X253495363Y-117894759D01*
X253695241Y-118094637D01*
X253930273Y-118251680D01*
X254191426Y-118359853D01*
X254468665Y-118415000D01*
X254751335Y-118415000D01*
X255028574Y-118359853D01*
X255289727Y-118251680D01*
X255524759Y-118094637D01*
X255724637Y-117894759D01*
X255881680Y-117659727D01*
X255989853Y-117398574D01*
X256045000Y-117121335D01*
X256045000Y-116838665D01*
X255989853Y-116561426D01*
X255881680Y-116300273D01*
X255724637Y-116065241D01*
X255524759Y-115865363D01*
X255289727Y-115708320D01*
X255028574Y-115600147D01*
X254751335Y-115545000D01*
X254468665Y-115545000D01*
X254191426Y-115600147D01*
X253930273Y-115708320D01*
X253695241Y-115865363D01*
X253495363Y-116065241D01*
X253338320Y-116300273D01*
X253230147Y-116561426D01*
X253175000Y-116838665D01*
X252235000Y-116838665D01*
X252179853Y-116561426D01*
X252071680Y-116300273D01*
X251914637Y-116065241D01*
X251714759Y-115865363D01*
X251479727Y-115708320D01*
X251218574Y-115600147D01*
X250941335Y-115545000D01*
X250658665Y-115545000D01*
X250381426Y-115600147D01*
X250120273Y-115708320D01*
X249885241Y-115865363D01*
X249685363Y-116065241D01*
X249581575Y-116220570D01*
X249475714Y-116230997D01*
X249332453Y-116274454D01*
X249200423Y-116345026D01*
X249116783Y-116413668D01*
X249084699Y-116439999D01*
X249060901Y-116468997D01*
X245912704Y-119617195D01*
X245764727Y-119518320D01*
X245503574Y-119410147D01*
X245226335Y-119355000D01*
X244943665Y-119355000D01*
X244666426Y-119410147D01*
X244405273Y-119518320D01*
X244170241Y-119675363D01*
X243970363Y-119875241D01*
X243815000Y-120107759D01*
X243659637Y-119875241D01*
X243459759Y-119675363D01*
X243224727Y-119518320D01*
X242963574Y-119410147D01*
X242686335Y-119355000D01*
X242403665Y-119355000D01*
X242126426Y-119410147D01*
X241865273Y-119518320D01*
X241630241Y-119675363D01*
X241430363Y-119875241D01*
X241273320Y-120110273D01*
X241268933Y-120120865D01*
X241157385Y-119934869D01*
X240968414Y-119726481D01*
X240742420Y-119558963D01*
X240488087Y-119438754D01*
X240354039Y-119398096D01*
X240132000Y-119520085D01*
X239878000Y-119520085D01*
X239655961Y-119398096D01*
X239577300Y-119421955D01*
X239577300Y-118401879D01*
X239788574Y-118359853D01*
X240049727Y-118251680D01*
X240284759Y-118094637D01*
X240484637Y-117894759D01*
X240641680Y-117659727D01*
X240749853Y-117398574D01*
X240805000Y-117121335D01*
X240805000Y-116838665D01*
X241745000Y-116838665D01*
X241745000Y-117121335D01*
X241800147Y-117398574D01*
X241908320Y-117659727D01*
X242065363Y-117894759D01*
X242265241Y-118094637D01*
X242500273Y-118251680D01*
X242761426Y-118359853D01*
X243038665Y-118415000D01*
X243321335Y-118415000D01*
X243598574Y-118359853D01*
X243859727Y-118251680D01*
X244094759Y-118094637D01*
X244294637Y-117894759D01*
X244451680Y-117659727D01*
X244559853Y-117398574D01*
X244615000Y-117121335D01*
X244615000Y-116838665D01*
X244559853Y-116561426D01*
X244451680Y-116300273D01*
X244294637Y-116065241D01*
X244094759Y-115865363D01*
X243859727Y-115708320D01*
X243598574Y-115600147D01*
X243321335Y-115545000D01*
X243038665Y-115545000D01*
X242761426Y-115600147D01*
X242500273Y-115708320D01*
X242265241Y-115865363D01*
X242065363Y-116065241D01*
X241908320Y-116300273D01*
X241800147Y-116561426D01*
X241745000Y-116838665D01*
X240805000Y-116838665D01*
X240749853Y-116561426D01*
X240641680Y-116300273D01*
X240484637Y-116065241D01*
X240284759Y-115865363D01*
X240049727Y-115708320D01*
X239788574Y-115600147D01*
X239511335Y-115545000D01*
X239228665Y-115545000D01*
X238951426Y-115600147D01*
X238690273Y-115708320D01*
X238455241Y-115865363D01*
X238255363Y-116065241D01*
X238098320Y-116300273D01*
X237990147Y-116561426D01*
X237935000Y-116838665D01*
X237935000Y-117121335D01*
X237945985Y-117176559D01*
X237870711Y-117317388D01*
X237844353Y-117404277D01*
X237823185Y-117474059D01*
X237820105Y-117484211D01*
X237807300Y-117614224D01*
X237807300Y-117614231D01*
X237803019Y-117657700D01*
X237807300Y-117701169D01*
X237807301Y-126730920D01*
X236344994Y-128193227D01*
X236304853Y-127991426D01*
X236196680Y-127730273D01*
X236039637Y-127495241D01*
X235839759Y-127295363D01*
X235604727Y-127138320D01*
X235343574Y-127030147D01*
X235066335Y-126975000D01*
X234783665Y-126975000D01*
X234506426Y-127030147D01*
X234266900Y-127129362D01*
X234266900Y-122070638D01*
X234506426Y-122169853D01*
X234783665Y-122225000D01*
X235066335Y-122225000D01*
X235343574Y-122169853D01*
X235604727Y-122061680D01*
X235839759Y-121904637D01*
X236039637Y-121704759D01*
X236196680Y-121469727D01*
X236304853Y-121208574D01*
X236360000Y-120931335D01*
X236360000Y-120648665D01*
X236304853Y-120371426D01*
X236196680Y-120110273D01*
X236039637Y-119875241D01*
X235839759Y-119675363D01*
X235604727Y-119518320D01*
X235343574Y-119410147D01*
X235066335Y-119355000D01*
X234783665Y-119355000D01*
X234506426Y-119410147D01*
X234266900Y-119509362D01*
X234266900Y-118353201D01*
X252061003Y-100559099D01*
X252090001Y-100535301D01*
X252184974Y-100419576D01*
X252255546Y-100287547D01*
X252299003Y-100144286D01*
X252308361Y-100049274D01*
X252496632Y-99923475D01*
X252703475Y-99716632D01*
X252820000Y-99542240D01*
X252936525Y-99716632D01*
X253143368Y-99923475D01*
X253386589Y-100085990D01*
X253656842Y-100197932D01*
X253943740Y-100255000D01*
X254236260Y-100255000D01*
X254523158Y-100197932D01*
X254793411Y-100085990D01*
X255036632Y-99923475D01*
X255243475Y-99716632D01*
X255365195Y-99534466D01*
X255434822Y-99651355D01*
X255629731Y-99867588D01*
X255863080Y-100041641D01*
X256125901Y-100166825D01*
X256273110Y-100211476D01*
X256503000Y-100090155D01*
X256503000Y-98897000D01*
X256757000Y-98897000D01*
X256757000Y-100090155D01*
X256986890Y-100211476D01*
X257134099Y-100166825D01*
X257396920Y-100041641D01*
X257630269Y-99867588D01*
X257825178Y-99651355D01*
X257974157Y-99401252D01*
X258071481Y-99126891D01*
X257950814Y-98897000D01*
X256757000Y-98897000D01*
X256503000Y-98897000D01*
X256483000Y-98897000D01*
X256483000Y-98643000D01*
X256503000Y-98643000D01*
X256503000Y-98623000D01*
X256757000Y-98623000D01*
X256757000Y-98643000D01*
X257950814Y-98643000D01*
X258071481Y-98413109D01*
X257974157Y-98138748D01*
X257825178Y-97888645D01*
X257630269Y-97672412D01*
X257400594Y-97501100D01*
X257576632Y-97383475D01*
X257655612Y-97304495D01*
X259515000Y-97304495D01*
X259515000Y-97695505D01*
X259591282Y-98079003D01*
X259740915Y-98440250D01*
X259958149Y-98765364D01*
X260234636Y-99041851D01*
X260559750Y-99259085D01*
X260920997Y-99408718D01*
X261304495Y-99485000D01*
X261695505Y-99485000D01*
X262079003Y-99408718D01*
X262440250Y-99259085D01*
X262765364Y-99041851D01*
X263041851Y-98765364D01*
X263259085Y-98440250D01*
X263408718Y-98079003D01*
X263485000Y-97695505D01*
X263485000Y-97304495D01*
X263408718Y-96920997D01*
X263259085Y-96559750D01*
X263041851Y-96234636D01*
X262765364Y-95958149D01*
X262440250Y-95740915D01*
X262079003Y-95591282D01*
X261695505Y-95515000D01*
X261304495Y-95515000D01*
X260920997Y-95591282D01*
X260559750Y-95740915D01*
X260234636Y-95958149D01*
X259958149Y-96234636D01*
X259740915Y-96559750D01*
X259591282Y-96920997D01*
X259515000Y-97304495D01*
X257655612Y-97304495D01*
X257783475Y-97176632D01*
X257945990Y-96933411D01*
X258057932Y-96663158D01*
X258115000Y-96376260D01*
X258115000Y-96083740D01*
X258057932Y-95796842D01*
X257945990Y-95526589D01*
X257783475Y-95283368D01*
X257576632Y-95076525D01*
X257333411Y-94914010D01*
X257063158Y-94802068D01*
X256776260Y-94745000D01*
X256483740Y-94745000D01*
X256196842Y-94802068D01*
X255926589Y-94914010D01*
X255683368Y-95076525D01*
X255476525Y-95283368D01*
X255360000Y-95457760D01*
X255243475Y-95283368D01*
X255036632Y-95076525D01*
X254793411Y-94914010D01*
X254523158Y-94802068D01*
X254236260Y-94745000D01*
X253943740Y-94745000D01*
X253656842Y-94802068D01*
X253386589Y-94914010D01*
X253143368Y-95076525D01*
X252936525Y-95283368D01*
X252820000Y-95457760D01*
X252703475Y-95283368D01*
X252496632Y-95076525D01*
X252253411Y-94914010D01*
X251983158Y-94802068D01*
X251696260Y-94745000D01*
X251403740Y-94745000D01*
X251116842Y-94802068D01*
X250846589Y-94914010D01*
X250603368Y-95076525D01*
X250396525Y-95283368D01*
X250274805Y-95465534D01*
X250205178Y-95348645D01*
X250010269Y-95132412D01*
X249776920Y-94958359D01*
X249514099Y-94833175D01*
X249366890Y-94788524D01*
X249137000Y-94909845D01*
X249137000Y-96103000D01*
X249157000Y-96103000D01*
X249157000Y-96357000D01*
X249137000Y-96357000D01*
X249137000Y-96377000D01*
X248883000Y-96377000D01*
X248883000Y-96357000D01*
X248863000Y-96357000D01*
X248863000Y-96103000D01*
X248883000Y-96103000D01*
X248883000Y-94909845D01*
X248653110Y-94788524D01*
X248505901Y-94833175D01*
X248243080Y-94958359D01*
X248009731Y-95132412D01*
X247814822Y-95348645D01*
X247745195Y-95465534D01*
X247623475Y-95283368D01*
X247416632Y-95076525D01*
X247173411Y-94914010D01*
X246903158Y-94802068D01*
X246616260Y-94745000D01*
X246323740Y-94745000D01*
X246036842Y-94802068D01*
X245766589Y-94914010D01*
X245523368Y-95076525D01*
X245316525Y-95283368D01*
X245194805Y-95465534D01*
X245125178Y-95348645D01*
X244930269Y-95132412D01*
X244696920Y-94958359D01*
X244434099Y-94833175D01*
X244286890Y-94788524D01*
X244057000Y-94909845D01*
X244057000Y-96103000D01*
X244077000Y-96103000D01*
X244077000Y-96357000D01*
X244057000Y-96357000D01*
X244057000Y-96377000D01*
X243803000Y-96377000D01*
X243803000Y-96357000D01*
X243783000Y-96357000D01*
X243783000Y-96103000D01*
X243803000Y-96103000D01*
X243803000Y-94909845D01*
X243573110Y-94788524D01*
X243425901Y-94833175D01*
X243163080Y-94958359D01*
X242929731Y-95132412D01*
X242734822Y-95348645D01*
X242665195Y-95465534D01*
X242543475Y-95283368D01*
X242336632Y-95076525D01*
X242093411Y-94914010D01*
X241823158Y-94802068D01*
X241536260Y-94745000D01*
X241243740Y-94745000D01*
X240956842Y-94802068D01*
X240686589Y-94914010D01*
X240443368Y-95076525D01*
X240236525Y-95283368D01*
X240120000Y-95457760D01*
X240003475Y-95283368D01*
X239796632Y-95076525D01*
X239553411Y-94914010D01*
X239283158Y-94802068D01*
X238996260Y-94745000D01*
X238703740Y-94745000D01*
X238416842Y-94802068D01*
X238146589Y-94914010D01*
X237903368Y-95076525D01*
X237696525Y-95283368D01*
X237580000Y-95457760D01*
X237463475Y-95283368D01*
X237256632Y-95076525D01*
X237013411Y-94914010D01*
X236743158Y-94802068D01*
X236456260Y-94745000D01*
X236163740Y-94745000D01*
X235876842Y-94802068D01*
X235606589Y-94914010D01*
X235363368Y-95076525D01*
X235156525Y-95283368D01*
X235040000Y-95457760D01*
X234923475Y-95283368D01*
X234716632Y-95076525D01*
X234473411Y-94914010D01*
X234203158Y-94802068D01*
X233916260Y-94745000D01*
X233623740Y-94745000D01*
X233336842Y-94802068D01*
X233066589Y-94914010D01*
X232823368Y-95076525D01*
X232616525Y-95283368D01*
X232494805Y-95465534D01*
X232425178Y-95348645D01*
X232230269Y-95132412D01*
X231996920Y-94958359D01*
X231734099Y-94833175D01*
X231586890Y-94788524D01*
X231357000Y-94909845D01*
X231357000Y-96103000D01*
X231377000Y-96103000D01*
X231377000Y-96357000D01*
X231357000Y-96357000D01*
X231357000Y-96377000D01*
X231103000Y-96377000D01*
X231103000Y-96357000D01*
X231083000Y-96357000D01*
X231083000Y-96103000D01*
X231103000Y-96103000D01*
X231103000Y-94909845D01*
X230873110Y-94788524D01*
X230725901Y-94833175D01*
X230463080Y-94958359D01*
X230229731Y-95132412D01*
X230034822Y-95348645D01*
X229965195Y-95465534D01*
X229843475Y-95283368D01*
X229636632Y-95076525D01*
X229393411Y-94914010D01*
X229123158Y-94802068D01*
X228836260Y-94745000D01*
X228543740Y-94745000D01*
X228256842Y-94802068D01*
X227986589Y-94914010D01*
X227743368Y-95076525D01*
X227536525Y-95283368D01*
X227420000Y-95457760D01*
X227303475Y-95283368D01*
X227096632Y-95076525D01*
X226853411Y-94914010D01*
X226583158Y-94802068D01*
X226296260Y-94745000D01*
X226003740Y-94745000D01*
X225716842Y-94802068D01*
X225446589Y-94914010D01*
X225288406Y-95019704D01*
X224953701Y-94685000D01*
X261966495Y-94685000D01*
X262449016Y-94732312D01*
X262880930Y-94862714D01*
X263279285Y-95074524D01*
X263628914Y-95359675D01*
X263916497Y-95707303D01*
X264131086Y-96104177D01*
X264264498Y-96535161D01*
X264315001Y-97015663D01*
X264315000Y-146966495D01*
X264267688Y-147449016D01*
X264137287Y-147880927D01*
X263925480Y-148279280D01*
X263640325Y-148628914D01*
X263292697Y-148916497D01*
X262895825Y-149131085D01*
X262464834Y-149264500D01*
X261984346Y-149315000D01*
X203033504Y-149315000D01*
X202550984Y-149267688D01*
X202119073Y-149137287D01*
X201720720Y-148925480D01*
X201371086Y-148640325D01*
X201083503Y-148292697D01*
X200868915Y-147895825D01*
X200735500Y-147464834D01*
X200685000Y-146984346D01*
X200685000Y-146304495D01*
X201515000Y-146304495D01*
X201515000Y-146695505D01*
X201591282Y-147079003D01*
X201740915Y-147440250D01*
X201958149Y-147765364D01*
X202234636Y-148041851D01*
X202559750Y-148259085D01*
X202920997Y-148408718D01*
X203304495Y-148485000D01*
X203695505Y-148485000D01*
X204079003Y-148408718D01*
X204440250Y-148259085D01*
X204765364Y-148041851D01*
X205041851Y-147765364D01*
X205259085Y-147440250D01*
X205408718Y-147079003D01*
X205476746Y-146737000D01*
X210195928Y-146737000D01*
X210195928Y-148437000D01*
X210208188Y-148561482D01*
X210244498Y-148681180D01*
X210303463Y-148791494D01*
X210382815Y-148888185D01*
X210479506Y-148967537D01*
X210589820Y-149026502D01*
X210709518Y-149062812D01*
X210834000Y-149075072D01*
X212534000Y-149075072D01*
X212658482Y-149062812D01*
X212778180Y-149026502D01*
X212888494Y-148967537D01*
X212985185Y-148888185D01*
X213064537Y-148791494D01*
X213123502Y-148681180D01*
X213147966Y-148600534D01*
X213223731Y-148684588D01*
X213457080Y-148858641D01*
X213719901Y-148983825D01*
X213867110Y-149028476D01*
X214097000Y-148907155D01*
X214097000Y-147714000D01*
X214077000Y-147714000D01*
X214077000Y-147460000D01*
X214097000Y-147460000D01*
X214097000Y-146266845D01*
X214351000Y-146266845D01*
X214351000Y-147460000D01*
X214371000Y-147460000D01*
X214371000Y-147714000D01*
X214351000Y-147714000D01*
X214351000Y-148907155D01*
X214580890Y-149028476D01*
X214728099Y-148983825D01*
X214990920Y-148858641D01*
X215224269Y-148684588D01*
X215419178Y-148468355D01*
X215488805Y-148351466D01*
X215610525Y-148533632D01*
X215817368Y-148740475D01*
X216060589Y-148902990D01*
X216330842Y-149014932D01*
X216617740Y-149072000D01*
X216910260Y-149072000D01*
X217197158Y-149014932D01*
X217467411Y-148902990D01*
X217710632Y-148740475D01*
X217917475Y-148533632D01*
X218034000Y-148359240D01*
X218150525Y-148533632D01*
X218357368Y-148740475D01*
X218600589Y-148902990D01*
X218870842Y-149014932D01*
X219157740Y-149072000D01*
X219450260Y-149072000D01*
X219737158Y-149014932D01*
X220007411Y-148902990D01*
X220250632Y-148740475D01*
X220457475Y-148533632D01*
X220574000Y-148359240D01*
X220690525Y-148533632D01*
X220897368Y-148740475D01*
X221140589Y-148902990D01*
X221410842Y-149014932D01*
X221697740Y-149072000D01*
X221990260Y-149072000D01*
X222277158Y-149014932D01*
X222547411Y-148902990D01*
X222790632Y-148740475D01*
X222997475Y-148533632D01*
X223159990Y-148290411D01*
X223271932Y-148020158D01*
X223329000Y-147733260D01*
X223329000Y-147440740D01*
X223271932Y-147153842D01*
X223159990Y-146883589D01*
X222997475Y-146640368D01*
X222790632Y-146433525D01*
X222547411Y-146271010D01*
X222277158Y-146159068D01*
X221990260Y-146102000D01*
X221697740Y-146102000D01*
X221410842Y-146159068D01*
X221140589Y-146271010D01*
X220897368Y-146433525D01*
X220690525Y-146640368D01*
X220574000Y-146814760D01*
X220457475Y-146640368D01*
X220250632Y-146433525D01*
X220007411Y-146271010D01*
X219737158Y-146159068D01*
X219450260Y-146102000D01*
X219157740Y-146102000D01*
X219048000Y-146123829D01*
X219048000Y-141580000D01*
X219135928Y-141580000D01*
X219135928Y-143180000D01*
X219148188Y-143304482D01*
X219184498Y-143424180D01*
X219243463Y-143534494D01*
X219322815Y-143631185D01*
X219419506Y-143710537D01*
X219529820Y-143769502D01*
X219649518Y-143805812D01*
X219774000Y-143818072D01*
X221374000Y-143818072D01*
X221498482Y-143805812D01*
X221618180Y-143769502D01*
X221728494Y-143710537D01*
X221825185Y-143631185D01*
X221904537Y-143534494D01*
X221963502Y-143424180D01*
X221999812Y-143304482D01*
X222012072Y-143180000D01*
X222012072Y-141580000D01*
X221999812Y-141455518D01*
X221963502Y-141335820D01*
X221904537Y-141225506D01*
X221825185Y-141128815D01*
X221728494Y-141049463D01*
X221618180Y-140990498D01*
X221498482Y-140954188D01*
X221374000Y-140941928D01*
X221366785Y-140941928D01*
X221387097Y-140872702D01*
X220574000Y-140059605D01*
X219760903Y-140872702D01*
X219781215Y-140941928D01*
X219774000Y-140941928D01*
X219649518Y-140954188D01*
X219529820Y-140990498D01*
X219419506Y-141049463D01*
X219322815Y-141128815D01*
X219243463Y-141225506D01*
X219184498Y-141335820D01*
X219148188Y-141455518D01*
X219135928Y-141580000D01*
X219048000Y-141580000D01*
X219048000Y-139950512D01*
X219133783Y-139950512D01*
X219175213Y-140230130D01*
X219270397Y-140496292D01*
X219337329Y-140621514D01*
X219581298Y-140693097D01*
X220394395Y-139880000D01*
X220753605Y-139880000D01*
X221566702Y-140693097D01*
X221810671Y-140621514D01*
X221931571Y-140366004D01*
X221985539Y-140150702D01*
X225094903Y-140150702D01*
X225166486Y-140394671D01*
X225421996Y-140515571D01*
X225696184Y-140584300D01*
X225978512Y-140598217D01*
X226258130Y-140556787D01*
X226524292Y-140461603D01*
X226649514Y-140394671D01*
X226721097Y-140150702D01*
X225908000Y-139337605D01*
X225094903Y-140150702D01*
X221985539Y-140150702D01*
X222000300Y-140091816D01*
X222014217Y-139809488D01*
X221972787Y-139529870D01*
X221877603Y-139263708D01*
X221858791Y-139228512D01*
X224467783Y-139228512D01*
X224509213Y-139508130D01*
X224604397Y-139774292D01*
X224671329Y-139899514D01*
X224915298Y-139971097D01*
X225728395Y-139158000D01*
X226087605Y-139158000D01*
X226900702Y-139971097D01*
X227144671Y-139899514D01*
X227265571Y-139644004D01*
X227334300Y-139369816D01*
X227348217Y-139087488D01*
X227306787Y-138807870D01*
X227211603Y-138541708D01*
X227144671Y-138416486D01*
X226900702Y-138344903D01*
X226087605Y-139158000D01*
X225728395Y-139158000D01*
X224915298Y-138344903D01*
X224671329Y-138416486D01*
X224550429Y-138671996D01*
X224481700Y-138946184D01*
X224467783Y-139228512D01*
X221858791Y-139228512D01*
X221810671Y-139138486D01*
X221566702Y-139066903D01*
X220753605Y-139880000D01*
X220394395Y-139880000D01*
X219581298Y-139066903D01*
X219337329Y-139138486D01*
X219216429Y-139393996D01*
X219147700Y-139668184D01*
X219133783Y-139950512D01*
X219048000Y-139950512D01*
X219048000Y-138887298D01*
X219760903Y-138887298D01*
X220574000Y-139700395D01*
X221387097Y-138887298D01*
X221315514Y-138643329D01*
X221060004Y-138522429D01*
X220785816Y-138453700D01*
X220503488Y-138439783D01*
X220223870Y-138481213D01*
X219957708Y-138576397D01*
X219832486Y-138643329D01*
X219760903Y-138887298D01*
X219048000Y-138887298D01*
X219048000Y-138165298D01*
X225094903Y-138165298D01*
X225908000Y-138978395D01*
X226721097Y-138165298D01*
X226649514Y-137921329D01*
X226394004Y-137800429D01*
X226119816Y-137731700D01*
X225837488Y-137717783D01*
X225557870Y-137759213D01*
X225291708Y-137854397D01*
X225166486Y-137921329D01*
X225094903Y-138165298D01*
X219048000Y-138165298D01*
X219048000Y-136740043D01*
X219202759Y-136636637D01*
X219402637Y-136436759D01*
X219559680Y-136201727D01*
X219667853Y-135940574D01*
X219723000Y-135663335D01*
X219723000Y-135380665D01*
X224473000Y-135380665D01*
X224473000Y-135663335D01*
X224528147Y-135940574D01*
X224636320Y-136201727D01*
X224793363Y-136436759D01*
X224993241Y-136636637D01*
X225228273Y-136793680D01*
X225489426Y-136901853D01*
X225766665Y-136957000D01*
X226049335Y-136957000D01*
X226326574Y-136901853D01*
X226587727Y-136793680D01*
X226822759Y-136636637D01*
X227022637Y-136436759D01*
X227179680Y-136201727D01*
X227287853Y-135940574D01*
X227343000Y-135663335D01*
X227343000Y-135380665D01*
X227287853Y-135103426D01*
X227179680Y-134842273D01*
X227022637Y-134607241D01*
X226822759Y-134407363D01*
X226587727Y-134250320D01*
X226326574Y-134142147D01*
X226049335Y-134087000D01*
X225766665Y-134087000D01*
X225489426Y-134142147D01*
X225228273Y-134250320D01*
X224993241Y-134407363D01*
X224793363Y-134607241D01*
X224636320Y-134842273D01*
X224528147Y-135103426D01*
X224473000Y-135380665D01*
X219723000Y-135380665D01*
X219667853Y-135103426D01*
X219559680Y-134842273D01*
X219402637Y-134607241D01*
X219202759Y-134407363D01*
X218967727Y-134250320D01*
X218706574Y-134142147D01*
X218429335Y-134087000D01*
X218146665Y-134087000D01*
X217869426Y-134142147D01*
X217608273Y-134250320D01*
X217373241Y-134407363D01*
X217173363Y-134607241D01*
X217016320Y-134842273D01*
X216908147Y-135103426D01*
X216853000Y-135380665D01*
X216853000Y-135663335D01*
X216908147Y-135940574D01*
X217016320Y-136201727D01*
X217173363Y-136436759D01*
X217373241Y-136636637D01*
X217528000Y-136740043D01*
X217528001Y-146311495D01*
X217467411Y-146271010D01*
X217197158Y-146159068D01*
X216910260Y-146102000D01*
X216617740Y-146102000D01*
X216330842Y-146159068D01*
X216060589Y-146271010D01*
X215817368Y-146433525D01*
X215610525Y-146640368D01*
X215488805Y-146822534D01*
X215419178Y-146705645D01*
X215224269Y-146489412D01*
X214990920Y-146315359D01*
X214728099Y-146190175D01*
X214580890Y-146145524D01*
X214351000Y-146266845D01*
X214097000Y-146266845D01*
X213867110Y-146145524D01*
X213719901Y-146190175D01*
X213457080Y-146315359D01*
X213223731Y-146489412D01*
X213147966Y-146573466D01*
X213123502Y-146492820D01*
X213064537Y-146382506D01*
X212985185Y-146285815D01*
X212888494Y-146206463D01*
X212778180Y-146147498D01*
X212658482Y-146111188D01*
X212534000Y-146098928D01*
X210834000Y-146098928D01*
X210709518Y-146111188D01*
X210589820Y-146147498D01*
X210479506Y-146206463D01*
X210382815Y-146285815D01*
X210303463Y-146382506D01*
X210244498Y-146492820D01*
X210208188Y-146612518D01*
X210195928Y-146737000D01*
X205476746Y-146737000D01*
X205485000Y-146695505D01*
X205485000Y-146304495D01*
X205408718Y-145920997D01*
X205259085Y-145559750D01*
X205041851Y-145234636D01*
X204765364Y-144958149D01*
X204440250Y-144740915D01*
X204079003Y-144591282D01*
X203695505Y-144515000D01*
X203304495Y-144515000D01*
X202920997Y-144591282D01*
X202559750Y-144740915D01*
X202234636Y-144958149D01*
X201958149Y-145234636D01*
X201740915Y-145559750D01*
X201591282Y-145920997D01*
X201515000Y-146304495D01*
X200685000Y-146304495D01*
X200685000Y-140069268D01*
X205865000Y-140069268D01*
X205865000Y-140430732D01*
X205935518Y-140785250D01*
X206073844Y-141119199D01*
X206274662Y-141419744D01*
X206530256Y-141675338D01*
X206830801Y-141876156D01*
X207164750Y-142014482D01*
X207519268Y-142085000D01*
X207880732Y-142085000D01*
X208235250Y-142014482D01*
X208569199Y-141876156D01*
X208869744Y-141675338D01*
X209125338Y-141419744D01*
X209326156Y-141119199D01*
X209464482Y-140785250D01*
X209535000Y-140430732D01*
X209535000Y-140074193D01*
X210915000Y-140074193D01*
X210915000Y-140425807D01*
X210983596Y-140770665D01*
X211118153Y-141095515D01*
X211313500Y-141387871D01*
X211562129Y-141636500D01*
X211854485Y-141831847D01*
X212179335Y-141966404D01*
X212524193Y-142035000D01*
X212875807Y-142035000D01*
X213220665Y-141966404D01*
X213545515Y-141831847D01*
X213837871Y-141636500D01*
X214086500Y-141387871D01*
X214281847Y-141095515D01*
X214416404Y-140770665D01*
X214485000Y-140425807D01*
X214485000Y-140074193D01*
X214416404Y-139729335D01*
X214281847Y-139404485D01*
X214135576Y-139185576D01*
X214354485Y-139331847D01*
X214679335Y-139466404D01*
X215024193Y-139535000D01*
X215375807Y-139535000D01*
X215720665Y-139466404D01*
X216045515Y-139331847D01*
X216337871Y-139136500D01*
X216586500Y-138887871D01*
X216781847Y-138595515D01*
X216916404Y-138270665D01*
X216985000Y-137925807D01*
X216985000Y-137574193D01*
X216916404Y-137229335D01*
X216781847Y-136904485D01*
X216586500Y-136612129D01*
X216337871Y-136363500D01*
X216045515Y-136168153D01*
X215720665Y-136033596D01*
X215375807Y-135965000D01*
X215024193Y-135965000D01*
X214679335Y-136033596D01*
X214354485Y-136168153D01*
X214062129Y-136363500D01*
X213813500Y-136612129D01*
X213618153Y-136904485D01*
X213483596Y-137229335D01*
X213415000Y-137574193D01*
X213415000Y-137925807D01*
X213483596Y-138270665D01*
X213618153Y-138595515D01*
X213764424Y-138814424D01*
X213545515Y-138668153D01*
X213220665Y-138533596D01*
X212875807Y-138465000D01*
X212524193Y-138465000D01*
X212179335Y-138533596D01*
X211854485Y-138668153D01*
X211562129Y-138863500D01*
X211313500Y-139112129D01*
X211118153Y-139404485D01*
X210983596Y-139729335D01*
X210915000Y-140074193D01*
X209535000Y-140074193D01*
X209535000Y-140069268D01*
X209464482Y-139714750D01*
X209326156Y-139380801D01*
X209125338Y-139080256D01*
X208869744Y-138824662D01*
X208569199Y-138623844D01*
X208235250Y-138485518D01*
X207880732Y-138415000D01*
X207519268Y-138415000D01*
X207164750Y-138485518D01*
X206830801Y-138623844D01*
X206530256Y-138824662D01*
X206274662Y-139080256D01*
X206073844Y-139380801D01*
X205935518Y-139714750D01*
X205865000Y-140069268D01*
X200685000Y-140069268D01*
X200685000Y-135088967D01*
X201065000Y-135088967D01*
X201065000Y-135411033D01*
X201127832Y-135726912D01*
X201251082Y-136024463D01*
X201430013Y-136292252D01*
X201637761Y-136500000D01*
X201430013Y-136707748D01*
X201251082Y-136975537D01*
X201127832Y-137273088D01*
X201065000Y-137588967D01*
X201065000Y-137911033D01*
X201127832Y-138226912D01*
X201251082Y-138524463D01*
X201430013Y-138792252D01*
X201657748Y-139019987D01*
X201925537Y-139198918D01*
X202223088Y-139322168D01*
X202538967Y-139385000D01*
X202861033Y-139385000D01*
X203176912Y-139322168D01*
X203474463Y-139198918D01*
X203742252Y-139019987D01*
X203969987Y-138792252D01*
X204148918Y-138524463D01*
X204272168Y-138226912D01*
X204335000Y-137911033D01*
X204335000Y-137588967D01*
X204272168Y-137273088D01*
X204148918Y-136975537D01*
X203969987Y-136707748D01*
X203762239Y-136500000D01*
X203969987Y-136292252D01*
X204148918Y-136024463D01*
X204272168Y-135726912D01*
X204335000Y-135411033D01*
X204335000Y-135088967D01*
X204272168Y-134773088D01*
X204148918Y-134475537D01*
X203969987Y-134207748D01*
X203742252Y-133980013D01*
X203474463Y-133801082D01*
X203176912Y-133677832D01*
X202861033Y-133615000D01*
X202538967Y-133615000D01*
X202223088Y-133677832D01*
X201925537Y-133801082D01*
X201657748Y-133980013D01*
X201430013Y-134207748D01*
X201251082Y-134475537D01*
X201127832Y-134773088D01*
X201065000Y-135088967D01*
X200685000Y-135088967D01*
X200685000Y-132574193D01*
X210915000Y-132574193D01*
X210915000Y-132925807D01*
X210983596Y-133270665D01*
X211118153Y-133595515D01*
X211313500Y-133887871D01*
X211562129Y-134136500D01*
X211854485Y-134331847D01*
X212179335Y-134466404D01*
X212524193Y-134535000D01*
X212875807Y-134535000D01*
X213220665Y-134466404D01*
X213545515Y-134331847D01*
X213837871Y-134136500D01*
X214086500Y-133887871D01*
X214281847Y-133595515D01*
X214416404Y-133270665D01*
X214485000Y-132925807D01*
X214485000Y-132574193D01*
X214416404Y-132229335D01*
X214281847Y-131904485D01*
X214086500Y-131612129D01*
X213837871Y-131363500D01*
X213545515Y-131168153D01*
X213220665Y-131033596D01*
X212875807Y-130965000D01*
X212524193Y-130965000D01*
X212179335Y-131033596D01*
X211854485Y-131168153D01*
X211562129Y-131363500D01*
X211313500Y-131612129D01*
X211118153Y-131904485D01*
X210983596Y-132229335D01*
X210915000Y-132574193D01*
X200685000Y-132574193D01*
X200685000Y-127588967D01*
X201065000Y-127588967D01*
X201065000Y-127911033D01*
X201127832Y-128226912D01*
X201251082Y-128524463D01*
X201430013Y-128792252D01*
X201637761Y-129000000D01*
X201430013Y-129207748D01*
X201251082Y-129475537D01*
X201127832Y-129773088D01*
X201065000Y-130088967D01*
X201065000Y-130411033D01*
X201127832Y-130726912D01*
X201251082Y-131024463D01*
X201430013Y-131292252D01*
X201657748Y-131519987D01*
X201925537Y-131698918D01*
X202223088Y-131822168D01*
X202538967Y-131885000D01*
X202861033Y-131885000D01*
X203176912Y-131822168D01*
X203474463Y-131698918D01*
X203742252Y-131519987D01*
X203969987Y-131292252D01*
X204148918Y-131024463D01*
X204272168Y-130726912D01*
X204335000Y-130411033D01*
X204335000Y-130088967D01*
X204272168Y-129773088D01*
X204148918Y-129475537D01*
X203969987Y-129207748D01*
X203762239Y-129000000D01*
X203969987Y-128792252D01*
X204148918Y-128524463D01*
X204272168Y-128226912D01*
X204335000Y-127911033D01*
X204335000Y-127588967D01*
X204272168Y-127273088D01*
X204148918Y-126975537D01*
X203969987Y-126707748D01*
X203742252Y-126480013D01*
X203474463Y-126301082D01*
X203176912Y-126177832D01*
X202861033Y-126115000D01*
X202538967Y-126115000D01*
X202223088Y-126177832D01*
X201925537Y-126301082D01*
X201657748Y-126480013D01*
X201430013Y-126707748D01*
X201251082Y-126975537D01*
X201127832Y-127273088D01*
X201065000Y-127588967D01*
X200685000Y-127588967D01*
X200685000Y-125069268D01*
X205785000Y-125069268D01*
X205785000Y-125430732D01*
X205855518Y-125785250D01*
X205993844Y-126119199D01*
X206194662Y-126419744D01*
X206450256Y-126675338D01*
X206750801Y-126876156D01*
X207084750Y-127014482D01*
X207439268Y-127085000D01*
X207800732Y-127085000D01*
X208155250Y-127014482D01*
X208489199Y-126876156D01*
X208789744Y-126675338D01*
X209045338Y-126419744D01*
X209246156Y-126119199D01*
X209384482Y-125785250D01*
X209455000Y-125430732D01*
X209455000Y-125069268D01*
X209384482Y-124714750D01*
X209246156Y-124380801D01*
X209045338Y-124080256D01*
X208789744Y-123824662D01*
X208489199Y-123623844D01*
X208155250Y-123485518D01*
X207800732Y-123415000D01*
X207439268Y-123415000D01*
X207084750Y-123485518D01*
X206750801Y-123623844D01*
X206450256Y-123824662D01*
X206194662Y-124080256D01*
X205993844Y-124380801D01*
X205855518Y-124714750D01*
X205785000Y-125069268D01*
X200685000Y-125069268D01*
X200685000Y-121029665D01*
X218123000Y-121029665D01*
X218123000Y-121312335D01*
X218178147Y-121589574D01*
X218286320Y-121850727D01*
X218443363Y-122085759D01*
X218643241Y-122285637D01*
X218878273Y-122442680D01*
X219139426Y-122550853D01*
X219416665Y-122606000D01*
X219699335Y-122606000D01*
X219976574Y-122550853D01*
X220237727Y-122442680D01*
X220472759Y-122285637D01*
X220672637Y-122085759D01*
X220829680Y-121850727D01*
X220937853Y-121589574D01*
X220993000Y-121312335D01*
X220993000Y-121029665D01*
X220937853Y-120752426D01*
X220829680Y-120491273D01*
X220672637Y-120256241D01*
X220472759Y-120056363D01*
X220237727Y-119899320D01*
X219976574Y-119791147D01*
X219699335Y-119736000D01*
X219416665Y-119736000D01*
X219139426Y-119791147D01*
X218878273Y-119899320D01*
X218643241Y-120056363D01*
X218443363Y-120256241D01*
X218286320Y-120491273D01*
X218178147Y-120752426D01*
X218123000Y-121029665D01*
X200685000Y-121029665D01*
X200685000Y-118577268D01*
X205865000Y-118577268D01*
X205865000Y-118938732D01*
X205935518Y-119293250D01*
X206073844Y-119627199D01*
X206274662Y-119927744D01*
X206530256Y-120183338D01*
X206830801Y-120384156D01*
X207164750Y-120522482D01*
X207519268Y-120593000D01*
X207880732Y-120593000D01*
X208235250Y-120522482D01*
X208569199Y-120384156D01*
X208869744Y-120183338D01*
X209125338Y-119927744D01*
X209326156Y-119627199D01*
X209464482Y-119293250D01*
X209535000Y-118938732D01*
X209535000Y-118582193D01*
X210915000Y-118582193D01*
X210915000Y-118933807D01*
X210983596Y-119278665D01*
X211118153Y-119603515D01*
X211313500Y-119895871D01*
X211562129Y-120144500D01*
X211854485Y-120339847D01*
X212179335Y-120474404D01*
X212524193Y-120543000D01*
X212875807Y-120543000D01*
X213220665Y-120474404D01*
X213545515Y-120339847D01*
X213837871Y-120144500D01*
X214086500Y-119895871D01*
X214281847Y-119603515D01*
X214416404Y-119278665D01*
X214485000Y-118933807D01*
X214485000Y-118582193D01*
X214439551Y-118353702D01*
X219586903Y-118353702D01*
X219658486Y-118597671D01*
X219913996Y-118718571D01*
X220188184Y-118787300D01*
X220470512Y-118801217D01*
X220750130Y-118759787D01*
X221016292Y-118664603D01*
X221141514Y-118597671D01*
X221213097Y-118353702D01*
X220400000Y-117540605D01*
X219586903Y-118353702D01*
X214439551Y-118353702D01*
X214416404Y-118237335D01*
X214281847Y-117912485D01*
X214135576Y-117693576D01*
X214354485Y-117839847D01*
X214679335Y-117974404D01*
X215024193Y-118043000D01*
X215375807Y-118043000D01*
X215720665Y-117974404D01*
X216045515Y-117839847D01*
X216337871Y-117644500D01*
X216550859Y-117431512D01*
X218959783Y-117431512D01*
X219001213Y-117711130D01*
X219096397Y-117977292D01*
X219163329Y-118102514D01*
X219407298Y-118174097D01*
X220220395Y-117361000D01*
X219407298Y-116547903D01*
X219163329Y-116619486D01*
X219042429Y-116874996D01*
X218973700Y-117149184D01*
X218959783Y-117431512D01*
X216550859Y-117431512D01*
X216586500Y-117395871D01*
X216781847Y-117103515D01*
X216916404Y-116778665D01*
X216985000Y-116433807D01*
X216985000Y-116082193D01*
X216916404Y-115737335D01*
X216781847Y-115412485D01*
X216586500Y-115120129D01*
X216337871Y-114871500D01*
X216045515Y-114676153D01*
X215720665Y-114541596D01*
X215375807Y-114473000D01*
X215024193Y-114473000D01*
X214679335Y-114541596D01*
X214354485Y-114676153D01*
X214062129Y-114871500D01*
X213813500Y-115120129D01*
X213618153Y-115412485D01*
X213483596Y-115737335D01*
X213415000Y-116082193D01*
X213415000Y-116433807D01*
X213483596Y-116778665D01*
X213618153Y-117103515D01*
X213764424Y-117322424D01*
X213545515Y-117176153D01*
X213220665Y-117041596D01*
X212875807Y-116973000D01*
X212524193Y-116973000D01*
X212179335Y-117041596D01*
X211854485Y-117176153D01*
X211562129Y-117371500D01*
X211313500Y-117620129D01*
X211118153Y-117912485D01*
X210983596Y-118237335D01*
X210915000Y-118582193D01*
X209535000Y-118582193D01*
X209535000Y-118577268D01*
X209464482Y-118222750D01*
X209326156Y-117888801D01*
X209125338Y-117588256D01*
X208869744Y-117332662D01*
X208569199Y-117131844D01*
X208235250Y-116993518D01*
X207880732Y-116923000D01*
X207519268Y-116923000D01*
X207164750Y-116993518D01*
X206830801Y-117131844D01*
X206530256Y-117332662D01*
X206274662Y-117588256D01*
X206073844Y-117888801D01*
X205935518Y-118222750D01*
X205865000Y-118577268D01*
X200685000Y-118577268D01*
X200685000Y-113596967D01*
X201065000Y-113596967D01*
X201065000Y-113919033D01*
X201127832Y-114234912D01*
X201251082Y-114532463D01*
X201430013Y-114800252D01*
X201637761Y-115008000D01*
X201430013Y-115215748D01*
X201251082Y-115483537D01*
X201127832Y-115781088D01*
X201065000Y-116096967D01*
X201065000Y-116419033D01*
X201127832Y-116734912D01*
X201251082Y-117032463D01*
X201430013Y-117300252D01*
X201657748Y-117527987D01*
X201925537Y-117706918D01*
X202223088Y-117830168D01*
X202538967Y-117893000D01*
X202861033Y-117893000D01*
X203176912Y-117830168D01*
X203474463Y-117706918D01*
X203742252Y-117527987D01*
X203969987Y-117300252D01*
X204148918Y-117032463D01*
X204272168Y-116734912D01*
X204335000Y-116419033D01*
X204335000Y-116096967D01*
X204272168Y-115781088D01*
X204148918Y-115483537D01*
X203969987Y-115215748D01*
X203762239Y-115008000D01*
X203969987Y-114800252D01*
X204148918Y-114532463D01*
X204272168Y-114234912D01*
X204335000Y-113919033D01*
X204335000Y-113596967D01*
X204272168Y-113281088D01*
X204148918Y-112983537D01*
X203969987Y-112715748D01*
X203754588Y-112500349D01*
X211637256Y-112500349D01*
X211751118Y-112780090D01*
X212066296Y-112935961D01*
X212405826Y-113027349D01*
X212756661Y-113050741D01*
X213105319Y-113005240D01*
X213438400Y-112892594D01*
X213648882Y-112780090D01*
X213762744Y-112500349D01*
X212700000Y-111437605D01*
X211637256Y-112500349D01*
X203754588Y-112500349D01*
X203742252Y-112488013D01*
X203474463Y-112309082D01*
X203176912Y-112185832D01*
X202861033Y-112123000D01*
X202538967Y-112123000D01*
X202223088Y-112185832D01*
X201925537Y-112309082D01*
X201657748Y-112488013D01*
X201430013Y-112715748D01*
X201251082Y-112983537D01*
X201127832Y-113281088D01*
X201065000Y-113596967D01*
X200685000Y-113596967D01*
X200685000Y-111314661D01*
X210907259Y-111314661D01*
X210952760Y-111663319D01*
X211065406Y-111996400D01*
X211177910Y-112206882D01*
X211457651Y-112320744D01*
X212520395Y-111258000D01*
X211457651Y-110195256D01*
X211177910Y-110309118D01*
X211022039Y-110624296D01*
X210930651Y-110963826D01*
X210907259Y-111314661D01*
X200685000Y-111314661D01*
X200685000Y-106096967D01*
X201065000Y-106096967D01*
X201065000Y-106419033D01*
X201127832Y-106734912D01*
X201251082Y-107032463D01*
X201430013Y-107300252D01*
X201637761Y-107508000D01*
X201430013Y-107715748D01*
X201251082Y-107983537D01*
X201127832Y-108281088D01*
X201065000Y-108596967D01*
X201065000Y-108919033D01*
X201127832Y-109234912D01*
X201251082Y-109532463D01*
X201430013Y-109800252D01*
X201657748Y-110027987D01*
X201925537Y-110206918D01*
X202223088Y-110330168D01*
X202538967Y-110393000D01*
X202861033Y-110393000D01*
X203176912Y-110330168D01*
X203474463Y-110206918D01*
X203742252Y-110027987D01*
X203969987Y-109800252D01*
X204148918Y-109532463D01*
X204272168Y-109234912D01*
X204335000Y-108919033D01*
X204335000Y-108596967D01*
X204272168Y-108281088D01*
X204148918Y-107983537D01*
X203969987Y-107715748D01*
X203762239Y-107508000D01*
X203969987Y-107300252D01*
X204148918Y-107032463D01*
X204272168Y-106734912D01*
X204335000Y-106419033D01*
X204335000Y-106096967D01*
X204272168Y-105781088D01*
X204148918Y-105483537D01*
X203969987Y-105215748D01*
X203742252Y-104988013D01*
X203474463Y-104809082D01*
X203176912Y-104685832D01*
X202861033Y-104623000D01*
X202538967Y-104623000D01*
X202223088Y-104685832D01*
X201925537Y-104809082D01*
X201657748Y-104988013D01*
X201430013Y-105215748D01*
X201251082Y-105483537D01*
X201127832Y-105781088D01*
X201065000Y-106096967D01*
X200685000Y-106096967D01*
X200685000Y-97304495D01*
X201515000Y-97304495D01*
X201515000Y-97695505D01*
X201591282Y-98079003D01*
X201740915Y-98440250D01*
X201958149Y-98765364D01*
X202234636Y-99041851D01*
X202559750Y-99259085D01*
X202920997Y-99408718D01*
X203304495Y-99485000D01*
X203695505Y-99485000D01*
X204079003Y-99408718D01*
X204440250Y-99259085D01*
X204765364Y-99041851D01*
X205041851Y-98765364D01*
X205259085Y-98440250D01*
X205408718Y-98079003D01*
X205485000Y-97695505D01*
X205485000Y-97304495D01*
X205408718Y-96920997D01*
X205259085Y-96559750D01*
X205041851Y-96234636D01*
X204765364Y-95958149D01*
X204440250Y-95740915D01*
X204079003Y-95591282D01*
X203695505Y-95515000D01*
X203304495Y-95515000D01*
X202920997Y-95591282D01*
X202559750Y-95740915D01*
X202234636Y-95958149D01*
X201958149Y-96234636D01*
X201740915Y-96559750D01*
X201591282Y-96920997D01*
X201515000Y-97304495D01*
X200685000Y-97304495D01*
X200685000Y-97033505D01*
X200732312Y-96550984D01*
X200862714Y-96119070D01*
X201074524Y-95720715D01*
X201359675Y-95371086D01*
X201707303Y-95083503D01*
X202104177Y-94868914D01*
X202535161Y-94735502D01*
X203015654Y-94685000D01*
X219765998Y-94685000D01*
X219415392Y-95035606D01*
G37*
G04 #@! TD.AperFunction*
D21*
X229363000Y-111392000D02*
X229383000Y-111392000D01*
X229383000Y-111646000D01*
X229363000Y-111646000D01*
X229363000Y-112845250D01*
X229521750Y-113004000D01*
X229701301Y-113004978D01*
X229701301Y-118302597D01*
X228952998Y-119050901D01*
X228924000Y-119074699D01*
X228900202Y-119103697D01*
X228900201Y-119103698D01*
X228829026Y-119190424D01*
X228758454Y-119322454D01*
X228749514Y-119351928D01*
X228720911Y-119446223D01*
X228714998Y-119465715D01*
X228704572Y-119571575D01*
X228549241Y-119675363D01*
X228349363Y-119875241D01*
X228192320Y-120110273D01*
X228187933Y-120120865D01*
X228076385Y-119934869D01*
X227887414Y-119726481D01*
X227661420Y-119558963D01*
X227407087Y-119438754D01*
X227273039Y-119398096D01*
X227051000Y-119520085D01*
X227051000Y-120663000D01*
X227071000Y-120663000D01*
X227071000Y-120917000D01*
X227051000Y-120917000D01*
X227051000Y-122059915D01*
X227273039Y-122181904D01*
X227407087Y-122141246D01*
X227661420Y-122021037D01*
X227887414Y-121853519D01*
X228076385Y-121645131D01*
X228187933Y-121459135D01*
X228192320Y-121469727D01*
X228349363Y-121704759D01*
X228549241Y-121904637D01*
X228784273Y-122061680D01*
X229045426Y-122169853D01*
X229322665Y-122225000D01*
X229605335Y-122225000D01*
X229882574Y-122169853D01*
X230143727Y-122061680D01*
X230378759Y-121904637D01*
X230578637Y-121704759D01*
X230735680Y-121469727D01*
X230843853Y-121208574D01*
X230899000Y-120931335D01*
X230899000Y-120648665D01*
X230843853Y-120371426D01*
X230735680Y-120110273D01*
X230578637Y-119875241D01*
X230428449Y-119725053D01*
X230972303Y-119181199D01*
X231001301Y-119157401D01*
X231096274Y-119041676D01*
X231166846Y-118909647D01*
X231210303Y-118766386D01*
X231221300Y-118654733D01*
X231221300Y-118654724D01*
X231224976Y-118617401D01*
X231221300Y-118580078D01*
X231221300Y-118314237D01*
X231331426Y-118359853D01*
X231608665Y-118415000D01*
X231891335Y-118415000D01*
X232168574Y-118359853D01*
X232246500Y-118327575D01*
X232246501Y-136155697D01*
X230868000Y-137534198D01*
X230868000Y-137407740D01*
X230810932Y-137120842D01*
X230698990Y-136850589D01*
X230536475Y-136607368D01*
X230329632Y-136400525D01*
X230156271Y-136284689D01*
X230231792Y-136042397D01*
X229383000Y-135193605D01*
X229368858Y-135207748D01*
X229189253Y-135028143D01*
X229203395Y-135014000D01*
X229562605Y-135014000D01*
X230411397Y-135862792D01*
X230660472Y-135785157D01*
X230786371Y-135521117D01*
X230858339Y-135237589D01*
X230873611Y-134945469D01*
X230831599Y-134655981D01*
X230733919Y-134380253D01*
X230660472Y-134242843D01*
X230411397Y-134165208D01*
X229562605Y-135014000D01*
X229203395Y-135014000D01*
X229189253Y-134999858D01*
X229368858Y-134820253D01*
X229383000Y-134834395D01*
X230231792Y-133985603D01*
X230154157Y-133736528D01*
X229890117Y-133610629D01*
X229606589Y-133538661D01*
X229314469Y-133523389D01*
X229024981Y-133565401D01*
X228917500Y-133603477D01*
X228917500Y-131794836D01*
X228954320Y-131883727D01*
X229111363Y-132118759D01*
X229311241Y-132318637D01*
X229546273Y-132475680D01*
X229807426Y-132583853D01*
X230084665Y-132639000D01*
X230367335Y-132639000D01*
X230644574Y-132583853D01*
X230905727Y-132475680D01*
X231140759Y-132318637D01*
X231340637Y-132118759D01*
X231497680Y-131883727D01*
X231605853Y-131622574D01*
X231661000Y-131345335D01*
X231661000Y-131062665D01*
X231605853Y-130785426D01*
X231497680Y-130524273D01*
X231340637Y-130289241D01*
X231140759Y-130089363D01*
X230905727Y-129932320D01*
X230644574Y-129824147D01*
X230367335Y-129769000D01*
X230084665Y-129769000D01*
X229807426Y-129824147D01*
X229546273Y-129932320D01*
X229311241Y-130089363D01*
X229111363Y-130289241D01*
X228954320Y-130524273D01*
X228917500Y-130613164D01*
X228917500Y-129736864D01*
X229045426Y-129789853D01*
X229322665Y-129845000D01*
X229605335Y-129845000D01*
X229882574Y-129789853D01*
X230143727Y-129681680D01*
X230378759Y-129524637D01*
X230578637Y-129324759D01*
X230735680Y-129089727D01*
X230843853Y-128828574D01*
X230899000Y-128551335D01*
X230899000Y-128268665D01*
X230843853Y-127991426D01*
X230735680Y-127730273D01*
X230578637Y-127495241D01*
X230378759Y-127295363D01*
X230143727Y-127138320D01*
X229882574Y-127030147D01*
X229605335Y-126975000D01*
X229322665Y-126975000D01*
X229045426Y-127030147D01*
X228917500Y-127083136D01*
X228917500Y-125754225D01*
X228921176Y-125716900D01*
X228917500Y-125679575D01*
X228917500Y-125679567D01*
X228906503Y-125567914D01*
X228863046Y-125424653D01*
X228792474Y-125292624D01*
X228697501Y-125176899D01*
X228668504Y-125153102D01*
X226414000Y-122898599D01*
X226414000Y-122128526D01*
X226440913Y-122141246D01*
X226574961Y-122181904D01*
X226797000Y-122059915D01*
X226797000Y-120917000D01*
X226777000Y-120917000D01*
X226777000Y-120663000D01*
X226797000Y-120663000D01*
X226797000Y-119520085D01*
X226574961Y-119398096D01*
X226440913Y-119438754D01*
X226414000Y-119451474D01*
X226414000Y-119388623D01*
X226417676Y-119351300D01*
X226414000Y-119313977D01*
X226414000Y-119313967D01*
X226403003Y-119202314D01*
X226359546Y-119059053D01*
X226325651Y-118995641D01*
X226288974Y-118927023D01*
X226217799Y-118840297D01*
X226194001Y-118811299D01*
X226165004Y-118787502D01*
X226030551Y-118653049D01*
X226079727Y-118632680D01*
X226314759Y-118475637D01*
X226514637Y-118275759D01*
X226671680Y-118040727D01*
X226779853Y-117779574D01*
X226835000Y-117502335D01*
X226835000Y-117219665D01*
X226828017Y-117184561D01*
X228330249Y-115682330D01*
X228364017Y-115654617D01*
X228474611Y-115519859D01*
X228542418Y-115393000D01*
X228556789Y-115366114D01*
X228607395Y-115199290D01*
X228612188Y-115150626D01*
X228620200Y-115069277D01*
X228620200Y-115069269D01*
X228624481Y-115025800D01*
X228620200Y-114982331D01*
X228620200Y-113005797D01*
X228950250Y-113004000D01*
X229109000Y-112845250D01*
X229109000Y-111646000D01*
X229089000Y-111646000D01*
X229089000Y-111392000D01*
X229109000Y-111392000D01*
X229109000Y-111372000D01*
X229363000Y-111372000D01*
X229363000Y-111392000D01*
G04 #@! TA.AperFunction,Conductor*
D22*
G36*
X229363000Y-111392000D02*
G01*
X229383000Y-111392000D01*
X229383000Y-111646000D01*
X229363000Y-111646000D01*
X229363000Y-112845250D01*
X229521750Y-113004000D01*
X229701301Y-113004978D01*
X229701301Y-118302597D01*
X228952998Y-119050901D01*
X228924000Y-119074699D01*
X228900202Y-119103697D01*
X228900201Y-119103698D01*
X228829026Y-119190424D01*
X228758454Y-119322454D01*
X228749514Y-119351928D01*
X228720911Y-119446223D01*
X228714998Y-119465715D01*
X228704572Y-119571575D01*
X228549241Y-119675363D01*
X228349363Y-119875241D01*
X228192320Y-120110273D01*
X228187933Y-120120865D01*
X228076385Y-119934869D01*
X227887414Y-119726481D01*
X227661420Y-119558963D01*
X227407087Y-119438754D01*
X227273039Y-119398096D01*
X227051000Y-119520085D01*
X227051000Y-120663000D01*
X227071000Y-120663000D01*
X227071000Y-120917000D01*
X227051000Y-120917000D01*
X227051000Y-122059915D01*
X227273039Y-122181904D01*
X227407087Y-122141246D01*
X227661420Y-122021037D01*
X227887414Y-121853519D01*
X228076385Y-121645131D01*
X228187933Y-121459135D01*
X228192320Y-121469727D01*
X228349363Y-121704759D01*
X228549241Y-121904637D01*
X228784273Y-122061680D01*
X229045426Y-122169853D01*
X229322665Y-122225000D01*
X229605335Y-122225000D01*
X229882574Y-122169853D01*
X230143727Y-122061680D01*
X230378759Y-121904637D01*
X230578637Y-121704759D01*
X230735680Y-121469727D01*
X230843853Y-121208574D01*
X230899000Y-120931335D01*
X230899000Y-120648665D01*
X230843853Y-120371426D01*
X230735680Y-120110273D01*
X230578637Y-119875241D01*
X230428449Y-119725053D01*
X230972303Y-119181199D01*
X231001301Y-119157401D01*
X231096274Y-119041676D01*
X231166846Y-118909647D01*
X231210303Y-118766386D01*
X231221300Y-118654733D01*
X231221300Y-118654724D01*
X231224976Y-118617401D01*
X231221300Y-118580078D01*
X231221300Y-118314237D01*
X231331426Y-118359853D01*
X231608665Y-118415000D01*
X231891335Y-118415000D01*
X232168574Y-118359853D01*
X232246500Y-118327575D01*
X232246501Y-136155697D01*
X230868000Y-137534198D01*
X230868000Y-137407740D01*
X230810932Y-137120842D01*
X230698990Y-136850589D01*
X230536475Y-136607368D01*
X230329632Y-136400525D01*
X230156271Y-136284689D01*
X230231792Y-136042397D01*
X229383000Y-135193605D01*
X229368858Y-135207748D01*
X229189253Y-135028143D01*
X229203395Y-135014000D01*
X229562605Y-135014000D01*
X230411397Y-135862792D01*
X230660472Y-135785157D01*
X230786371Y-135521117D01*
X230858339Y-135237589D01*
X230873611Y-134945469D01*
X230831599Y-134655981D01*
X230733919Y-134380253D01*
X230660472Y-134242843D01*
X230411397Y-134165208D01*
X229562605Y-135014000D01*
X229203395Y-135014000D01*
X229189253Y-134999858D01*
X229368858Y-134820253D01*
X229383000Y-134834395D01*
X230231792Y-133985603D01*
X230154157Y-133736528D01*
X229890117Y-133610629D01*
X229606589Y-133538661D01*
X229314469Y-133523389D01*
X229024981Y-133565401D01*
X228917500Y-133603477D01*
X228917500Y-131794836D01*
X228954320Y-131883727D01*
X229111363Y-132118759D01*
X229311241Y-132318637D01*
X229546273Y-132475680D01*
X229807426Y-132583853D01*
X230084665Y-132639000D01*
X230367335Y-132639000D01*
X230644574Y-132583853D01*
X230905727Y-132475680D01*
X231140759Y-132318637D01*
X231340637Y-132118759D01*
X231497680Y-131883727D01*
X231605853Y-131622574D01*
X231661000Y-131345335D01*
X231661000Y-131062665D01*
X231605853Y-130785426D01*
X231497680Y-130524273D01*
X231340637Y-130289241D01*
X231140759Y-130089363D01*
X230905727Y-129932320D01*
X230644574Y-129824147D01*
X230367335Y-129769000D01*
X230084665Y-129769000D01*
X229807426Y-129824147D01*
X229546273Y-129932320D01*
X229311241Y-130089363D01*
X229111363Y-130289241D01*
X228954320Y-130524273D01*
X228917500Y-130613164D01*
X228917500Y-129736864D01*
X229045426Y-129789853D01*
X229322665Y-129845000D01*
X229605335Y-129845000D01*
X229882574Y-129789853D01*
X230143727Y-129681680D01*
X230378759Y-129524637D01*
X230578637Y-129324759D01*
X230735680Y-129089727D01*
X230843853Y-128828574D01*
X230899000Y-128551335D01*
X230899000Y-128268665D01*
X230843853Y-127991426D01*
X230735680Y-127730273D01*
X230578637Y-127495241D01*
X230378759Y-127295363D01*
X230143727Y-127138320D01*
X229882574Y-127030147D01*
X229605335Y-126975000D01*
X229322665Y-126975000D01*
X229045426Y-127030147D01*
X228917500Y-127083136D01*
X228917500Y-125754225D01*
X228921176Y-125716900D01*
X228917500Y-125679575D01*
X228917500Y-125679567D01*
X228906503Y-125567914D01*
X228863046Y-125424653D01*
X228792474Y-125292624D01*
X228697501Y-125176899D01*
X228668504Y-125153102D01*
X226414000Y-122898599D01*
X226414000Y-122128526D01*
X226440913Y-122141246D01*
X226574961Y-122181904D01*
X226797000Y-122059915D01*
X226797000Y-120917000D01*
X226777000Y-120917000D01*
X226777000Y-120663000D01*
X226797000Y-120663000D01*
X226797000Y-119520085D01*
X226574961Y-119398096D01*
X226440913Y-119438754D01*
X226414000Y-119451474D01*
X226414000Y-119388623D01*
X226417676Y-119351300D01*
X226414000Y-119313977D01*
X226414000Y-119313967D01*
X226403003Y-119202314D01*
X226359546Y-119059053D01*
X226325651Y-118995641D01*
X226288974Y-118927023D01*
X226217799Y-118840297D01*
X226194001Y-118811299D01*
X226165004Y-118787502D01*
X226030551Y-118653049D01*
X226079727Y-118632680D01*
X226314759Y-118475637D01*
X226514637Y-118275759D01*
X226671680Y-118040727D01*
X226779853Y-117779574D01*
X226835000Y-117502335D01*
X226835000Y-117219665D01*
X226828017Y-117184561D01*
X228330249Y-115682330D01*
X228364017Y-115654617D01*
X228474611Y-115519859D01*
X228542418Y-115393000D01*
X228556789Y-115366114D01*
X228607395Y-115199290D01*
X228612188Y-115150626D01*
X228620200Y-115069277D01*
X228620200Y-115069269D01*
X228624481Y-115025800D01*
X228620200Y-114982331D01*
X228620200Y-113005797D01*
X228950250Y-113004000D01*
X229109000Y-112845250D01*
X229109000Y-111646000D01*
X229089000Y-111646000D01*
X229089000Y-111392000D01*
X229109000Y-111392000D01*
X229109000Y-111372000D01*
X229363000Y-111372000D01*
X229363000Y-111392000D01*
G37*
G04 #@! TD.AperFunction*
D21*
X212296525Y-99716632D02*
X212503368Y-99923475D01*
X212746589Y-100085990D01*
X213016842Y-100197932D01*
X213303740Y-100255000D01*
X213596260Y-100255000D01*
X213883158Y-100197932D01*
X214153411Y-100085990D01*
X214335393Y-99964394D01*
X220569376Y-106198378D01*
X220561928Y-106274000D01*
X220561928Y-107874000D01*
X220574188Y-107998482D01*
X220610498Y-108118180D01*
X220669463Y-108228494D01*
X220748815Y-108325185D01*
X220845506Y-108404537D01*
X220955820Y-108463502D01*
X221075518Y-108499812D01*
X221123546Y-108504542D01*
X221127805Y-108547790D01*
X221178412Y-108714613D01*
X221260590Y-108868359D01*
X221343468Y-108969346D01*
X221343471Y-108969349D01*
X221371184Y-109003117D01*
X221404951Y-109030829D01*
X223330515Y-110956394D01*
X223320147Y-110981426D01*
X223265000Y-111258665D01*
X223265000Y-111541335D01*
X223320147Y-111818574D01*
X223428320Y-112079727D01*
X223585363Y-112314759D01*
X223785241Y-112514637D01*
X224020273Y-112671680D01*
X224281426Y-112779853D01*
X224558665Y-112835000D01*
X224841335Y-112835000D01*
X225115401Y-112780484D01*
X225115401Y-113812397D01*
X223706003Y-115221796D01*
X223676999Y-115245599D01*
X223621871Y-115312774D01*
X223582026Y-115361324D01*
X223579466Y-115366114D01*
X223511454Y-115493354D01*
X223467997Y-115636615D01*
X223457000Y-115748268D01*
X223457000Y-115748278D01*
X223453324Y-115785600D01*
X223457000Y-115822923D01*
X223457001Y-117311122D01*
X218538581Y-112392702D01*
X218886903Y-112392702D01*
X218958486Y-112636671D01*
X219213996Y-112757571D01*
X219488184Y-112826300D01*
X219770512Y-112840217D01*
X220050130Y-112798787D01*
X220316292Y-112703603D01*
X220441514Y-112636671D01*
X220513097Y-112392702D01*
X219700000Y-111579605D01*
X218886903Y-112392702D01*
X218538581Y-112392702D01*
X217616391Y-111470512D01*
X218259783Y-111470512D01*
X218301213Y-111750130D01*
X218396397Y-112016292D01*
X218463329Y-112141514D01*
X218707298Y-112213097D01*
X219520395Y-111400000D01*
X219879605Y-111400000D01*
X220692702Y-112213097D01*
X220936671Y-112141514D01*
X221057571Y-111886004D01*
X221126300Y-111611816D01*
X221140217Y-111329488D01*
X221098787Y-111049870D01*
X221003603Y-110783708D01*
X220936671Y-110658486D01*
X220692702Y-110586903D01*
X219879605Y-111400000D01*
X219520395Y-111400000D01*
X218707298Y-110586903D01*
X218463329Y-110658486D01*
X218342429Y-110913996D01*
X218273700Y-111188184D01*
X218259783Y-111470512D01*
X217616391Y-111470512D01*
X216553177Y-110407298D01*
X218886903Y-110407298D01*
X219700000Y-111220395D01*
X220513097Y-110407298D01*
X220441514Y-110163329D01*
X220186004Y-110042429D01*
X219911816Y-109973700D01*
X219629488Y-109959783D01*
X219349870Y-110001213D01*
X219083708Y-110096397D01*
X218958486Y-110163329D01*
X218886903Y-110407298D01*
X216553177Y-110407298D01*
X210444600Y-104298722D01*
X210444600Y-103582193D01*
X210915000Y-103582193D01*
X210915000Y-103933807D01*
X210983596Y-104278665D01*
X211118153Y-104603515D01*
X211313500Y-104895871D01*
X211562129Y-105144500D01*
X211854485Y-105339847D01*
X212179335Y-105474404D01*
X212524193Y-105543000D01*
X212875807Y-105543000D01*
X213220665Y-105474404D01*
X213545515Y-105339847D01*
X213764424Y-105193576D01*
X213618153Y-105412485D01*
X213483596Y-105737335D01*
X213415000Y-106082193D01*
X213415000Y-106433807D01*
X213483596Y-106778665D01*
X213618153Y-107103515D01*
X213813500Y-107395871D01*
X214062129Y-107644500D01*
X214354485Y-107839847D01*
X214679335Y-107974404D01*
X215024193Y-108043000D01*
X215375807Y-108043000D01*
X215720665Y-107974404D01*
X216045515Y-107839847D01*
X216337871Y-107644500D01*
X216586500Y-107395871D01*
X216781847Y-107103515D01*
X216916404Y-106778665D01*
X216985000Y-106433807D01*
X216985000Y-106082193D01*
X216916404Y-105737335D01*
X216781847Y-105412485D01*
X216586500Y-105120129D01*
X216337871Y-104871500D01*
X216045515Y-104676153D01*
X215720665Y-104541596D01*
X215375807Y-104473000D01*
X215024193Y-104473000D01*
X214679335Y-104541596D01*
X214354485Y-104676153D01*
X214135576Y-104822424D01*
X214281847Y-104603515D01*
X214416404Y-104278665D01*
X214485000Y-103933807D01*
X214485000Y-103582193D01*
X214416404Y-103237335D01*
X214281847Y-102912485D01*
X214086500Y-102620129D01*
X213837871Y-102371500D01*
X213545515Y-102176153D01*
X213220665Y-102041596D01*
X212875807Y-101973000D01*
X212524193Y-101973000D01*
X212179335Y-102041596D01*
X211854485Y-102176153D01*
X211562129Y-102371500D01*
X211313500Y-102620129D01*
X211118153Y-102912485D01*
X210983596Y-103237335D01*
X210915000Y-103582193D01*
X210444600Y-103582193D01*
X210444600Y-101353365D01*
X210448881Y-101309899D01*
X210444600Y-101266433D01*
X210444600Y-101266423D01*
X210431795Y-101136410D01*
X210381189Y-100969587D01*
X210299011Y-100815841D01*
X210216537Y-100715347D01*
X210216132Y-100714853D01*
X210216130Y-100714851D01*
X210188417Y-100681083D01*
X210154649Y-100653370D01*
X209616963Y-100115684D01*
X209671185Y-100071185D01*
X209750537Y-99974494D01*
X209809502Y-99864180D01*
X209831513Y-99791620D01*
X209963368Y-99923475D01*
X210206589Y-100085990D01*
X210476842Y-100197932D01*
X210763740Y-100255000D01*
X211056260Y-100255000D01*
X211343158Y-100197932D01*
X211613411Y-100085990D01*
X211856632Y-99923475D01*
X212063475Y-99716632D01*
X212180000Y-99542240D01*
X212296525Y-99716632D01*
G04 #@! TA.AperFunction,Conductor*
D22*
G36*
X212296525Y-99716632D02*
G01*
X212503368Y-99923475D01*
X212746589Y-100085990D01*
X213016842Y-100197932D01*
X213303740Y-100255000D01*
X213596260Y-100255000D01*
X213883158Y-100197932D01*
X214153411Y-100085990D01*
X214335393Y-99964394D01*
X220569376Y-106198378D01*
X220561928Y-106274000D01*
X220561928Y-107874000D01*
X220574188Y-107998482D01*
X220610498Y-108118180D01*
X220669463Y-108228494D01*
X220748815Y-108325185D01*
X220845506Y-108404537D01*
X220955820Y-108463502D01*
X221075518Y-108499812D01*
X221123546Y-108504542D01*
X221127805Y-108547790D01*
X221178412Y-108714613D01*
X221260590Y-108868359D01*
X221343468Y-108969346D01*
X221343471Y-108969349D01*
X221371184Y-109003117D01*
X221404951Y-109030829D01*
X223330515Y-110956394D01*
X223320147Y-110981426D01*
X223265000Y-111258665D01*
X223265000Y-111541335D01*
X223320147Y-111818574D01*
X223428320Y-112079727D01*
X223585363Y-112314759D01*
X223785241Y-112514637D01*
X224020273Y-112671680D01*
X224281426Y-112779853D01*
X224558665Y-112835000D01*
X224841335Y-112835000D01*
X225115401Y-112780484D01*
X225115401Y-113812397D01*
X223706003Y-115221796D01*
X223676999Y-115245599D01*
X223621871Y-115312774D01*
X223582026Y-115361324D01*
X223579466Y-115366114D01*
X223511454Y-115493354D01*
X223467997Y-115636615D01*
X223457000Y-115748268D01*
X223457000Y-115748278D01*
X223453324Y-115785600D01*
X223457000Y-115822923D01*
X223457001Y-117311122D01*
X218538581Y-112392702D01*
X218886903Y-112392702D01*
X218958486Y-112636671D01*
X219213996Y-112757571D01*
X219488184Y-112826300D01*
X219770512Y-112840217D01*
X220050130Y-112798787D01*
X220316292Y-112703603D01*
X220441514Y-112636671D01*
X220513097Y-112392702D01*
X219700000Y-111579605D01*
X218886903Y-112392702D01*
X218538581Y-112392702D01*
X217616391Y-111470512D01*
X218259783Y-111470512D01*
X218301213Y-111750130D01*
X218396397Y-112016292D01*
X218463329Y-112141514D01*
X218707298Y-112213097D01*
X219520395Y-111400000D01*
X219879605Y-111400000D01*
X220692702Y-112213097D01*
X220936671Y-112141514D01*
X221057571Y-111886004D01*
X221126300Y-111611816D01*
X221140217Y-111329488D01*
X221098787Y-111049870D01*
X221003603Y-110783708D01*
X220936671Y-110658486D01*
X220692702Y-110586903D01*
X219879605Y-111400000D01*
X219520395Y-111400000D01*
X218707298Y-110586903D01*
X218463329Y-110658486D01*
X218342429Y-110913996D01*
X218273700Y-111188184D01*
X218259783Y-111470512D01*
X217616391Y-111470512D01*
X216553177Y-110407298D01*
X218886903Y-110407298D01*
X219700000Y-111220395D01*
X220513097Y-110407298D01*
X220441514Y-110163329D01*
X220186004Y-110042429D01*
X219911816Y-109973700D01*
X219629488Y-109959783D01*
X219349870Y-110001213D01*
X219083708Y-110096397D01*
X218958486Y-110163329D01*
X218886903Y-110407298D01*
X216553177Y-110407298D01*
X210444600Y-104298722D01*
X210444600Y-103582193D01*
X210915000Y-103582193D01*
X210915000Y-103933807D01*
X210983596Y-104278665D01*
X211118153Y-104603515D01*
X211313500Y-104895871D01*
X211562129Y-105144500D01*
X211854485Y-105339847D01*
X212179335Y-105474404D01*
X212524193Y-105543000D01*
X212875807Y-105543000D01*
X213220665Y-105474404D01*
X213545515Y-105339847D01*
X213764424Y-105193576D01*
X213618153Y-105412485D01*
X213483596Y-105737335D01*
X213415000Y-106082193D01*
X213415000Y-106433807D01*
X213483596Y-106778665D01*
X213618153Y-107103515D01*
X213813500Y-107395871D01*
X214062129Y-107644500D01*
X214354485Y-107839847D01*
X214679335Y-107974404D01*
X215024193Y-108043000D01*
X215375807Y-108043000D01*
X215720665Y-107974404D01*
X216045515Y-107839847D01*
X216337871Y-107644500D01*
X216586500Y-107395871D01*
X216781847Y-107103515D01*
X216916404Y-106778665D01*
X216985000Y-106433807D01*
X216985000Y-106082193D01*
X216916404Y-105737335D01*
X216781847Y-105412485D01*
X216586500Y-105120129D01*
X216337871Y-104871500D01*
X216045515Y-104676153D01*
X215720665Y-104541596D01*
X215375807Y-104473000D01*
X215024193Y-104473000D01*
X214679335Y-104541596D01*
X214354485Y-104676153D01*
X214135576Y-104822424D01*
X214281847Y-104603515D01*
X214416404Y-104278665D01*
X214485000Y-103933807D01*
X214485000Y-103582193D01*
X214416404Y-103237335D01*
X214281847Y-102912485D01*
X214086500Y-102620129D01*
X213837871Y-102371500D01*
X213545515Y-102176153D01*
X213220665Y-102041596D01*
X212875807Y-101973000D01*
X212524193Y-101973000D01*
X212179335Y-102041596D01*
X211854485Y-102176153D01*
X211562129Y-102371500D01*
X211313500Y-102620129D01*
X211118153Y-102912485D01*
X210983596Y-103237335D01*
X210915000Y-103582193D01*
X210444600Y-103582193D01*
X210444600Y-101353365D01*
X210448881Y-101309899D01*
X210444600Y-101266433D01*
X210444600Y-101266423D01*
X210431795Y-101136410D01*
X210381189Y-100969587D01*
X210299011Y-100815841D01*
X210216537Y-100715347D01*
X210216132Y-100714853D01*
X210216130Y-100714851D01*
X210188417Y-100681083D01*
X210154649Y-100653370D01*
X209616963Y-100115684D01*
X209671185Y-100071185D01*
X209750537Y-99974494D01*
X209809502Y-99864180D01*
X209831513Y-99791620D01*
X209963368Y-99923475D01*
X210206589Y-100085990D01*
X210476842Y-100197932D01*
X210763740Y-100255000D01*
X211056260Y-100255000D01*
X211343158Y-100197932D01*
X211613411Y-100085990D01*
X211856632Y-99923475D01*
X212063475Y-99716632D01*
X212180000Y-99542240D01*
X212296525Y-99716632D01*
G37*
G04 #@! TD.AperFunction*
D21*
X227536525Y-99716632D02*
X227689307Y-99869414D01*
X227140156Y-100418566D01*
X227106383Y-100446283D01*
X226995789Y-100581042D01*
X226913611Y-100734788D01*
X226863005Y-100901611D01*
X226850200Y-101031624D01*
X226850200Y-101031631D01*
X226845919Y-101075100D01*
X226850200Y-101118569D01*
X226850201Y-114659220D01*
X225576439Y-115932983D01*
X225541335Y-115926000D01*
X225258665Y-115926000D01*
X225124767Y-115952634D01*
X226386403Y-114690999D01*
X226415401Y-114667201D01*
X226510374Y-114551476D01*
X226580946Y-114419447D01*
X226624403Y-114276186D01*
X226635400Y-114164533D01*
X226635400Y-114164525D01*
X226639076Y-114127200D01*
X226635400Y-114089875D01*
X226635400Y-105759725D01*
X226639076Y-105722402D01*
X226635400Y-105685079D01*
X226635400Y-105685069D01*
X226624403Y-105573416D01*
X226580946Y-105430155D01*
X226531793Y-105338197D01*
X226510374Y-105298125D01*
X226439199Y-105211399D01*
X226415401Y-105182401D01*
X226386404Y-105158604D01*
X223055300Y-101827501D01*
X223055300Y-100147588D01*
X223176842Y-100197932D01*
X223463740Y-100255000D01*
X223756260Y-100255000D01*
X224043158Y-100197932D01*
X224313411Y-100085990D01*
X224556632Y-99923475D01*
X224763475Y-99716632D01*
X224880000Y-99542240D01*
X224996525Y-99716632D01*
X225203368Y-99923475D01*
X225446589Y-100085990D01*
X225716842Y-100197932D01*
X226003740Y-100255000D01*
X226296260Y-100255000D01*
X226583158Y-100197932D01*
X226853411Y-100085990D01*
X227096632Y-99923475D01*
X227303475Y-99716632D01*
X227420000Y-99542240D01*
X227536525Y-99716632D01*
G04 #@! TA.AperFunction,Conductor*
D22*
G36*
X227536525Y-99716632D02*
G01*
X227689307Y-99869414D01*
X227140156Y-100418566D01*
X227106383Y-100446283D01*
X226995789Y-100581042D01*
X226913611Y-100734788D01*
X226863005Y-100901611D01*
X226850200Y-101031624D01*
X226850200Y-101031631D01*
X226845919Y-101075100D01*
X226850200Y-101118569D01*
X226850201Y-114659220D01*
X225576439Y-115932983D01*
X225541335Y-115926000D01*
X225258665Y-115926000D01*
X225124767Y-115952634D01*
X226386403Y-114690999D01*
X226415401Y-114667201D01*
X226510374Y-114551476D01*
X226580946Y-114419447D01*
X226624403Y-114276186D01*
X226635400Y-114164533D01*
X226635400Y-114164525D01*
X226639076Y-114127200D01*
X226635400Y-114089875D01*
X226635400Y-105759725D01*
X226639076Y-105722402D01*
X226635400Y-105685079D01*
X226635400Y-105685069D01*
X226624403Y-105573416D01*
X226580946Y-105430155D01*
X226531793Y-105338197D01*
X226510374Y-105298125D01*
X226439199Y-105211399D01*
X226415401Y-105182401D01*
X226386404Y-105158604D01*
X223055300Y-101827501D01*
X223055300Y-100147588D01*
X223176842Y-100197932D01*
X223463740Y-100255000D01*
X223756260Y-100255000D01*
X224043158Y-100197932D01*
X224313411Y-100085990D01*
X224556632Y-99923475D01*
X224763475Y-99716632D01*
X224880000Y-99542240D01*
X224996525Y-99716632D01*
X225203368Y-99923475D01*
X225446589Y-100085990D01*
X225716842Y-100197932D01*
X226003740Y-100255000D01*
X226296260Y-100255000D01*
X226583158Y-100197932D01*
X226853411Y-100085990D01*
X227096632Y-99923475D01*
X227303475Y-99716632D01*
X227420000Y-99542240D01*
X227536525Y-99716632D01*
G37*
G04 #@! TD.AperFunction*
D21*
X238977000Y-98643000D02*
X238997000Y-98643000D01*
X238997000Y-98897000D01*
X238977000Y-98897000D01*
X238977000Y-100090155D01*
X239206890Y-100211476D01*
X239354099Y-100166825D01*
X239616920Y-100041641D01*
X239850269Y-99867588D01*
X240045178Y-99651355D01*
X240114805Y-99534466D01*
X240236525Y-99716632D01*
X240443368Y-99923475D01*
X240686589Y-100085990D01*
X240956842Y-100197932D01*
X241243740Y-100255000D01*
X241536260Y-100255000D01*
X241823158Y-100197932D01*
X242093411Y-100085990D01*
X242336632Y-99923475D01*
X242543475Y-99716632D01*
X242660000Y-99542240D01*
X242776525Y-99716632D01*
X242983368Y-99923475D01*
X243226589Y-100085990D01*
X243496842Y-100197932D01*
X243783740Y-100255000D01*
X244076260Y-100255000D01*
X244363158Y-100197932D01*
X244633411Y-100085990D01*
X244876632Y-99923475D01*
X245083475Y-99716632D01*
X245200000Y-99542240D01*
X245316525Y-99716632D01*
X245523368Y-99923475D01*
X245766589Y-100085990D01*
X246036842Y-100197932D01*
X246323740Y-100255000D01*
X246616260Y-100255000D01*
X246903158Y-100197932D01*
X247173411Y-100085990D01*
X247416632Y-99923475D01*
X247623475Y-99716632D01*
X247740000Y-99542240D01*
X247856525Y-99716632D01*
X248063368Y-99923475D01*
X248306589Y-100085990D01*
X248399870Y-100124628D01*
X232661388Y-115863111D01*
X232429727Y-115708320D01*
X232168574Y-115600147D01*
X231891335Y-115545000D01*
X231608665Y-115545000D01*
X231331426Y-115600147D01*
X231221300Y-115645763D01*
X231221300Y-100255000D01*
X231376260Y-100255000D01*
X231663158Y-100197932D01*
X231933411Y-100085990D01*
X232176632Y-99923475D01*
X232383475Y-99716632D01*
X232500000Y-99542240D01*
X232616525Y-99716632D01*
X232823368Y-99923475D01*
X233066589Y-100085990D01*
X233336842Y-100197932D01*
X233623740Y-100255000D01*
X233916260Y-100255000D01*
X234203158Y-100197932D01*
X234473411Y-100085990D01*
X234716632Y-99923475D01*
X234923475Y-99716632D01*
X235040000Y-99542240D01*
X235156525Y-99716632D01*
X235363368Y-99923475D01*
X235606589Y-100085990D01*
X235876842Y-100197932D01*
X236163740Y-100255000D01*
X236456260Y-100255000D01*
X236743158Y-100197932D01*
X237013411Y-100085990D01*
X237256632Y-99923475D01*
X237463475Y-99716632D01*
X237585195Y-99534466D01*
X237654822Y-99651355D01*
X237849731Y-99867588D01*
X238083080Y-100041641D01*
X238345901Y-100166825D01*
X238493110Y-100211476D01*
X238723000Y-100090155D01*
X238723000Y-98897000D01*
X238703000Y-98897000D01*
X238703000Y-98643000D01*
X238723000Y-98643000D01*
X238723000Y-98623000D01*
X238977000Y-98623000D01*
X238977000Y-98643000D01*
G04 #@! TA.AperFunction,Conductor*
D22*
G36*
X238977000Y-98643000D02*
G01*
X238997000Y-98643000D01*
X238997000Y-98897000D01*
X238977000Y-98897000D01*
X238977000Y-100090155D01*
X239206890Y-100211476D01*
X239354099Y-100166825D01*
X239616920Y-100041641D01*
X239850269Y-99867588D01*
X240045178Y-99651355D01*
X240114805Y-99534466D01*
X240236525Y-99716632D01*
X240443368Y-99923475D01*
X240686589Y-100085990D01*
X240956842Y-100197932D01*
X241243740Y-100255000D01*
X241536260Y-100255000D01*
X241823158Y-100197932D01*
X242093411Y-100085990D01*
X242336632Y-99923475D01*
X242543475Y-99716632D01*
X242660000Y-99542240D01*
X242776525Y-99716632D01*
X242983368Y-99923475D01*
X243226589Y-100085990D01*
X243496842Y-100197932D01*
X243783740Y-100255000D01*
X244076260Y-100255000D01*
X244363158Y-100197932D01*
X244633411Y-100085990D01*
X244876632Y-99923475D01*
X245083475Y-99716632D01*
X245200000Y-99542240D01*
X245316525Y-99716632D01*
X245523368Y-99923475D01*
X245766589Y-100085990D01*
X246036842Y-100197932D01*
X246323740Y-100255000D01*
X246616260Y-100255000D01*
X246903158Y-100197932D01*
X247173411Y-100085990D01*
X247416632Y-99923475D01*
X247623475Y-99716632D01*
X247740000Y-99542240D01*
X247856525Y-99716632D01*
X248063368Y-99923475D01*
X248306589Y-100085990D01*
X248399870Y-100124628D01*
X232661388Y-115863111D01*
X232429727Y-115708320D01*
X232168574Y-115600147D01*
X231891335Y-115545000D01*
X231608665Y-115545000D01*
X231331426Y-115600147D01*
X231221300Y-115645763D01*
X231221300Y-100255000D01*
X231376260Y-100255000D01*
X231663158Y-100197932D01*
X231933411Y-100085990D01*
X232176632Y-99923475D01*
X232383475Y-99716632D01*
X232500000Y-99542240D01*
X232616525Y-99716632D01*
X232823368Y-99923475D01*
X233066589Y-100085990D01*
X233336842Y-100197932D01*
X233623740Y-100255000D01*
X233916260Y-100255000D01*
X234203158Y-100197932D01*
X234473411Y-100085990D01*
X234716632Y-99923475D01*
X234923475Y-99716632D01*
X235040000Y-99542240D01*
X235156525Y-99716632D01*
X235363368Y-99923475D01*
X235606589Y-100085990D01*
X235876842Y-100197932D01*
X236163740Y-100255000D01*
X236456260Y-100255000D01*
X236743158Y-100197932D01*
X237013411Y-100085990D01*
X237256632Y-99923475D01*
X237463475Y-99716632D01*
X237585195Y-99534466D01*
X237654822Y-99651355D01*
X237849731Y-99867588D01*
X238083080Y-100041641D01*
X238345901Y-100166825D01*
X238493110Y-100211476D01*
X238723000Y-100090155D01*
X238723000Y-98897000D01*
X238703000Y-98897000D01*
X238703000Y-98643000D01*
X238723000Y-98643000D01*
X238723000Y-98623000D01*
X238977000Y-98623000D01*
X238977000Y-98643000D01*
G37*
G04 #@! TD.AperFunction*
D21*
X218657000Y-98643000D02*
X218677000Y-98643000D01*
X218677000Y-98897000D01*
X218657000Y-98897000D01*
X218657000Y-100090155D01*
X218886890Y-100211476D01*
X219034099Y-100166825D01*
X219296920Y-100041641D01*
X219530269Y-99867588D01*
X219725178Y-99651355D01*
X219794805Y-99534466D01*
X219916525Y-99716632D01*
X220123368Y-99923475D01*
X220366589Y-100085990D01*
X220636842Y-100197932D01*
X220923740Y-100255000D01*
X221216260Y-100255000D01*
X221503158Y-100197932D01*
X221535301Y-100184618D01*
X221535301Y-102104970D01*
X221531624Y-102142302D01*
X221538778Y-102214941D01*
X221383708Y-102270397D01*
X221258486Y-102337329D01*
X221186903Y-102581298D01*
X222000000Y-103394395D01*
X222014143Y-103380253D01*
X222193748Y-103559858D01*
X222179605Y-103574000D01*
X222992702Y-104387097D01*
X223236671Y-104315514D01*
X223287111Y-104208914D01*
X225115400Y-106037204D01*
X225115400Y-106617724D01*
X225091515Y-106560060D01*
X224972775Y-106382353D01*
X224821647Y-106231225D01*
X224643940Y-106112485D01*
X224446483Y-106030696D01*
X224271741Y-105995938D01*
X223614006Y-105338202D01*
X223590203Y-105309199D01*
X223474478Y-105214226D01*
X223342449Y-105143654D01*
X223199188Y-105100197D01*
X223087535Y-105089200D01*
X223087524Y-105089200D01*
X223050202Y-105085524D01*
X223012880Y-105089200D01*
X221609802Y-105089200D01*
X221396647Y-104876045D01*
X221513996Y-104931571D01*
X221788184Y-105000300D01*
X222070512Y-105014217D01*
X222350130Y-104972787D01*
X222616292Y-104877603D01*
X222741514Y-104810671D01*
X222813097Y-104566702D01*
X222000000Y-103753605D01*
X221985858Y-103767748D01*
X221806253Y-103588143D01*
X221820395Y-103574000D01*
X221007298Y-102760903D01*
X220763329Y-102832486D01*
X220642429Y-103087996D01*
X220573700Y-103362184D01*
X220559783Y-103644512D01*
X220601213Y-103924130D01*
X220688327Y-104167725D01*
X216632020Y-100111419D01*
X216693411Y-100085990D01*
X216936632Y-99923475D01*
X217143475Y-99716632D01*
X217265195Y-99534466D01*
X217334822Y-99651355D01*
X217529731Y-99867588D01*
X217763080Y-100041641D01*
X218025901Y-100166825D01*
X218173110Y-100211476D01*
X218403000Y-100090155D01*
X218403000Y-98897000D01*
X218383000Y-98897000D01*
X218383000Y-98643000D01*
X218403000Y-98643000D01*
X218403000Y-98623000D01*
X218657000Y-98623000D01*
X218657000Y-98643000D01*
G04 #@! TA.AperFunction,Conductor*
D22*
G36*
X218657000Y-98643000D02*
G01*
X218677000Y-98643000D01*
X218677000Y-98897000D01*
X218657000Y-98897000D01*
X218657000Y-100090155D01*
X218886890Y-100211476D01*
X219034099Y-100166825D01*
X219296920Y-100041641D01*
X219530269Y-99867588D01*
X219725178Y-99651355D01*
X219794805Y-99534466D01*
X219916525Y-99716632D01*
X220123368Y-99923475D01*
X220366589Y-100085990D01*
X220636842Y-100197932D01*
X220923740Y-100255000D01*
X221216260Y-100255000D01*
X221503158Y-100197932D01*
X221535301Y-100184618D01*
X221535301Y-102104970D01*
X221531624Y-102142302D01*
X221538778Y-102214941D01*
X221383708Y-102270397D01*
X221258486Y-102337329D01*
X221186903Y-102581298D01*
X222000000Y-103394395D01*
X222014143Y-103380253D01*
X222193748Y-103559858D01*
X222179605Y-103574000D01*
X222992702Y-104387097D01*
X223236671Y-104315514D01*
X223287111Y-104208914D01*
X225115400Y-106037204D01*
X225115400Y-106617724D01*
X225091515Y-106560060D01*
X224972775Y-106382353D01*
X224821647Y-106231225D01*
X224643940Y-106112485D01*
X224446483Y-106030696D01*
X224271741Y-105995938D01*
X223614006Y-105338202D01*
X223590203Y-105309199D01*
X223474478Y-105214226D01*
X223342449Y-105143654D01*
X223199188Y-105100197D01*
X223087535Y-105089200D01*
X223087524Y-105089200D01*
X223050202Y-105085524D01*
X223012880Y-105089200D01*
X221609802Y-105089200D01*
X221396647Y-104876045D01*
X221513996Y-104931571D01*
X221788184Y-105000300D01*
X222070512Y-105014217D01*
X222350130Y-104972787D01*
X222616292Y-104877603D01*
X222741514Y-104810671D01*
X222813097Y-104566702D01*
X222000000Y-103753605D01*
X221985858Y-103767748D01*
X221806253Y-103588143D01*
X221820395Y-103574000D01*
X221007298Y-102760903D01*
X220763329Y-102832486D01*
X220642429Y-103087996D01*
X220573700Y-103362184D01*
X220559783Y-103644512D01*
X220601213Y-103924130D01*
X220688327Y-104167725D01*
X216632020Y-100111419D01*
X216693411Y-100085990D01*
X216936632Y-99923475D01*
X217143475Y-99716632D01*
X217265195Y-99534466D01*
X217334822Y-99651355D01*
X217529731Y-99867588D01*
X217763080Y-100041641D01*
X218025901Y-100166825D01*
X218173110Y-100211476D01*
X218403000Y-100090155D01*
X218403000Y-98897000D01*
X218383000Y-98897000D01*
X218383000Y-98643000D01*
X218403000Y-98643000D01*
X218403000Y-98623000D01*
X218657000Y-98623000D01*
X218657000Y-98643000D01*
G37*
G04 #@! TD.AperFunction*
D21*
X223737000Y-96103000D02*
X223757000Y-96103000D01*
X223757000Y-96357000D01*
X223737000Y-96357000D01*
X223737000Y-96377000D01*
X223483000Y-96377000D01*
X223483000Y-96357000D01*
X223463000Y-96357000D01*
X223463000Y-96103000D01*
X223483000Y-96103000D01*
X223483000Y-96083000D01*
X223737000Y-96083000D01*
X223737000Y-96103000D01*
G04 #@! TA.AperFunction,Conductor*
D22*
G36*
X223737000Y-96103000D02*
G01*
X223757000Y-96103000D01*
X223757000Y-96357000D01*
X223737000Y-96357000D01*
X223737000Y-96377000D01*
X223483000Y-96377000D01*
X223483000Y-96357000D01*
X223463000Y-96357000D01*
X223463000Y-96103000D01*
X223483000Y-96103000D01*
X223483000Y-96083000D01*
X223737000Y-96083000D01*
X223737000Y-96103000D01*
G37*
G04 #@! TD.AperFunction*
M02*
